<svg width="40" height="40" viewBox="0 0 40 40" fill="none" xmlns="http://www.w3.org/2000/svg">
<path fill-rule="evenodd" clip-rule="evenodd" d="M36.7678 15.7322C37.2366 16.2011 37.5 16.837 37.5 17.5V37.5H2.5V5C2.5 4.33696 2.76339 3.70107 3.23223 3.23223C3.70107 2.76339 4.33696 2.5 5 2.5H25C25.663 2.5 26.2989 2.76339 26.7678 3.23223C27.2366 3.70107 27.5 4.33696 27.5 5V15H35C35.663 15 36.2989 15.2634 36.7678 15.7322ZM25 5H5V35H25V5ZM27.5 17.5V35H35V17.5H27.5ZM12.5 10H10V15H12.5V10ZM12.5 17.5H10V22.5H12.5V17.5ZM17.5 10H20V15H17.5V10ZM20 17.5H17.5V22.5H20V17.5ZM10 25H12.5V30H10V25ZM20 25H17.5V30H20V25Z" fill="#5D7A74"/>
</svg>
