<svg width="20" height="21" viewBox="0 0 20 21" fill="none" xmlns="http://www.w3.org/2000/svg">
<path fill-rule="evenodd" clip-rule="evenodd" d="M11.0875 19.25L10 18.625L12.5 14.25H16.25C16.5815 14.25 16.8995 14.1183 17.1339 13.8839C17.3683 13.6495 17.5 13.3315 17.5 13V5.5C17.5 5.16848 17.3683 4.85054 17.1339 4.61612C16.8995 4.3817 16.5815 4.25 16.25 4.25H3.75C3.41848 4.25 3.10054 4.3817 2.86612 4.61612C2.6317 4.85054 2.5 5.16848 2.5 5.5V13C2.5 13.3315 2.6317 13.6495 2.86612 13.8839C3.10054 14.1183 3.41848 14.25 3.75 14.25H9.375V15.5H3.75C3.08696 15.5 2.45107 15.2366 1.98223 14.7678C1.51339 14.2989 1.25 13.663 1.25 13V5.5C1.25 4.83696 1.51339 4.20107 1.98223 3.73223C2.45107 3.26339 3.08696 3 3.75 3H16.25C16.913 3 17.5489 3.26339 18.0178 3.73223C18.4866 4.20107 18.75 4.83696 18.75 5.5V13C18.75 13.663 18.4866 14.2989 18.0178 14.7678C17.5489 15.2366 16.913 15.5 16.25 15.5H13.225L11.0875 19.25ZM15 6.75H5V8H15V6.75ZM5 10.5H11.25V11.75H5V10.5Z" fill="#BCBFDB"/>
<path fill-rule="evenodd" clip-rule="evenodd" d="M11.0875 19.25L10 18.625L12.5 14.25H16.25C16.5815 14.25 16.8995 14.1183 17.1339 13.8839C17.3683 13.6495 17.5 13.3315 17.5 13V5.5C17.5 5.16848 17.3683 4.85054 17.1339 4.61612C16.8995 4.3817 16.5815 4.25 16.25 4.25H3.75C3.41848 4.25 3.10054 4.3817 2.86612 4.61612C2.6317 4.85054 2.5 5.16848 2.5 5.5V13C2.5 13.3315 2.6317 13.6495 2.86612 13.8839C3.10054 14.1183 3.41848 14.25 3.75 14.25H9.375V15.5H3.75C3.08696 15.5 2.45107 15.2366 1.98223 14.7678C1.51339 14.2989 1.25 13.663 1.25 13V5.5C1.25 4.83696 1.51339 4.20107 1.98223 3.73223C2.45107 3.26339 3.08696 3 3.75 3H16.25C16.913 3 17.5489 3.26339 18.0178 3.73223C18.4866 4.20107 18.75 4.83696 18.75 5.5V13C18.75 13.663 18.4866 14.2989 18.0178 14.7678C17.5489 15.2366 16.913 15.5 16.25 15.5H13.225L11.0875 19.25ZM15 6.75H5V8H15V6.75ZM5 10.5H11.25V11.75H5V10.5Z" fill="black" fill-opacity="0.4"/>
</svg>
