<svg width="40" height="40" viewBox="0 0 40 40" fill="none" xmlns="http://www.w3.org/2000/svg">
<path d="M32.5002 36.25H32.2877C7.72519 34.8375 4.23769 14.1125 3.75019 7.7875C3.71091 7.29573 3.76905 6.80103 3.92128 6.33176C4.07351 5.8625 4.31685 5.42788 4.63733 5.05282C4.95782 4.67775 5.34917 4.36961 5.78895 4.14605C6.22873 3.92249 6.7083 3.7879 7.20019 3.75H14.0877C14.5884 3.74952 15.0777 3.89939 15.4922 4.1802C15.9068 4.46102 16.2274 4.85984 16.4127 5.325L18.3127 10C18.4956 10.4544 18.541 10.9526 18.4432 11.4326C18.3455 11.9126 18.1088 12.3533 17.7627 12.7L15.1002 15.3875C15.5161 17.7509 16.6479 19.9296 18.3426 21.6287C20.0372 23.3278 22.2129 24.4654 24.5752 24.8875L27.2877 22.2C27.6396 21.8577 28.0844 21.6266 28.5668 21.5354C29.0492 21.4443 29.5477 21.4972 30.0002 21.6875L34.7127 23.575C35.1708 23.7661 35.5617 24.0893 35.8355 24.5033C36.1093 24.9174 36.2537 25.4036 36.2502 25.9V32.5C36.2502 33.4946 35.8551 34.4484 35.1518 35.1517C34.4486 35.8549 33.4947 36.25 32.5002 36.25ZM7.50019 6.25C7.16867 6.25 6.85072 6.3817 6.6163 6.61612C6.38188 6.85054 6.25019 7.16848 6.25019 7.5V7.6C6.82519 15 10.5127 32.5 32.4252 33.75C32.5894 33.7601 32.754 33.7378 32.9096 33.6842C33.0651 33.6306 33.2086 33.5468 33.3317 33.4376C33.4548 33.3285 33.5551 33.1961 33.6269 33.048C33.6987 32.9 33.7406 32.7393 33.7502 32.575V25.9L29.0377 24.0125L25.4502 27.575L24.8502 27.5C13.9752 26.1375 12.5002 15.2625 12.5002 15.15L12.4252 14.55L15.9752 10.9625L14.1002 6.25H7.50019Z" fill="#5D7A74"/>
</svg>
