<svg width="20" height="20" viewBox="0 0 20 20" fill="none" xmlns="http://www.w3.org/2000/svg">
<path d="M17.3184 2.68123C17.234 2.59727 17.1275 2.53915 17.0112 2.51368C16.895 2.48822 16.7739 2.49647 16.6621 2.53748L2.91213 7.53748C2.79355 7.58246 2.69146 7.66245 2.61942 7.76682C2.54737 7.8712 2.50879 7.99503 2.50879 8.12185C2.50879 8.24868 2.54737 8.3725 2.61942 8.47688C2.69146 8.58126 2.79355 8.66125 2.91213 8.70623L8.28088 10.85L12.2434 6.87498L13.1246 7.75623L9.14338 11.7375L11.2934 17.1062C11.3397 17.2225 11.4199 17.3222 11.5235 17.3924C11.6271 17.4626 11.7495 17.5001 11.8746 17.5C12.0009 17.4974 12.1235 17.4566 12.2261 17.3829C12.3288 17.3093 12.4067 17.2063 12.4496 17.0875L17.4496 3.33748C17.4922 3.2269 17.5025 3.1065 17.4792 2.99031C17.456 2.87411 17.4002 2.76692 17.3184 2.68123Z" fill="#3D6059"/>
</svg>
