<svg width="20" height="20" viewBox="0 0 20 20" fill="none" xmlns="http://www.w3.org/2000/svg">
<path fill-rule="evenodd" clip-rule="evenodd" d="M11.7362 3.02666C11.2223 2.68328 10.6181 2.5 10 2.5C9.1712 2.5 8.37634 2.82924 7.79029 3.41529C7.20424 4.00134 6.875 4.7962 6.875 5.625C6.875 6.24307 7.05828 6.84725 7.40166 7.36116C7.74504 7.87506 8.2331 8.2756 8.80412 8.51212C9.37514 8.74865 10.0035 8.81053 10.6097 8.68995C11.2159 8.56938 11.7727 8.27175 12.2097 7.83471C12.6467 7.39767 12.9444 6.84085 13.065 6.23466C13.1855 5.62847 13.1236 5.00013 12.8871 4.42911C12.6506 3.8581 12.2501 3.37004 11.7362 3.02666ZM7.56938 1.98732C8.28885 1.50659 9.13471 1.25 10 1.25C11.1603 1.25 12.2731 1.71094 13.0936 2.53141C13.9141 3.35188 14.375 4.46468 14.375 5.625C14.375 6.49029 14.1184 7.33615 13.6377 8.05562C13.1569 8.77508 12.4737 9.33584 11.6742 9.66697C10.8748 9.99811 9.99515 10.0847 9.14648 9.91594C8.29781 9.74712 7.51826 9.33045 6.90641 8.71859C6.29456 8.10674 5.87788 7.32719 5.70907 6.47852C5.54026 5.62985 5.6269 4.75019 5.95803 3.95076C6.28916 3.15133 6.84992 2.46805 7.56938 1.98732ZM15 18.75H16.25V15.625C16.25 14.4647 15.7891 13.3519 14.9686 12.5314C14.1481 11.7109 13.0353 11.25 11.875 11.25H8.125C6.96468 11.25 5.85188 11.7109 5.03141 12.5314C4.21094 13.3519 3.75 14.4647 3.75 15.625V18.75H5V15.625C5 14.7962 5.32924 14.0013 5.91529 13.4153C6.50134 12.8292 7.2962 12.5 8.125 12.5H11.875C12.2854 12.5 12.6917 12.5808 13.0709 12.7379C13.45 12.8949 13.7945 13.1251 14.0847 13.4153C14.3749 13.7055 14.6051 14.05 14.7621 14.4291C14.9192 14.8083 15 15.2146 15 15.625V18.75Z" fill="#BCBFDB"/>
<path fill-rule="evenodd" clip-rule="evenodd" d="M11.7362 3.02666C11.2223 2.68328 10.6181 2.5 10 2.5C9.1712 2.5 8.37634 2.82924 7.79029 3.41529C7.20424 4.00134 6.875 4.7962 6.875 5.625C6.875 6.24307 7.05828 6.84725 7.40166 7.36116C7.74504 7.87506 8.2331 8.2756 8.80412 8.51212C9.37514 8.74865 10.0035 8.81053 10.6097 8.68995C11.2159 8.56938 11.7727 8.27175 12.2097 7.83471C12.6467 7.39767 12.9444 6.84085 13.065 6.23466C13.1855 5.62847 13.1236 5.00013 12.8871 4.42911C12.6506 3.8581 12.2501 3.37004 11.7362 3.02666ZM7.56938 1.98732C8.28885 1.50659 9.13471 1.25 10 1.25C11.1603 1.25 12.2731 1.71094 13.0936 2.53141C13.9141 3.35188 14.375 4.46468 14.375 5.625C14.375 6.49029 14.1184 7.33615 13.6377 8.05562C13.1569 8.77508 12.4737 9.33584 11.6742 9.66697C10.8748 9.99811 9.99515 10.0847 9.14648 9.91594C8.29781 9.74712 7.51826 9.33045 6.90641 8.71859C6.29456 8.10674 5.87788 7.32719 5.70907 6.47852C5.54026 5.62985 5.6269 4.75019 5.95803 3.95076C6.28916 3.15133 6.84992 2.46805 7.56938 1.98732ZM15 18.75H16.25V15.625C16.25 14.4647 15.7891 13.3519 14.9686 12.5314C14.1481 11.7109 13.0353 11.25 11.875 11.25H8.125C6.96468 11.25 5.85188 11.7109 5.03141 12.5314C4.21094 13.3519 3.75 14.4647 3.75 15.625V18.75H5V15.625C5 14.7962 5.32924 14.0013 5.91529 13.4153C6.50134 12.8292 7.2962 12.5 8.125 12.5H11.875C12.2854 12.5 12.6917 12.5808 13.0709 12.7379C13.45 12.8949 13.7945 13.1251 14.0847 13.4153C14.3749 13.7055 14.6051 14.05 14.7621 14.4291C14.9192 14.8083 15 15.2146 15 15.625V18.75Z" fill="black" fill-opacity="0.4"/>
</svg>
