<svg width="50" height="50" viewBox="0 0 50 50" fill="none" xmlns="http://www.w3.org/2000/svg">
<g clip-path="url(#clip0_3008_199)">
<path d="M15.1905 13.004C14.9136 12.7838 14.5106 12.8297 14.2904 13.1067C14.2897 13.1075 14.2891 13.1083 14.2885 13.1091C14.0692 13.3837 14.1141 13.7841 14.3887 14.0034C14.3902 14.0046 14.3916 14.0058 14.3931 14.0069C14.6701 14.227 15.0731 14.1811 15.2933 13.9041C15.5135 13.6273 15.4675 13.2243 15.1905 13.004Z" fill="#A67944"/>
<path d="M49.3622 49.1284H48.1681V23.3243C48.1921 11.9927 39.0255 2.7872 27.6939 2.76312C25.9519 2.75941 24.2165 2.97764 22.5296 3.41236C22.6441 3.04715 22.6064 2.65112 22.425 2.31413C22.187 1.92463 21.7809 1.66837 21.3268 1.6212C20.8596 1.5713 20.3887 1.67371 19.9845 1.91319C19.9845 0.854179 19.2785 0 18.4156 0C17.5527 0 16.8511 0.871611 16.8467 1.91319C16.4425 1.67371 15.9716 1.5713 15.5044 1.6212C15.0488 1.66707 14.6408 1.92343 14.4018 2.31413C14.1799 2.71779 14.162 3.20274 14.3539 3.62155C14.5445 4.05071 14.8685 4.40687 15.2778 4.63697C14.8693 4.87013 14.5458 5.22727 14.3539 5.65676C14.1621 6.07557 14.1799 6.56051 14.4018 6.96418C14.4949 7.11529 14.6163 7.24701 14.7592 7.35204C13.607 8.27323 12.5566 9.31491 11.6258 10.4593C11.5879 10.5088 11.5598 10.565 11.5429 10.6249C11.0042 10.7901 10.6319 11.2818 10.619 11.8452C10.5742 11.8769 10.5357 11.9169 10.5057 11.9629C10.2486 12.342 10.0133 12.7386 9.78229 13.1352C9.14983 12.6441 8.27637 12.6058 7.60327 13.0393C7.60327 11.9803 6.89726 11.1218 6.03436 11.1218C5.17147 11.1218 4.46546 11.9934 4.46111 13.0393C3.54591 12.512 2.45204 12.695 2.02059 13.4403C1.58915 14.1855 1.98137 15.2227 2.8922 15.7544C1.95958 16.2861 1.56736 17.3233 1.9988 18.0729C2.43461 18.8181 3.52412 18.9968 4.43931 18.4738C4.43931 19.5328 5.14968 20.387 6.01257 20.387C6.73154 20.3352 7.33001 19.8149 7.48124 19.1101C7.33742 19.7987 7.22847 20.5003 7.15439 21.1976V21.2194C7.10743 21.2739 7.06515 21.3321 7.028 21.3937C6.80465 21.7967 6.78526 22.2816 6.9757 22.7011C7.16626 23.1303 7.49028 23.4864 7.89961 23.7166C7.48963 23.9477 7.16539 24.3055 6.9757 24.7363C6.78667 25.1557 6.80443 25.6393 7.02364 26.0438L7.04543 26.0699V49.1197H1.37996C1.13928 49.1197 0.944153 49.3148 0.944153 49.5555C0.944153 49.7962 1.13928 49.9913 1.37996 49.9913H15.5044C15.7451 49.9913 15.9402 49.7962 15.9402 49.5555C15.9402 49.3148 15.7451 49.1197 15.5044 49.1197H10.7106V28.3012C10.8131 28.3277 10.9185 28.3409 11.0243 28.3405C11.896 28.3405 12.5889 27.4688 12.5932 26.4273C12.998 26.6652 13.4688 26.7661 13.9355 26.7149C14.6991 26.6616 15.2749 25.9995 15.2216 25.236C15.2093 25.0595 15.1633 24.8869 15.0861 24.7276C14.8964 24.2968 14.5722 23.939 14.1621 23.7078C14.5715 23.4777 14.8955 23.1216 15.0861 22.6924C15.4202 22.0011 15.1307 21.1699 14.4395 20.8357C14.2816 20.7593 14.1105 20.7135 13.9355 20.7008C13.4688 20.6496 12.998 20.7505 12.5932 20.9884C12.6435 20.1474 12.1209 19.378 11.3207 19.1144C11.5665 18.2176 11.8872 17.3429 12.2795 16.4996C12.6143 16.4817 12.9407 16.3878 13.2339 16.225C13.2339 17.2797 13.9399 18.1382 14.8028 18.1382C15.6657 18.1382 16.3717 17.2666 16.376 16.225C17.2912 16.748 18.3851 16.5693 18.8165 15.8241C19.0385 15.4204 19.0563 14.9355 18.8645 14.5167C18.6759 14.0866 18.3534 13.7289 17.9449 13.4969C18.8558 12.9652 19.2524 11.928 18.8165 11.1828C18.3835 10.568 17.5882 10.3255 16.8859 10.5944C17.4611 10.1176 18.0683 9.68077 18.7032 9.28702C18.7351 9.26392 18.7629 9.23603 18.786 9.20422C19.0205 9.13384 19.2324 9.00309 19.4005 8.82507C19.4615 8.82256 19.5211 8.80622 19.5748 8.77713C19.9453 8.5723 20.3288 8.39362 20.7123 8.2193C20.7732 20.7714 28.9526 31.84 40.9337 35.5835C38.8861 39.8029 37.842 44.4386 37.883 49.1284H23.2574C23.0167 49.1284 22.8216 49.3235 22.8216 49.5642C22.8216 49.8049 23.0167 50 23.2574 50H49.3622C49.6029 50 49.798 49.8049 49.798 49.5642C49.798 49.3235 49.6029 49.1284 49.3622 49.1284ZM13.6697 9.4657C13.3868 9.84289 13.2339 10.3017 13.2339 10.7731C13.0562 10.6733 12.8655 10.5986 12.6673 10.5509C12.9767 10.1848 13.3123 9.8187 13.6697 9.4657ZM7.10209 16.8047C6.96917 16.6378 6.73492 16.5917 6.54861 16.6957C6.36067 16.8022 6.27907 17.0302 6.35686 17.2318C6.53391 17.6226 6.64852 18.0388 6.69679 18.4651C6.69679 19.036 6.37429 19.5154 5.9995 19.5154C5.62471 19.5154 5.29785 19.036 5.29785 18.4651C5.34939 18.0351 5.46847 17.6159 5.65086 17.223C5.72592 17.0272 5.65086 16.8055 5.47217 16.6957C5.28696 16.5907 5.05282 16.6349 4.9187 16.8003C4.66757 17.1545 4.36152 17.4663 4.01223 17.7242C3.51976 18.0075 2.9445 17.9726 2.75275 17.6458C2.56099 17.3189 2.82248 16.7916 3.31494 16.504C3.71337 16.3352 4.13512 16.228 4.5657 16.1858C4.80637 16.1858 5.0015 15.9907 5.0015 15.75C5.0015 15.5093 4.80637 15.3142 4.5657 15.3142C4.13414 15.2744 3.71185 15.1655 3.31494 14.9917C2.82248 14.7084 2.56535 14.1898 2.75275 13.863C2.94014 13.5361 3.51976 13.4969 4.01223 13.7845C4.36152 14.0424 4.66757 14.3542 4.9187 14.7084C5.05282 14.8738 5.28696 14.9181 5.47217 14.813C5.66012 14.7066 5.74172 14.4786 5.66393 14.277C5.48154 13.8841 5.36246 13.465 5.31093 13.035C5.31093 12.464 5.63342 11.9803 6.01257 11.9803C6.39172 11.9803 6.69679 12.4771 6.69679 13.048C6.64471 13.4779 6.52563 13.8971 6.34379 14.2901C6.24464 14.5094 6.34215 14.7676 6.56147 14.8666C6.74974 14.9517 6.97189 14.8929 7.09337 14.7259C7.3432 14.368 7.65109 14.0542 8.00421 13.7976C8.49667 13.5143 9.07629 13.5492 9.26369 13.8761C9.45108 14.2029 9.19396 14.7215 8.7015 15.0048C8.30459 15.1786 7.88229 15.2875 7.45073 15.3273C7.23588 15.3599 7.07779 15.5457 7.0803 15.7631C7.07779 15.9805 7.23588 16.1663 7.45073 16.1989C7.88131 16.2411 8.30306 16.3483 8.7015 16.517C9.19396 16.8047 9.45108 17.3233 9.26369 17.6501C9.07629 17.977 8.49667 18.0119 8.00421 17.7286C7.65578 17.4711 7.35115 17.1592 7.10209 16.8047ZM9.85202 49.1022H7.91705V26.6626C8.44524 26.787 9.001 26.7028 9.46851 26.4273C9.4659 26.8695 9.59991 27.3017 9.85202 27.665V49.1022ZM11.7347 21.0015C11.6844 21.4312 11.5667 21.8503 11.3861 22.2435C11.2943 22.466 11.4003 22.7208 11.6229 22.8125C11.8031 22.8868 12.0107 22.8323 12.1313 22.6793C12.3801 22.3247 12.6848 22.0127 13.0334 21.7554C13.2747 21.6073 13.5577 21.5416 13.8396 21.568C14.0168 21.5887 14.176 21.6858 14.2755 21.8339C14.3572 21.9986 14.3572 22.1921 14.2755 22.3568C14.1584 22.6143 13.9612 22.8267 13.7133 22.9626C13.3159 23.1345 12.8937 23.2418 12.4625 23.2807C12.2218 23.2807 12.0267 23.4759 12.0267 23.7166C12.0267 23.9572 12.2218 24.1524 12.4625 24.1524C12.8935 24.1921 13.3156 24.2996 13.7133 24.4705C13.9612 24.6064 14.1584 24.8189 14.2755 25.0763C14.3573 25.2425 14.3573 25.4373 14.2755 25.6036C14.1747 25.7496 14.0158 25.8449 13.8396 25.8651C13.5583 25.8901 13.2763 25.8261 13.0334 25.682C12.6868 25.4208 12.3825 25.1076 12.1313 24.7538C11.9824 24.5647 11.7083 24.5323 11.5193 24.6812C11.3662 24.8018 11.3119 25.0094 11.3861 25.1896C11.5681 25.5838 11.6859 26.0045 11.7347 26.436C11.7347 27.0025 11.4166 27.4863 11.0374 27.4863C10.6583 27.4863 10.3401 27.0025 10.3401 26.436C10.3889 26.0045 10.5067 25.5838 10.6888 25.1896C10.7648 24.9904 10.6855 24.7654 10.5014 24.6579C10.4353 24.6188 10.3602 24.5976 10.2835 24.5969C10.1516 24.5964 10.0267 24.6557 9.94354 24.7581C9.69372 25.1133 9.38931 25.4265 9.04142 25.6864C8.54896 25.9697 7.96934 25.9348 7.78195 25.6079C7.70012 25.4417 7.70012 25.2469 7.78195 25.0806C7.89896 24.8233 8.09616 24.6107 8.34413 24.4749C8.74181 24.3039 9.16389 24.1965 9.5949 24.1567C9.83557 24.1567 10.0307 23.9616 10.0307 23.7209C10.0307 23.4802 9.83557 23.2851 9.5949 23.2851C9.16367 23.2462 8.74148 23.1389 8.34413 22.967C8.09616 22.8311 7.89896 22.6186 7.78195 22.3612C7.70023 22.1965 7.70023 22.003 7.78195 21.8382C7.88142 21.6902 8.0406 21.5931 8.21775 21.5724C8.49972 21.5459 8.78266 21.6116 9.02399 21.7598C9.37264 22.017 9.67726 22.3291 9.92611 22.6837C10.075 22.8727 10.3491 22.9053 10.5381 22.7563C10.6912 22.6356 10.7455 22.4281 10.6712 22.2479C10.4899 21.855 10.3723 21.4358 10.3226 21.0058C10.2845 20.5808 10.5041 20.1741 10.8804 19.973C10.9238 19.9664 10.9678 19.9664 11.0112 19.973C11.4166 19.9468 11.7347 20.4306 11.7347 21.0015ZM10.3968 19.2495C9.79809 19.6229 9.44411 20.2875 9.46851 20.9928C9.06376 20.7548 8.59298 20.6539 8.12623 20.7051H8.09137C8.17461 20.0503 8.29097 19.4001 8.44001 18.7571C9.05112 18.8599 9.66517 18.5915 10.0046 18.0729C10.4404 17.3233 10.0438 16.2861 9.13294 15.7544C9.73806 15.43 10.1345 14.8181 10.1832 14.1332C10.2069 14.1108 10.2262 14.0843 10.2399 14.0547C10.4665 13.6451 10.7062 13.2572 10.9503 12.865L10.9546 12.8824C11.1404 13.1434 11.3796 13.3617 11.6563 13.5231C11.2504 13.7475 10.9267 14.0956 10.7323 14.5167C10.5406 14.9355 10.5584 15.4204 10.7803 15.8241C10.925 16.0672 11.1432 16.258 11.4035 16.3689C10.984 17.2977 10.6472 18.2617 10.3968 19.2495ZM18.067 11.6447C18.2587 11.9716 17.9972 12.4902 17.5048 12.7735C17.1072 12.9446 16.685 13.0519 16.254 13.0916C16.0133 13.0916 15.8182 13.2867 15.8182 13.5274C15.8182 13.7681 16.0133 13.9632 16.254 13.9632C16.685 14.0029 17.1072 14.1102 17.5048 14.2814C17.734 14.4168 17.9165 14.619 18.0277 14.861C18.1076 15.0277 18.1076 15.2216 18.0277 15.3883C17.836 15.7152 17.2607 15.75 16.7683 15.4667C16.4196 15.2064 16.1138 14.8932 15.8618 14.5385C15.7128 14.3495 15.4388 14.3169 15.2498 14.4659C15.0967 14.5865 15.0424 14.7941 15.1167 14.9743C15.2988 15.3687 15.4179 15.7894 15.4697 16.2207C15.4697 16.7916 15.1472 17.271 14.768 17.271C14.3889 17.271 14.1056 16.7872 14.1056 16.2163C14.1569 15.7854 14.2746 15.365 14.4542 14.9699C14.5303 14.7708 14.451 14.5458 14.2668 14.4382C14.0816 14.3297 13.8449 14.3722 13.709 14.5385C13.455 14.893 13.1478 15.2061 12.7982 15.4667C12.3057 15.75 11.7261 15.7152 11.5387 15.3883C11.4595 15.2215 11.4595 15.0278 11.5387 14.861C11.6575 14.6048 11.8542 14.3927 12.1009 14.2552C12.4985 14.084 12.9206 13.9767 13.3517 13.9371C13.5923 13.9371 13.7875 13.7419 13.7875 13.5013C13.7875 13.2606 13.5923 13.0655 13.3517 13.0655C12.9205 13.0346 12.497 12.936 12.0965 12.7735C11.8499 12.636 11.6531 12.4238 11.5343 12.1677C11.4496 11.9975 11.4496 11.7975 11.5343 11.6273L11.5387 11.6447C11.7261 11.3135 12.3057 11.2787 12.7982 11.5663C13.1466 11.8237 13.4512 12.1357 13.7003 12.4902C13.835 12.658 14.0718 12.7023 14.2581 12.5948C14.4444 12.4869 14.524 12.2592 14.4455 12.0587C14.2666 11.6649 14.1491 11.2461 14.0969 10.8167C14.0969 10.2458 14.4194 9.76205 14.7942 9.76205C15.169 9.76205 15.4653 10.1979 15.4915 10.747C15.4717 10.8182 15.4717 10.8936 15.4915 10.9649C15.4168 11.3399 15.3044 11.7064 15.1559 12.0587C15.0781 12.2603 15.1597 12.4883 15.3476 12.5948C15.5329 12.6998 15.767 12.6556 15.9011 12.4902C16.1507 12.1347 16.457 11.8226 16.8076 11.5663C17.2999 11.2787 17.8752 11.3179 18.067 11.6447ZM16.2148 9.99739C16.0212 9.36176 15.453 8.91332 14.7897 8.87301C14.471 8.87431 14.1627 8.98686 13.9181 9.19114C14.4993 8.63331 15.1135 8.11089 15.7572 7.6266C16.1403 7.62192 16.5155 7.5183 16.8467 7.3259C16.8304 7.95258 17.1057 8.55138 17.5919 8.94709C17.1152 9.2734 16.6555 9.62401 16.2148 9.99739ZM19.9627 7.57866C19.9745 7.49488 19.9818 7.41044 19.9845 7.3259C20.0681 7.371 20.1539 7.41164 20.2416 7.44792L19.9627 7.57866ZM20.3767 6.57195C20.0283 6.3145 19.7237 6.00257 19.4746 5.64804C19.3257 5.45901 19.0517 5.42654 18.8626 5.57548C18.7096 5.69609 18.6552 5.90364 18.7295 6.08385C18.9119 6.4764 19.0295 6.89575 19.0781 7.3259C19.0781 7.8968 18.76 8.37619 18.3809 8.37619C18.0017 8.37619 17.6836 7.8968 17.6836 7.3259C17.7322 6.89575 17.8498 6.4764 18.0322 6.08385C18.1188 5.8593 18.007 5.60708 17.7825 5.52035C17.7328 5.50118 17.6801 5.49126 17.6269 5.49115C17.4951 5.49072 17.3701 5.54999 17.287 5.6524C17.0366 6.00573 16.7321 6.31755 16.3849 6.57631C16.142 6.72034 15.8599 6.78441 15.5786 6.75935C15.2876 6.74725 15.0615 6.50157 15.0736 6.21067C15.0771 6.12623 15.1009 6.04397 15.1428 5.97065L15.1602 5.96193C15.2788 5.70775 15.4759 5.49845 15.7224 5.36488C16.1205 5.19535 16.5424 5.08803 16.9732 5.04674C17.2139 5.04674 17.409 4.85161 17.409 4.61093C17.409 4.37026 17.2139 4.17513 16.9732 4.17513C16.5415 4.13612 16.1191 4.02728 15.7224 3.85263C15.474 3.71949 15.2764 3.50813 15.1602 3.25122C15.0791 3.08485 15.0791 2.89026 15.1602 2.7239C15.2584 2.57529 15.4187 2.47908 15.5961 2.46241C15.8775 2.43463 16.1604 2.4988 16.4023 2.64545C16.7495 2.90421 17.054 3.21603 17.3044 3.56936C17.4533 3.75839 17.7274 3.79086 17.9164 3.64192C18.0695 3.52131 18.1238 3.31376 18.0496 3.13355C17.869 2.74035 17.7513 2.32121 17.701 1.89151C17.701 1.3206 18.0191 0.841214 18.3983 0.841214C18.7774 0.841214 19.0956 1.3206 19.0956 1.89151C19.047 2.32165 18.9293 2.741 18.7469 3.13355C18.6552 3.35603 18.7612 3.61087 18.9838 3.7025C19.164 3.7768 19.3715 3.72233 19.4922 3.56936C19.7425 3.21603 20.047 2.90421 20.3943 2.64545C20.6361 2.4988 20.9191 2.43463 21.2005 2.46241C21.3779 2.47908 21.5382 2.57529 21.6363 2.7239C21.7175 2.89026 21.7175 3.08485 21.6363 3.25122C21.5185 3.50704 21.3213 3.71797 21.0741 3.85263C20.6772 4.02641 20.2549 4.13536 19.8234 4.17513C19.5827 4.17513 19.3876 4.37026 19.3876 4.61093C19.3876 4.85161 19.5827 5.04674 19.8234 5.04674C20.2539 5.0889 20.6757 5.19611 21.0741 5.36488C21.3215 5.49954 21.5185 5.71047 21.6363 5.96629C21.7181 6.13255 21.7181 6.32736 21.6363 6.49362C21.4488 6.82036 20.8692 6.85523 20.3767 6.57195ZM21.5796 7.91859C21.5821 7.89103 21.5821 7.86335 21.5796 7.83579C22.2553 7.57616 22.9467 7.35923 23.6496 7.18644V9.61823C23.6496 9.85891 23.8448 10.054 24.0854 10.054H24.177C26.1648 9.64035 28.2107 9.58718 30.2172 9.89715H30.2826C30.3058 9.89966 30.3291 9.89966 30.3523 9.89715H30.4046C30.4421 9.88756 30.4775 9.87133 30.5092 9.84921L30.5484 9.82306C30.5774 9.80127 30.6025 9.7748 30.6225 9.74462L30.6574 9.70104C30.6727 9.67053 30.6844 9.63839 30.6923 9.60516C30.6933 9.58773 30.6933 9.5703 30.6923 9.55286L30.9232 7.0862C31.5721 7.20169 32.2139 7.35444 32.8451 7.5438L32.697 10.1586C32.697 10.1586 32.697 10.1586 32.697 10.1891C32.6949 10.2153 32.6949 10.2414 32.697 10.2676C32.6945 10.2966 32.6945 10.3258 32.697 10.3547C32.7069 10.376 32.7185 10.3964 32.7318 10.4158C32.7484 10.4433 32.769 10.4683 32.7928 10.4898C32.8071 10.5066 32.825 10.52 32.8451 10.5291C32.8734 10.5514 32.9041 10.5705 32.9367 10.5857C34.7604 11.2057 36.4654 12.1312 37.9789 13.3226C38.055 13.3816 38.1485 13.4138 38.2448 13.4141C38.2909 13.4228 38.3381 13.4228 38.3842 13.4141C38.5231 13.3678 38.6296 13.2548 38.6675 13.1134L39.1425 11.3702C39.6416 11.8394 40.1117 12.3386 40.5502 12.865C40.5381 12.8933 40.5278 12.9224 40.5197 12.9521C39.5489 19.6407 40.9357 26.4586 44.4419 32.2366V33.2563L41.3913 34.8209C29.5669 31.2184 21.5111 20.2794 21.5796 7.91859ZM24.5125 9.09091V6.99468C25.5357 6.80315 26.5744 6.70683 27.6155 6.70705C28.438 6.70694 29.2595 6.76665 30.0734 6.88573L29.8817 8.96453C28.0958 8.73594 26.2856 8.77855 24.5125 9.09091ZM33.5816 9.86228L33.7167 7.84015C35.4507 8.51434 37.0616 9.46995 38.4845 10.6685L38.0487 12.2244C36.6792 11.2291 35.1752 10.4337 33.5816 9.86228ZM44.4855 49.1022H38.7459C38.7245 44.4033 39.8035 39.7644 41.8968 35.5574L44.4855 34.2238V49.1022ZM44.4855 30.4236C41.7556 25.3277 40.6543 19.5172 41.3303 13.7758C43.3844 16.6342 44.4882 20.0659 44.4855 23.5858V30.4236ZM47.2965 49.1022H45.3571V33.7749L47.2965 32.7813V49.1022ZM47.2965 23.3243V31.8007L45.3571 32.7944V23.5858C45.3714 13.797 37.4476 5.85004 27.6588 5.83577C26.4467 5.83402 25.2377 5.95659 24.0506 6.20152C23.9966 6.2038 23.9435 6.21557 23.8937 6.23638C23.4579 6.33662 23.0003 6.44993 22.5601 6.58067C22.6342 6.26177 22.6052 5.92761 22.4773 5.62625C22.2855 5.19677 21.9619 4.83962 21.5534 4.60647C21.6953 4.52464 21.8282 4.42822 21.95 4.31884C22.0532 4.38192 22.1778 4.39924 22.2943 4.36677C32.764 1.42792 43.6337 7.5329 46.5725 18.0026C47.0586 19.7347 47.3052 21.5252 47.3052 23.3243H47.2965Z" fill="#A67944"/>
<path d="M6.01042 16.3965C6.36267 16.3965 6.64822 16.1109 6.64822 15.7587C6.64822 15.4064 6.36267 15.1208 6.01042 15.1208C5.65817 15.1208 5.37262 15.4064 5.37262 15.7587C5.37262 16.1109 5.65817 16.3965 6.01042 16.3965Z" fill="#A67944"/>
<path d="M11.4364 23.2085C11.4356 23.2079 11.4348 23.2072 11.434 23.2067C11.1569 22.9885 10.7557 23.0353 10.5362 23.3112C10.3161 23.5882 10.362 23.9912 10.639 24.2114C10.9159 24.4316 11.319 24.3856 11.5391 24.1087C11.7593 23.8318 11.7134 23.4288 11.4364 23.2085Z" fill="#A67944"/>
<path d="M18.8252 4.10919C18.5482 3.88899 18.1452 3.93497 17.925 4.21193C17.9243 4.21269 17.9237 4.21356 17.9231 4.21432C17.705 4.49139 17.7518 4.89266 18.0277 5.11208C18.3047 5.33227 18.7077 5.2863 18.9279 5.00934C19.1481 4.7325 19.1021 4.32949 18.8252 4.10919Z" fill="#A67944"/>
<path d="M42.9428 32.6244C38.0794 28.4987 35.2787 22.4413 35.2857 16.0637C35.2857 15.8231 35.0906 15.6279 34.8499 15.6279C34.6092 15.6279 34.4141 15.8231 34.4141 16.0637C34.4059 22.6964 37.3183 28.9962 42.3763 33.2868C42.5592 33.4432 42.8343 33.4218 42.9907 33.2388C43.1472 33.0559 43.1257 32.7808 42.9428 32.6244Z" fill="#A67944"/>
<path d="M40.9424 32.7553C37.5553 30.6266 34.8248 27.6003 33.0543 24.013C32.9539 23.7943 32.6951 23.6985 32.4763 23.7989C32.2576 23.8994 32.1618 24.1581 32.2622 24.3769C32.266 24.3851 32.27 24.393 32.2742 24.401C34.114 28.1321 36.9534 31.2792 40.4761 33.4919C40.545 33.5364 40.625 33.5605 40.7071 33.5616C40.9477 33.5649 41.1455 33.3724 41.1487 33.1317C41.1507 32.9786 41.0724 32.8358 40.9424 32.7553Z" fill="#A67944"/>
<path d="M13.5346 27.6476C13.4272 27.6028 13.3065 27.6028 13.1991 27.6476C13.0885 27.6879 12.9989 27.7712 12.9507 27.8786C12.5072 28.876 12.4744 30.0079 12.8591 31.0295C13.2384 32.0545 14.0076 32.8878 14.9989 33.3479C15.1063 33.3927 15.2271 33.3927 15.3345 33.3479C15.4436 33.3052 15.5324 33.2226 15.5829 33.117C16.5011 31.0401 15.5911 28.6104 13.5346 27.6476ZM14.9466 32.3238C14.3622 31.9395 13.9151 31.3794 13.6697 30.7244C13.4272 30.0704 13.3982 29.3563 13.5869 28.6848C14.782 29.4741 15.3314 30.9443 14.9466 32.3238Z" fill="#A67944"/>
<path d="M6.29149 23.0366C6.24366 22.9943 6.18712 22.963 6.12588 22.9451C6.12588 22.9189 6.14768 22.9015 6.15639 22.8753C6.18003 22.7606 6.15639 22.6413 6.09102 22.5441C4.85409 20.6502 2.33285 20.0876 0.408113 21.2759C0.307551 21.3384 0.236732 21.4391 0.212 21.5548C0.187159 21.6689 0.209168 21.7883 0.273013 21.8861C0.872137 22.7972 1.80465 23.4372 2.87042 23.6685C3.11588 23.7189 3.36516 23.748 3.61564 23.7557C3.44056 23.888 3.27593 24.0338 3.12318 24.1915C2.36739 24.9902 1.95849 26.0556 1.98573 27.1549C1.98573 27.3956 2.18086 27.5908 2.42154 27.5908C4.68903 27.5011 6.46865 25.6149 6.42659 23.346C6.42496 23.2289 6.37625 23.1174 6.29149 23.0366ZM1.27972 21.7858C1.92385 21.5029 2.64129 21.4327 3.32801 21.5853V21.581C4.00351 21.7328 4.61364 22.0943 5.07123 22.6138C3.76186 23.1918 2.22891 22.8571 1.27972 21.7858ZM4.67465 25.6688V25.6645C4.19625 26.1717 3.56901 26.5135 2.88349 26.6407C3.06533 25.2203 4.14286 24.0794 5.55062 23.8167C5.46139 24.511 5.1548 25.1594 4.67465 25.6688Z" fill="#A67944"/>
<path d="M11.787 6.41944C11.7302 6.18552 11.4945 6.04204 11.2607 6.0988C11.2574 6.09956 11.2543 6.10043 11.251 6.10131C10.1966 6.38142 9.29379 7.06356 8.73639 8.00142C8.73639 8.03628 8.70153 8.07551 8.67974 8.11037L8.37467 6.89447C8.37467 6.87268 8.35288 6.85525 8.34417 6.83346C9.37943 4.88464 8.71177 2.46647 6.82321 1.32487C6.72417 1.26397 6.60498 1.24512 6.49199 1.27258C6.37792 1.30156 6.28052 1.37543 6.22179 1.47741C5.11082 3.38536 5.68488 5.82904 7.52921 7.04265C7.52507 7.06574 7.52507 7.08928 7.52921 7.11237L7.6861 7.72686C6.66588 6.56086 5.08292 6.05718 3.57645 6.41944C3.34253 6.47632 3.19904 6.71198 3.25581 6.94579C3.25657 6.94906 3.25744 6.95222 3.25831 6.95548C3.53069 8.01929 4.21404 8.93154 5.15843 9.49188C5.80124 9.87636 6.53612 10.0797 7.28516 10.0802C7.57835 10.0767 7.87045 10.0432 8.15677 9.97998C8.14261 10.3639 8.18074 10.7481 8.27008 11.1218C8.29808 11.2351 8.37021 11.3324 8.47055 11.392C8.57133 11.4526 8.69238 11.4699 8.80612 11.4399C11.0008 10.857 12.3258 8.62538 11.787 6.41944ZM5.61602 8.75536C5.01265 8.40356 4.54002 7.86512 4.26938 7.22133C4.96275 7.15116 5.66037 7.3038 6.26102 7.65713C6.86112 8.01166 7.33157 8.54934 7.6033 9.19117C6.91135 9.26133 6.21504 9.10858 5.61602 8.75536ZM7.72097 6.11002C7.18405 5.66474 6.80251 5.06049 6.63145 4.38423C6.45702 3.70895 6.50431 2.99532 6.76655 2.34902C7.86751 3.26258 8.25308 4.78212 7.72097 6.11002ZM9.0371 10.4463C8.9714 9.7502 9.12862 9.05127 9.48598 8.4503C9.84094 7.85063 10.3785 7.38018 11.02 7.10802C11.1517 8.53277 10.3513 9.8804 9.0371 10.4463Z" fill="#A67944"/>
<path d="M32.1435 46.6008H25.7503C25.5096 46.6008 25.3145 46.796 25.3145 47.0366C25.3145 47.2773 25.5096 47.4724 25.7503 47.4724H32.1435C32.3842 47.4724 32.5793 47.2773 32.5793 47.0366C32.5793 46.796 32.3842 46.6008 32.1435 46.6008Z" fill="#A67944"/>
</g>
<defs>
<clipPath id="clip0_3008_199">
<rect width="50" height="50" fill="white"/>
</clipPath>
</defs>
</svg>
