<svg width="50" height="48" viewBox="0 0 50 48" fill="none" xmlns="http://www.w3.org/2000/svg">
<path d="M40.2121 19.5075C40.3106 19.7726 40.5681 19.9393 40.8333 19.9393C40.909 19.9393 40.9924 19.9241 41.0681 19.9014L43.2954 19.0757C43.6363 18.9469 43.8106 18.5681 43.6818 18.2196C43.553 17.8787 43.1742 17.7044 42.8257 17.8332L40.5984 18.659C40.2575 18.7878 40.0833 19.1666 40.2121 19.5075Z" fill="#A67944"/>
<path d="M38.75 17.3258C38.9166 17.3258 39.0909 17.2652 39.2197 17.1288L40.856 15.4924C41.1136 15.2349 41.1136 14.8106 40.856 14.553C40.5985 14.2955 40.1742 14.2955 39.9166 14.553L38.2803 16.1894C38.0227 16.447 38.0227 16.8712 38.2803 17.1288C38.4166 17.2652 38.5833 17.3258 38.75 17.3258Z" fill="#A67944"/>
<path d="M35.9091 15.2046C35.9848 15.2349 36.0606 15.2424 36.1363 15.2424C36.4091 15.2424 36.6591 15.0758 36.7575 14.8106L37.5833 12.5833C37.7121 12.2424 37.5378 11.8561 37.1969 11.7273C36.856 11.5985 36.4697 11.7727 36.3409 12.1136L35.5151 14.3409C35.3939 14.697 35.5681 15.0833 35.9091 15.2046Z" fill="#A67944"/>
<path d="M45.1818 22.3637H36.75L35.1894 19.2577C35.0758 19.038 34.8485 18.894 34.5985 18.894H26.4697C26.2197 18.894 25.9924 19.038 25.8788 19.2577L24.3182 22.3637H15.8788C13.6742 22.3637 11.8788 24.1592 11.8788 26.3637V43.1668C11.8788 45.3713 13.6742 47.1668 15.8788 47.1668H45.1742C47.3788 47.1668 49.1742 45.3713 49.1742 43.1668V26.3562C49.1742 24.1516 47.3864 22.3637 45.1818 22.3637ZM47.8485 43.1592C47.8485 44.6365 46.6515 45.8334 45.1742 45.8334H15.8788C14.4091 45.8334 13.2045 44.6365 13.2045 43.1592V26.3562C13.2045 24.8789 14.4015 23.6819 15.8788 23.6819H24.7197C24.9697 23.6819 25.197 23.538 25.3106 23.3183L26.8712 20.2122H34.1742L35.7348 23.3183C35.8485 23.538 36.0758 23.6819 36.3258 23.6819H45.1667C46.6439 23.6819 47.8409 24.8789 47.8409 26.3562V43.1592H47.8485Z" fill="#A67944"/>
<path d="M30.5303 25.2803C25.303 25.2803 21.053 29.5303 21.053 34.7575C21.053 39.9848 25.303 44.2348 30.5303 44.2348C35.7575 44.2348 40.0075 39.9848 40.0075 34.7575C40.0075 29.5303 35.7575 25.2803 30.5303 25.2803ZM30.5303 42.9091C26.0378 42.9091 22.3787 39.25 22.3787 34.7575C22.3787 30.2651 26.0378 26.606 30.5303 26.606C35.0227 26.606 38.6818 30.2651 38.6818 34.7575C38.6818 39.25 35.0227 42.9091 30.5303 42.9091Z" fill="#A67944"/>
<path d="M30.5303 28.3105C26.9773 28.3105 24.0833 31.2045 24.0833 34.7575C24.0833 38.3105 26.9773 41.2045 30.5303 41.2045C34.0833 41.2045 36.9773 38.3105 36.9773 34.7575C36.9773 31.2045 34.0833 28.3105 30.5303 28.3105ZM30.5303 39.8787C27.7045 39.8787 25.4091 37.5833 25.4091 34.7575C25.4091 31.9318 27.7045 29.6363 30.5303 29.6363C33.356 29.6363 35.6515 31.9318 35.6515 34.7575C35.6515 37.5833 33.356 39.8787 30.5303 39.8787Z" fill="#A67944"/>
<path d="M30.5303 31.3408C30.1666 31.3408 29.8636 31.6363 29.8636 32.0075C29.8636 32.3787 30.159 32.6742 30.5303 32.6742C31.6818 32.6742 32.6212 33.6135 32.6212 34.7651C32.6212 35.1287 32.9166 35.4317 33.2878 35.4317C33.659 35.4317 33.9545 35.1363 33.9545 34.7651C33.9469 32.8711 32.4166 31.3408 30.5303 31.3408Z" fill="#A67944"/>
<path d="M43.2273 25.2803C41.9394 25.2803 40.8939 26.3257 40.8939 27.6136C40.8939 28.9015 41.9394 29.9469 43.2273 29.9469C44.5151 29.9469 45.5606 28.9015 45.5606 27.6136C45.5606 26.3257 44.5151 25.2803 43.2273 25.2803ZM43.2273 28.6136C42.6742 28.6136 42.2197 28.1666 42.2197 27.606C42.2197 27.0454 42.6666 26.5985 43.2273 26.5985C43.7803 26.5985 44.2348 27.0454 44.2348 27.606C44.2348 28.1666 43.7803 28.6136 43.2273 28.6136Z" fill="#A67944"/>
<path d="M19.1742 20.7348C19.3788 20.7348 19.5075 20.7273 19.5454 20.7273C19.7197 20.7197 19.8788 20.6439 20 20.5151C20.1894 20.3182 24.5303 15.5606 22.4091 11.0227C21.5681 9.21969 19.4242 8.43939 17.6212 9.28029C16.5833 9.76514 15.8712 10.6894 15.6363 11.7576C14.6666 11.25 13.4924 11.2045 12.4545 11.6894C11.5833 12.0985 10.9242 12.8182 10.5909 13.7197C10.2575 14.6288 10.303 15.6061 10.7121 16.4773C12.5606 20.447 17.7272 20.7348 19.1742 20.7348ZM11.8409 14.1742C12.053 13.6061 12.4697 13.1439 13.0151 12.8939C13.3257 12.75 13.6515 12.6818 13.9772 12.6818C14.6515 12.6818 15.3106 12.9848 15.7575 13.5379C15.9469 13.7803 16.2803 13.8561 16.553 13.7273C16.8333 13.5985 16.9848 13.2954 16.9242 13C16.7197 11.9621 17.2348 10.9318 18.1818 10.4848C19.3181 9.95454 20.6742 10.447 21.2045 11.5833C22.7197 14.8409 19.9469 18.5076 19.1969 19.4091C18.0227 19.4091 13.4242 19.1742 11.9091 15.9167C11.6591 15.3636 11.6288 14.7424 11.8409 14.1742Z" fill="#A67944"/>
<path d="M2.3333 13.9621C2.11361 13.4924 2.09088 12.9621 2.26512 12.4773C2.43936 11.9924 2.803 11.5985 3.2727 11.3788L22.6439 2.34848C23.6136 1.89393 24.7727 2.31817 25.2272 3.28787L31.5303 16.803C31.6818 17.1364 32.0757 17.2803 32.4091 17.1212C32.7424 16.9697 32.8863 16.5757 32.7272 16.2424L26.4242 2.72726C25.6666 1.09847 23.7121 0.386354 22.0833 1.14393L2.71209 10.1818C1.92421 10.553 1.31815 11.2045 1.0227 12.0227C0.727243 12.8409 0.765121 13.7273 1.12876 14.5227L8.91664 31.2197C9.03027 31.4621 9.26512 31.5985 9.51512 31.5985C9.60603 31.5985 9.70452 31.5757 9.79542 31.5379C10.1288 31.3864 10.2727 30.9924 10.1136 30.6591L2.3333 13.9621Z" fill="#A67944"/>
<path d="M5.42423 13.6287L22.9773 5.43936L28.2803 16.803C28.4318 17.1363 28.8257 17.2803 29.1591 17.1212C29.4924 16.9697 29.6363 16.5757 29.4773 16.2424L23.9015 4.28026C23.75 3.94693 23.356 3.80299 23.0227 3.96208L4.25756 12.7045C3.9318 12.8636 3.78786 13.2575 3.93938 13.5909L9.1818 24.8333C9.29544 25.0757 9.53029 25.2121 9.78029 25.2121C9.8712 25.2121 9.96968 25.1894 10.0606 25.1515C10.3939 25 10.5379 24.606 10.3788 24.2727L5.42423 13.6287Z" fill="#A67944"/>
</svg>
