<svg width="50" height="50" viewBox="0 0 50 50" fill="none" xmlns="http://www.w3.org/2000/svg">
<g clip-path="url(#clip0_3008_160)">
<path d="M38.9433 32.8767V0H3.229V45.3523C3.229 47.915 5.31403 50 7.87675 50H42.1233C44.686 50 46.7711 47.915 46.7711 45.3523V32.8767H38.9433ZM7.87675 48.5323C6.12333 48.5323 4.69671 47.1057 4.69671 45.3523V1.46771H37.4756V45.3523C37.4756 46.5812 37.955 47.7003 38.7367 48.5323H7.87675ZM45.3034 45.3523C45.3034 47.1057 43.8768 48.5323 42.1233 48.5323C40.3699 48.5323 38.9433 47.1057 38.9433 45.3523V34.3444H45.3034V45.3523Z" fill="#A67944"/>
<path d="M17.8171 18.0634L21.0861 14.7786L24.3551 18.0634L30.7804 11.6071C32.5338 9.84523 32.5282 6.98398 30.768 5.22889C29.9172 4.38065 28.7881 3.91382 27.5875 3.91382C27.5846 3.91382 27.5814 3.91382 27.5785 3.91382C26.3746 3.91607 25.2437 4.3876 24.394 5.24122L24.3551 5.28036L24.3163 5.24122C23.4665 4.3876 22.3356 3.91617 21.1316 3.91382C19.9272 3.91255 18.795 4.3786 17.9422 5.22889C17.9125 5.25844 17.8845 5.28916 17.8559 5.3194L17.7781 5.24132C16.9286 4.3876 15.7977 3.91617 14.5937 3.91382C14.5907 3.91382 14.5878 3.91382 14.5847 3.91382C13.3842 3.91382 12.2549 4.38065 11.4042 5.22889C9.64404 6.98398 9.63846 9.84513 11.3919 11.607L17.8171 18.0634ZM18.9786 6.26822C19.5522 5.69631 20.3134 5.38153 21.1228 5.38153H21.1289C21.9405 5.3831 22.7029 5.701 23.2758 6.27664L24.3551 7.36108L25.4344 6.27664C26.0072 5.701 26.7696 5.3831 27.5812 5.38153H27.5873C28.3966 5.38153 29.1579 5.69631 29.7316 6.26822C30.9192 7.45237 30.923 9.3829 29.7399 10.5716L24.355 15.9827L18.9701 10.5716C17.7872 9.383 17.7909 7.45247 18.9786 6.26822ZM12.4405 6.26822C13.0142 5.69631 13.7755 5.38153 14.5848 5.38153H14.5909C15.4026 5.3831 16.1651 5.701 16.7379 6.27664L17.02 6.5602C16.2699 8.21891 16.5719 10.2426 17.9299 11.6072L20.0508 13.7384L17.8171 15.9829L12.4322 10.5718C11.2491 9.383 11.2529 7.45247 12.4405 6.26822Z" fill="#A67944"/>
<path d="M9.83371 25.5279L8.78704 24.4812L7.74927 25.519L9.83371 27.6034L13.6794 23.7577L12.6416 22.72L9.83371 25.5279Z" fill="#A67944"/>
<path d="M15.5088 22.7007H34.0998V24.1684H15.5088V22.7007Z" fill="#A67944"/>
<path d="M15.5088 25.636H27.2505V27.1037H15.5088V25.636Z" fill="#A67944"/>
<path d="M7.92566 35.9099H13.3073V30.5283H7.92566V35.9099ZM9.39337 31.996H11.8396V34.4422H9.39337V31.996Z" fill="#A67944"/>
<path d="M15.5088 30.5283H34.0998V31.996H15.5088V30.5283Z" fill="#A67944"/>
<path d="M15.5088 33.4639H27.2505V34.9316H15.5088V33.4639Z" fill="#A67944"/>
<path d="M7.92566 43.7378H13.3073V38.3562H7.92566V43.7378ZM9.39337 39.8239H11.8396V42.2701H9.39337V39.8239Z" fill="#A67944"/>
<path d="M15.5088 38.3562H34.0998V39.8239H15.5088V38.3562Z" fill="#A67944"/>
<path d="M15.5088 41.2915H27.2505V42.7592H15.5088V41.2915Z" fill="#A67944"/>
</g>
<defs>
<clipPath id="clip0_3008_160">
<rect width="50" height="50" fill="white"/>
</clipPath>
</defs>
</svg>
