<svg width="89" height="99" viewBox="0 0 89 99" fill="none" xmlns="http://www.w3.org/2000/svg">
<g opacity="0.3">
<path d="M40.6667 6.0816L35.9121 4.66968L43.499 13.2135L40.6667 6.0816Z" fill="#3D6059"/>
<path d="M52.6626 4.14218L49.7878 0.629395L47.823 5.57535L52.6626 4.14218Z" fill="#3D6059"/>
<path d="M41.1924 5.6947H47.091L44.1438 0.638184L41.1924 5.6947Z" fill="#3D6059"/>
<path d="M40.4654 5.57535L38.5006 0.629395L35.6257 4.14218L40.4654 5.57535Z" fill="#3D6059"/>
<path d="M47.1516 6.11987H41.1382L44.1449 13.6855L47.1516 6.11987Z" fill="#3D6059"/>
<path d="M43.7752 0.429443H38.876L40.862 5.42219L43.7752 0.429443Z" fill="#3D6059"/>
<path d="M47.428 5.42219L49.4141 0.429443H44.5149L47.428 5.42219Z" fill="#3D6059"/>
<path d="M47.6239 6.0816L44.7874 13.2135L52.3785 4.66968L47.6239 6.0816Z" fill="#3D6059"/>
<path d="M53.237 4.29953C53.237 4.29953 53.2412 4.27826 53.2412 4.26976C53.2412 4.25275 53.2412 4.23148 53.237 4.21447C53.237 4.20596 53.237 4.20172 53.237 4.19321C53.2327 4.17195 53.2199 4.15493 53.2072 4.13792C53.2072 4.13367 53.203 4.12516 53.1987 4.12091L49.8943 0.0807904C49.8943 0.0807904 49.8645 0.0595324 49.8518 0.0467741C49.8433 0.0382686 49.8347 0.0297683 49.8262 0.0255155C49.7965 0.0127572 49.7667 0 49.7327 0H38.5735C38.5394 0 38.5097 0.00850447 38.4799 0.0255155C38.4714 0.0297683 38.4629 0.0382686 38.4544 0.0467741C38.4416 0.0595324 38.4246 0.0680322 38.4119 0.0807904L35.1075 4.12091C35.1075 4.12091 35.1032 4.12943 35.099 4.13368C35.0862 4.15069 35.0735 4.17195 35.0692 4.19321C35.0692 4.20172 35.0692 4.20596 35.0692 4.21447C35.0692 4.23148 35.0649 4.25275 35.0649 4.26976C35.0649 4.27826 35.0649 4.29102 35.0692 4.29953C35.0692 4.31654 35.0777 4.32931 35.0819 4.34632C35.0862 4.35482 35.0947 4.36757 35.099 4.37608C35.1032 4.38458 35.1075 4.3931 35.1117 4.39735L43.9957 14.3998C43.9957 14.3998 44.017 14.4126 44.0255 14.4211C44.034 14.4296 44.0425 14.4338 44.051 14.4381C44.085 14.4594 44.1191 14.4721 44.1573 14.4721C44.1956 14.4721 44.2296 14.4594 44.2637 14.4381C44.2722 14.4338 44.2807 14.4253 44.2892 14.4211C44.2977 14.4126 44.3104 14.4083 44.3189 14.3998L53.2029 4.39735C53.2029 4.39735 53.2114 4.38033 53.2157 4.37608C53.2242 4.36757 53.2285 4.35908 53.2327 4.34632C53.2412 4.33356 53.2455 4.31654 53.2455 4.29953H53.237ZM38.5012 0.6294L40.4659 5.57536L35.6263 4.14218L38.5012 0.6294ZM52.6628 4.14218L47.8232 5.57536L49.788 0.6294L52.6628 4.14218ZM41.1932 5.69443L44.1403 0.637913L47.0875 5.69443H41.1889H41.1932ZM47.147 6.11971L44.1403 13.6854L41.1336 6.11971H47.147ZM40.6616 6.08144L43.4982 13.2133L35.9112 4.66952L40.6658 6.07718L40.6616 6.08144ZM47.6191 6.08144L52.3737 4.67377L44.7867 13.2176L47.6233 6.08569L47.6191 6.08144ZM47.4235 5.42226L44.5103 0.42952H49.4095L47.4235 5.42226ZM43.7703 0.42952L40.8572 5.42226L38.8712 0.42952H43.7703Z" fill="#3D6059"/>
<path d="M37.4204 60.1464C37.4204 60.1464 37.4332 60.1209 37.4374 60.1124L37.3141 59.3597L37.1397 59.1853C36.6804 59.1853 36.2381 59.1641 35.8213 59.1215C35.4046 59.079 35.0644 58.9557 34.8049 58.7558C34.5753 58.5559 34.3584 58.2965 34.1585 57.9775C33.9586 57.6628 33.8268 57.0972 33.7715 56.2934C33.7417 55.949 33.7205 55.6215 33.7077 55.3196C33.695 55.0176 33.6779 54.6519 33.6652 54.2181C33.6524 53.7843 33.6439 53.2442 33.6439 52.5978V47.133C33.9884 46.8438 34.3074 46.6057 34.5965 46.4186C34.8857 46.2314 35.1877 46.023 35.5024 45.7934H35.6768C36.1361 46.4866 36.7485 47.3712 37.514 48.4514C38.2752 49.5316 39.0279 50.599 39.7594 51.6494C40.4951 52.6999 41.15 53.6227 41.7242 54.4137C41.8773 54.6221 42.2388 55.0346 42.3536 55.192C43.1871 54.4775 44.1482 53.9077 45.2369 53.8396C42.5917 50.6671 40.1677 47.4094 37.9647 44.0625L41.4222 40.52C42.4004 39.5418 43.2381 38.6615 43.9271 37.8833C44.6203 37.105 45.2157 36.4288 45.7218 35.8504C46.2236 35.2763 46.6574 34.8 47.0188 34.4258C47.3803 34.0515 47.7035 33.7794 47.9927 33.605C48.4265 33.3158 48.9581 33.1074 49.5918 32.9798C50.2254 32.8523 50.7272 32.7417 51.1057 32.6566L51.2801 32.4823V31.704L51.1057 31.5296C50.7017 31.5892 50.3573 31.6317 50.0681 31.6572C49.7789 31.687 49.511 31.7168 49.2685 31.7423C49.0219 31.7721 48.7795 31.7848 48.5328 31.7848H45.5304C44.1482 31.7848 42.8809 31.6998 41.7284 31.5254L41.5115 31.6998V32.478L41.7284 32.6524C42.0176 32.7119 42.2983 32.7672 42.5705 32.8267C42.8426 32.8863 43.0893 32.9713 43.3062 33.0862C43.5231 33.201 43.7017 33.3541 43.8463 33.5412C43.9909 33.7283 44.0632 33.9792 44.0632 34.2982C44.0632 34.7022 43.6464 35.4422 42.8086 36.5224C41.9708 37.6026 40.9374 38.7636 39.6956 40.0011C38.6579 41.0388 37.5862 42.017 36.4763 42.9398C35.3663 43.8626 34.4222 44.5686 33.6439 45.0577V39.5716C33.6439 38.9082 33.6524 38.3468 33.6652 37.8875C33.6779 37.4282 33.695 37.0242 33.7077 36.6797C33.7205 36.3353 33.7417 35.961 33.7715 35.557C33.8268 34.749 33.9586 34.1876 34.1585 33.8729C34.3584 33.5582 34.5753 33.2988 34.8049 33.0947C35.0644 32.8948 35.4046 32.7715 35.8213 32.7289C36.2381 32.6864 36.6804 32.6651 37.1397 32.6651L37.3141 32.4908L37.4416 31.7125L37.3566 31.67H26.8565L26.7715 31.7125L26.8991 32.4908L27.116 32.6651C27.5753 32.6651 28.009 32.6864 28.413 32.7289C28.8171 32.7715 29.1488 32.8948 29.4082 33.0947C29.6378 33.2945 29.8632 33.5625 30.0759 33.8942C30.2927 34.2259 30.4289 34.7788 30.4884 35.557C30.5182 35.9015 30.5394 36.2502 30.5522 36.5947C30.5649 36.9392 30.5734 37.3602 30.5734 37.8492V53.1039C30.5734 53.6822 30.5649 54.1713 30.5522 54.5711C30.5394 54.9751 30.5224 55.3153 30.5096 55.5875C30.4969 55.8597 30.4884 56.0978 30.4884 56.302C30.4289 57.11 30.2927 57.6713 30.0759 57.9861C29.859 58.305 29.6378 58.5644 29.4082 58.7643C29.1488 58.9642 28.8171 59.0875 28.413 59.13C28.009 59.1726 27.5753 59.1938 27.116 59.1938L26.8991 59.3682L26.7715 60.1464L26.8565 60.189H37.3566L37.4246 60.1549L37.4204 60.1464Z" fill="#3D6059"/>
<path d="M53.7301 59.3599L53.4706 59.1856C52.4925 59.0708 51.6547 58.8964 50.9658 58.6667C50.2726 58.4371 49.6474 58.1351 49.0861 57.7609C48.7628 57.544 48.4524 57.2974 48.1547 57.0337C46.9639 57.1443 45.8199 57.6673 45.1353 58.5647C45.5265 58.9602 45.7817 59.1728 46.1474 59.445C46.6492 59.8192 47.1766 60.0872 47.7252 60.2445C48.2738 60.4019 48.9202 60.4827 49.6687 60.4827C50.128 60.4827 50.7617 60.4529 51.5697 60.3976C52.3777 60.3381 53.0964 60.3125 53.7301 60.3125L53.8151 60.1382L53.7301 59.3599Z" fill="#3D6059"/>
<path d="M43.6113 60.9212C43.6113 61.7292 43.7559 62.3969 44.0451 62.9285C44.3343 63.4601 44.7723 63.9279 45.3634 64.3319C45.9546 64.7359 46.7031 65.1017 47.6089 65.4334C48.5147 65.7651 49.5907 66.1181 50.8282 66.4923C51.8957 66.8368 52.9461 67.228 53.9838 67.6575C55.0215 68.0913 55.9485 68.6442 56.7693 69.3204C57.5901 69.9966 58.245 70.8174 58.7341 71.7827C59.2232 72.7481 59.4698 73.9219 59.4698 75.304C59.4698 76.7712 59.1806 78.0215 58.6065 79.0422C58.0281 80.0671 57.2669 80.8921 56.3143 81.5258C55.3659 82.1594 54.2602 82.6187 53.0099 82.9079C51.7553 83.1971 50.437 83.3417 49.0548 83.3417C47.2687 83.3417 45.6399 83.1418 44.1727 82.7378C42.7055 82.3338 41.3786 81.832 40.1964 81.2238L40.022 80.6625L40.7577 76.0397H41.8379L42.0548 76.2992C42.1994 78.0555 42.9053 79.3441 44.1727 80.1649C45.44 80.9857 47.1666 81.3982 49.3568 81.3982C51.5469 81.3982 53.2948 80.8879 54.4346 79.863C55.5743 78.8423 56.1399 77.5069 56.1399 75.8654C56.1399 74.8575 55.923 74.0154 55.4935 73.3392C55.0597 72.663 54.4898 72.0847 53.7881 71.6126C53.0822 71.1363 52.2742 70.7408 51.3683 70.4261C50.4625 70.1114 49.5482 69.7924 48.6253 69.4735C47.4728 69.0992 46.4011 68.691 45.406 68.2402C44.4108 67.7936 43.5475 67.2663 42.8118 66.6624C42.0761 66.0585 41.5019 65.3398 41.0852 64.502C40.6684 63.6685 40.46 62.6733 40.46 61.5208C40.46 60.1684 40.6982 59.0202 41.1745 58.0846C41.6508 57.149 42.3057 56.3835 43.1393 55.7966C43.9728 55.2055 44.9467 54.7802 46.0566 54.5208C47.1666 54.2614 48.3702 54.1338 49.663 54.1338C51.2195 54.1338 52.6867 54.2784 54.0688 54.5676C55.451 54.8567 56.5737 55.2012 57.4413 55.6052L57.6156 56.0815L57.0117 59.926H55.8039L55.5871 59.7091C55.5275 58.9607 55.2851 58.3568 54.8513 57.8932C54.4175 57.4339 53.9072 57.0724 53.3161 56.813C52.725 56.5536 52.0913 56.3792 51.4151 56.2942C50.7389 56.2091 50.1393 56.1666 49.6204 56.1666C47.7492 56.1666 46.2778 56.5791 45.2146 57.3999C44.1472 58.2207 43.6156 59.3944 43.6156 60.9212H43.6113Z" fill="#3D6059"/>
<path d="M4.73332 45.3895L1.61179 45.6744C1.4757 45.6872 1.36087 45.7 1.26731 45.7085C1.17375 45.717 1.09721 45.7255 1.03342 45.734C0.969625 45.7425 0.914337 45.751 0.87181 45.7553C0.829282 45.7638 0.791021 45.768 0.752746 45.7723C0.637922 45.7935 0.544347 45.819 0.47205 45.8531C0.404006 45.8871 0.348714 45.9254 0.306186 45.9679C0.267911 46.0104 0.238163 46.0572 0.221152 46.1082C0.204141 46.1593 0.18711 46.2146 0.174352 46.2656L0.140348 46.2911L0.0255155 46.2741L0 46.2613C0.00850551 46.2316 0.0212534 46.189 0.0425172 46.1338C0.063781 46.0785 0.0807941 46.0189 0.0978051 45.9551C0.114816 45.8913 0.131847 45.8318 0.144605 45.7723C0.161616 45.7127 0.170103 45.6702 0.178608 45.6404L0.233896 45.4278C0.242402 45.398 0.255172 45.3512 0.272183 45.2832C0.289194 45.2151 0.306207 45.1471 0.327471 45.0706C0.348734 44.9983 0.365747 44.926 0.382758 44.8579C0.399769 44.7899 0.412513 44.7431 0.421019 44.7133L0.429533 44.7006L0.535851 44.7474L0.552853 44.7856C0.523084 44.909 0.510318 45.0068 0.518824 45.0791C0.527329 45.1514 0.595383 45.2066 0.71446 45.2364C0.812273 45.2619 0.952618 45.2619 1.14399 45.2449C1.33537 45.2237 1.57352 45.2024 1.86271 45.1726L3.13002 45.045C3.36818 45.0238 3.58507 45.0025 3.77219 44.9855C3.96357 44.9685 4.12519 44.9515 4.26553 44.9345C4.15496 44.8579 4.02735 44.7644 3.87425 44.6538C3.72541 44.5475 3.54255 44.4199 3.32992 44.2753L2.28373 43.5481C2.13488 43.446 2.00305 43.3567 1.89248 43.2759C1.77766 43.1951 1.67558 43.127 1.58627 43.0633C1.51397 43.0633 1.44168 43.076 1.37363 43.0845C1.30134 43.0973 1.23756 43.1143 1.17802 43.1398C1.11848 43.1653 1.06319 43.2078 1.01216 43.2631C0.961125 43.3184 0.92286 43.3907 0.888837 43.48L0.854808 43.5055L0.739975 43.4885L0.71446 43.4758C0.722965 43.446 0.735739 43.4035 0.757003 43.3482C0.778267 43.2929 0.795254 43.2334 0.812265 43.1738C0.829276 43.1143 0.842054 43.0547 0.859065 42.9995C0.871823 42.9442 0.884563 42.9017 0.893068 42.8719L0.948356 42.6635C0.956862 42.6337 0.969627 42.5869 0.982386 42.5232C0.999397 42.4594 1.01641 42.3913 1.03342 42.3233C1.05043 42.251 1.06744 42.1829 1.08445 42.1234C1.10146 42.0596 1.11423 42.0128 1.12273 41.9831L1.13122 41.9703L1.23754 42.0171L1.25457 42.0553C1.24181 42.1021 1.23754 42.1532 1.23754 42.2085C1.23754 42.2637 1.2503 42.319 1.26731 42.37C1.28432 42.4211 1.30984 42.4679 1.34812 42.5061C1.38214 42.5444 1.42892 42.5699 1.47995 42.5827C1.52248 42.5954 1.55226 42.5955 1.56927 42.5912C1.67984 42.5912 1.81594 42.5827 1.97754 42.5657C2.13915 42.5487 2.33051 42.5274 2.5474 42.5104L3.81471 42.3828C4.04861 42.3573 4.26551 42.336 4.45688 42.3233C4.65251 42.3063 4.81413 42.2892 4.95021 42.2765C4.83964 42.1999 4.71204 42.1064 4.55894 41.9958C4.40584 41.8895 4.22724 41.7619 4.0146 41.6173L2.96842 40.8901C2.73026 40.7242 2.5304 40.5882 2.37305 40.4776C2.21569 40.367 2.0881 40.299 1.99454 40.2734C1.87121 40.2437 1.7904 40.2564 1.74362 40.316C1.70109 40.3755 1.66284 40.4648 1.62881 40.5881L1.59904 40.6052L1.47995 40.5967V40.5839C1.4842 40.5541 1.49697 40.5073 1.51398 40.4436C1.53099 40.3798 1.548 40.316 1.56501 40.2479C1.58202 40.1799 1.59903 40.1161 1.61604 40.0523C1.63305 39.9885 1.64582 39.9417 1.65007 39.912L1.67984 39.7929C1.68835 39.7631 1.69686 39.7206 1.71387 39.6653C1.72663 39.61 1.74364 39.5505 1.76065 39.4867C1.77766 39.4229 1.7904 39.3634 1.79891 39.3038C1.80741 39.2443 1.81592 39.1975 1.82442 39.1677H1.8542L1.96051 39.2103L1.97754 39.2485C1.96478 39.3038 1.95202 39.3548 1.94351 39.4059C1.93501 39.4569 1.93927 39.5122 1.95203 39.5675C1.96478 39.6228 1.99454 39.6866 2.04132 39.7461C2.0881 39.8056 2.15191 39.8779 2.24547 39.9587C2.27524 39.98 2.31349 40.0098 2.35602 40.0438C2.39855 40.0778 2.48361 40.1416 2.60694 40.2352C2.73027 40.3287 2.90889 40.4563 3.13854 40.6264C3.36819 40.7965 3.68713 41.0262 4.08689 41.3111C4.21873 41.4089 4.35483 41.5067 4.49517 41.6088C4.63551 41.7109 4.7716 41.8087 4.89493 41.9023C5.02251 41.9958 5.13307 42.0766 5.23089 42.1489C5.3287 42.2212 5.39674 42.268 5.43927 42.2978L5.42226 42.6422L5.40101 42.7188L2.08809 43.0292C2.21993 43.127 2.39004 43.2504 2.59843 43.3992C2.80681 43.5481 3.07049 43.7394 3.39795 43.9733C3.52978 44.0669 3.66588 44.1647 3.80622 44.2668C3.94656 44.3689 4.08265 44.4709 4.20598 44.5602C4.33356 44.6538 4.44413 44.7346 4.54194 44.8069C4.63975 44.8792 4.71205 44.926 4.75032 44.9557L4.73332 45.3002L4.71206 45.3768L4.73332 45.3895Z" fill="#3D6059"/>
<path d="M4.23942 34.0603C4.26494 34.0093 4.30322 33.9327 4.35426 33.8307C4.40529 33.7286 4.45632 33.6265 4.51161 33.5202C4.56264 33.4139 4.60943 33.3203 4.65195 33.2395C4.69448 33.1545 4.71999 33.1034 4.7285 33.0864H4.79656L5.41744 33.4266L5.34516 33.5712L5.31113 33.584C5.21757 33.5457 5.14102 33.5202 5.08149 33.5074C5.02195 33.4947 4.96665 33.516 4.91137 33.567C4.85608 33.618 4.79655 33.7073 4.73276 33.8349C4.66897 33.9625 4.57965 34.1411 4.46057 34.375L4.1799 34.9321L4.3968 35.0555C4.45634 35.0895 4.50736 35.1192 4.54563 35.1405C4.58816 35.1618 4.63919 35.1915 4.69873 35.2256C4.75827 35.2596 4.83057 35.2979 4.91988 35.3404C5.00493 35.3829 5.21333 35.4892 5.54079 35.6551C5.60033 35.5403 5.6556 35.4212 5.71514 35.3064C5.77468 35.1915 5.82571 35.0852 5.87249 34.9917C5.91927 34.8981 5.95329 34.813 5.97455 34.7407C5.99157 34.6684 5.99582 34.6132 5.97881 34.5749C5.9618 34.5281 5.94479 34.4856 5.92778 34.4473C5.90652 34.409 5.86823 34.375 5.80869 34.3452L5.79595 34.3027L5.83421 34.1964L5.85549 34.1794C5.94055 34.2304 6.01283 34.2772 6.07662 34.3155C6.14041 34.3537 6.21271 34.3963 6.29777 34.4388C6.39133 34.4856 6.47638 34.5239 6.56144 34.5579C6.64224 34.5919 6.73155 34.6302 6.82936 34.6685V34.6982L6.76556 34.796L6.73581 34.8088C6.67202 34.779 6.60823 34.7578 6.54444 34.7578C6.48064 34.7578 6.42109 34.7578 6.37006 34.7705C6.33604 34.7833 6.29352 34.8173 6.25099 34.8768C6.20421 34.9364 6.16168 35.0129 6.1149 35.1065C6.06812 35.2 6.01709 35.3021 5.95755 35.4212C5.89801 35.536 5.83848 35.6551 5.77894 35.7742L6.34029 36.0549C6.48063 36.1229 6.59122 36.1824 6.68053 36.225C6.76558 36.2675 6.84638 36.3058 6.91442 36.3398C6.98247 36.3738 7.04626 36.3993 7.1058 36.4248C7.16534 36.4504 7.22912 36.4759 7.30993 36.5056C7.38222 36.5439 7.43752 36.5227 7.48005 36.4461L7.72669 35.9528C7.84151 35.7189 7.93082 35.536 7.99036 35.3957C8.04564 35.2553 8.07968 35.1448 8.08393 35.0597C8.08393 34.9746 8.06691 34.9024 8.01587 34.8386C7.96484 34.779 7.8968 34.7067 7.80749 34.6259L7.79475 34.5919L7.87129 34.4431L8.55172 34.9151L8.58575 34.9917C8.58575 34.9917 8.55174 35.0555 8.51772 35.1235C8.4837 35.1915 8.44541 35.2723 8.39863 35.3574C8.3561 35.4425 8.30932 35.5318 8.2668 35.6168C8.22427 35.7061 8.19025 35.7742 8.16473 35.8209L7.5736 36.9947C7.56084 37.0202 7.53958 37.067 7.50556 37.1265C7.47579 37.1903 7.44175 37.2541 7.40773 37.3179C7.37371 37.3817 7.34395 37.4455 7.30993 37.5093C7.28016 37.5731 7.25465 37.6156 7.24189 37.6411L7.22912 37.6496L7.13557 37.5816L7.12706 37.5391C7.15683 37.4795 7.1866 37.4157 7.20786 37.3604C7.22913 37.3052 7.23337 37.2499 7.22487 37.2031C7.21211 37.1606 7.19509 37.1095 7.16532 37.0585C7.13555 37.0075 7.07177 36.9522 6.96545 36.8884C6.93994 36.8756 6.9059 36.8586 6.87188 36.8374C6.83786 36.8161 6.79108 36.7906 6.74005 36.7608C6.68901 36.731 6.62098 36.697 6.54444 36.6587C6.46789 36.6205 6.37008 36.5694 6.25525 36.5141L5.07723 35.923C4.94114 35.855 4.82632 35.7954 4.73276 35.7487C4.6392 35.7019 4.56265 35.6636 4.4946 35.6296C4.43081 35.5956 4.37126 35.57 4.32448 35.5488C4.2777 35.5275 4.23094 35.5062 4.1799 35.4892C4.07359 35.4425 3.98852 35.4254 3.92898 35.4339C3.86944 35.4424 3.81841 35.451 3.77589 35.468C3.73336 35.4892 3.69082 35.5232 3.66105 35.5785C3.62703 35.6296 3.59727 35.6849 3.56325 35.7487L3.52496 35.7657L3.41016 35.7316V35.7189C3.42291 35.6934 3.44417 35.6466 3.47819 35.587C3.50796 35.5233 3.54198 35.4595 3.58025 35.3872C3.61427 35.3149 3.65255 35.2468 3.68657 35.1788C3.72059 35.1107 3.75037 35.0555 3.77163 35.0129L4.25219 34.0603H4.23942Z" fill="#3D6059"/>
<path d="M7.72671 29.344C7.63315 29.2845 7.55661 29.2547 7.49707 29.2462C7.43753 29.2377 7.38224 29.242 7.33546 29.2547C7.29294 29.2717 7.25891 29.293 7.22489 29.3228C7.19087 29.3483 7.1441 29.4036 7.07605 29.4929L7.03776 29.5014L6.93145 29.4461L6.9187 29.4206C6.93571 29.3951 6.96546 29.3653 7.00799 29.3228C7.05052 29.2845 7.08881 29.2377 7.12708 29.1867C7.16536 29.1356 7.20364 29.0846 7.24191 29.0336C7.28019 28.9825 7.3142 28.94 7.33972 28.9017L7.56087 28.604C7.59489 28.5573 7.63742 28.502 7.68845 28.4339C7.73948 28.3659 7.79051 28.2978 7.8458 28.2256C7.90108 28.1533 7.95212 28.0852 8.00315 28.0172C8.05418 27.9491 8.0967 27.8938 8.12647 27.8556C8.3306 27.5876 8.55599 27.3792 8.81116 27.2347C9.06207 27.0901 9.32149 27.005 9.58516 26.9752C9.84883 26.9455 10.1168 26.9752 10.3804 27.0518C10.6441 27.1283 10.895 27.2559 11.1247 27.4303C11.3543 27.6004 11.5414 27.8045 11.6903 28.0299C11.8391 28.2596 11.9369 28.5062 11.988 28.7699C12.0348 29.0336 12.022 29.31 11.9539 29.5992C11.8817 29.8884 11.7413 30.1733 11.5244 30.4625C11.5032 30.4923 11.4649 30.539 11.4181 30.6028C11.3713 30.6666 11.3203 30.7304 11.2693 30.7985C11.2182 30.8665 11.1672 30.9346 11.1204 30.9983C11.0736 31.0621 11.0354 31.1132 11.0056 31.1514L10.7972 31.4279C10.7802 31.4534 10.7504 31.4917 10.7079 31.547C10.6654 31.6022 10.6228 31.6575 10.5803 31.7171C10.5378 31.7766 10.491 31.8319 10.4527 31.8872C10.4102 31.9425 10.3804 31.9807 10.3634 32.0062L10.3507 32.0148L10.2699 31.9297V31.8872C10.2996 31.8446 10.3337 31.7936 10.3719 31.7341C10.4102 31.6745 10.4272 31.6235 10.4315 31.5767C10.4315 31.5342 10.4187 31.4832 10.3932 31.4236C10.3677 31.3641 10.3124 31.296 10.2316 31.2195C10.2061 31.2025 10.1806 31.177 10.1465 31.1514C10.1168 31.1259 10.0742 31.0919 10.0275 31.0536C9.98068 31.0154 9.92113 30.9686 9.85309 30.9175C9.78504 30.8665 9.69574 30.7985 9.59368 30.7219L8.539 29.9267C8.50498 29.9011 8.44969 29.8629 8.38165 29.8076C8.30935 29.7523 8.23704 29.697 8.15624 29.6375C8.07544 29.5779 7.99889 29.5184 7.92235 29.4631C7.8458 29.4078 7.78201 29.3653 7.73948 29.3398L7.72671 29.344ZM11.282 30.2243C11.4394 30.016 11.5372 29.8033 11.584 29.5864C11.6265 29.3695 11.6265 29.1569 11.5797 28.9528C11.5329 28.7444 11.4436 28.5488 11.3075 28.3574C11.1757 28.166 11.0056 27.9959 10.8015 27.8428C10.5931 27.6855 10.3804 27.5706 10.1593 27.4983C9.93816 27.426 9.72125 27.3963 9.50862 27.4133C9.29598 27.4303 9.09184 27.4898 8.89622 27.6004C8.70059 27.7067 8.52623 27.8641 8.36888 28.0724L7.82877 28.7869C7.92233 28.8677 8.00314 28.9358 8.07118 28.991C8.13923 29.0421 8.20303 29.0974 8.27107 29.1526C8.33912 29.2079 8.4114 29.2675 8.4922 29.327C8.573 29.3866 8.67509 29.4673 8.80267 29.5609L9.75528 30.2796C9.96367 30.437 10.1253 30.5561 10.2444 30.6411C10.3634 30.7262 10.4527 30.79 10.5165 30.824C10.6143 30.8835 10.6866 30.9005 10.7377 30.8835C10.7844 30.8665 10.844 30.8112 10.912 30.7219L11.2863 30.2243H11.282Z" fill="#3D6059"/>
<path d="M13.0104 23.1261C12.9296 23.0538 12.8615 23.0027 12.802 22.9857C12.7425 22.9645 12.6872 22.9602 12.6404 22.9602C12.5979 22.9687 12.5553 22.9857 12.5171 23.007C12.4788 23.0283 12.4193 23.0708 12.3385 23.1473H12.2959L12.2024 23.075L12.1938 23.0453C12.2151 23.024 12.2491 22.9985 12.3002 22.9687C12.3469 22.939 12.3937 22.9007 12.4448 22.8539C12.4916 22.8114 12.5383 22.7688 12.5851 22.7263C12.6319 22.6838 12.6744 22.6455 12.7084 22.6157L12.9806 22.3648C13.0232 22.3266 13.0742 22.2798 13.138 22.2245C13.2018 22.1692 13.2656 22.1097 13.3294 22.0501C13.3931 21.9906 13.4569 21.931 13.5207 21.8758C13.5845 21.8205 13.6355 21.7737 13.6738 21.7397C13.9247 21.5143 14.1841 21.3527 14.4606 21.2591C14.7328 21.1656 15.0049 21.1273 15.2686 21.1485C15.5323 21.1698 15.7917 21.2464 16.0384 21.3697C16.285 21.4973 16.5062 21.6674 16.7018 21.88C16.8932 22.0927 17.042 22.3223 17.1441 22.5775C17.2461 22.8326 17.2972 23.0921 17.2972 23.36C17.2972 23.6279 17.2334 23.8958 17.11 24.168C16.9867 24.4359 16.7911 24.6953 16.5232 24.9335C16.4934 24.959 16.4509 24.9973 16.3913 25.0526C16.336 25.1036 16.2722 25.1589 16.2085 25.2184C16.1447 25.278 16.0809 25.3333 16.0213 25.3885C15.9618 25.4438 15.915 25.4864 15.881 25.5161L15.6258 25.7458C15.6046 25.767 15.5663 25.8011 15.5152 25.8478C15.4642 25.8946 15.4089 25.9414 15.3579 25.9924C15.3026 26.0435 15.2516 26.0902 15.2005 26.137C15.1495 26.1838 15.1112 26.2178 15.09 26.2391H15.0772L15.0134 26.1413V26.0988C15.0602 26.0647 15.1027 26.0222 15.1495 25.9712C15.1963 25.9201 15.2261 25.8734 15.2388 25.8266C15.2473 25.784 15.2431 25.733 15.2261 25.6692C15.2091 25.6054 15.1708 25.5289 15.1027 25.4396C15.0815 25.4183 15.0602 25.3885 15.0347 25.3588C15.0092 25.3247 14.9752 25.2865 14.9369 25.2397C14.8986 25.1929 14.8476 25.1376 14.7923 25.0738C14.7328 25.01 14.6605 24.9292 14.5754 24.8314L13.6908 23.8533C13.6611 23.8193 13.6185 23.7725 13.559 23.7045C13.4995 23.6407 13.4357 23.5684 13.3676 23.4961C13.2996 23.4238 13.2358 23.3515 13.1677 23.2834C13.0997 23.2154 13.0487 23.1601 13.0104 23.1261ZM16.3403 24.6571C16.5317 24.4827 16.672 24.2913 16.7528 24.0872C16.8379 23.8831 16.8761 23.6747 16.8676 23.462C16.8591 23.2494 16.8081 23.0368 16.7103 22.8284C16.6125 22.6157 16.4806 22.4159 16.3105 22.2287C16.1361 22.0374 15.9448 21.8843 15.7449 21.7694C15.5408 21.6546 15.3324 21.5866 15.124 21.5611C14.9114 21.5355 14.6987 21.5611 14.4861 21.6291C14.2735 21.6971 14.0736 21.8205 13.8779 21.9948L13.2145 22.5987C13.2911 22.6965 13.3591 22.7774 13.4144 22.8411C13.4697 22.9049 13.525 22.9687 13.5803 23.0368C13.6355 23.1048 13.6951 23.1771 13.7674 23.2494C13.8354 23.326 13.9205 23.4195 14.0268 23.5343L14.8306 24.4189C15.0049 24.6103 15.141 24.7591 15.2431 24.8655C15.3409 24.9718 15.4217 25.0483 15.477 25.0994C15.562 25.1759 15.6301 25.2057 15.6811 25.1972C15.7321 25.1887 15.8002 25.1461 15.881 25.0696L16.3445 24.6486L16.3403 24.6571Z" fill="#3D6059"/>
<path d="M19.8261 17.0281L19.8729 17.1344L19.8644 17.1684C19.8049 17.2067 19.7539 17.245 19.7028 17.2875C19.6518 17.3258 19.622 17.3726 19.605 17.4193C19.5922 17.4619 19.588 17.5129 19.588 17.5724C19.588 17.6277 19.6178 17.7085 19.6773 17.8148C19.7071 17.8659 19.7368 17.9169 19.7623 17.9594C19.7879 18.002 19.8219 18.0572 19.8559 18.1168C19.8899 18.1763 19.9367 18.2486 19.992 18.3294C20.0473 18.4145 20.1153 18.5208 20.2046 18.6484L20.8638 19.6478C20.9489 19.7796 21.0212 19.8817 21.0722 19.9667C21.1275 20.0475 21.17 20.1156 21.2083 20.1666C21.2466 20.2176 21.2763 20.2644 21.3061 20.3027C21.3316 20.341 21.3614 20.3792 21.3954 20.4175C21.4677 20.5153 21.5315 20.5749 21.5825 20.5961C21.6336 20.6174 21.6846 20.6344 21.7271 20.6387C21.7782 20.6387 21.8292 20.6302 21.8845 20.6004C21.9398 20.5706 21.9993 20.5366 22.0546 20.4983L22.0886 20.5068L22.1694 20.5919L22.1609 20.6046C22.1354 20.6217 22.0929 20.6472 22.0376 20.6854C21.978 20.7237 21.9185 20.762 21.859 20.8045C21.7994 20.8471 21.7356 20.8853 21.6803 20.9236C21.6208 20.9619 21.5825 20.9874 21.557 21.0044L21.455 21.0725C21.4294 21.0895 21.3869 21.115 21.3316 21.1533C21.2721 21.1915 21.2125 21.2298 21.153 21.2723C21.0935 21.3149 21.0297 21.3531 20.9744 21.3914C20.9149 21.4297 20.8766 21.4552 20.8511 21.4722H20.8383L20.7915 21.3659L20.8043 21.3276C20.8638 21.2893 20.9148 21.2511 20.9616 21.2128C21.0084 21.1745 21.0382 21.132 21.0552 21.0852C21.068 21.0427 21.0722 20.9917 21.0765 20.9321C21.0765 20.8726 21.0467 20.7918 20.9871 20.6854C20.9701 20.6599 20.9531 20.6302 20.9318 20.5961C20.9106 20.5621 20.8851 20.5153 20.8511 20.4643C20.8213 20.4133 20.7788 20.3495 20.732 20.2772C20.6852 20.2049 20.6257 20.1156 20.5534 20.005L19.8261 18.9035C19.7411 18.776 19.673 18.6696 19.6135 18.5846C19.5582 18.4995 19.5072 18.423 19.4647 18.3634C19.4221 18.3039 19.3839 18.2529 19.3541 18.2103C19.3243 18.1678 19.2903 18.1253 19.2605 18.087C19.1925 17.9977 19.1287 17.9382 19.0734 17.9127C19.0181 17.8871 18.9713 17.8701 18.9246 17.8616C18.8735 17.8616 18.8225 17.8701 18.7672 17.8999C18.7119 17.9297 18.6566 17.9594 18.6013 17.9977H18.5588L18.478 17.9084L18.4865 17.8956C18.512 17.8786 18.5546 17.8531 18.6099 17.8148C18.6694 17.7766 18.7289 17.7383 18.7885 17.6958C18.848 17.6532 18.9075 17.615 18.9671 17.5767C19.0266 17.5384 19.0649 17.5129 19.0904 17.4959L19.1925 17.4278C19.218 17.4108 19.2605 17.3853 19.3158 17.347C19.3753 17.3088 19.4349 17.2705 19.4944 17.228C19.554 17.1854 19.6135 17.1472 19.6731 17.1089C19.7326 17.0706 19.7709 17.0451 19.7964 17.0281H19.8091H19.8261Z" fill="#3D6059"/>
<path d="M27.2005 13.2002L27.2345 13.3107L27.2175 13.349C27.1537 13.3788 27.0941 13.4085 27.0431 13.4383C26.9878 13.4723 26.9538 13.5064 26.9325 13.5489C26.9155 13.5914 26.9028 13.6382 26.8942 13.6935C26.8857 13.7488 26.907 13.8338 26.9495 13.9486C26.9708 14.0039 26.9921 14.0592 27.0091 14.106C27.0303 14.1528 27.0516 14.2123 27.0771 14.2761C27.1026 14.3399 27.1366 14.4164 27.1792 14.51C27.2217 14.5993 27.2727 14.7184 27.3408 14.8587L27.8171 15.9007C27.9192 16.1218 28 16.3004 28.068 16.445C28.1361 16.5853 28.1913 16.7044 28.2424 16.8065C28.2891 16.9043 28.3359 16.9936 28.3785 17.0702C28.421 17.1467 28.4678 17.2318 28.5188 17.3211L28.4805 17.3593L28.1148 17.5252L28.0212 17.4827L24.4702 15.284C24.4872 15.3223 24.5042 15.3648 24.5212 15.4031C24.5382 15.4414 24.5595 15.4924 24.585 15.5477C24.6105 15.603 24.6403 15.671 24.6743 15.7476C24.7083 15.8241 24.7509 15.9134 24.8019 16.024L25.2995 17.1127C25.3207 17.1595 25.3505 17.2233 25.3845 17.2998C25.4185 17.3764 25.4568 17.4572 25.4951 17.538C25.5334 17.6188 25.5716 17.6996 25.6099 17.7761C25.6482 17.8527 25.678 17.9122 25.7035 17.959C25.7545 18.0525 25.8055 18.1206 25.8566 18.1589C25.9034 18.1971 25.9544 18.2184 26.0054 18.2312C26.048 18.2397 26.0947 18.2354 26.15 18.2227C26.2053 18.2099 26.2734 18.1801 26.3499 18.1461L26.3882 18.1546L26.4562 18.2524L26.4477 18.2652C26.4222 18.2779 26.3797 18.2992 26.3201 18.3247C26.2648 18.3502 26.201 18.38 26.1415 18.4055C26.0777 18.4353 26.0182 18.4608 25.9629 18.4863C25.9076 18.5119 25.8651 18.5331 25.8353 18.5459L25.7247 18.5969C25.695 18.6097 25.6524 18.6309 25.5886 18.6607C25.5249 18.6905 25.4611 18.7202 25.393 18.75C25.325 18.7798 25.2612 18.8095 25.1974 18.8393C25.1336 18.8691 25.0911 18.8903 25.0613 18.9031H25.0486L25.0188 18.7883L25.0358 18.75C25.1081 18.716 25.1634 18.6862 25.2102 18.6607C25.257 18.6309 25.2952 18.5969 25.3207 18.5501C25.3377 18.5161 25.3548 18.4736 25.3633 18.414C25.3718 18.3545 25.3548 18.2652 25.3165 18.1461C25.308 18.1163 25.2952 18.0823 25.2825 18.044C25.2654 18.0058 25.2484 17.959 25.2229 17.9037C25.1974 17.8484 25.1676 17.7804 25.1294 17.7038C25.0911 17.623 25.0486 17.5252 24.9933 17.4061L24.4447 16.2069C24.3809 16.0708 24.3298 15.9517 24.283 15.8581C24.2405 15.7646 24.2023 15.6838 24.1725 15.6157C24.1427 15.5477 24.113 15.4924 24.0917 15.4456C24.0662 15.3988 24.0449 15.3521 24.0194 15.3095C23.9726 15.2287 23.9258 15.1692 23.8705 15.1224C23.8153 15.0799 23.7642 15.0501 23.7174 15.0373C23.6707 15.0246 23.6154 15.0288 23.5601 15.0501C23.5048 15.0671 23.441 15.0926 23.3772 15.1224L23.3389 15.1139L23.2751 15.0161V14.9863C23.3049 14.9736 23.3432 14.9565 23.3985 14.9353C23.4538 14.914 23.509 14.8928 23.5643 14.8715C23.6196 14.8502 23.6749 14.829 23.7302 14.8077C23.7855 14.7864 23.8238 14.7694 23.8535 14.7567L24.0619 14.6631C24.0917 14.6503 24.1385 14.6291 24.1938 14.6036C24.249 14.5781 24.2958 14.5525 24.3256 14.5228H24.3639C24.4064 14.5738 24.4702 14.6376 24.5637 14.7099C24.6573 14.7822 24.7636 14.863 24.887 14.9523C25.0103 15.0373 25.1421 15.1309 25.2825 15.2287C25.4228 15.3265 25.5674 15.4201 25.7077 15.5137C26.2266 15.8581 26.6689 16.1303 27.0303 16.3302C27.3918 16.5301 27.6257 16.6619 27.7278 16.7257C27.715 16.7002 27.7023 16.6704 27.6938 16.6491C27.6853 16.6236 27.6725 16.5981 27.6597 16.5641C27.647 16.5343 27.6257 16.4918 27.6044 16.445C27.5832 16.3982 27.5534 16.3344 27.5194 16.2536L26.9708 15.0544C26.907 14.9183 26.856 14.7992 26.8092 14.7056C26.7667 14.6121 26.7284 14.5313 26.6944 14.4632C26.6604 14.3952 26.6348 14.3399 26.6093 14.2931C26.5838 14.2463 26.5625 14.1995 26.537 14.157C26.4775 14.0507 26.4265 13.9827 26.3797 13.9529C26.3329 13.9231 26.2861 13.9019 26.2436 13.8891C26.1968 13.8763 26.1415 13.8806 26.082 13.9019C26.0224 13.9231 25.9587 13.9486 25.8991 13.9742L25.8651 13.9614L25.8013 13.8636V13.8338C25.8311 13.8211 25.8693 13.804 25.9246 13.7828C25.9757 13.7615 26.031 13.7403 26.0862 13.719C26.1415 13.6977 26.1925 13.6765 26.2478 13.6552C26.2989 13.6339 26.3414 13.6169 26.3669 13.6042L26.6433 13.4766C26.6689 13.4638 26.7114 13.4468 26.7624 13.4213C26.8134 13.3958 26.8645 13.3703 26.9198 13.3405C26.9708 13.3107 27.0261 13.281 27.0729 13.2554C27.1239 13.2299 27.1579 13.2044 27.1834 13.1917L27.2005 13.2129V13.2002Z" fill="#3D6059"/>
<path d="M35.5412 14.9609C35.3541 15.0757 35.1584 15.182 34.95 15.2799C34.7417 15.3777 34.5163 15.4585 34.2781 15.5223C33.9124 15.6158 33.5807 15.6413 33.283 15.5988C32.9853 15.5563 32.7216 15.4627 32.492 15.3139C32.2623 15.165 32.0752 14.9737 31.9221 14.744C31.769 14.5101 31.6584 14.2507 31.5861 13.9658C31.5096 13.6638 31.484 13.3704 31.5138 13.0854C31.5436 12.8005 31.6244 12.5411 31.7605 12.2987C31.8966 12.0605 32.088 11.8479 32.3304 11.6693C32.577 11.4906 32.8789 11.3546 33.2404 11.261C33.317 11.244 33.4063 11.2185 33.5126 11.193C33.6189 11.1674 33.7338 11.1462 33.8571 11.1334C33.9804 11.1207 34.1037 11.1122 34.2313 11.1079C34.3589 11.1079 34.4822 11.1079 34.6056 11.1249L34.6311 11.1802L34.6821 11.8266L34.5035 11.8691L34.4737 11.8564C34.4014 11.6948 34.2696 11.5885 34.0825 11.5417C33.8911 11.4907 33.6275 11.5077 33.2872 11.597C32.8109 11.7161 32.475 11.9074 32.2793 12.1668C32.1985 12.2732 32.1347 12.388 32.0922 12.5156C32.0497 12.6432 32.0199 12.775 32.0029 12.9196C31.9859 13.0599 31.9859 13.2088 32.0029 13.3576C32.0156 13.5065 32.0412 13.6553 32.0752 13.7956C32.1475 14.0763 32.2495 14.3187 32.3899 14.5186C32.526 14.7185 32.6876 14.8801 32.8704 14.9949C33.0533 15.1097 33.2532 15.1863 33.4701 15.2161C33.687 15.2458 33.9124 15.2331 34.142 15.1778C34.2143 15.1608 34.2951 15.1395 34.3844 15.1183C34.4737 15.097 34.5631 15.0672 34.6439 15.0332C34.7247 14.9992 34.8012 14.9652 34.8607 14.9311C34.9245 14.8971 34.9671 14.8673 34.9883 14.8461C35.0181 14.8163 35.0223 14.7695 35.0053 14.7015C34.9968 14.6717 34.9883 14.6334 34.9756 14.5824C34.9628 14.5314 34.9501 14.4761 34.933 14.4208C34.9203 14.3655 34.9033 14.306 34.8863 14.2507C34.8693 14.1954 34.8522 14.1444 34.8395 14.1061C34.8054 13.9998 34.7587 13.919 34.7119 13.8722C34.6609 13.8254 34.6226 13.7956 34.5928 13.7829C34.546 13.7616 34.4865 13.7574 34.4099 13.7701C34.3334 13.7829 34.2611 13.7999 34.1931 13.8169L34.1548 13.7999L34.0995 13.6681L34.1123 13.6596C34.142 13.6511 34.1888 13.6383 34.2526 13.6255C34.3164 13.6085 34.3844 13.5915 34.4525 13.5745C34.5205 13.5575 34.5886 13.5405 34.6523 13.5235C34.7161 13.5065 34.7629 13.4937 34.7927 13.4895L34.9798 13.4427C35.0096 13.4342 35.0479 13.4257 35.0989 13.4087C35.1499 13.3916 35.201 13.3789 35.2563 13.3619C35.3115 13.3449 35.3626 13.3321 35.4136 13.3151C35.4646 13.2981 35.5029 13.2896 35.5327 13.2811L35.5539 13.3023L35.5794 13.4554L35.5539 13.4895C35.4306 13.5192 35.3583 13.5788 35.3243 13.6596C35.2903 13.7404 35.2903 13.8552 35.32 13.9955C35.337 14.1018 35.3626 14.2124 35.3881 14.3315C35.4179 14.4506 35.4391 14.5399 35.4519 14.5952C35.4689 14.659 35.4859 14.7227 35.5072 14.795C35.5284 14.8673 35.5454 14.9141 35.5582 14.9311L35.5412 14.9694V14.9609Z" fill="#3D6059"/>
<path d="M54.2104 11.0911L54.1679 11.2017L54.1381 11.223C54.07 11.2102 54.0063 11.1974 53.9425 11.1932C53.8787 11.1889 53.8277 11.1932 53.7809 11.2187C53.7426 11.24 53.7001 11.274 53.6618 11.3123C53.6235 11.3548 53.5852 11.4313 53.5555 11.5504C53.5385 11.61 53.5257 11.6652 53.5129 11.712C53.5002 11.7631 53.4874 11.8226 53.4704 11.8906C53.4534 11.9587 53.4364 12.0395 53.4151 12.1373C53.3939 12.2351 53.3683 12.3584 53.3386 12.5115L53.1004 13.6811C53.0706 13.8342 53.0451 13.9575 53.0239 14.0553C53.0026 14.1531 52.9899 14.2297 52.9771 14.2935C52.9643 14.3572 52.9558 14.4125 52.9516 14.4551C52.9431 14.5018 52.9388 14.5486 52.9303 14.5997C52.9133 14.7187 52.9175 14.808 52.9346 14.8591C52.9558 14.9101 52.9771 14.9569 53.0069 14.9952C53.0409 15.0334 53.0834 15.059 53.1472 15.0802C53.2067 15.0972 53.2705 15.1142 53.3386 15.1312L53.3598 15.161V15.2801H53.3428C53.3131 15.2758 53.2663 15.2631 53.1982 15.2503C53.1302 15.2376 53.0621 15.2206 52.9898 15.2078C52.9175 15.195 52.8495 15.178 52.7815 15.1653C52.7134 15.1525 52.6666 15.1398 52.6369 15.1355L52.5178 15.11C52.488 15.1057 52.4413 15.093 52.3732 15.0802C52.3052 15.0675 52.2371 15.0504 52.1648 15.0377C52.0925 15.0249 52.0245 15.0079 51.9564 14.9952C51.8884 14.9824 51.8416 14.9696 51.8118 14.9654L51.7991 14.9569L51.8416 14.8463L51.8799 14.8293C51.9479 14.8421 52.0117 14.8548 52.0713 14.8591C52.1308 14.8633 52.1861 14.8591 52.2286 14.8335C52.2669 14.8123 52.3094 14.7783 52.3519 14.74C52.3945 14.7017 52.4285 14.6209 52.4625 14.5061C52.4668 14.4763 52.4753 14.4423 52.488 14.3998C52.4965 14.3615 52.5093 14.3105 52.5263 14.2509C52.5391 14.1914 52.5561 14.1191 52.5731 14.034C52.5901 13.949 52.6114 13.8427 52.6369 13.7151L52.9005 12.4222C52.9303 12.2734 52.9558 12.1501 52.9771 12.048C52.9984 11.9459 53.0154 11.8609 53.0281 11.7843C53.0409 11.712 53.0494 11.6482 53.0579 11.5972C53.0664 11.5462 53.0749 11.4951 53.0792 11.4441C53.0919 11.3335 53.0919 11.2485 53.0706 11.1889C53.0536 11.1337 53.0281 11.0869 52.9984 11.0486C52.9643 11.0103 52.9218 10.9848 52.8623 10.9636C52.8027 10.9423 52.7432 10.9295 52.6751 10.9168L52.6496 10.8827V10.7637H52.6667C52.6964 10.7679 52.7432 10.7807 52.8112 10.7934C52.8793 10.8062 52.9473 10.8232 53.0196 10.836C53.0919 10.8487 53.1599 10.8657 53.228 10.8785C53.296 10.8912 53.3428 10.904 53.3726 10.9083L53.4917 10.9338C53.5215 10.938 53.5682 10.9508 53.6363 10.9636C53.7043 10.9763 53.7723 10.9933 53.8446 11.0061C53.9169 11.0188 53.985 11.0358 54.053 11.0486C54.1211 11.0614 54.1679 11.0741 54.1976 11.0784L54.2104 11.0869V11.0911Z" fill="#3D6059"/>
<path d="M60.8433 13.0687L60.7965 13.1751L60.7582 13.1878C60.6944 13.1665 60.6306 13.1495 60.5668 13.1325C60.5031 13.1198 60.452 13.1198 60.4095 13.1368C60.367 13.1538 60.3244 13.1836 60.2819 13.2176C60.2394 13.2516 60.1969 13.3281 60.1501 13.4387C60.1246 13.494 60.1033 13.5493 60.0863 13.5961C60.0693 13.6429 60.048 13.7024 60.0225 13.7662C59.997 13.83 59.9715 13.9108 59.9374 14.0043C59.9034 14.0979 59.8652 14.2212 59.8141 14.3658L59.4484 15.4503C59.3718 15.6799 59.308 15.8713 59.2612 16.0201C59.2145 16.169 59.172 16.2966 59.1379 16.4029C59.1039 16.5092 59.0784 16.6028 59.0571 16.6878C59.0359 16.7729 59.0146 16.8664 58.9891 16.9643H58.9338L58.551 16.8367L58.5128 16.7431L57.4283 12.7115C57.4156 12.754 57.3986 12.7923 57.3858 12.8348C57.3688 12.8731 57.3518 12.9241 57.3305 12.9837C57.3092 13.0432 57.288 13.1113 57.2625 13.1921C57.237 13.2686 57.2029 13.3664 57.1646 13.4812L56.7819 14.6125C56.7649 14.6635 56.7436 14.7273 56.7181 14.8081C56.6926 14.8889 56.6628 14.9697 56.6373 15.059C56.6118 15.1441 56.5863 15.2291 56.5608 15.3099C56.5352 15.3907 56.5182 15.4545 56.5055 15.5056C56.48 15.6119 56.4714 15.6927 56.48 15.7522C56.4885 15.8118 56.5097 15.8628 56.5395 15.9053C56.565 15.9393 56.6033 15.9734 56.6543 15.9989C56.7053 16.0244 56.7691 16.0499 56.8542 16.0797L56.8755 16.1137L56.8585 16.2328H56.8457C56.8159 16.2243 56.7734 16.2115 56.7139 16.1903C56.6543 16.169 56.5905 16.1477 56.5267 16.1265C56.4629 16.1052 56.3991 16.0839 56.3396 16.0627C56.2801 16.0414 56.2375 16.0286 56.2078 16.0159L56.093 15.9776C56.0632 15.9691 56.0164 15.9521 55.9526 15.9308C55.8846 15.9096 55.8208 15.8841 55.7485 15.8628C55.6804 15.8373 55.6124 15.816 55.5443 15.7947C55.4806 15.7735 55.4295 15.7565 55.404 15.748L55.3955 15.7395L55.4508 15.6331L55.4891 15.6204C55.5614 15.6459 55.6251 15.6629 55.6804 15.6757C55.7315 15.6884 55.7868 15.6842 55.8378 15.6714C55.8718 15.6587 55.9144 15.6374 55.9611 15.5991C56.0079 15.5609 56.0589 15.4843 56.11 15.3695C56.1227 15.344 56.1397 15.3099 56.1525 15.2717C56.1695 15.2334 56.1865 15.1866 56.2035 15.1271C56.2205 15.0675 56.2461 14.9995 56.2758 14.9187C56.3056 14.8379 56.3396 14.7358 56.3779 14.6125L56.7989 13.3622C56.8457 13.2176 56.8882 13.0985 56.9222 13.0007C56.9563 12.9029 56.9818 12.8178 57.0073 12.7498C57.0328 12.6817 57.0498 12.6179 57.0626 12.5712C57.0753 12.5201 57.0924 12.4691 57.1051 12.4181C57.1264 12.3288 57.1306 12.248 57.1221 12.1799C57.1136 12.1119 57.0966 12.0566 57.0668 12.0141C57.0413 11.9715 56.9988 11.9418 56.9477 11.9162C56.8967 11.8907 56.8329 11.8652 56.7649 11.8439L56.7436 11.8099L56.7606 11.6951L56.7819 11.6738C56.8117 11.6823 56.8542 11.6994 56.9052 11.7206C56.9605 11.7419 57.0158 11.7631 57.0711 11.7887C57.1264 11.8099 57.1817 11.8354 57.237 11.8567C57.2922 11.878 57.3348 11.895 57.3603 11.9035L57.5772 11.9758C57.6112 11.9885 57.658 12.0013 57.7175 12.0226C57.777 12.0438 57.8281 12.0523 57.8664 12.0523L57.8919 12.0821C57.8919 12.1459 57.8919 12.2352 57.9131 12.3543C57.9301 12.4733 57.9557 12.6052 57.9854 12.754C58.0152 12.9029 58.0492 13.0602 58.0875 13.2261C58.1258 13.3962 58.164 13.5621 58.2023 13.7237C58.3469 14.3276 58.4788 14.8294 58.6063 15.2249C58.7339 15.6204 58.8105 15.8755 58.8445 15.9904C58.853 15.9606 58.8658 15.9351 58.8743 15.9096C58.8828 15.8841 58.8955 15.8585 58.9083 15.8245C58.921 15.7905 58.9338 15.7522 58.9508 15.7012C58.9678 15.6502 58.9891 15.5864 59.0189 15.5056L59.4399 14.2553C59.4867 14.1107 59.5292 13.9916 59.5632 13.8895C59.5972 13.7917 59.6227 13.7067 59.644 13.6344C59.6653 13.5621 59.6823 13.5025 59.6993 13.4557C59.7121 13.4047 59.7291 13.3537 59.7418 13.3026C59.7716 13.1836 59.7801 13.0985 59.7673 13.0432C59.7546 12.9879 59.7333 12.9412 59.712 12.9029C59.6865 12.8604 59.644 12.8263 59.5845 12.8008C59.5249 12.7753 59.4654 12.7498 59.4016 12.7285L59.3846 12.6945L59.4016 12.5797L59.4229 12.5584C59.4526 12.5669 59.4909 12.5839 59.5462 12.6052C59.5972 12.6264 59.6525 12.6477 59.7078 12.669C59.7631 12.6902 59.8141 12.7115 59.8694 12.7328C59.9204 12.754 59.963 12.771 59.9927 12.7795L60.2819 12.8774C60.3117 12.8859 60.35 12.9029 60.4052 12.9199C60.4563 12.9369 60.5158 12.9539 60.5754 12.9709C60.6349 12.9879 60.6902 13.0007 60.7455 13.0134C60.8008 13.0262 60.8433 13.039 60.8731 13.0432V13.0687H60.8433Z" fill="#3D6059"/>
<path d="M62.7956 18.7415L63.1996 15.6327C63.2166 15.4967 63.2294 15.3818 63.2421 15.2883C63.2549 15.1947 63.2591 15.1182 63.2676 15.0544C63.2761 14.9906 63.2804 14.9353 63.2804 14.8928C63.2804 14.8502 63.2846 14.812 63.2889 14.7737C63.2974 14.6546 63.2889 14.5611 63.2719 14.4845C63.2549 14.408 63.2293 14.3484 63.1953 14.2974C63.1613 14.2506 63.123 14.2081 63.0763 14.1826C63.0295 14.1528 62.9827 14.1273 62.9317 14.1017L62.9147 14.0635L62.9572 13.9529L62.9742 13.9316C62.9997 13.9444 63.038 13.9699 63.089 13.9997C63.14 14.0337 63.1911 14.0635 63.2506 14.0932C63.3102 14.123 63.3654 14.1528 63.4165 14.1783C63.4718 14.2081 63.51 14.2251 63.5398 14.2421L63.7354 14.3442C63.761 14.3569 63.8077 14.3824 63.8673 14.4122C63.9268 14.442 63.9949 14.476 64.0629 14.51C64.1309 14.544 64.1947 14.5781 64.2543 14.6078C64.3181 14.6376 64.3606 14.6631 64.3861 14.6759L64.3946 14.6886L64.3223 14.7822L64.2798 14.7907C64.1692 14.7354 64.0757 14.7014 63.9991 14.6929C63.9226 14.6844 63.8588 14.7397 63.7992 14.8502C63.7525 14.9395 63.7184 15.0799 63.6972 15.267C63.6759 15.4584 63.6461 15.6965 63.6121 15.9857L63.459 17.253C63.4292 17.4912 63.4037 17.7038 63.374 17.891C63.3484 18.0781 63.3272 18.2439 63.3144 18.3843C63.4122 18.295 63.5313 18.1887 63.6716 18.0653C63.812 17.942 63.9736 17.7931 64.1607 17.6145L65.1006 16.7512C65.3132 16.5556 65.4918 16.3897 65.6322 16.2622C65.7725 16.1346 65.8661 16.024 65.9128 15.9347C65.9681 15.8241 65.9724 15.7391 65.9256 15.6838C65.8788 15.6285 65.798 15.569 65.6832 15.5137L65.6662 15.4754L65.7087 15.3648H65.7215C65.747 15.3776 65.7895 15.3988 65.8491 15.4286C65.9086 15.4584 65.9681 15.4882 66.0277 15.5222C66.0872 15.5519 66.151 15.586 66.2063 15.6157C66.2658 15.6455 66.3083 15.6668 66.3339 15.6795L66.4444 15.7348C66.47 15.7476 66.5125 15.7688 66.5635 15.7943C66.6146 15.8199 66.6698 15.8496 66.7294 15.8794C66.7889 15.9092 66.8442 15.9347 66.8995 15.956C66.9548 15.9772 66.9973 15.9942 67.0271 16.0112V16.041L66.9548 16.1346L66.9123 16.1431C66.8612 16.1176 66.8144 16.0963 66.7634 16.075C66.7166 16.0538 66.6613 16.0453 66.6018 16.0453C66.5422 16.0453 66.4785 16.0623 66.4062 16.092C66.3339 16.1218 66.2531 16.1728 66.1553 16.2451C66.1297 16.2707 66.0915 16.3004 66.0489 16.3344C66.0022 16.3685 65.9256 16.4365 65.8065 16.5386C65.6917 16.6406 65.5259 16.7852 65.309 16.9724C65.0921 17.1595 64.8029 17.4189 64.4329 17.7464C64.3096 17.8527 64.182 17.9633 64.0544 18.0823C63.9226 18.1972 63.7992 18.3077 63.6801 18.4098C63.5611 18.5119 63.459 18.6054 63.3697 18.682C63.2804 18.7628 63.2166 18.8181 63.1783 18.8563L62.8466 18.767L62.7786 18.733L62.7956 18.7415Z" fill="#3D6059"/>
<path d="M70.2053 18.1295L70.1245 18.2146L70.0905 18.2231C70.0352 18.1848 69.9757 18.1508 69.9204 18.121C69.8651 18.0913 69.8141 18.0785 69.763 18.0828C69.7163 18.087 69.6695 18.104 69.6185 18.1253C69.5674 18.1466 69.5036 18.2061 69.4271 18.3039C69.3888 18.3507 69.3548 18.3975 69.325 18.44C69.2953 18.4825 69.257 18.5293 69.2187 18.5889C69.1804 18.6441 69.1294 18.7164 69.0741 18.7972C69.0188 18.878 68.9465 18.9844 68.8615 19.1162L68.1938 20.1071C68.1087 20.2347 68.0364 20.341 67.9811 20.4218C67.9259 20.5026 67.8833 20.5706 67.8493 20.6259C67.8153 20.6812 67.7855 20.728 67.76 20.7663C67.7388 20.8045 67.7132 20.8471 67.6877 20.8938C67.6282 21.0002 67.5984 21.081 67.5942 21.1362C67.5942 21.1915 67.5941 21.2426 67.6112 21.2894C67.6282 21.3361 67.658 21.3787 67.709 21.4212C67.7558 21.4637 67.811 21.502 67.8663 21.5403L67.8748 21.5743L67.8238 21.6806H67.811C67.7855 21.6636 67.743 21.6338 67.6877 21.5956C67.6282 21.5573 67.5729 21.5148 67.5091 21.4765C67.4496 21.4339 67.39 21.3957 67.3305 21.3574C67.2752 21.3191 67.2327 21.2894 67.2072 21.2723L67.1051 21.2043C67.0796 21.1873 67.037 21.1575 66.9818 21.1192C66.9222 21.081 66.8669 21.0384 66.8031 21.0002C66.7436 20.9576 66.684 20.9194 66.6245 20.8811C66.5692 20.8428 66.5267 20.813 66.5012 20.796L66.4927 20.7833L66.5735 20.6982H66.616C66.6713 20.7322 66.7309 20.7663 66.7819 20.796C66.8372 20.8258 66.8882 20.8386 66.935 20.8343C66.9818 20.8301 67.0285 20.813 67.0838 20.7918C67.1391 20.7705 67.2029 20.711 67.2752 20.6174C67.2922 20.5919 67.3135 20.5621 67.339 20.5281C67.3645 20.4941 67.3943 20.4558 67.4283 20.4048C67.4623 20.3537 67.5048 20.2942 67.5559 20.2219C67.6026 20.1496 67.6665 20.0603 67.7388 19.954L68.4745 18.861C68.5595 18.7334 68.6318 18.6314 68.6871 18.5421C68.7467 18.457 68.7934 18.3805 68.8317 18.3209C68.87 18.2571 68.904 18.2061 68.9295 18.1593C68.955 18.1168 68.9848 18.07 69.0103 18.0232C69.0656 17.9254 69.0954 17.8446 69.0996 17.7851C69.0996 17.7255 69.0996 17.6745 69.0869 17.6277C69.0699 17.5809 69.0401 17.5384 68.9933 17.5001C68.9465 17.4619 68.8955 17.4236 68.8359 17.3853L68.8232 17.347L68.8742 17.2407H68.887C68.9125 17.2577 68.955 17.2875 69.0103 17.3258C69.0656 17.3641 69.1251 17.4023 69.1889 17.4449C69.2485 17.4874 69.308 17.5257 69.3675 17.5639C69.4271 17.6022 69.4654 17.632 69.4909 17.649L69.593 17.717C69.6185 17.734 69.661 17.7638 69.7163 17.8021C69.7716 17.8404 69.8311 17.8829 69.8949 17.9212C69.9544 17.9637 70.014 18.002 70.0735 18.0402C70.1331 18.0785 70.1713 18.1083 70.1968 18.1253L70.2053 18.1381V18.1295Z" fill="#3D6059"/>
<path d="M71.4381 24.5423C71.4168 24.521 71.3785 24.4913 71.3275 24.4487C71.2765 24.4062 71.2254 24.3637 71.1701 24.3126C71.1149 24.2659 71.0596 24.2191 71.0128 24.1765C70.9618 24.134 70.9277 24.1043 70.9022 24.083L70.6215 23.8448C70.6003 23.8236 70.562 23.7938 70.511 23.7513C70.4599 23.7087 70.4089 23.6662 70.3536 23.6194C70.2983 23.5727 70.2473 23.5301 70.1963 23.4876C70.1452 23.4451 70.1112 23.4153 70.0857 23.394V23.3813L70.1708 23.3047H70.2133C70.2643 23.3515 70.3281 23.3983 70.3962 23.4493C70.4685 23.5004 70.5237 23.5259 70.5705 23.5259C70.6173 23.5259 70.6683 23.5174 70.7321 23.5089C70.7917 23.4961 70.864 23.4493 70.949 23.3643C70.9703 23.343 70.9958 23.3175 71.0256 23.2877C71.0553 23.258 71.0894 23.2197 71.1319 23.1772C71.1744 23.1346 71.2212 23.0751 71.2765 23.0113C71.3317 22.9475 71.404 22.8625 71.4891 22.7646L72.3439 21.761C72.5268 21.5483 72.6884 21.3527 72.8245 21.1869C72.9648 21.0168 73.0669 20.8892 73.1349 20.7999L73.0797 20.7531C72.9138 20.6127 72.7777 20.4979 72.6756 20.4086C72.5693 20.3193 72.4843 20.247 72.4162 20.2002C72.3482 20.1492 72.2929 20.1152 72.2588 20.0939C72.2206 20.0726 72.1908 20.0641 72.1696 20.0641C72.0632 20.0429 71.9442 20.0897 71.8166 20.2087H71.7783L71.6635 20.1152L72.178 19.5793L72.2376 19.5496L72.2801 19.5581C72.2971 19.5921 72.3439 19.6516 72.4247 19.7367C72.5055 19.8217 72.5991 19.911 72.7054 20.0004C72.8117 20.0897 72.9138 20.1747 73.0116 20.2598C73.1094 20.3406 73.1774 20.4001 73.22 20.4384L73.8451 20.97C73.8877 21.0083 73.96 21.0678 74.0578 21.1486C74.1556 21.2294 74.2576 21.3187 74.364 21.408C74.4703 21.4973 74.5724 21.5739 74.6702 21.6419C74.768 21.71 74.836 21.7482 74.87 21.7567L74.8871 21.795L74.87 21.8545L74.4278 22.4542L74.3087 22.3521V22.3139C74.4022 22.165 74.432 22.0417 74.3937 21.9396C74.3895 21.9183 74.3725 21.8928 74.347 21.8588C74.3214 21.8248 74.2789 21.778 74.2194 21.7185C74.1598 21.6589 74.0748 21.5824 73.9727 21.4931C73.8664 21.4038 73.7346 21.2889 73.573 21.1528L73.5177 21.1061C73.4326 21.1996 73.322 21.323 73.1902 21.4761C73.0584 21.6292 72.8925 21.8205 72.7054 22.0417L71.9314 22.9518C71.8293 23.0708 71.7485 23.1687 71.6847 23.2409C71.6209 23.3132 71.5699 23.377 71.5274 23.4281C71.4849 23.4791 71.4508 23.5216 71.4253 23.5599C71.3956 23.5939 71.37 23.6365 71.336 23.679C71.2637 23.7768 71.2254 23.8576 71.2254 23.9171C71.2254 23.9809 71.2254 24.032 71.2339 24.0787C71.2424 24.1255 71.2765 24.1766 71.336 24.2404C71.3998 24.2999 71.4551 24.3552 71.5061 24.3977L71.5146 24.4402L71.4551 24.5423H71.4423H71.4381Z" fill="#3D6059"/>
<path d="M77.9372 24.9295L76.4572 27.6938C76.3892 27.8129 76.3339 27.915 76.2914 27.9958C76.2488 28.0766 76.2148 28.1489 76.185 28.2084C76.1553 28.2679 76.134 28.3147 76.1127 28.3572C76.0957 28.3998 76.0787 28.4338 76.0617 28.4636C76.0149 28.5699 75.9852 28.6634 75.9724 28.74C75.9639 28.8165 75.9639 28.8846 75.9767 28.9399C75.9894 28.9952 76.0149 29.0462 76.0489 29.0887C76.083 29.1312 76.117 29.1738 76.1553 29.2163V29.2588L76.083 29.3524L76.0532 29.3609C76.0319 29.3396 76.0064 29.3013 75.9681 29.2546C75.9299 29.2078 75.8916 29.1568 75.8491 29.11C75.8065 29.0632 75.764 29.0164 75.7257 28.9739C75.6875 28.9314 75.6577 28.8973 75.6364 28.8761L75.4918 28.7187C75.4706 28.6975 75.4366 28.6592 75.3898 28.6082C75.343 28.5571 75.2962 28.5018 75.2452 28.4465C75.1941 28.3913 75.1474 28.336 75.1006 28.2849C75.0538 28.2339 75.0198 28.1956 74.9985 28.1744V28.1616L75.0963 28.0978H75.1346C75.2196 28.1914 75.2962 28.2552 75.36 28.2892C75.428 28.3232 75.5088 28.2977 75.6024 28.2127C75.6747 28.1446 75.7598 28.0255 75.8448 27.8554C75.9341 27.6853 76.0447 27.4727 76.1808 27.2133L76.3381 26.9241L75.3643 25.8439L75.058 25.9714C74.7901 26.082 74.5647 26.1713 74.3861 26.2394C74.2075 26.3117 74.0799 26.3797 74.0076 26.4435C73.9141 26.5286 73.88 26.6051 73.9056 26.6732C73.9311 26.7455 73.9863 26.8262 74.0714 26.9198V26.9623L73.9991 27.0559H73.9863C73.9651 27.0261 73.9353 26.9921 73.8885 26.9453C73.846 26.8985 73.7992 26.8475 73.7524 26.7922C73.7057 26.7412 73.6589 26.6902 73.6164 26.6391C73.5738 26.5923 73.5398 26.5541 73.5185 26.5328L73.4377 26.4392C73.4165 26.418 73.3867 26.384 73.3484 26.3372C73.3102 26.2904 73.2676 26.2436 73.2209 26.1968C73.1783 26.1501 73.1315 26.1033 73.089 26.065C73.0465 26.0267 73.0125 25.997 72.9912 25.9714L73.0082 25.9502L73.1018 25.8821L73.1443 25.8906C73.1826 25.9332 73.2209 25.9714 73.2591 26.0055C73.2974 26.0395 73.3442 26.0693 73.3995 26.0905C73.4548 26.1118 73.5228 26.1203 73.5994 26.116C73.6759 26.116 73.7737 26.0948 73.8885 26.0608C73.9141 26.0565 73.9396 26.048 73.9693 26.0352C73.9991 26.0225 74.0416 26.0097 74.0969 25.9885C74.1565 25.9672 74.2288 25.9417 74.3266 25.9077C74.4201 25.8736 74.5435 25.8268 74.6923 25.7716C74.8412 25.7163 75.0283 25.644 75.2452 25.5632C75.4621 25.4824 75.7257 25.3803 76.0362 25.2655C76.185 25.2059 76.3381 25.1464 76.487 25.0954C76.6401 25.0401 76.7804 24.9891 76.9122 24.9423C77.0441 24.8955 77.1589 24.853 77.261 24.8147C77.363 24.7764 77.4353 24.7509 77.4821 24.7339L77.8819 24.887L77.9287 24.938L77.9372 24.9295ZM75.6534 25.7248L76.4827 26.6476L77.312 25.0699L75.6534 25.7248Z" fill="#3D6059"/>
<path d="M78.3431 32.563C78.3261 32.5374 78.3006 32.4992 78.2624 32.4439C78.2241 32.3886 78.1858 32.3333 78.1433 32.2738C78.1007 32.2142 78.0625 32.1547 78.0242 32.1037C77.9859 32.0484 77.9604 32.0101 77.9434 31.9846L77.735 31.6784C77.718 31.6529 77.6925 31.6146 77.6542 31.5593C77.6159 31.504 77.5777 31.4487 77.5394 31.3892C77.5011 31.3297 77.4586 31.2744 77.4246 31.2191C77.3863 31.1638 77.3608 31.1255 77.3438 31.1V31.0873L77.4501 31.0362L77.4884 31.049C77.5266 31.1043 77.5734 31.1681 77.6287 31.2361C77.684 31.3041 77.7308 31.3424 77.7775 31.3552C77.8201 31.3679 77.8754 31.3764 77.9349 31.3807C77.9944 31.3849 78.0795 31.3594 78.1858 31.2956C78.2113 31.2829 78.2453 31.2659 78.2794 31.2446C78.3134 31.2234 78.3559 31.1978 78.4069 31.1638C78.458 31.1298 78.5175 31.0915 78.5898 31.0405C78.6621 30.9937 78.7514 30.9299 78.8577 30.8576L79.9464 30.1134C80.1803 29.956 80.3845 29.8114 80.5631 29.6838C80.7417 29.5563 80.8778 29.4585 80.9671 29.3947L80.9288 29.3351C80.8055 29.1565 80.7077 29.0077 80.6269 28.8971C80.5503 28.7823 80.4823 28.693 80.4313 28.6249C80.3802 28.5569 80.3377 28.5101 80.3079 28.4803C80.2782 28.4506 80.2526 28.4335 80.2314 28.425C80.1335 28.374 80.006 28.391 79.8529 28.4718L79.8146 28.4633L79.7295 28.34L80.3675 27.9615L80.4313 27.9487L80.4695 27.97C80.478 28.0083 80.5078 28.0763 80.5631 28.1826C80.6184 28.2847 80.6864 28.3953 80.763 28.5101C80.8395 28.6249 80.9161 28.7355 80.9884 28.8418C81.0607 28.9481 81.1117 29.0247 81.1457 29.0715L81.605 29.7476C81.6348 29.7944 81.6901 29.871 81.7624 29.9773C81.8347 30.0836 81.9112 30.1942 81.9878 30.309C82.0643 30.4238 82.1451 30.5259 82.2217 30.6152C82.2982 30.7045 82.3535 30.7598 82.3833 30.7811V30.8236L82.3535 30.8789L81.7709 31.3382L81.6816 31.2106L81.6901 31.1766C81.8219 31.0617 81.8815 30.9469 81.8729 30.8406C81.8729 30.8193 81.8644 30.7896 81.8517 30.7513C81.8347 30.713 81.8049 30.6577 81.7666 30.5812C81.7241 30.5089 81.6645 30.4153 81.588 30.3005C81.5114 30.1857 81.4094 30.0411 81.2903 29.8667L81.252 29.8072C81.1457 29.8752 81.0096 29.9645 80.8395 30.0794C80.6694 30.1942 80.4653 30.3303 80.2186 30.4961L79.232 31.1681C79.1044 31.2574 78.9981 31.3254 78.9173 31.3807C78.8365 31.436 78.7684 31.4828 78.7174 31.521C78.6663 31.5593 78.6196 31.5933 78.5855 31.6188C78.5473 31.6444 78.509 31.6784 78.4707 31.7082C78.3772 31.7847 78.3176 31.8528 78.3006 31.908C78.2836 31.9676 78.2708 32.0186 78.2666 32.0654C78.2623 32.1122 78.2794 32.1717 78.3219 32.2483C78.3644 32.3248 78.407 32.3886 78.4452 32.4481V32.4907L78.3559 32.5715L78.3431 32.563Z" fill="#3D6059"/>
<path d="M84.3274 34.4343L84.2168 34.4725L84.1828 34.4598C84.1488 34.4002 84.119 34.3407 84.0807 34.2897C84.0467 34.2386 84.0042 34.2004 83.9616 34.1791C83.9191 34.1621 83.8681 34.1536 83.8128 34.1451C83.7575 34.1408 83.6724 34.1621 83.5619 34.2089C83.5066 34.2344 83.4556 34.2556 83.4088 34.2769C83.362 34.2982 83.3067 34.3237 83.2429 34.3577C83.1791 34.3875 83.1068 34.4258 83.0175 34.4725C82.9282 34.5193 82.8176 34.5788 82.6773 34.6511L81.6184 35.204C81.478 35.2763 81.3674 35.3358 81.2824 35.3784C81.1973 35.4251 81.125 35.4634 81.0698 35.4932C81.0145 35.5272 80.9634 35.5527 80.9251 35.574C80.8869 35.5953 80.8444 35.6208 80.8018 35.6505C80.6998 35.7143 80.6317 35.7696 80.6062 35.8206C80.5764 35.8717 80.5594 35.9185 80.5467 35.961C80.5382 36.0078 80.5467 36.0631 80.5679 36.1226C80.5892 36.1821 80.619 36.2417 80.653 36.3012L80.6402 36.3352L80.5467 36.4075L80.5339 36.399C80.5211 36.3735 80.4956 36.3267 80.4659 36.2672C80.4318 36.2077 80.4021 36.1439 80.368 36.0758C80.334 36.012 80.3 35.9482 80.2702 35.8844C80.2362 35.8249 80.215 35.7781 80.2022 35.7526L80.1469 35.642C80.1342 35.6165 80.1086 35.5697 80.0789 35.5102C80.0448 35.4507 80.0151 35.3869 79.981 35.3188C79.947 35.2508 79.913 35.1912 79.8832 35.1274C79.8492 35.0679 79.8279 35.0211 79.8152 34.9956V34.9829L79.9258 34.9446L79.964 34.9616C79.9981 35.0211 80.0278 35.0807 80.0619 35.1317C80.0959 35.1827 80.1341 35.2168 80.1809 35.238C80.2234 35.255 80.2745 35.2678 80.3298 35.272C80.3851 35.2805 80.4701 35.2593 80.5849 35.2083C80.6104 35.1955 80.6445 35.1785 80.6827 35.1615C80.721 35.1445 80.7678 35.1232 80.8231 35.0977C80.8784 35.0722 80.9422 35.0381 81.0187 34.9999C81.0953 34.9616 81.1931 34.9106 81.3079 34.851L82.4774 34.2386C82.6135 34.1663 82.7241 34.111 82.8176 34.06C82.9112 34.009 82.9877 33.9707 83.0515 33.9324C83.1153 33.8984 83.1706 33.8644 83.2131 33.8389C83.2599 33.8133 83.3024 33.7878 83.345 33.7581C83.4428 33.6985 83.5066 33.6432 83.5363 33.5922C83.5704 33.5412 83.5916 33.4944 83.6001 33.4476C83.6087 33.4008 83.6002 33.3456 83.5789 33.2903C83.5576 33.235 83.5279 33.1754 83.4981 33.1116L83.5066 33.0691L83.6001 32.9968L83.6129 33.0053C83.6257 33.0308 83.6512 33.0776 83.681 33.1372C83.715 33.1967 83.7447 33.2605 83.7788 33.3285C83.8128 33.3923 83.8468 33.4561 83.8766 33.5199C83.9106 33.5794 83.9319 33.6262 83.9446 33.6517L83.9999 33.7623C84.0127 33.7878 84.0382 33.8346 84.0679 33.8942C84.102 33.9537 84.1317 34.0175 84.1657 34.0855C84.1998 34.1493 84.2338 34.2131 84.2636 34.2769C84.2976 34.3364 84.3189 34.3832 84.3316 34.4087V34.4215L84.3274 34.4343Z" fill="#3D6059"/>
<path d="M86.2707 38.8149C86.3856 39.1338 86.4366 39.4358 86.4153 39.725C86.3983 40.0141 86.3218 40.2778 86.1942 40.516C86.0666 40.7541 85.8965 40.9625 85.6796 41.1454C85.4627 41.324 85.2203 41.4643 84.9481 41.5664C84.6802 41.6642 84.4038 41.7152 84.1231 41.7195C83.8424 41.7195 83.5745 41.677 83.3193 41.5749C83.0642 41.4728 82.8345 41.3197 82.6261 41.1071C82.4177 40.8945 82.2519 40.6223 82.1286 40.2906C82.0095 39.9631 81.9627 39.6612 81.984 39.3805C82.0052 39.0998 82.0775 38.8404 82.2008 38.6065C82.3242 38.3726 82.4943 38.1727 82.7112 38.0026C82.9281 37.8325 83.1705 37.6964 83.4427 37.5943C83.7319 37.488 84.021 37.4327 84.306 37.4285C84.5909 37.4285 84.8631 37.4752 85.114 37.5773C85.3649 37.6794 85.5903 37.8325 85.7944 38.0409C85.9943 38.2492 86.1517 38.5087 86.2665 38.8234L86.2707 38.8149ZM82.4688 40.2013C82.5581 40.4437 82.6814 40.6435 82.843 40.8009C83.0046 40.9583 83.1875 41.0688 83.3916 41.1411C83.6 41.2134 83.8212 41.2432 84.0551 41.2347C84.2932 41.2262 84.5314 41.1794 84.7695 41.0901C85.0119 41.0008 85.2288 40.8817 85.4117 40.7329C85.5988 40.584 85.7434 40.4139 85.8497 40.2225C85.956 40.0312 86.0198 39.8228 86.0368 39.5974C86.0538 39.372 86.0156 39.1381 85.9263 38.8914C85.837 38.6533 85.7179 38.4534 85.5605 38.3003C85.4032 38.1472 85.2288 38.0366 85.0247 37.9686C84.8248 37.9005 84.6079 37.8708 84.374 37.8835C84.1401 37.8963 83.902 37.9516 83.651 38.0409C83.3789 38.1387 83.1492 38.2663 82.9578 38.4194C82.7707 38.5725 82.6219 38.7426 82.5241 38.9297C82.422 39.1168 82.3667 39.321 82.3497 39.5378C82.3369 39.7547 82.371 39.9716 82.4518 40.197L82.4688 40.2013Z" fill="#3D6059"/>
<path d="M88.4738 47.7409L88.359 47.7494L88.3292 47.7239C88.3165 47.6559 88.2995 47.5921 88.2824 47.5326C88.2654 47.473 88.2357 47.4262 88.2016 47.4007C88.1676 47.3752 88.1208 47.3497 88.0698 47.3284C88.0188 47.3114 87.9294 47.3072 87.8104 47.3199C87.7508 47.3284 87.6956 47.3327 87.6403 47.3412C87.5892 47.3497 87.5297 47.3582 87.4616 47.3667C87.3936 47.3752 87.3086 47.3922 87.2107 47.4092C87.1129 47.4262 86.9853 47.4518 86.8322 47.4815L85.7053 47.6899C85.4671 47.7324 85.2715 47.7707 85.1184 47.8047C84.9653 47.8345 84.8334 47.86 84.7271 47.8855C84.6208 47.9068 84.523 47.9323 84.4379 47.9536C84.3529 47.9748 84.2636 48.0003 84.1615 48.0301L84.1317 47.9833L84.0594 47.5878L84.1232 47.5113L87.1172 44.5982C87.0746 44.6067 87.0321 44.6109 86.9896 44.6194C86.9471 44.6237 86.896 44.6322 86.8322 44.6449C86.7684 44.6577 86.7004 44.6704 86.6196 44.6832C86.5388 44.7002 86.4367 44.7172 86.3176 44.7385L85.1439 44.9596C85.0929 44.9681 85.0248 44.9809 84.944 44.9979C84.859 45.0149 84.7739 45.0319 84.6846 45.0489C84.5953 45.066 84.5102 45.0872 84.4252 45.1042C84.3444 45.1212 84.2763 45.1382 84.2253 45.151C84.119 45.1808 84.0424 45.2105 83.9957 45.2488C83.9489 45.2871 83.9106 45.3296 83.8893 45.3764C83.8681 45.4147 83.8596 45.4615 83.8638 45.521C83.8638 45.5763 83.8766 45.6486 83.8893 45.7336L83.8681 45.7719L83.7575 45.8144L83.749 45.8017C83.7447 45.7719 83.7362 45.7251 83.7235 45.6656C83.7107 45.6018 83.698 45.538 83.6852 45.47C83.6725 45.4019 83.6597 45.3381 83.6512 45.2743C83.6384 45.2105 83.6299 45.168 83.6257 45.1382L83.6044 45.0149C83.6002 44.9851 83.5917 44.9341 83.5789 44.8661C83.5661 44.798 83.5534 44.7257 83.5406 44.6534C83.5279 44.5811 83.5151 44.5088 83.5023 44.4408C83.4896 44.3728 83.4811 44.3217 83.4768 44.292V44.2792H83.6002L83.6299 44.3047C83.6427 44.3813 83.6597 44.445 83.6767 44.4961C83.6937 44.5471 83.7192 44.5939 83.7575 44.6279C83.783 44.6534 83.8255 44.6789 83.8808 44.7002C83.9361 44.7215 84.0254 44.73 84.153 44.7172C84.1828 44.7172 84.2211 44.713 84.2593 44.7087C84.3019 44.7045 84.3486 44.696 84.4082 44.6832C84.4677 44.6704 84.54 44.6577 84.6251 44.6407C84.7101 44.6237 84.8164 44.6067 84.944 44.5811L86.2411 44.3387C86.3899 44.309 86.5175 44.2877 86.6196 44.2664C86.7217 44.2494 86.811 44.2324 86.8833 44.2196C86.9556 44.2069 87.0194 44.1941 87.0661 44.1814C87.1172 44.1686 87.1682 44.1559 87.2193 44.1431C87.3086 44.1176 87.3808 44.0836 87.4361 44.0453C87.4914 44.0028 87.5297 43.9602 87.5552 43.9177C87.5765 43.8752 87.585 43.8241 87.5807 43.7646C87.5765 43.7051 87.568 43.6413 87.5552 43.569L87.5722 43.5307L87.6828 43.4924L87.7126 43.5009C87.7168 43.5307 87.7253 43.5732 87.7338 43.6328C87.7423 43.6923 87.7466 43.7518 87.7551 43.8114C87.7636 43.8709 87.7721 43.9305 87.7764 43.99C87.7849 44.0495 87.7891 44.0921 87.7934 44.1218L87.8359 44.3472C87.8401 44.3813 87.8529 44.428 87.8614 44.4918C87.8742 44.5556 87.8869 44.6024 87.9082 44.6364L87.8954 44.6704C87.8401 44.7002 87.7636 44.747 87.67 44.8235C87.5765 44.8958 87.4701 44.9809 87.3596 45.0787C87.2448 45.1765 87.1257 45.2828 86.9938 45.3977C86.8663 45.5125 86.7387 45.6273 86.6153 45.7421C86.156 46.1632 85.7861 46.5247 85.5011 46.8266C85.2162 47.1285 85.0333 47.3242 84.9483 47.4092C84.978 47.405 85.0078 47.4007 85.0333 47.3965C85.0588 47.3965 85.0886 47.388 85.1226 47.3837C85.1566 47.3795 85.1992 47.371 85.2502 47.3582C85.3013 47.3497 85.3693 47.3369 85.4543 47.3199L86.7514 47.0775C86.9003 47.0477 87.0279 47.0265 87.1299 47.0052C87.232 46.9882 87.3213 46.9669 87.3936 46.9542C87.4659 46.9372 87.5254 46.9244 87.5765 46.9116C87.6275 46.8989 87.6785 46.8861 87.7296 46.8734C87.8486 46.8436 87.9252 46.8096 87.9677 46.7713C88.0102 46.733 88.04 46.6948 88.0655 46.6522C88.0868 46.6097 88.0953 46.5544 88.0911 46.4906C88.0868 46.4268 88.0783 46.3631 88.0655 46.295L88.0868 46.2652L88.1974 46.227L88.2272 46.2355C88.2314 46.2652 88.2399 46.3078 88.2442 46.363C88.2527 46.4183 88.2569 46.4779 88.2654 46.5332C88.2739 46.5927 88.2782 46.648 88.2867 46.7033C88.2952 46.7585 88.2994 46.8011 88.3037 46.8308L88.359 47.1328C88.3632 47.1626 88.3717 47.2051 88.3845 47.2604C88.393 47.3157 88.4058 47.3709 88.4228 47.4305C88.4398 47.49 88.4526 47.5453 88.4696 47.6006C88.4823 47.6559 88.4951 47.6984 88.5078 47.7239L88.4823 47.7367L88.4738 47.7409Z" fill="#3D6059"/>
<path d="M44.1425 99.0001C20.0762 99.0001 0.500732 79.4204 0.500732 55.3583C0.500732 53.3298 0.641065 51.2885 0.917494 49.2897C0.934505 49.1748 1.04933 49.094 1.15565 49.1068C1.27047 49.1238 1.3513 49.2301 1.33854 49.3449C1.06211 51.3225 0.926008 53.3425 0.926008 55.3541C0.926008 79.1865 20.3143 98.5706 44.1425 98.5706C67.9707 98.5706 87.359 79.1823 87.359 55.3541C87.359 53.7933 87.274 52.2156 87.1081 50.6718C87.0954 50.557 87.1804 50.4507 87.2952 50.4379C87.4143 50.4251 87.5164 50.5102 87.5291 50.625C87.6992 52.1858 87.7843 53.7763 87.7843 55.3541C87.7843 79.4204 68.2046 98.9959 44.1425 98.9959V99.0001Z" fill="#3D6059"/>
</g>
</svg>
