<svg width="103" height="99" viewBox="0 0 103 99" fill="none" xmlns="http://www.w3.org/2000/svg">
<g opacity="0.3">
<path d="M49.8502 54.8819C47.6233 55.5447 45.3257 56.2295 43.2314 57.3253C42.2726 57.8202 41.3756 58.3858 40.4919 59.0441C40.5936 59.2385 40.7261 59.4639 40.8808 59.6627C42.0782 61.3152 43.6467 61.6907 44.7469 61.7173C46.7441 61.7614 48.8826 60.6966 50.2302 59.0087C51.3216 57.6214 51.7236 56.0396 51.4188 54.4136C50.8974 54.5771 50.3716 54.7317 49.8502 54.8907V54.8819Z" fill="#3D6059"/>
<path d="M52.1643 44.9577C54.4265 44.2816 56.7639 43.5791 58.8759 42.4789C59.848 41.962 60.7449 41.3964 61.6109 40.7557C61.4916 40.5348 61.3768 40.3316 61.2398 40.1504C60.0468 38.4979 58.4827 38.1223 57.3737 38.0958C55.3765 38.0605 53.2247 39.1121 51.8771 40.8043C50.7902 42.1741 50.3792 43.8045 50.6929 45.4084C51.1834 45.2581 51.6738 45.1079 52.1643 44.9621V44.9577Z" fill="#3D6059"/>
<path d="M59.0839 42.8725C56.9322 43.9948 54.5771 44.7017 52.2972 45.3822C51.7272 45.5545 51.1572 45.7224 50.5917 45.8991C50.437 45.9477 50.278 46.0007 50.1233 46.0538C49.9598 46.1068 49.7963 46.1643 49.6284 46.2173C44.724 47.8521 41.7636 50.0481 40.5927 52.9245C39.7709 54.9349 39.6781 57.038 40.3188 58.6331C41.1936 57.988 42.0862 57.4313 43.0361 56.9364C45.1658 55.823 47.4855 55.1337 49.7301 54.4621C50.3354 54.2809 50.9363 54.1042 51.5372 53.9142C51.7007 53.8612 51.8642 53.8082 52.0232 53.7551C52.1823 53.7021 52.337 53.6491 52.496 53.6005C57.3961 51.9524 60.3565 49.752 61.5406 46.8712C62.358 44.8608 62.4464 42.7576 61.8013 41.1714C60.9441 41.8032 60.0516 42.3644 59.0883 42.8725H59.0839Z" fill="#3D6059"/>
<path d="M10.7105 48.2539H11.8549C12.2791 48.2539 12.659 48.2141 12.9993 48.1346C14.3115 47.896 15.4913 47.3614 16.5296 46.5307C17.568 45.7 18.4384 44.6573 19.1365 43.4113C19.8346 42.1608 20.3781 40.7646 20.7581 39.2226C21.138 37.6761 21.3325 36.112 21.3325 34.5258V33.1295C21.3325 32.6347 21.3413 32.0514 21.3634 31.3754C21.3855 30.7038 21.3943 29.882 21.3943 28.9099V10.8738C21.3943 9.9636 21.4032 9.19037 21.4252 8.55411C21.4473 7.92227 21.465 7.36557 21.4871 6.8928C21.5092 6.4156 21.5401 5.90306 21.5843 5.34634C21.6683 4.23731 21.8583 3.46408 22.1587 3.02665C22.4548 2.58923 22.7729 2.23573 23.1131 1.95737C23.4931 1.67901 23.9924 1.5111 24.6065 1.45366C25.2207 1.39622 25.8658 1.36531 26.5462 1.36531L26.8025 1.1267L26.9925 0.057442L26.8644 0H11.4086L11.2805 0.057442L11.4705 1.1267L11.7886 1.36531C12.4646 1.36531 13.1009 1.39622 13.6974 1.45366C14.2895 1.51552 14.7799 1.68343 15.1599 1.95737C15.5001 2.23573 15.8183 2.60246 16.1143 3.05756C16.4103 3.51266 16.6003 4.27708 16.6887 5.34634C16.7329 5.82353 16.7638 6.2963 16.7859 6.77349C16.808 7.25068 16.8256 7.82507 16.8477 8.49667C16.8698 9.16827 16.8787 9.98127 16.8787 10.9312V26.5019C16.8787 31.8084 16.7815 35.9706 16.5915 38.984C16.4015 41.9929 15.7122 44.0564 14.5236 45.1654C14.0553 45.6028 13.5692 45.9563 13.0611 46.2347C12.637 46.3937 12.2128 46.4732 11.7886 46.4732H10.3261L10.0698 46.8002L10.198 48.0816L10.7061 48.2539H10.7105Z" fill="#3D6059"/>
<path d="M98.5289 90.9274C98.2329 91.9967 98.0208 92.8539 97.8927 93.5078C97.7645 94.1617 97.4155 94.6478 96.8411 94.9615C96.2667 95.2796 95.3344 95.4873 94.0442 95.5845C92.7496 95.6861 90.832 95.7303 88.287 95.7303H82.8788C82.0304 95.7303 81.5842 95.3547 81.5444 94.6036C81.5002 93.8524 81.4605 93.1808 81.4163 92.5843C81.3721 91.9923 81.3412 91.3604 81.3191 90.6844C81.297 90.0128 81.2882 89.2219 81.2882 88.3117V68.1327C81.2882 67.5008 81.297 66.9441 81.3191 66.4713C81.3412 65.9986 81.3721 65.4816 81.4163 64.9293C81.5002 63.86 81.7035 63.1001 82.0216 62.645C82.3397 62.1899 82.6667 61.8231 83.0069 61.5492C83.3869 61.2752 83.8862 61.1029 84.5003 61.0455C85.1145 60.988 85.7596 60.9571 86.4401 60.9571L86.6963 60.7185L86.8863 59.6492L86.7582 59.5918H71.3024L71.1743 59.6492L71.3643 60.7185L71.6824 60.9571C72.3584 60.9571 72.9947 60.988 73.5912 61.0455C74.1833 61.1073 74.6737 61.2752 75.0537 61.5492C75.3939 61.8275 75.7121 62.181 76.0081 62.6185C76.3041 63.0559 76.4941 63.8247 76.5825 64.9337C76.6223 65.4065 76.6576 65.8837 76.6797 66.3564C76.7018 66.8292 76.7195 67.4036 76.7416 68.0796C76.7636 68.7513 76.7725 69.5642 76.7725 70.5142V91.0512C76.7725 91.6079 76.7636 92.0718 76.7416 92.4474C76.7195 92.8229 76.6885 93.1499 76.6444 93.4283C76.5162 94.3783 76.3041 95.1117 76.0081 95.6242C75.7121 96.1368 75.3939 96.5344 75.0537 96.8128C74.6737 97.0912 74.1833 97.2591 73.5912 97.3165C72.9991 97.374 72.3629 97.4049 71.6824 97.4049L71.3643 97.6435L71.1743 98.7128L71.3024 98.7702H98.7189L99.227 98.1825L100.371 90.6977H98.7189L98.5289 90.9363V90.9274Z" fill="#3D6059"/>
<path d="M100.374 0.878934C99.3798 0.878934 98.5712 1.68752 98.5712 2.68167C98.5712 3.12793 98.7391 3.53444 99.013 3.85257C89.1334 13.7278 71.1017 31.7595 66.0116 36.8451C64.5801 38.2767 63.334 39.452 61.9688 40.4859C61.8494 40.2694 61.7346 40.0662 61.5976 39.885C60.5725 38.4623 59.1189 37.689 57.3868 37.6493C55.2527 37.6139 52.964 38.7274 51.5324 40.5257C50.3526 42.0147 49.9152 43.7865 50.2687 45.5362C50.1715 45.5671 50.0743 45.5981 49.9771 45.6334C49.8136 45.6864 49.6545 45.7439 49.4866 45.7925C44.4452 47.4715 41.4009 49.747 40.177 52.7515C39.2933 54.9077 39.2137 57.1832 39.9428 58.902C38.3963 60.0729 36.9868 61.4426 35.7806 62.6444L2.88966 95.5354C2.58478 95.3056 2.21365 95.1598 1.80273 95.1598C0.808584 95.1598 0 95.9684 0 96.9625C0 97.9567 0.808584 98.7653 1.80273 98.7653C2.79689 98.7653 3.60547 97.9567 3.60547 96.9625C3.60547 96.5384 3.45081 96.1495 3.2078 95.8447L36.0943 62.9581C37.2652 61.7873 38.6393 60.4529 40.1328 59.3129C40.2388 59.5117 40.367 59.7283 40.5216 59.9227C41.5511 61.341 43.0048 62.1142 44.7324 62.1496C44.7766 62.1496 44.8208 62.1496 44.8605 62.1496C46.9416 62.1496 49.1685 61.0317 50.5692 59.2732C51.74 57.7886 52.1775 56.0212 51.8372 54.2671C51.9433 54.2317 52.0449 54.2008 52.1465 54.1654C52.3012 54.1124 52.4558 54.0638 52.6193 54.0108C57.6519 52.3185 60.7006 50.0342 61.9378 47.0296C62.8171 44.8734 62.8922 42.5979 62.1587 40.8924C63.5682 39.8276 64.8452 38.6258 66.3165 37.1544C71.4066 32.0644 89.4515 14.0194 99.3312 4.1486C99.6272 4.35626 99.9807 4.47998 100.369 4.47998C101.364 4.47998 102.172 3.6714 102.172 2.67725C102.172 1.6831 101.364 0.874512 100.369 0.874512L100.374 0.878934ZM51.877 40.7996C53.2247 39.1074 55.3809 38.0558 57.3736 38.0911C58.4782 38.1176 60.0467 38.4932 61.2397 40.1457C61.3767 40.3268 61.4916 40.5301 61.6109 40.751C60.7448 41.3917 59.8523 41.9573 58.8758 42.4742C56.7638 43.5788 54.4265 44.2769 52.1642 44.953C51.6738 45.0988 51.1833 45.249 50.6929 45.3992C50.3791 43.7909 50.7901 42.1649 51.877 40.7952V40.7996ZM50.2289 59.0036C48.8813 60.6959 46.7428 61.7563 44.7456 61.7121C43.641 61.6856 42.0769 61.3101 40.8795 59.6576C40.7249 59.4587 40.5967 59.2334 40.4907 59.039C41.3744 58.385 42.2713 57.8195 43.2301 57.3202C45.3245 56.2288 47.622 55.5396 49.8489 54.8768C50.3747 54.7222 50.8961 54.5631 51.4175 54.3996C51.7224 56.0256 51.3203 57.6118 50.2289 58.9948V59.0036ZM61.5357 46.8662C60.3516 49.747 57.3912 51.9474 52.4912 53.5954C52.3321 53.6441 52.173 53.6971 52.0184 53.7501C51.8549 53.8031 51.6959 53.8561 51.5324 53.9092C50.9315 54.0947 50.3305 54.2759 49.7252 54.4571C47.4806 55.1242 45.1566 55.8179 43.0313 56.9314C42.0813 57.4263 41.1888 57.983 40.3139 58.6281C39.6732 57.033 39.766 54.9298 40.5879 52.9194C41.7632 50.043 44.7191 47.8515 49.6236 46.2122C49.7915 46.1592 49.955 46.1062 50.1185 46.0488C50.2731 45.9957 50.4278 45.9471 50.5868 45.8941C51.1524 45.7174 51.7224 45.545 52.2924 45.3771C54.5723 44.6967 56.9317 43.9898 59.0791 42.8675C60.0467 42.3549 60.9348 41.7938 61.792 41.1663C62.4371 42.7526 62.3487 44.8558 61.5313 46.8662H61.5357Z" fill="#3D6059"/>
</g>
</svg>
