<svg width="191" height="80" viewBox="0 0 191 80" fill="none" xmlns="http://www.w3.org/2000/svg">
<g opacity="0.3">
<path d="M17.3015 50.3093H20.1924L20.2756 50.4647L20.209 52.3346H19.7818L19.7152 52.2625C19.693 51.9961 19.6597 51.7853 19.6209 51.6355C19.582 51.4856 19.4655 51.3747 19.2769 51.3026C19.0882 51.236 18.8052 51.1971 18.4279 51.1971H15.1764L15.1431 51.8574C15.132 52.0405 15.1209 52.1903 15.1154 52.3179C15.1098 52.44 15.1043 52.5954 15.0987 52.7785C15.0932 52.9616 15.0877 53.178 15.0877 53.4332V55.2753H17.0574C17.3404 55.2753 17.5734 55.2532 17.7732 55.2143C17.9674 55.1755 18.1005 55.1144 18.1671 55.0312C18.2559 54.9369 18.3392 54.8481 18.4057 54.7538C18.4723 54.6595 18.5112 54.5263 18.5112 54.3543L18.5944 54.271L18.8885 54.2378L18.955 54.271C18.9328 54.5318 18.9107 54.7649 18.894 54.9591C18.8774 55.1533 18.8663 55.3752 18.8663 55.6305C18.8663 55.9024 18.8774 56.1576 18.894 56.3962C18.9107 56.6292 18.9328 56.8845 18.955 57.1619L18.8885 57.1952L18.5777 57.1619L18.5112 57.1119C18.5112 56.9233 18.4779 56.7568 18.4057 56.5959C18.3392 56.4406 18.2559 56.3074 18.1671 56.202C18.1005 56.1354 17.9674 56.0799 17.7732 56.0466C17.579 56.0133 17.3459 55.9967 17.0685 55.9967H15.0932V58.66C15.0932 58.9153 15.0932 59.1483 15.1043 59.3481C15.1098 59.5478 15.121 59.7309 15.1321 59.8974C15.1432 60.0638 15.1598 60.2525 15.182 60.4688C15.182 60.6852 15.2985 60.7962 15.526 60.7962H16.9853C17.6733 60.7962 18.2171 60.7796 18.611 60.7518C19.005 60.7241 19.3102 60.663 19.5155 60.5687C19.7208 60.4744 19.865 60.3357 19.9538 60.1471C20.037 59.9584 20.1203 59.7087 20.2035 59.398L20.2701 59.3314H20.7195L20.4088 61.5009L20.2701 61.6729H12.3966L12.3633 61.6563L12.4132 61.3455L12.4965 61.279C12.6796 61.279 12.8516 61.2679 13.0125 61.2512C13.1734 61.2346 13.3065 61.1846 13.4064 61.107C13.4952 61.0293 13.584 60.9239 13.6728 60.7962C13.756 60.6686 13.8115 60.4467 13.8337 60.1248C13.8337 60.0472 13.8337 59.9473 13.8448 59.8419C13.8448 59.7309 13.8559 59.5977 13.8614 59.4368C13.867 59.2759 13.8725 59.0817 13.8725 58.8542V52.784C13.8725 52.5898 13.8725 52.4233 13.8614 52.2846C13.8559 52.1459 13.8448 52.0072 13.8337 51.874C13.8115 51.5633 13.756 51.3414 13.6728 51.2138C13.584 51.0806 13.4952 50.9752 13.4064 50.8975C13.301 50.8198 13.1734 50.7699 13.0125 50.7532C12.8516 50.7366 12.6796 50.7255 12.4965 50.7255L12.4132 50.6589L12.3633 50.3482L12.3966 50.3315H17.3127L17.3015 50.3093Z" fill="#3D6059"/>
<path d="M40.3283 61.6563H36.1501L36.1002 61.6396L36.1501 61.3289L36.2167 61.2623C36.3998 61.2623 36.5774 61.2512 36.7439 61.2346C36.9103 61.2179 37.0379 61.168 37.1323 61.0903C37.2099 61.0126 37.2876 60.9072 37.3653 60.7796C37.4374 60.652 37.4763 60.43 37.4763 60.1082V59.8252C37.4763 59.7143 37.4763 59.5811 37.4652 59.4202C37.4596 59.2593 37.4485 59.065 37.4374 58.8376C37.4263 58.6101 37.4097 58.3215 37.3875 57.9775C37.2932 56.7735 37.2266 55.8136 37.1711 55.0978C37.1212 54.382 37.0768 53.8216 37.0435 53.4221C37.0102 53.0226 36.9824 52.7341 36.9658 52.5621C36.9492 52.3901 36.9325 52.2458 36.9214 52.1348C36.8437 52.3401 36.7161 52.6619 36.5441 53.0892C36.3721 53.5164 36.1724 54.0103 35.9504 54.5707C35.7285 55.1255 35.4899 55.7192 35.2346 56.3518C34.9849 56.9843 34.7353 57.6058 34.4856 58.2272C34.2414 58.8487 34.0028 59.4313 33.7809 59.9806C33.5589 60.5299 33.3647 61.0015 33.2038 61.3899H32.3937L28.9536 52.1737C28.9425 52.2902 28.9314 52.4067 28.9203 52.5343C28.9092 52.6619 28.8981 52.8118 28.887 52.9893C28.8759 53.1669 28.8593 53.3722 28.8426 53.6108C28.826 53.8438 28.8038 54.1379 28.7816 54.4819L28.543 57.6446C28.5097 58.033 28.4875 58.3548 28.4764 58.6101C28.4653 58.8598 28.4542 59.0817 28.4431 59.2648C28.432 59.4479 28.4265 59.6033 28.4265 59.7309V60.1248C28.4265 60.4467 28.4653 60.6686 28.5374 60.7962C28.6096 60.9239 28.6928 61.0237 28.7871 61.107C28.8759 61.1846 28.9869 61.2346 29.1034 61.2512C29.2255 61.2679 29.3753 61.279 29.5584 61.279L29.625 61.3455L29.6749 61.6563L29.6416 61.7228C29.5639 61.7228 29.4419 61.7229 29.2865 61.7118C29.1311 61.7062 28.9758 61.7007 28.8149 61.6951C28.654 61.6896 28.4986 61.684 28.3433 61.6784C28.1879 61.6729 28.0714 61.6674 27.9881 61.6674H25.752L25.7188 61.6507L25.7687 61.34L25.8741 61.2734C26.0461 61.2734 26.2126 61.2623 26.3735 61.2457C26.5344 61.229 26.6731 61.1791 26.7841 61.1014C26.8729 61.0237 26.9727 60.9183 27.0671 60.7907C27.1669 60.6631 27.2335 60.4411 27.2835 60.1193C27.2946 60.0416 27.3057 59.9418 27.3168 59.8363C27.3279 59.7254 27.3445 59.5922 27.3611 59.4313C27.3778 59.2703 27.4 59.0762 27.4222 58.8487C27.4444 58.6212 27.4666 58.3326 27.4888 57.9886L27.7273 54.4986C27.7606 54.0991 27.7884 53.7606 27.805 53.4832C27.8217 53.2113 27.8328 52.9727 27.8383 52.7785C27.8439 52.5843 27.8494 52.4178 27.855 52.2791C27.8605 52.1404 27.8661 52.0017 27.8661 51.8685C27.8661 51.5467 27.8161 51.3192 27.7218 51.1916C27.6219 51.0584 27.5276 50.9585 27.4388 50.892C27.3334 50.8143 27.2058 50.7643 27.0449 50.7477C26.884 50.731 26.7119 50.7199 26.5288 50.7199L26.4401 50.6533L26.3901 50.3426L26.4234 50.326H29.3364C29.5029 50.326 29.6361 50.3204 29.7415 50.3093L29.8247 50.3593C29.8358 50.5091 29.8802 50.7033 29.9523 50.953C30.0245 51.1971 30.1188 51.4746 30.2298 51.7853C30.3408 52.096 30.4573 52.4234 30.5793 52.7729C30.707 53.1225 30.829 53.472 30.9566 53.8161L32.1274 56.9954C32.3216 57.5448 32.4992 58.0108 32.6601 58.3992C32.821 58.7821 32.9652 59.1261 33.0873 59.4202C33.1206 59.3647 33.2205 59.1428 33.3814 58.7599C33.5423 58.377 33.7421 57.8999 33.9751 57.3339C34.2081 56.7679 34.4578 56.1465 34.7242 55.4696C34.985 54.7926 35.2402 54.1323 35.4788 53.4832C35.7174 52.834 35.9282 52.2347 36.1002 51.6854C36.2722 51.1361 36.3832 50.6977 36.4276 50.3759L36.5108 50.3093C36.6051 50.3149 36.6995 50.3204 36.8049 50.3204C36.9103 50.3204 37.0046 50.3204 37.099 50.3204H39.6458L39.6791 50.3371L39.6291 50.6478L39.5459 50.7144C39.3628 50.7144 39.1853 50.7255 39.0188 50.7421C38.8523 50.7588 38.7247 50.8087 38.6304 50.8864C38.5361 50.953 38.4417 51.0584 38.3474 51.1971C38.2475 51.3358 38.2031 51.5578 38.2031 51.8685C38.2031 52.0294 38.2031 52.1792 38.2142 52.3179C38.2198 52.4566 38.2253 52.6175 38.2309 52.8007C38.2364 52.9838 38.2475 53.2057 38.2642 53.472C38.2808 53.7384 38.3086 54.0713 38.3419 54.4875L38.5472 57.6502C38.5804 58.0608 38.6082 58.3992 38.6248 58.6545C38.6415 58.9097 38.6581 59.1261 38.6748 59.2981C38.6914 59.4701 38.7081 59.6144 38.7247 59.7364C38.7414 59.8585 38.7635 59.9861 38.7857 60.1248C38.8301 60.4467 38.9023 60.6686 38.9911 60.7962C39.0798 60.9239 39.1742 61.0237 39.2685 61.107C39.3739 61.1846 39.5071 61.2346 39.6735 61.2512C39.84 61.2679 40.012 61.279 40.1951 61.279L40.2783 61.3455L40.3283 61.6563Z" fill="#3D6059"/>
<path d="M49.6451 50.3258L49.5951 50.6365L49.5286 50.7031C49.3455 50.7031 49.1679 50.7142 49.0014 50.7308C48.835 50.7475 48.7018 50.7974 48.5964 50.8751C48.5021 50.9528 48.4188 51.0582 48.3412 51.1858C48.2635 51.3135 48.208 51.5354 48.1858 51.8572C48.1747 52.0181 48.1636 52.168 48.1581 52.3067C48.1525 52.4454 48.147 52.6063 48.1414 52.7894C48.1359 52.9725 48.1359 53.1944 48.1359 53.4608V58.6432C48.1359 58.8984 48.1359 59.1148 48.1414 59.2868C48.147 59.4588 48.1525 59.6031 48.1581 59.7252C48.1636 59.8472 48.1747 59.9749 48.1858 60.1136C48.208 60.4354 48.2579 60.6573 48.3412 60.7849C48.4188 60.9126 48.5076 61.0124 48.5964 61.0957C48.7018 61.1733 48.835 61.2233 49.0014 61.2399C49.1679 61.2566 49.3399 61.2677 49.5286 61.2677L49.5951 61.3342L49.6451 61.645L49.6118 61.6616H45.4337L45.4004 61.645L45.4503 61.3342L45.5336 61.2677C45.7167 61.2677 45.8887 61.2566 46.0496 61.2399C46.2105 61.2233 46.3437 61.1733 46.4435 61.0957C46.5323 61.018 46.6211 60.9126 46.7099 60.7849C46.7931 60.6573 46.8486 60.4354 46.8708 60.1136C46.8708 60.0359 46.8708 59.936 46.8819 59.8306C46.8874 59.7196 46.893 59.5864 46.8985 59.4255C46.9041 59.2646 46.9096 59.0704 46.9096 58.8429V53.4774C46.9096 53.2055 46.9096 52.9669 46.8985 52.7727C46.893 52.5785 46.8874 52.4121 46.8819 52.2734C46.8763 52.1347 46.8652 51.996 46.8541 51.8628C46.8319 51.5632 46.782 51.3467 46.6988 51.208C46.6211 51.0693 46.5323 50.9639 46.4435 50.8807C46.3381 50.803 46.2105 50.753 46.0496 50.7364C45.8887 50.7198 45.7167 50.7087 45.5336 50.7087L45.4503 50.6421L45.4004 50.3314L45.4337 50.3147H49.6118L49.6451 50.3314V50.3258Z" fill="#3D6059"/>
<path d="M56.4531 51.8574C56.4309 51.5356 56.381 51.3136 56.2977 51.186C56.2201 51.0584 56.1313 50.9585 56.0425 50.8753C55.9371 50.7976 55.8095 50.7477 55.6486 50.731C55.4877 50.7144 55.3157 50.7033 55.1326 50.7033L55.0493 50.6367L54.9994 50.326L55.0327 50.3093H59.2108L59.2441 50.326L59.1941 50.6367L59.1275 50.7033C58.9444 50.7033 58.7669 50.7144 58.6004 50.731C58.434 50.7477 58.3008 50.7976 58.1954 50.8753C58.1011 50.953 58.0123 51.064 57.929 51.1916C57.8458 51.3247 57.7903 51.5467 57.7681 51.8519C57.757 52.0128 57.7459 52.1626 57.7404 52.3013C57.7348 52.44 57.7293 52.6009 57.7293 52.784V58.6323C57.7293 58.8986 57.7293 59.1261 57.7404 59.3203C57.7459 59.5145 57.757 59.6976 57.7681 59.8696C57.7792 60.0416 57.7903 60.2358 57.8014 60.4522C57.8125 60.6686 57.9346 60.7796 58.1621 60.7796H59.6214C60.3094 60.7796 60.8254 60.7629 61.175 60.7352C61.5246 60.7075 61.7742 60.6464 61.9296 60.5521C62.085 60.4578 62.1793 60.319 62.2126 60.1304C62.2459 59.9417 62.3014 59.6921 62.3846 59.3813L62.4345 59.3148H62.884L62.5733 61.4843L62.4345 61.6563H55.0216L54.9883 61.6396L55.0382 61.3289L55.1214 61.2623C55.3045 61.2623 55.4766 61.2512 55.6375 61.2346C55.7984 61.2179 55.9315 61.168 56.0314 61.0903C56.1202 61.0126 56.209 60.8961 56.2867 60.7463C56.3643 60.5965 56.4254 60.3856 56.4587 60.1082C56.4698 60.0305 56.4809 59.9306 56.4864 59.8252C56.492 59.7143 56.4975 59.5811 56.4975 59.4202V53.472C56.4975 53.2002 56.4975 52.9616 56.4864 52.7674C56.4809 52.5732 56.4753 52.4067 56.4698 52.268C56.4642 52.1293 56.4531 51.9906 56.442 51.8574H56.4531Z" fill="#3D6059"/>
<path d="M73.5151 61.6563H69.3203L69.3037 61.6396L69.337 61.3289L69.4202 61.2623C69.6033 61.2623 69.7809 61.2512 69.9418 61.2346C70.1083 61.2179 70.2359 61.168 70.3302 61.0903C70.4245 61.0126 70.5133 60.9072 70.5965 60.7796C70.6798 60.6519 70.7353 60.43 70.7574 60.1082C70.7685 60.0305 70.7796 59.9306 70.7852 59.8252C70.7852 59.7142 70.7963 59.5811 70.8018 59.4202C70.8074 59.2593 70.8129 59.065 70.8129 58.8375V57.3062C70.8129 56.9843 70.7685 56.7235 70.6742 56.5238C70.5799 56.324 70.4911 56.1409 70.3968 55.98C70.2248 55.6693 70.0306 55.3364 69.8197 54.9813C69.6089 54.6262 69.3869 54.2599 69.1594 53.8826C68.9319 53.5053 68.6933 53.128 68.4548 52.7563C68.2162 52.3845 67.9831 52.0239 67.7667 51.6798C67.6891 51.5522 67.5947 51.4302 67.4893 51.3081C67.3839 51.186 67.2951 51.0917 67.2119 51.0251C67.0843 50.9252 66.9344 50.8475 66.7569 50.8032C66.5793 50.7588 66.374 50.7255 66.1465 50.6977L66.0078 50.6311V50.3204L66.0911 50.2538C66.3685 50.2871 66.6237 50.3204 66.8623 50.3482C67.1009 50.3759 67.3561 50.3926 67.6169 50.3926H68.3382C68.599 50.3926 68.9097 50.3759 69.2593 50.3482C69.6089 50.3204 69.9418 50.2871 70.2636 50.2538L70.3302 50.3204V50.6311L70.2636 50.7088C70.0361 50.7088 69.8364 50.7255 69.6644 50.7532C69.4924 50.781 69.3536 50.8309 69.2538 50.8975C69.115 51.0029 69.0485 51.0972 69.0485 51.1916C69.0485 51.247 69.0707 51.3192 69.1095 51.3969C69.1483 51.4745 69.1872 51.5467 69.2205 51.6022C69.6311 52.3623 70.025 53.0781 70.3912 53.755C70.7574 54.432 71.1569 55.1422 71.5953 55.8912C71.7895 55.5583 72.0003 55.1866 72.2223 54.7815C72.4442 54.3765 72.6606 53.977 72.8659 53.5941C73.0712 53.2113 73.2543 52.8617 73.4097 52.551C73.565 52.2403 73.6705 52.0239 73.7259 51.8962C73.7481 51.8408 73.7814 51.7464 73.8314 51.6188C73.8758 51.4912 73.898 51.3858 73.898 51.2914C73.898 51.1527 73.8591 51.0528 73.7759 50.9807C73.6982 50.9141 73.5928 50.8586 73.4763 50.8253C73.3542 50.792 73.2266 50.7699 73.0823 50.7588C72.938 50.7477 72.8049 50.7255 72.6773 50.6922L72.6107 50.6256V50.3149L72.6773 50.2483C73.0102 50.3038 73.2876 50.3371 73.5096 50.3371H76.012C76.2395 50.3371 76.5169 50.3093 76.8387 50.2483L76.9053 50.3149V50.6256L76.8387 50.6922C76.5724 50.7255 76.3505 50.7699 76.1674 50.8309C75.9842 50.8864 75.8178 50.9641 75.6624 51.064C75.5071 51.1638 75.3628 51.2914 75.2241 51.4523C75.0854 51.6132 74.93 51.8185 74.758 52.0738C74.4251 52.5787 74.1365 53.0226 73.8869 53.4166C73.6427 53.805 73.4208 54.1656 73.2266 54.493C73.0324 54.8204 72.8548 55.12 72.6995 55.3974C72.5441 55.6693 72.3943 55.9412 72.2445 56.2075C72.2001 56.2741 72.1446 56.3962 72.0891 56.5626C72.0336 56.7291 72.0059 56.8955 72.0059 57.0675V58.6655C72.0059 58.9152 72.0059 59.1316 72.017 59.3036C72.0225 59.4757 72.0281 59.6199 72.0336 59.7309C72.0392 59.8474 72.0503 59.9695 72.0614 60.1082C72.0836 60.43 72.139 60.6519 72.2223 60.7796C72.3055 60.9072 72.3943 61.0071 72.4886 61.0903C72.5774 61.168 72.7105 61.2179 72.877 61.2346C73.0435 61.2512 73.2155 61.2623 73.4041 61.2623L73.4929 61.3289L73.5428 61.6396L73.5096 61.6563H73.5151Z" fill="#3D6059"/>
<path d="M107.363 61.6563H105.438L105.405 61.6397L105.454 61.329L105.538 61.2624C105.676 61.2624 105.837 61.2513 106.02 61.2346C106.204 61.218 106.348 61.1736 106.448 61.107C106.536 61.0404 106.625 60.9294 106.703 60.7796C106.781 60.6298 106.842 60.4079 106.875 60.1083C106.886 59.9363 106.897 59.681 106.903 59.3314C106.908 58.9874 106.914 58.4769 106.914 57.8V52.7175C106.914 52.4234 106.903 52.1349 106.88 51.8464C106.858 51.5356 106.803 51.3137 106.72 51.175C106.631 51.0362 106.542 50.9364 106.453 50.8642C106.348 50.8088 106.242 50.7644 106.137 50.7366C106.026 50.7089 105.832 50.6922 105.543 50.6922L105.46 50.6257L105.41 50.3149L105.443 50.2539C105.521 50.2539 105.632 50.2539 105.76 50.2705C105.893 50.2816 106.032 50.2872 106.17 50.2983C106.315 50.3094 106.459 50.3149 106.609 50.326C106.758 50.3371 106.897 50.3427 107.019 50.3427H109.338C110.576 50.3427 111.464 50.5813 112.002 51.0585C112.54 51.5356 112.812 52.1626 112.812 52.9394C112.812 53.2834 112.768 53.5886 112.684 53.8494C112.601 54.1102 112.479 54.3432 112.329 54.5485C112.179 54.7483 112.013 54.9203 111.83 55.0646C111.647 55.2088 111.453 55.3309 111.247 55.4363C112.085 55.5861 112.729 55.9024 113.184 56.3907C113.639 56.879 113.861 57.5448 113.861 58.3993C113.861 58.9763 113.755 59.4702 113.55 59.8807C113.345 60.2913 113.056 60.6243 112.679 60.885C112.307 61.1458 111.863 61.3401 111.347 61.4677C110.831 61.5953 110.265 61.6563 109.644 61.6563H107.358H107.363ZM108.945 55.2588C109.311 55.2588 109.66 55.2366 109.993 55.1922C110.326 55.1478 110.626 55.0257 110.887 54.8315C111.136 54.6706 111.347 54.4376 111.508 54.1379C111.669 53.8328 111.747 53.4777 111.747 53.0615C111.747 52.4567 111.575 51.9906 111.231 51.6688C110.887 51.347 110.398 51.1861 109.771 51.1861H108.223C108.201 51.519 108.184 51.7964 108.179 52.0295C108.173 52.257 108.162 52.4567 108.151 52.6287C108.14 52.8007 108.134 52.9561 108.134 53.0948V54.5541C108.134 54.8204 108.146 55.0035 108.168 55.1034C108.19 55.2088 108.279 55.2588 108.423 55.2588H108.939H108.945ZM108.134 55.8968V57.0288C108.134 57.4671 108.134 57.8944 108.146 58.3105C108.151 58.7267 108.157 59.1039 108.162 59.4369C108.168 59.7698 108.179 59.9917 108.19 60.1083C108.212 60.419 108.279 60.6076 108.379 60.6742C108.484 60.7408 108.617 60.7796 108.789 60.7796H109.838C110.11 60.7796 110.415 60.7463 110.742 60.6742C111.07 60.6076 111.375 60.4856 111.663 60.3136C111.952 60.1416 112.19 59.903 112.385 59.5922C112.579 59.2815 112.679 58.8876 112.679 58.4048C112.679 57.9942 112.607 57.628 112.457 57.3117C112.307 56.9955 112.102 56.7347 111.835 56.5294C111.569 56.3241 111.264 56.1632 110.914 56.0578C110.565 55.9468 110.182 55.8968 109.771 55.8968H108.14H108.134Z" fill="#3D6059"/>
<path d="M123.493 61.6561H119.315L119.281 61.6395L119.331 61.3288L119.414 61.2622C119.553 61.2622 119.714 61.2511 119.897 61.2344C120.08 61.2178 120.224 61.1734 120.324 61.1068C120.419 61.0402 120.502 60.9293 120.58 60.7794C120.657 60.6296 120.718 60.4077 120.752 60.1081C120.752 60.0304 120.752 59.9305 120.763 59.8251C120.768 59.7141 120.774 59.581 120.779 59.4201C120.785 59.2591 120.79 59.0649 120.79 58.8374V53.5052C120.79 53.2777 120.79 53.0169 120.779 52.7229C120.774 52.4288 120.757 52.1403 120.735 51.8517C120.713 51.5854 120.663 51.3801 120.58 51.2247C120.502 51.0694 120.413 50.9528 120.324 50.8696C120.219 50.8141 120.114 50.7697 120.008 50.742C119.897 50.7143 119.703 50.6976 119.414 50.6976L119.331 50.631L119.281 50.3203L119.315 50.2593C119.392 50.2593 119.503 50.2593 119.631 50.2759C119.764 50.287 119.903 50.2925 120.041 50.3036C120.186 50.3147 120.33 50.3203 120.48 50.3314C120.63 50.3425 120.768 50.348 120.89 50.348H123.226C123.992 50.348 124.647 50.4202 125.179 50.57C125.712 50.7198 126.145 50.9251 126.478 51.1803C126.811 51.4356 127.055 51.7463 127.21 52.1069C127.366 52.4676 127.443 52.856 127.443 53.2666C127.443 53.7604 127.354 54.1877 127.177 54.5483C126.999 54.909 126.772 55.2197 126.5 55.475C126.223 55.7302 125.917 55.9411 125.573 56.0909C125.229 56.2462 124.891 56.3627 124.558 56.446C124.924 56.962 125.301 57.4725 125.69 57.9774C126.078 58.4823 126.483 58.9762 126.894 59.4533C127.121 59.7197 127.332 59.9527 127.532 60.158C127.726 60.3633 127.937 60.5409 128.159 60.6907C128.381 60.8405 128.631 60.9626 128.908 61.0514C129.186 61.1457 129.513 61.2123 129.907 61.2566L130.012 61.3232L130.046 61.6339L130.012 61.7338H128.398C128.098 61.7338 127.843 61.7005 127.626 61.6339C127.41 61.5674 127.199 61.4564 126.988 61.3066C126.783 61.1568 126.572 60.9626 126.361 60.724C126.15 60.4854 125.906 60.2024 125.629 59.8695C125.596 59.8362 125.496 59.703 125.329 59.47C125.163 59.2369 124.963 58.9595 124.73 58.6321C124.497 58.3048 124.247 57.9607 123.992 57.589C123.737 57.2172 123.498 56.8732 123.276 56.5569H122.022V57.5724C122.022 57.9386 122.022 58.2881 122.033 58.6211C122.039 58.954 122.044 59.2536 122.05 59.5255C122.056 59.7974 122.067 59.986 122.078 60.1025C122.1 60.4354 122.155 60.6685 122.25 60.7961C122.339 60.9293 122.422 61.0236 122.488 61.0791C122.594 61.1346 122.699 61.179 122.805 61.2067C122.916 61.2344 123.115 61.2511 123.415 61.2511L123.482 61.3177L123.531 61.6284L123.498 61.645L123.493 61.6561ZM123.576 55.8079C124.525 55.8079 125.213 55.586 125.629 55.1476C126.045 54.7037 126.256 54.11 126.256 53.3665C126.256 52.6674 126.017 52.1292 125.54 51.7519C125.063 51.3746 124.414 51.1859 123.587 51.1859H122.089C122.067 51.5188 122.05 51.7962 122.044 52.0293C122.039 52.2568 122.028 52.4565 122.017 52.6285C122.006 52.8005 122 52.9559 122 53.0946V55.1753C122 55.3252 122.006 55.4417 122.017 55.5305C122.028 55.6137 122.056 55.6803 122.105 55.7191C122.15 55.7579 122.216 55.7857 122.305 55.7968C122.394 55.8079 122.511 55.8135 122.66 55.8135H123.57L123.576 55.8079Z" fill="#3D6059"/>
<path d="M145.211 50.3262L145.161 50.6369L145.095 50.7035C144.912 50.7035 144.734 50.7146 144.573 50.7312C144.407 50.7478 144.274 50.7978 144.168 50.8755C144.079 50.9532 143.991 51.0586 143.913 51.1862C143.835 51.3138 143.78 51.5358 143.758 51.8576C143.747 51.9963 143.735 52.1295 143.73 52.2682C143.724 52.4069 143.719 52.5733 143.713 52.7675C143.708 52.9617 143.702 53.1948 143.702 53.4722V57.7891C143.702 58.3495 143.619 58.8766 143.452 59.3649C143.286 59.8531 143.031 60.2748 142.687 60.6355C142.343 60.9962 141.91 61.2791 141.388 61.4844C140.867 61.6897 140.256 61.7952 139.557 61.7952C138.753 61.7952 138.076 61.6897 137.521 61.4844C136.966 61.2791 136.517 60.9962 136.173 60.6355C135.829 60.2748 135.579 59.8476 135.424 59.3649C135.268 58.8766 135.191 58.355 135.191 57.7891V52.7675C135.191 52.5733 135.191 52.4069 135.179 52.2682C135.174 52.1295 135.163 51.9908 135.152 51.8576C135.13 51.5469 135.074 51.3249 134.991 51.1973C134.908 51.0641 134.813 50.9587 134.724 50.881C134.619 50.8033 134.491 50.7534 134.331 50.7368C134.17 50.7201 133.998 50.709 133.814 50.709L133.726 50.6424L133.676 50.3317L133.709 50.3151H137.887L137.92 50.3317L137.871 50.6424L137.804 50.709C137.621 50.709 137.443 50.7201 137.277 50.7368C137.11 50.7534 136.977 50.8033 136.872 50.881C136.777 50.9587 136.694 51.0641 136.617 51.1917C136.533 51.3194 136.483 51.5413 136.461 51.8631C136.45 52.0241 136.439 52.1739 136.433 52.3126C136.428 52.4513 136.422 52.6122 136.417 52.7953C136.411 52.9784 136.406 53.2003 136.406 53.4667V57.3174C136.406 58.5548 136.683 59.4425 137.238 59.9807C137.793 60.519 138.564 60.7909 139.552 60.7909C140.539 60.7909 141.311 60.5245 141.871 59.9807C142.431 59.4425 142.714 58.5548 142.714 57.3174V53.4667C142.714 53.2059 142.714 52.9784 142.709 52.7953C142.703 52.6122 142.698 52.4513 142.692 52.3126C142.687 52.1739 142.676 52.0241 142.665 51.8631C142.642 51.5413 142.587 51.3194 142.504 51.1917C142.42 51.0641 142.326 50.9643 142.237 50.881C142.143 50.8033 142.015 50.7534 141.849 50.7368C141.682 50.7201 141.505 50.709 141.322 50.709L141.239 50.6424L141.189 50.3317L141.222 50.2651C141.3 50.2651 141.422 50.2707 141.583 50.2929C141.743 50.3095 141.91 50.3206 142.087 50.3206H145.173L145.206 50.3373L145.211 50.3262Z" fill="#3D6059"/>
<path d="M161.697 50.3259L161.664 50.631L161.575 50.6976C161.392 50.6976 161.214 50.7087 161.048 50.7253C160.881 50.742 160.754 50.7919 160.66 50.8696C160.565 50.9528 160.482 51.0527 160.41 51.1803C160.338 51.308 160.288 51.5299 160.266 51.8517C160.254 52.0126 160.243 52.1625 160.238 52.3012C160.232 52.4399 160.227 52.6008 160.221 52.7839C160.216 52.967 160.21 53.189 160.21 53.4553V57.5002C160.21 58.1439 160.21 58.671 160.221 59.0816C160.227 59.4922 160.232 59.8473 160.238 60.1414C160.243 60.4354 160.254 60.6962 160.271 60.9237C160.288 61.1512 160.31 61.4064 160.332 61.6783L160.193 61.7283H159.128L158.956 61.523L152.836 52.3233C152.836 52.4399 152.836 52.5508 152.825 52.6674C152.819 52.7839 152.814 52.9226 152.814 53.0891V58.1771C152.814 58.3991 152.814 58.6321 152.825 58.8707C152.83 59.1093 152.836 59.3424 152.842 59.5698C152.847 59.7918 152.858 59.9749 152.869 60.1136C152.891 60.4022 152.941 60.613 153.014 60.7573C153.086 60.9015 153.18 61.0125 153.297 61.0902C153.391 61.1567 153.507 61.2067 153.657 61.2289C153.807 61.2511 153.996 61.2622 154.223 61.2622L154.312 61.3288L154.362 61.6395L154.329 61.6561H150.289L150.256 61.6395L150.306 61.3288L150.395 61.2622C150.6 61.2622 150.777 61.2511 150.916 61.2344C151.06 61.2178 151.188 61.1678 151.305 61.0902C151.382 61.0347 151.465 60.9404 151.554 60.8072C151.637 60.674 151.699 60.441 151.737 60.1081C151.748 60.0304 151.76 59.9361 151.765 59.8251C151.771 59.7141 151.776 59.581 151.776 59.4201V52.7617C151.776 52.5675 151.776 52.401 151.765 52.2623C151.76 52.1236 151.748 51.9849 151.737 51.8517C151.715 51.6131 151.665 51.4078 151.582 51.2414C151.499 51.0749 151.41 50.9528 151.305 50.8696C151.199 50.7919 151.072 50.742 150.916 50.7253C150.761 50.7087 150.589 50.6976 150.395 50.6976L150.306 50.631L150.256 50.3259L150.289 50.2593C150.367 50.2593 150.489 50.2593 150.644 50.2759C150.8 50.287 150.955 50.2925 151.116 50.3036C151.277 50.3147 151.432 50.3203 151.588 50.3314C151.743 50.3425 151.859 50.348 151.943 50.348H152.93C153.097 50.348 153.23 50.3314 153.335 50.2981L153.419 50.348C153.463 50.509 153.557 50.7309 153.702 51.0083C153.846 51.2913 154.018 51.602 154.218 51.946C154.417 52.2901 154.634 52.6563 154.872 53.0447C155.105 53.4331 155.344 53.8159 155.588 54.1988C156.459 55.597 157.219 56.74 157.869 57.6223C158.518 58.5045 158.934 59.076 159.117 59.3424C159.117 59.2591 159.117 59.187 159.128 59.1204C159.134 59.0538 159.139 58.9706 159.139 58.8818V53.4775C159.139 53.2 159.139 52.967 159.128 52.7728C159.123 52.5786 159.117 52.4121 159.111 52.2734C159.106 52.1347 159.095 51.996 159.084 51.8628C159.062 51.541 159.012 51.3191 158.928 51.1914C158.851 51.0638 158.762 50.9639 158.673 50.8807C158.568 50.803 158.435 50.7531 158.268 50.7365C158.102 50.7198 157.93 50.7087 157.746 50.7087L157.68 50.6421L157.63 50.337L157.663 50.2704C157.741 50.2704 157.857 50.2704 158.007 50.287C158.157 50.2981 158.307 50.3037 158.462 50.3148C158.618 50.3258 158.767 50.3314 158.917 50.3425C159.067 50.3536 159.178 50.3591 159.261 50.3591H160.415C160.565 50.3591 160.721 50.3536 160.881 50.3425C161.042 50.3314 161.198 50.3203 161.348 50.3092C161.497 50.2981 161.608 50.287 161.692 50.2759L161.708 50.3425L161.697 50.3259Z" fill="#3D6059"/>
<path d="M172.689 50.1706C173.582 50.1706 174.381 50.326 175.081 50.6367C175.78 50.9474 176.368 51.3691 176.845 51.9018C177.322 52.4344 177.683 53.0503 177.938 53.7495C178.188 54.4486 178.315 55.181 178.315 55.9523C178.315 56.7235 178.193 57.4393 177.944 58.144C177.7 58.8486 177.333 59.4701 176.851 60.0083C176.368 60.5465 175.769 60.9793 175.053 61.3067C174.337 61.634 173.51 61.795 172.567 61.795C171.624 61.795 170.852 61.6396 170.17 61.3289C169.488 61.0182 168.916 60.602 168.45 60.0805C167.984 59.5589 167.64 58.9541 167.412 58.2605C167.185 57.5669 167.068 56.8345 167.068 56.0688C167.068 55.2531 167.196 54.4874 167.446 53.7716C167.695 53.0559 168.067 52.4289 168.544 51.8962C169.027 51.3636 169.615 50.9419 170.314 50.6311C171.013 50.3204 171.807 50.165 172.689 50.165V50.1706ZM172.672 60.885C173.36 60.885 173.971 60.7574 174.503 60.4966C175.036 60.2414 175.486 59.8862 175.852 59.4368C176.218 58.9874 176.501 58.4658 176.695 57.8721C176.889 57.2784 176.989 56.6403 176.989 55.9634C176.989 55.2864 176.889 54.6317 176.69 54.038C176.49 53.4443 176.201 52.9227 175.819 52.4788C175.441 52.0405 174.981 51.6965 174.431 51.4468C173.888 51.2027 173.272 51.075 172.584 51.075C171.896 51.075 171.307 51.1971 170.786 51.4468C170.264 51.6909 169.826 52.0349 169.471 52.4677C169.116 52.9061 168.849 53.4166 168.672 54.0047C168.494 54.5929 168.406 55.242 168.406 55.9412C168.406 56.7069 168.511 57.3949 168.716 58.0052C168.922 58.61 169.216 59.1261 169.593 59.5533C169.97 59.975 170.42 60.3024 170.941 60.5354C171.463 60.7629 172.04 60.8795 172.667 60.8795L172.672 60.885Z" fill="#3D6059"/>
<path d="M87.3281 55.5415H90.7627V52.1069H91.6505V55.5415H95.0851V56.4293H91.6505V59.8639H90.7627V56.4293H87.3281V55.5415Z" fill="#3D6059"/>
<path d="M79.0324 74.8013C78.3999 74.8013 77.8783 75.0232 77.4899 75.4671C77.096 75.911 76.8962 76.4714 76.8962 77.1317C76.8962 77.792 77.096 78.3524 77.4955 78.8018C77.8894 79.2457 78.411 79.4732 79.038 79.4732C79.665 79.4732 80.181 79.2457 80.575 78.8018C80.9745 78.3524 81.1798 77.7864 81.1798 77.1317C81.1798 76.477 80.9745 75.911 80.575 75.4671C80.181 75.0232 79.665 74.8013 79.0324 74.8013Z" fill="#3D6059"/>
<path d="M104.095 74.8013C103.462 74.8013 102.941 75.0232 102.552 75.4671C102.158 75.911 101.959 76.4714 101.959 77.1317C101.959 77.792 102.159 78.3524 102.558 78.8018C102.952 79.2457 103.474 79.4732 104.1 79.4732C104.727 79.4732 105.244 79.2457 105.637 78.8018C106.037 78.3524 106.242 77.7864 106.242 77.1317C106.242 76.477 106.037 75.911 105.637 75.4671C105.244 75.0232 104.727 74.8013 104.095 74.8013Z" fill="#3D6059"/>
<path d="M38.6526 76.8706C38.8912 76.5987 39.0077 76.2769 39.0077 75.9218C39.0077 75.5667 38.8912 75.3059 38.6526 75.1173C38.414 74.9286 38.0977 74.8398 37.6816 74.8398C37.4984 74.8398 37.282 74.8454 36.9824 74.862V77.2424C37.3653 77.2701 37.7037 77.2813 38.0089 77.2813C38.1976 77.2813 38.414 77.1425 38.6526 76.8706Z" fill="#3D6059"/>
<path d="M122.394 74.8008C121.762 74.8008 121.245 75.0227 120.857 75.4666C120.458 75.9161 120.258 76.4765 120.258 77.1312C120.258 77.7859 120.458 78.3519 120.857 78.8013C121.262 79.2508 121.767 79.4727 122.4 79.4727C123.032 79.4727 123.543 79.2452 123.942 78.8013C124.342 78.3464 124.541 77.7859 124.541 77.1312C124.541 76.4765 124.342 75.9105 123.942 75.4666C123.537 75.0172 123.032 74.8008 122.394 74.8008Z" fill="#3D6059"/>
<path d="M141.566 74.8008C140.933 74.8008 140.412 75.0227 140.023 75.4666C139.629 75.9105 139.43 76.4709 139.43 77.1312C139.43 77.7915 139.624 78.3519 140.029 78.8013C140.423 79.2452 140.944 79.4727 141.571 79.4727C142.198 79.4727 142.714 79.2452 143.108 78.8013C143.513 78.3464 143.708 77.8026 143.708 77.1312C143.708 76.4598 143.508 75.905 143.108 75.4666C142.714 75.0227 142.198 74.8008 141.566 74.8008Z" fill="#3D6059"/>
<path d="M39.8361 79.0289C39.7585 78.9345 39.5809 78.7126 39.3146 78.3686C39.0649 78.0468 38.854 77.7638 38.6765 77.5307C38.8873 77.3754 39.0871 77.159 39.2646 76.8982C39.4644 76.5986 39.5643 76.2878 39.5643 75.9438C39.5643 75.4445 39.3867 75.045 39.0371 74.762C38.6931 74.4901 38.2659 74.3569 37.7332 74.3569C37.4114 74.3569 37.0063 74.3736 36.5347 74.4069H36.457V79.9056H36.9897V77.7083C37.3226 77.7305 37.711 77.7471 38.1882 77.7471C38.8207 78.6183 39.2702 79.2064 39.4533 79.4062C39.6586 79.6059 39.8417 79.7391 40.0192 79.8168C40.2134 79.9111 40.4687 79.9666 40.7905 79.9721H40.8682L40.8959 79.5726L40.8182 79.5615C40.4465 79.5172 40.1247 79.3507 39.8361 79.04V79.0289ZM36.9897 74.8618C37.2893 74.8452 37.5057 74.8397 37.6888 74.8397C38.105 74.8397 38.4212 74.9284 38.6598 75.1171C38.8984 75.3057 39.0149 75.5665 39.0149 75.9216C39.0149 76.2768 38.8929 76.5986 38.6598 76.8704C38.4268 77.1423 38.2104 77.2811 38.0162 77.2811C37.711 77.2811 37.3725 77.27 36.9897 77.2422V74.8618Z" fill="#3D6059"/>
<path d="M43.5705 77.1535H45.4958V76.6486H43.5705V74.8786H45.6956V74.3682H43.0156V79.9112H45.7788V79.4007H43.5705V77.1535Z" fill="#3D6059"/>
<path d="M52.7755 79.2122C52.3649 79.3898 51.8655 79.4785 51.2884 79.4785C50.6448 79.4785 50.0899 79.2455 49.6294 78.7905C49.1689 78.3355 48.9358 77.7807 48.9358 77.1315C48.9358 76.4823 49.1356 75.9219 49.5295 75.478C49.9235 75.0286 50.4228 74.8066 51.0554 74.8066C51.6047 74.8066 52.1762 74.8954 52.7533 75.0674L52.8476 75.0951L53.003 74.6069L52.9086 74.5736C52.2927 74.3738 51.6713 74.2739 51.0554 74.2739C50.2675 74.2739 49.6127 74.5514 49.1078 75.1007C48.6029 75.65 48.3477 76.338 48.3477 77.137C48.3477 77.936 48.6362 78.6296 49.2132 79.1734C49.7903 79.7227 50.4894 80.0001 51.2884 80.0001C51.5936 80.0001 51.9043 79.9668 52.204 79.9058C52.548 79.8337 52.7921 79.7504 52.9808 79.6395L53.0529 79.5951L52.8642 79.1678L52.7755 79.2067V79.2122Z" fill="#3D6059"/>
<path d="M56.4377 77.1535H58.363V76.6486H56.4377V74.8786H58.5628V74.3682H55.8828V79.9112H58.646V79.4007H56.4377V77.1535Z" fill="#3D6059"/>
<path d="M64.1538 74.7233C63.8209 74.4626 63.377 74.335 62.8332 74.335C62.4615 74.335 62.0564 74.3571 61.6181 74.396L61.5293 74.4071V79.9169H62.0842V74.8843C62.3782 74.8676 62.5891 74.8621 62.7722 74.8621C63.1828 74.8621 63.5046 74.9508 63.7376 75.1229C63.9707 75.2949 64.0816 75.5667 64.0816 75.9496C64.0816 76.3324 63.9097 76.6432 63.5712 76.8818C63.2216 77.1314 62.8221 77.2535 62.3449 77.2535H62.1896V77.6974H62.3727C62.9941 77.6974 63.5324 77.531 63.9762 77.2091C64.4312 76.8707 64.6643 76.4379 64.6643 75.9163C64.6643 75.3947 64.4923 75.0008 64.1482 74.7344L64.1538 74.7233Z" fill="#3D6059"/>
<path d="M66.7012 74.8786H68.5156V79.9112H69.0704V74.8786H70.8793V74.3682H66.7012V74.8786Z" fill="#3D6059"/>
<path d="M74.0373 74.3682H73.4824V79.9168H74.0373V74.3682Z" fill="#3D6059"/>
<path d="M87.6723 78.3356C87.6723 78.5187 87.6723 78.6907 87.6834 78.846C87.5891 78.7295 87.4726 78.5908 87.3228 78.4132L83.7994 74.3516L83.7717 74.3184H83.4609V79.9114H84.0158V75.9497L84.0047 75.4447C84.0824 75.5391 84.1822 75.65 84.2988 75.7832L87.8887 79.9225L87.9165 79.9557H88.2327V74.3628H87.6723V78.3356Z" fill="#3D6059"/>
<path d="M95.1719 74.8786H96.9807V79.9112H97.5356V74.8786H99.35V74.3682H95.1719V74.8786Z" fill="#3D6059"/>
<path d="M106.048 75.1007C105.532 74.5514 104.877 74.2739 104.089 74.2739C103.301 74.2739 102.647 74.5514 102.136 75.1007C101.62 75.65 101.359 76.3325 101.359 77.1315C101.359 77.9305 101.62 78.6185 102.136 79.1678C102.647 79.7171 103.301 80.0001 104.089 80.0001C104.877 80.0001 105.532 79.7227 106.048 79.1678C106.564 78.6185 106.825 77.9305 106.825 77.1315C106.825 76.3325 106.564 75.65 106.048 75.1007ZM105.632 78.8072C105.238 79.2511 104.716 79.4785 104.095 79.4785C103.473 79.4785 102.946 79.2511 102.552 78.8072C102.153 78.3522 101.953 77.7918 101.953 77.137C101.953 76.4823 102.153 75.9163 102.547 75.4724C102.941 75.0341 103.457 74.8066 104.089 74.8066C104.722 74.8066 105.243 75.0286 105.632 75.4724C106.031 75.9163 106.237 76.4767 106.237 77.137C106.237 77.7973 106.031 78.3577 105.632 78.8072Z" fill="#3D6059"/>
<path d="M80.9911 75.1007C80.475 74.5514 79.8203 74.2739 79.0324 74.2739C78.2445 74.2739 77.5898 74.5514 77.0793 75.1007C76.5633 75.65 76.3025 76.3325 76.3025 77.1315C76.3025 77.9305 76.5633 78.6185 77.0793 79.1678C77.5898 79.7171 78.2445 80.0001 79.0324 80.0001C79.8203 80.0001 80.475 79.7227 80.9911 79.1678C81.5071 78.6185 81.7679 77.9305 81.7679 77.1315C81.7679 76.3325 81.5071 75.65 80.9911 75.1007ZM80.5749 78.8072C80.181 79.2511 79.6594 79.4785 79.038 79.4785C78.4165 79.4785 77.8894 79.2511 77.4954 78.8072C77.0959 78.3522 76.8962 77.7918 76.8962 77.137C76.8962 76.4823 77.0959 75.9163 77.4899 75.4724C77.8838 75.0341 78.3999 74.8066 79.0324 74.8066C79.6649 74.8066 80.1865 75.0286 80.5749 75.4724C80.9744 75.9163 81.1797 76.4767 81.1797 77.137C81.1797 77.7973 80.9744 78.3577 80.5749 78.8072Z" fill="#3D6059"/>
<path d="M114.277 79.9112H114.832V77.1535H117.007V76.6486H114.832V74.8786H117.207V74.3682H114.277V79.9112Z" fill="#3D6059"/>
<path d="M122.392 74.2739C121.604 74.2739 120.95 74.5514 120.439 75.1007C119.929 75.6444 119.668 76.3325 119.668 77.1315C119.668 77.9305 119.929 78.624 120.439 79.1678C120.95 79.7171 121.604 80.0001 122.392 80.0001C123.18 80.0001 123.841 79.7227 124.351 79.1678C124.867 78.6185 125.128 77.9305 125.128 77.1315C125.128 76.3325 124.867 75.65 124.351 75.1007C123.841 74.5514 123.186 74.2739 122.392 74.2739ZM123.94 78.8016C123.541 79.2455 123.019 79.473 122.398 79.473C121.776 79.473 121.26 79.2511 120.855 78.8016C120.456 78.3466 120.256 77.7862 120.256 77.1315C120.256 76.4767 120.456 75.9108 120.855 75.4669C121.244 75.0286 121.76 74.8011 122.392 74.8011C123.025 74.8011 123.535 75.0175 123.94 75.4669C124.34 75.9163 124.54 76.4767 124.54 77.1315C124.54 77.7862 124.34 78.3522 123.94 78.8016Z" fill="#3D6059"/>
<path d="M128.799 74.3682H128.244V79.9112H131.263V79.3841H128.799V74.3682Z" fill="#3D6059"/>
<path d="M134.418 74.3682H133.863V79.9112H136.882V79.3841H134.418V74.3682Z" fill="#3D6059"/>
<path d="M143.517 75.1007C143.001 74.5514 142.346 74.2739 141.558 74.2739C140.77 74.2739 140.115 74.5514 139.599 75.1007C139.089 75.6555 138.828 76.338 138.828 77.1315C138.828 77.9249 139.089 78.6185 139.599 79.1678C140.115 79.7171 140.776 80.0001 141.558 80.0001C142.34 80.0001 143.001 79.7227 143.517 79.1678C144.033 78.6185 144.294 77.9305 144.294 77.1315C144.294 76.3325 144.033 75.65 143.517 75.1007ZM143.101 78.8072C142.707 79.2511 142.185 79.4785 141.564 79.4785C140.942 79.4785 140.415 79.2511 140.021 78.8072C139.616 78.3522 139.422 77.8084 139.422 77.137C139.422 76.4656 139.622 75.9163 140.016 75.4724C140.409 75.0341 140.925 74.8066 141.558 74.8066C142.191 74.8066 142.712 75.0286 143.101 75.4724C143.5 75.9108 143.7 76.4712 143.7 77.137C143.7 77.8029 143.506 78.3577 143.101 78.8072Z" fill="#3D6059"/>
<path d="M153.673 74.3682L152.269 78.5296C152.224 78.6517 152.186 78.7682 152.152 78.8736C152.119 78.7682 152.08 78.6461 152.036 78.5185L150.682 74.5402L150.66 74.4736H150.305L148.729 78.4852C148.662 78.6406 148.607 78.7737 148.568 78.8847C148.523 78.7294 148.479 78.5906 148.429 78.463L147.064 74.4347L147.042 74.3682H146.432L148.379 79.9611H148.729L150.316 75.9273C150.366 75.8053 150.41 75.6887 150.454 75.5833C150.465 75.6222 150.482 75.661 150.493 75.6998L150.504 75.7331C150.515 75.7608 150.526 75.7941 150.532 75.8274C150.543 75.8607 150.554 75.894 150.565 75.9273L151.975 79.9611H152.324L154.255 74.3682H153.667H153.673Z" fill="#3D6059"/>
<path d="M30.7227 79.0293C30.7227 79.0293 28.7695 77.337 28.7695 76.255C28.7695 75.7001 29.219 75.2451 29.7794 75.2451C30.2122 75.2451 30.5839 75.517 30.7282 75.8999C30.8725 75.517 31.2387 75.2451 31.677 75.2451C32.2319 75.2451 32.6869 75.6946 32.6869 76.255C32.6869 77.337 30.7337 79.0293 30.7337 79.0293H30.7227Z" fill="#3D6059"/>
<path d="M159.744 79.0293C159.744 79.0293 157.791 77.337 157.791 76.255C157.791 75.7001 158.24 75.2451 158.801 75.2451C159.234 75.2451 159.605 75.517 159.75 75.8999C159.894 75.517 160.26 75.2451 160.698 75.2451C161.253 75.2451 161.708 75.6946 161.708 76.255C161.708 77.337 159.755 79.0293 159.755 79.0293H159.744Z" fill="#3D6059"/>
<path d="M190.395 77.4031H165.859C165.715 77.4031 165.593 77.2866 165.593 77.1368C165.593 76.987 165.71 76.8704 165.859 76.8704H190.129V35.9827H0.53268V76.8704H24.8023C24.9466 76.8704 25.0687 76.987 25.0687 77.1368C25.0687 77.2866 24.9522 77.4031 24.8023 77.4031H0.26634C0.122076 77.4031 0 77.2866 0 77.1368V35.7219C0 35.5776 0.116527 35.4556 0.26634 35.4556H190.39C190.534 35.4556 190.656 35.5721 190.656 35.7219V77.1368C190.656 77.2811 190.54 77.4031 190.39 77.4031H190.395Z" fill="#3D6059"/>
<path d="M77.8516 18.9595C77.9181 22.6327 79.7048 25.3071 83.5223 27.4211C80.8589 24.2196 78.756 20.6074 77.8516 18.9595Z" fill="#3D6059"/>
<path d="M84.3976 27.6321C84.7194 22.5163 81.5844 20.1082 78.2053 18.5046C79.0709 20.1026 81.418 24.2031 84.3976 27.6321Z" fill="#3D6059"/>
<path d="M99.8122 25.2572C99.8122 25.2572 99.801 25.2572 99.7955 25.2572C99.5902 25.3404 99.4237 25.5013 99.3461 25.7288C99.2073 26.1339 99.4293 26.5778 99.8343 26.7109C100.029 26.7775 100.239 26.7664 100.428 26.6721C100.617 26.5778 100.75 26.4224 100.816 26.2227C100.883 26.0285 100.866 25.8176 100.778 25.629C100.683 25.4403 100.528 25.3016 100.328 25.235C100.156 25.174 99.9786 25.1851 99.8177 25.2405C99.8177 25.2405 99.8122 25.2405 99.8066 25.2461L99.8122 25.2572Z" fill="#3D6059"/>
<path d="M74.7225 8.98895C72.6084 10.1764 70.955 12.1517 70.2114 14.4654C69.9285 15.3366 69.6843 16.5684 69.9174 17.8168C71.4044 13.794 73.6127 10.5037 74.7225 8.9834V8.98895Z" fill="#3D6059"/>
<path d="M114.476 7.71245C114.642 7.62923 114.764 7.4905 114.82 7.31849C114.881 7.14648 114.864 6.95783 114.786 6.79692C114.703 6.63046 114.565 6.50839 114.393 6.45291C114.32 6.43071 114.248 6.41406 114.171 6.41406C114.065 6.41406 113.965 6.43626 113.865 6.4862C113.699 6.56943 113.577 6.70815 113.521 6.88016C113.46 7.05217 113.477 7.24082 113.555 7.40173C113.638 7.56819 113.777 7.69026 113.949 7.74574C114.121 7.80678 114.309 7.79014 114.47 7.71245H114.476Z" fill="#3D6059"/>
<path d="M100.012 17.9275C103.491 14.9535 105.039 9.26058 104.811 4.85498C103.829 6.41414 101.354 10.8641 100.012 17.9275Z" fill="#3D6059"/>
<path d="M89.7289 10.4703C89.9286 10.5369 90.1395 10.5203 90.3226 10.4315C90.5112 10.3372 90.6499 10.1818 90.7165 9.98205C90.7831 9.7823 90.7664 9.57145 90.6777 9.38834C90.5833 9.19969 90.428 9.06099 90.2282 8.99441C90.145 8.96667 90.0618 8.95557 89.9786 8.95557C89.862 8.95557 89.7399 8.98329 89.6345 9.03878C89.4459 9.1331 89.3072 9.28846 89.2406 9.48821C89.1019 9.89326 89.3238 10.3372 89.7289 10.4759V10.4703Z" fill="#3D6059"/>
<path d="M95.1715 7.95103C95.4656 7.80677 95.6875 7.55152 95.7929 7.24635C95.8984 6.93562 95.8762 6.60271 95.7319 6.30863C95.5876 6.01455 95.3324 5.79261 95.0272 5.68719C94.8996 5.6428 94.7664 5.62061 94.6333 5.62061C94.4446 5.62061 94.2615 5.66498 94.0895 5.74821C93.7954 5.89248 93.5735 6.14772 93.4681 6.4529C93.3626 6.76362 93.3848 7.09654 93.5291 7.39062C93.6734 7.68469 93.9286 7.90664 94.2338 8.01206C94.5445 8.11748 94.8774 8.0953 95.1715 7.95103Z" fill="#3D6059"/>
<path d="M70.2539 18.438C70.9919 18.4102 71.6411 18.216 72.3069 17.7832C73.0338 17.3172 73.6885 16.6458 74.2489 15.7913C75.5806 13.7661 76.03 11.1471 75.4918 8.83887C74.5652 10.0485 71.8852 13.7827 70.2539 18.438Z" fill="#3D6059"/>
<path d="M94.969 28.0594C94.8635 28.0261 94.7581 28.0039 94.6527 28.0039C94.5029 28.0039 94.353 28.0372 94.2143 28.1093C93.9757 28.2258 93.7982 28.4311 93.715 28.6808C93.5374 29.1968 93.8204 29.7628 94.3364 29.9348C94.858 30.1068 95.4184 29.8294 95.5904 29.3134C95.6736 29.0637 95.657 28.7918 95.5404 28.5588C95.4239 28.3202 95.2186 28.1426 94.969 28.0594Z" fill="#3D6059"/>
<path d="M116.836 25.762C114.705 22.2775 109.734 19.1037 105.744 18.6709C106.998 20.0636 111.021 24.1085 116.836 25.762Z" fill="#3D6059"/>
<path d="M124.391 13.5111C126.815 16.2798 131.515 15.2589 133.069 14.8206C131.454 13.9328 127.642 13.4722 124.391 13.5111Z" fill="#3D6059"/>
<path d="M104.189 4.8606C102.502 6.00361 101.065 7.90124 100.244 10.1373C99.3781 12.4955 99.1395 15.2698 99.5723 17.4171C100.871 10.9086 103.107 6.6417 104.189 4.8606Z" fill="#3D6059"/>
<path d="M105.287 18.9595C105.226 19.9804 105.548 22.3108 109.177 24.4415C113.294 26.8552 115.636 26.5999 116.634 26.2615C110.636 24.5359 106.508 20.3355 105.287 18.9595Z" fill="#3D6059"/>
<path d="M124.605 23.6813C124.577 23.6813 124.544 23.6813 124.516 23.6813C124.311 23.7035 124.133 23.8034 124.006 23.9643C123.878 24.1252 123.822 24.325 123.845 24.5247C123.895 24.9409 124.272 25.246 124.688 25.1961C124.893 25.1739 125.071 25.0741 125.198 24.9131C125.326 24.7522 125.382 24.5525 125.359 24.3527C125.315 23.9643 124.982 23.6758 124.599 23.6758L124.605 23.6813Z" fill="#3D6059"/>
<path d="M129.302 19.4755C129.513 19.5477 129.74 19.531 129.94 19.4312C130.14 19.3313 130.29 19.1593 130.362 18.9484C130.434 18.7376 130.417 18.5101 130.317 18.3103C130.217 18.1106 130.045 17.9608 129.835 17.8886C129.746 17.8609 129.657 17.8442 129.568 17.8442C129.219 17.8442 128.891 18.0662 128.775 18.4158C128.703 18.6266 128.719 18.8541 128.819 19.0539C128.919 19.2536 129.091 19.4034 129.302 19.4755Z" fill="#3D6059"/>
<path d="M131.605 0.804688C125.823 3.63448 123.809 8.23984 123.465 11.0419C128.198 7.24664 130.778 2.51366 131.605 0.804688Z" fill="#3D6059"/>
<path d="M132.117 13.8826C128.61 11.1749 125.847 12.218 124.648 12.9449C127.295 12.9449 130.208 13.2834 132.117 13.8826Z" fill="#3D6059"/>
<path d="M124.027 11.2637C131.385 9.31061 132.023 3.58446 131.967 1.26514C131.024 3.15167 128.494 7.60164 124.027 11.2637Z" fill="#3D6059"/>
<path d="M133.93 14.9535C133.93 14.9258 133.93 14.8925 133.93 14.8647C133.93 14.8536 133.93 14.8425 133.919 14.8315C133.908 14.8037 133.891 14.776 133.875 14.7538C133.875 14.7482 133.869 14.7371 133.864 14.7316C128.57 9.37161 124.331 12.4677 123.715 12.9671C122.883 12.9949 122.095 13.0614 121.39 13.1724C121.978 12.8007 122.544 12.4067 123.083 12.0072C123.099 12.0072 123.121 12.0183 123.138 12.0183C123.155 12.0183 123.171 12.0183 123.194 12.0183C133.825 9.83214 132.426 0.316279 132.41 0.216404C132.41 0.205307 132.404 0.199737 132.399 0.194188C132.393 0.171994 132.382 0.149802 132.371 0.127607C132.365 0.11651 132.354 0.105414 132.349 0.0943171C132.332 0.0776712 132.315 0.0610497 132.299 0.0499525C132.288 0.0444039 132.288 0.0332849 132.277 0.0277363H132.266C132.266 0.0277363 132.26 0.0222107 132.254 0.0166621C132.232 0.0111135 132.216 0.00555404 132.193 0.00555404C132.182 0.00555404 132.171 0 132.16 0C132.121 0 132.088 0.00553643 132.049 0.0221823C128.764 1.48147 123.199 5.52087 122.894 11.5023C121.851 12.2902 120.713 13.0337 119.465 13.6884C119.465 13.6884 119.465 13.6884 119.454 13.694C119.454 13.694 119.448 13.694 119.443 13.694C117.256 15.0811 114.815 16.1354 112.03 16.89C112.69 16.0855 113.295 15.0867 113.766 13.9881C115.198 13.5775 116.208 12.1293 116.474 10.8698C116.502 10.7255 116.413 10.5868 116.269 10.559C116.13 10.5257 115.986 10.6201 115.958 10.7643C115.753 11.7409 115.043 12.8506 114.033 13.3334C114.643 11.6799 114.932 9.86543 114.682 8.2064C114.976 8.07323 115.22 7.83467 115.331 7.5073C115.548 6.87476 115.203 6.18117 114.571 5.97032C113.938 5.75392 113.245 6.09794 113.034 6.73048C112.818 7.36302 113.162 8.05661 113.794 8.26746C113.916 8.31185 114.044 8.32848 114.171 8.32848C114.626 11.4912 113.012 15.231 111.114 17.1286C108.168 17.8388 104.85 18.2328 101.06 18.3271C100.833 18.3327 100.605 18.3271 100.383 18.3271C104.195 15.0534 105.771 8.66138 105.299 4.04493C105.299 4.00609 105.283 3.9728 105.26 3.93951C105.255 3.92841 105.244 3.92287 105.238 3.91732C105.227 3.90068 105.21 3.88405 105.194 3.86741C105.188 3.86741 105.183 3.8674 105.177 3.8563C105.177 3.8563 105.172 3.85074 105.166 3.84519C105.161 3.84519 105.149 3.84518 105.138 3.83964C105.116 3.82854 105.088 3.823 105.061 3.81745C105.05 3.81745 105.033 3.81745 105.022 3.81745C104.994 3.81745 104.966 3.82298 104.944 3.83408C104.939 3.83408 104.927 3.83408 104.916 3.83408C104.911 3.83408 104.905 3.83964 104.9 3.84519C102.697 4.91052 100.777 7.19657 99.7562 9.95978C98.7297 12.7507 98.5521 15.98 99.2679 18.3326C96.7821 18.3326 94.2852 18.2328 91.8272 18.0996C91.1447 18.0608 90.4622 18.0275 89.7853 17.9886C87.9986 17.8887 86.1842 17.7833 84.3643 17.7167C85.3464 17.2007 86.3007 16.4461 87.1719 15.4862C88.4369 15.1644 89.5578 14.6761 90.5288 14.0324C90.5288 14.0324 90.5343 14.0324 90.5399 14.0324C90.5732 14.0158 93.9357 12.6952 95.9387 14.21C95.9886 14.2488 96.0441 14.2655 96.0996 14.2655C96.1773 14.2655 96.2605 14.2267 96.3105 14.1601C96.3992 14.0436 96.377 13.8771 96.2605 13.7883C94.8512 12.7174 92.9313 12.8728 91.6607 13.1502C92.9313 11.9906 93.8691 10.4703 94.4683 8.60592C94.5293 8.61146 94.5848 8.62254 94.6459 8.62254C95.3783 8.62254 96.0663 8.16203 96.3105 7.42961C96.6212 6.51409 96.1274 5.51533 95.2118 5.20461C94.2908 4.89389 93.2976 5.3877 92.9868 6.30322C92.6928 7.17436 93.1311 8.11209 93.9578 8.47275C92.9202 11.7021 90.895 13.7661 87.7878 14.7649C88.6811 13.633 89.408 12.3401 89.8796 11.0473C89.9184 11.0473 89.9573 11.0584 89.9961 11.0584C90.5399 11.0584 91.0504 10.7144 91.239 10.1706C91.472 9.48815 91.1003 8.74464 90.4178 8.5116C90.0849 8.40063 89.7298 8.42282 89.4191 8.57818C89.1028 8.73354 88.8698 8.99987 88.7588 9.33278C88.5535 9.94313 88.8254 10.5979 89.3747 10.8975C88.8309 12.3845 87.9376 13.8605 86.839 15.0867C85.6959 16.3573 84.4142 17.2562 83.1269 17.689C81.307 17.6391 79.4759 17.6335 77.656 17.7001C77.6449 17.7001 77.6283 17.6946 77.6172 17.7001C77.6061 17.7001 77.6005 17.7056 77.5894 17.7056C76.7571 17.7389 75.9304 17.7778 75.1036 17.8499C74.3379 17.9109 73.5833 17.9997 72.8398 18.0996C73.5445 17.6002 74.1826 16.94 74.7263 16.1077C76.2356 13.805 76.6905 10.7699 75.9082 8.19532C75.9082 8.18977 75.9026 8.1842 75.8971 8.17311C75.8915 8.15646 75.8804 8.13983 75.8693 8.12319C75.8582 8.11209 75.8527 8.09544 75.8361 8.08434C75.8305 8.0788 75.825 8.07323 75.8194 8.06768C75.8083 8.06213 75.7972 8.0566 75.7861 8.05105C75.775 8.0455 75.7695 8.03439 75.7584 8.03439C75.7528 8.03439 75.7473 8.03439 75.7417 8.03439C75.7251 8.02884 75.7029 8.02332 75.6862 8.02332C75.6696 8.02332 75.6529 8.02332 75.6363 8.02332C75.6141 8.02332 75.5974 8.02884 75.5808 8.03439C75.5697 8.03439 75.5586 8.0344 75.5475 8.03995C75.542 8.03995 75.5364 8.0455 75.5309 8.05105C72.8065 9.18297 70.6425 11.5356 69.7381 14.3432C69.383 15.4418 69.0889 17.0786 69.616 18.6822C64.5779 19.7919 60.1557 21.8116 56.8487 24.5804C56.7377 24.6747 56.7211 24.8412 56.8154 24.9522C56.8653 25.0132 56.943 25.0465 57.0207 25.0465C57.0817 25.0465 57.1427 25.0243 57.1927 24.9855C61.5705 21.3234 67.9459 18.9818 75.148 18.3881C75.886 18.3271 76.624 18.2883 77.3619 18.255C77.1844 22.8659 79.4649 26.1451 84.5307 28.5477C84.564 28.5643 84.6028 28.5698 84.6417 28.5698C84.6805 28.5698 84.7194 28.5588 84.7582 28.5421C84.7582 28.5421 84.7693 28.5421 84.7749 28.5421C84.7804 28.5421 84.786 28.531 84.7915 28.5254C84.8026 28.5199 84.8137 28.5144 84.8248 28.5033C84.8359 28.4922 84.8415 28.4811 84.847 28.47C84.8581 28.4589 84.8637 28.4478 84.8748 28.4367C84.8914 28.4145 84.8969 28.3867 84.9025 28.359C84.9025 28.3534 84.9081 28.3424 84.9136 28.3368C85.2687 25.1963 84.8525 21.2568 78.7546 18.205C82.4444 18.1273 86.1565 18.3382 89.7742 18.5435C90.4455 18.5823 91.1225 18.6212 91.7994 18.6545C93.2587 18.8487 94.6459 19.459 95.9332 20.4689C97.5977 22.1279 96.6822 25.8566 95.2562 27.621C95.2285 27.61 95.2063 27.5989 95.1785 27.5878C94.7957 27.4601 94.3851 27.4823 94.0189 27.6654C93.6527 27.843 93.3808 28.1537 93.2532 28.5421C92.9868 29.3356 93.4141 30.2011 94.2075 30.4675C94.3684 30.5229 94.5294 30.5451 94.6903 30.5451C95.3228 30.5451 95.9165 30.1457 96.1329 29.5131C96.2605 29.1303 96.2328 28.7141 96.0552 28.3534C95.9664 28.1759 95.8499 28.0261 95.7112 27.8985C96.9263 26.356 97.742 23.6149 97.1594 21.5952C98.0638 22.5551 98.8295 23.6982 99.401 24.9355C99.168 25.0909 98.9849 25.3128 98.885 25.5958C98.652 26.2783 99.0237 27.0218 99.7062 27.2493C99.8449 27.2937 99.9836 27.3214 100.128 27.3214C100.328 27.3214 100.522 27.277 100.705 27.1827C101.016 27.0273 101.249 26.761 101.365 26.4281C101.476 26.1007 101.454 25.7456 101.299 25.4293C101.143 25.1186 100.877 24.88 100.544 24.769C100.328 24.6969 100.106 24.6914 99.8949 24.7302C99.0459 22.8825 97.7697 21.229 96.2772 20.0583C95.5947 19.5201 94.8789 19.0873 94.141 18.7599C95.9609 18.8431 97.7919 18.8875 99.6174 18.8764C99.6285 18.8764 99.6396 18.8764 99.6507 18.8764C99.6563 18.8764 99.6618 18.8764 99.6729 18.8764C100.15 18.8764 100.627 18.8764 101.099 18.8653C102.397 18.832 103.635 18.7599 104.828 18.66C104.689 19.6477 104.744 22.4497 108.95 24.9188C111.78 26.5779 113.839 27.0273 115.231 27.0273C116.779 27.0273 117.512 26.478 117.584 26.417C117.628 26.3837 117.656 26.3337 117.667 26.2838C117.667 26.2838 117.667 26.2838 117.667 26.2783C117.673 26.245 117.678 26.2117 117.667 26.1839C117.667 26.1728 117.662 26.1673 117.656 26.1562C117.656 26.134 117.645 26.1173 117.639 26.1007C117.639 26.1007 117.639 26.0896 117.634 26.0896C115.808 22.5995 111.286 19.3813 107.191 18.4214C108.634 18.2272 109.993 17.9775 111.286 17.6668C111.314 17.6668 111.336 17.6613 111.364 17.6502C112.213 17.4393 113.04 17.2118 113.833 16.9455C115.836 16.2186 117.895 16.5127 119.271 16.89C120.236 17.1508 121.19 17.5281 122.117 17.8943C122.322 17.9775 122.533 18.0552 122.744 18.1384C122.744 18.1384 122.75 18.1384 122.755 18.1384C123.499 18.3881 124.542 19.1261 124.997 19.9917C125.419 20.7962 125.546 21.6341 124.914 23.221C124.78 23.1932 124.636 23.1766 124.492 23.1932C124.148 23.2321 123.843 23.4041 123.626 23.676C123.41 23.9478 123.316 24.2863 123.354 24.6248C123.432 25.2851 123.993 25.7678 124.636 25.7678C124.686 25.7678 124.736 25.7678 124.786 25.7622C125.13 25.7234 125.435 25.5514 125.652 25.2795C125.868 25.0076 125.962 24.6692 125.923 24.3307C125.879 23.9589 125.679 23.6427 125.396 23.4374C125.652 22.7993 125.807 22.2444 125.857 21.7395C126.417 22.4386 127.422 23.3486 128.903 23.3486C129.036 23.3486 129.175 23.343 129.319 23.3264C129.463 23.3097 129.569 23.1821 129.552 23.0323C129.536 22.8881 129.402 22.7826 129.258 22.7993C127.011 23.0545 125.912 20.9183 125.818 20.7241C125.751 20.3912 125.64 20.0694 125.468 19.7476C125.296 19.4202 125.052 19.115 124.775 18.8376C125.801 19.1316 126.745 19.287 127.61 19.287C127.865 19.287 128.11 19.2704 128.354 19.2426C128.365 19.2704 128.37 19.2981 128.381 19.3203C128.542 19.6477 128.825 19.8918 129.169 20.0083C129.314 20.0583 129.463 20.0805 129.608 20.0805C129.813 20.0805 130.018 20.0305 130.213 19.9362C130.54 19.7753 130.784 19.4923 130.901 19.1483C131.017 18.8043 130.995 18.4325 130.828 18.1052C130.668 17.7778 130.385 17.5336 130.04 17.4171C129.325 17.173 128.548 17.5614 128.309 18.2772C128.259 18.4214 128.243 18.5712 128.243 18.721C127.127 18.8265 125.885 18.6545 124.448 18.1884C123.732 17.9554 123.01 17.6723 122.317 17.3949C121.379 17.0232 120.408 16.6403 119.415 16.374C118.583 16.1465 117.512 15.9523 116.352 15.9689C117.545 15.4474 118.671 14.8536 119.731 14.1767C120.558 13.8216 122.039 13.6163 123.743 13.5608C125.13 15.4418 127.311 15.9578 129.286 15.9578C131.6 15.9578 133.636 15.2476 133.791 15.1921C133.791 15.1921 133.791 15.1921 133.797 15.1921C133.83 15.181 133.864 15.1588 133.891 15.1311C133.891 15.1311 133.891 15.1311 133.897 15.1311C133.925 15.0978 133.941 15.0645 133.952 15.0257C133.952 15.0257 133.952 15.0257 133.952 15.0146C133.952 15.009 133.952 14.9979 133.952 14.9924L133.93 14.9535ZM113.567 7.40739C113.483 7.24094 113.472 7.05783 113.533 6.88582C113.594 6.71382 113.716 6.57512 113.877 6.49189C113.972 6.44196 114.077 6.41976 114.183 6.41976C114.255 6.41976 114.332 6.43086 114.404 6.4586C114.576 6.51964 114.715 6.6417 114.798 6.80261C114.882 6.96907 114.893 7.15218 114.832 7.32419C114.771 7.49619 114.649 7.63489 114.488 7.71812C114.327 7.80135 114.138 7.81247 113.966 7.75144C113.794 7.69041 113.655 7.5683 113.572 7.40739H113.567ZM93.5361 7.40187C93.3919 7.1078 93.3697 6.77488 93.4751 6.46416C93.5805 6.15343 93.8025 5.90373 94.0966 5.75947C94.2686 5.67624 94.4517 5.63186 94.6403 5.63186C94.7735 5.63186 94.9067 5.65405 95.0343 5.69844C95.345 5.80387 95.5947 6.02581 95.7389 6.31989C95.8832 6.61396 95.9054 6.94688 95.8 7.2576C95.6946 7.56833 95.4726 7.81799 95.1785 7.96226C94.8845 8.10652 94.5516 8.12874 94.2408 8.02332C93.9301 7.91789 93.6804 7.69595 93.5361 7.40187ZM89.2471 9.48261C89.3137 9.28286 89.4524 9.1275 89.641 9.03317C89.752 8.97768 89.8685 8.94993 89.985 8.94993C90.0682 8.94993 90.1515 8.96103 90.2347 8.98877C90.4345 9.05536 90.5898 9.19405 90.6841 9.3827C90.7785 9.57135 90.7896 9.78221 90.723 9.97641C90.6564 10.1762 90.5177 10.3315 90.329 10.4258C90.1404 10.5202 89.9296 10.5313 89.7354 10.4647C89.3303 10.326 89.1084 9.8821 89.2471 9.47705V9.48261ZM74.2602 15.7969C73.6998 16.6514 73.0451 17.3172 72.3182 17.7889C71.6524 18.2161 71.0032 18.4159 70.2652 18.4436C71.8965 13.7883 74.5821 10.0541 75.5031 8.8445C76.0413 11.1527 75.5864 13.7717 74.2602 15.7969ZM70.2153 14.4708C70.9644 12.157 72.6123 10.1817 74.7263 8.99433C73.6111 10.5146 71.4027 13.805 69.9212 17.8277C69.6882 16.5737 69.9323 15.3475 70.2153 14.4764V14.4708ZM77.8557 18.9596C78.7602 20.602 80.8631 24.2197 83.5264 27.4213C79.709 25.3072 77.9223 22.6384 77.8557 18.9596ZM84.4031 27.6321C81.429 24.2031 79.082 20.1026 78.2109 18.5046C81.5844 20.1026 84.7249 22.5163 84.4031 27.6321ZM95.5947 29.3134C95.4227 29.8294 94.8567 30.1068 94.3407 29.9348C93.8247 29.7573 93.5472 29.1968 93.7193 28.6808C93.8025 28.4311 93.98 28.2258 94.2186 28.1093C94.3573 28.0427 94.5072 28.0039 94.657 28.0039C94.7624 28.0039 94.8734 28.0205 94.9733 28.0594C95.2229 28.1426 95.4282 28.3202 95.5447 28.5588C95.6613 28.7974 95.6779 29.0637 95.5947 29.3134ZM100.339 25.2462C100.533 25.3128 100.694 25.4515 100.788 25.6402C100.883 25.8288 100.894 26.0397 100.827 26.2339C100.76 26.4281 100.622 26.589 100.439 26.6833C100.25 26.7777 100.039 26.7887 99.8449 26.7221C99.4399 26.5834 99.2235 26.1451 99.3566 25.7401C99.4343 25.5181 99.6008 25.3516 99.8061 25.2684C99.8061 25.2684 99.8172 25.2684 99.8227 25.2684C99.8227 25.2684 99.8283 25.2684 99.8338 25.2629C99.9947 25.2074 100.172 25.1963 100.344 25.2573L100.339 25.2462ZM100.017 17.9276C101.365 10.8642 103.834 6.41421 104.816 4.85504C105.044 9.26065 103.496 14.9535 100.017 17.9276ZM100.25 10.1373C101.077 7.90125 102.508 6.00361 104.195 4.8606C103.113 6.6417 100.877 10.9086 99.5786 17.4171C99.1458 15.2698 99.3844 12.4955 100.25 10.1373ZM125.213 24.9188C125.086 25.0797 124.902 25.1796 124.703 25.2018C124.287 25.2518 123.904 24.9466 123.859 24.5305C123.837 24.3307 123.893 24.1254 124.02 23.97C124.148 23.8091 124.325 23.7093 124.531 23.6871C124.558 23.6871 124.592 23.6871 124.62 23.6871C125.002 23.6871 125.335 23.9756 125.38 24.364C125.402 24.5693 125.346 24.769 125.219 24.9244L125.213 24.9188ZM128.787 18.4159C128.903 18.0663 129.23 17.8443 129.58 17.8443C129.669 17.8443 129.758 17.861 129.846 17.8887C130.057 17.9609 130.229 18.1107 130.329 18.3104C130.429 18.5102 130.446 18.7377 130.373 18.9486C130.301 19.1594 130.151 19.3314 129.952 19.4313C129.752 19.5312 129.524 19.5478 129.314 19.4756C129.103 19.4035 128.931 19.2537 128.831 19.054C128.731 18.8542 128.714 18.6267 128.787 18.4159ZM132.121 13.8882C130.213 13.289 127.299 12.9505 124.653 12.9505C125.857 12.2236 128.62 11.1805 132.121 13.8882ZM124.031 11.2692C128.498 7.60716 131.028 3.15715 131.971 1.27062C132.027 3.5844 131.394 9.31613 124.031 11.2692ZM131.611 0.810111C130.784 2.51909 128.204 7.25203 123.471 11.0473C123.815 8.24523 125.829 3.63991 131.611 0.810111ZM109.189 24.4472C105.56 22.3165 105.238 19.9861 105.299 18.9652C106.525 20.3412 110.648 24.536 116.646 26.2672C115.647 26.6056 113.3 26.8609 109.189 24.4472ZM116.846 25.7733C111.031 24.1143 107.008 20.0749 105.754 18.6822C109.744 19.115 114.715 22.2944 116.846 25.7733ZM124.403 13.522C127.655 13.4831 131.467 13.9437 133.081 14.8315C131.533 15.2698 126.833 16.2907 124.403 13.522Z" fill="#3D6059"/>
</g>
</svg>
