<svg width="94" height="100" viewBox="0 0 94 100" fill="none" xmlns="http://www.w3.org/2000/svg">
<g opacity="0.3">
<path d="M21.9648 17.1033C21.917 17.1472 21.8373 17.219 21.7296 17.3226C21.622 17.4223 21.5103 17.5299 21.3947 17.6376C21.2791 17.7452 21.1675 17.8489 21.0598 17.9525C20.9522 18.0522 20.8725 18.1279 20.8246 18.1718L20.6293 18.3512C20.5814 18.3951 20.5017 18.4668 20.394 18.5705C20.2864 18.6701 20.1748 18.7778 20.0592 18.8854C19.9435 18.9931 19.8319 19.0967 19.7243 19.2004C19.6166 19.3001 19.5369 19.3758 19.4891 19.4197L19.4572 19.4276L19.3176 19.2163V19.1366C19.4292 19.0369 19.5289 18.9333 19.6166 18.8296C19.7043 18.726 19.7602 18.6223 19.7761 18.5186C19.7881 18.419 19.7761 18.3113 19.7522 18.1957C19.7283 18.0801 19.6366 17.9166 19.4771 17.7053C19.4412 17.6535 19.3934 17.5897 19.3336 17.522C19.2778 17.4542 19.206 17.3705 19.1183 17.2708C19.0346 17.1711 18.9269 17.0555 18.7993 16.92C18.6718 16.7844 18.5123 16.613 18.3249 16.4097L17.2286 15.2375L13.5966 18.6263L14.5016 19.5951C14.7289 19.8383 14.9162 20.0376 15.0598 20.1931C15.2033 20.3446 15.3229 20.4722 15.4226 20.5718C15.5222 20.6715 15.6059 20.7552 15.6737 20.823C15.7455 20.8908 15.8212 20.9625 15.905 21.0383C16.0963 21.2177 16.2518 21.3213 16.3674 21.3492C16.483 21.3811 16.5947 21.3931 16.6903 21.3891C16.798 21.3811 16.9016 21.3333 17.0093 21.2536C17.1169 21.1698 17.2246 21.0781 17.3362 20.9785H17.4159L17.6193 21.1379L17.6073 21.1659C17.5595 21.2097 17.4797 21.2815 17.3721 21.3851C17.2644 21.4848 17.1528 21.5924 17.0372 21.7001C16.9216 21.8077 16.8099 21.9114 16.7023 22.015C16.5947 22.1147 16.5149 22.1905 16.4671 22.2343L16.2717 22.4137C16.2239 22.4576 16.1442 22.5293 16.0365 22.633C15.9289 22.7327 15.8172 22.8403 15.7016 22.9479C15.586 23.0556 15.4744 23.1592 15.3667 23.2629C15.2591 23.3626 15.1794 23.4383 15.1315 23.4822L15.0996 23.4901L14.9601 23.2788L14.9721 23.1911C15.0797 23.0915 15.1794 22.9878 15.2631 22.8921C15.3468 22.7925 15.3986 22.6928 15.4186 22.5851C15.4305 22.4855 15.4226 22.3778 15.4066 22.2542C15.3867 22.1307 15.295 21.9672 15.1315 21.7639C15.0877 21.716 15.0358 21.6602 14.98 21.5924C14.9242 21.5247 14.8524 21.4409 14.7647 21.3453C14.681 21.2456 14.5734 21.13 14.4458 20.9944C14.3182 20.8589 14.1588 20.6874 13.9714 20.4841L12.0378 18.411C11.8145 18.1718 11.6272 17.9725 11.4757 17.809C11.3242 17.6455 11.1926 17.51 11.081 17.3944C10.9693 17.2828 10.8737 17.1871 10.7939 17.1073C10.7142 17.0276 10.6345 16.9518 10.5507 16.8761C10.3673 16.7047 10.2119 16.601 10.0923 16.5691C9.97265 16.5372 9.86102 16.5213 9.76135 16.5213C9.6577 16.5293 9.55006 16.5731 9.4464 16.6528C9.34274 16.7326 9.2351 16.8203 9.12746 16.9239L9.03975 16.9319L8.83643 16.7764L8.84839 16.7485C8.89623 16.7047 8.97596 16.6329 9.0836 16.5293C9.19125 16.4296 9.30288 16.3219 9.41849 16.2143C9.53411 16.1067 9.64574 16.003 9.75338 15.8993C9.86102 15.7997 9.94076 15.7239 9.9886 15.6801L10.1839 15.5007C10.2318 15.4568 10.3115 15.3851 10.4192 15.2814C10.5268 15.1817 10.6384 15.0741 10.7541 14.9664C10.8697 14.8588 10.9813 14.7551 11.0889 14.6515C11.1966 14.5518 11.2763 14.4761 11.3242 14.4322L11.3561 14.4242L11.4956 14.6355V14.7153C11.384 14.8149 11.2843 14.9186 11.1966 15.0223C11.1089 15.1259 11.0531 15.2296 11.0371 15.3332C11.0252 15.4329 11.0331 15.5405 11.0571 15.6601C11.081 15.7797 11.1727 15.9392 11.3361 16.1425C11.4198 16.2422 11.4956 16.3379 11.5674 16.4216C11.6391 16.5053 11.7268 16.605 11.8225 16.7166C11.9222 16.8283 12.0418 16.9638 12.1893 17.1193C12.3368 17.2748 12.5242 17.4781 12.7514 17.7213L13.178 18.1798L16.8099 14.791L16.3913 14.3405C16.1681 14.1013 15.9807 13.902 15.8292 13.7385C15.6777 13.5751 15.5461 13.4395 15.4345 13.3239C15.3229 13.2123 15.2272 13.1166 15.1475 13.0369C15.0677 12.9571 14.988 12.8814 14.9043 12.8056C14.7129 12.6262 14.5574 12.5226 14.4418 12.4947C14.3262 12.4628 14.2146 12.4508 14.1189 12.4548C14.0152 12.4628 13.9076 12.5106 13.7999 12.5903C13.6923 12.6741 13.5847 12.7658 13.473 12.8654H13.3933L13.19 12.7059L13.2019 12.678C13.2498 12.6342 13.3295 12.5624 13.4371 12.4588C13.5448 12.3591 13.6564 12.2515 13.772 12.1438C13.8877 12.0362 13.9993 11.9325 14.1069 11.8289C14.2146 11.7292 14.2943 11.6534 14.3421 11.6096L14.5375 11.4302C14.5853 11.3863 14.6651 11.3146 14.7727 11.2109C14.8804 11.1112 14.992 11.0036 15.1076 10.896C15.2232 10.7883 15.3348 10.6847 15.4425 10.581C15.5501 10.4813 15.6299 10.4056 15.6777 10.3617L15.7096 10.3538L15.8491 10.5651L15.8372 10.6528C15.7295 10.7524 15.6299 10.8561 15.5461 10.9518C15.4584 11.0514 15.4106 11.1511 15.3907 11.2588C15.3787 11.3584 15.3867 11.4661 15.4026 11.5897C15.4226 11.7132 15.5142 11.8767 15.6777 12.08C15.7614 12.1837 15.8372 12.2754 15.9089 12.3591C15.9807 12.4428 16.0684 12.5425 16.1721 12.6501C16.2717 12.7578 16.3993 12.8933 16.5428 13.0488C16.6903 13.2043 16.8777 13.4076 17.105 13.6508L18.8552 15.5286C19.0824 15.7718 19.2698 15.9711 19.4133 16.1266C19.5568 16.2781 19.6764 16.4057 19.7721 16.5093C19.8678 16.613 19.9515 16.6967 20.0193 16.7645C20.0911 16.8322 20.1668 16.904 20.2505 16.9798C20.4419 17.1592 20.5974 17.2588 20.717 17.2867C20.8366 17.3146 20.9482 17.3266 21.0479 17.3226C21.1555 17.3146 21.2592 17.2708 21.3628 17.1911C21.4665 17.1113 21.5741 17.0236 21.6818 16.92L21.7695 16.912L21.9728 17.0675L21.9608 17.0954L21.9648 17.1033Z" fill="#3D6059"/>
<path d="M29.1011 3.14956C29.2127 3.1057 29.3841 3.03793 29.6154 2.95022C29.8466 2.86251 30.0778 2.77081 30.313 2.68311C30.5483 2.59141 30.7596 2.51168 30.943 2.43991C31.1303 2.36815 31.2459 2.3243 31.2898 2.30835L31.4014 2.40005L31.8958 3.83528L31.5689 3.96286L31.4971 3.93096C31.4014 3.73561 31.3177 3.5881 31.242 3.48444C31.1662 3.38079 31.0506 3.33295 30.8832 3.33295C30.7197 3.33295 30.4964 3.39275 30.2094 3.50438C29.9223 3.61601 29.5197 3.77149 28.9974 3.97083L27.7496 4.45323L27.917 4.96353C27.9609 5.10307 28.0007 5.22267 28.0326 5.31836C28.0645 5.41404 28.1044 5.53364 28.1522 5.66919C28.2001 5.80873 28.2638 5.97218 28.3356 6.16753C28.4114 6.3589 28.5908 6.82535 28.8738 7.5629C29.133 7.46323 29.3961 7.36356 29.6552 7.25991C29.9144 7.16024 30.1536 7.06854 30.3649 6.98482C30.5762 6.9011 30.7516 6.81738 30.8871 6.72967C31.0227 6.64196 31.1064 6.55824 31.1343 6.47451C31.1782 6.37883 31.2101 6.28315 31.234 6.19544C31.2579 6.10375 31.2459 5.99212 31.1941 5.86055L31.234 5.77285L31.4453 5.66122H31.5091C31.5689 5.87251 31.6207 6.05192 31.6646 6.20341C31.7084 6.35491 31.7682 6.52634 31.84 6.71771C31.9197 6.92502 31.9994 7.11638 32.0832 7.28781C32.1629 7.45925 32.2546 7.64662 32.3503 7.84995L32.3104 7.89779L32.0672 7.96158L31.9994 7.94164C31.9436 7.80211 31.8679 7.6825 31.7722 7.58284C31.6725 7.48317 31.5768 7.40742 31.4732 7.35559C31.4014 7.32369 31.2858 7.32369 31.1263 7.35559C30.9669 7.38748 30.7875 7.4433 30.5762 7.52303C30.3689 7.60277 30.1336 7.69446 29.8745 7.79413C29.6154 7.8938 29.3482 7.99746 29.0811 8.10111L29.5675 9.35694C29.6871 9.66791 29.7868 9.92306 29.8586 10.1144C29.9343 10.3098 30.0021 10.4812 30.0659 10.6287C30.1297 10.7802 30.1895 10.9158 30.2453 11.0354C30.3011 11.159 30.3728 11.2985 30.4526 11.454C30.5164 11.6174 30.636 11.6693 30.8074 11.6015L31.9157 11.1749C32.438 10.9756 32.8407 10.8041 33.1317 10.6686C33.4227 10.533 33.634 10.3975 33.7616 10.2699C33.8892 10.1383 33.9609 9.99084 33.9689 9.82339C33.9769 9.65595 33.9689 9.44066 33.941 9.18551L33.9729 9.11375L34.3118 8.98219L34.7104 10.7124L34.6546 10.8799C34.6108 10.8958 34.5111 10.9357 34.3556 10.9955C34.2001 11.0553 34.0247 11.1231 33.8294 11.1988C33.634 11.2746 33.4387 11.3503 33.2433 11.4261C33.048 11.5018 32.8925 11.5616 32.7808 11.6055L30.1496 12.6221C30.0898 12.646 29.9901 12.6859 29.8506 12.7377C29.711 12.7895 29.5675 12.8454 29.42 12.9052C29.2725 12.961 29.129 13.0168 28.9894 13.0726C28.8499 13.1244 28.7502 13.1643 28.6904 13.1882H28.6585L28.6067 12.9371L28.6506 12.8613C28.7901 12.8095 28.9177 12.7497 29.0333 12.6899C29.1489 12.6301 29.2366 12.5543 29.2884 12.4626C29.3363 12.3749 29.3722 12.2713 29.4001 12.1517C29.428 12.0321 29.4001 11.8447 29.3283 11.5975C29.3044 11.5377 29.2805 11.4659 29.2526 11.3822C29.2247 11.2985 29.1888 11.1948 29.1489 11.0713C29.1051 10.9477 29.0532 10.8001 28.9855 10.6247C28.9177 10.4493 28.834 10.234 28.7343 9.97489L27.7137 7.33167C27.5981 7.02868 27.4984 6.77352 27.4187 6.56222C27.3389 6.35491 27.2711 6.17551 27.2113 6.028C27.1555 5.88049 27.1037 5.7569 27.0598 5.65324C27.016 5.54959 26.9682 5.44992 26.9203 5.35025C26.8127 5.123 26.705 4.97151 26.6014 4.89576C26.4977 4.82001 26.398 4.76818 26.3064 4.7323C26.2067 4.70041 26.0911 4.70439 25.9635 4.73629C25.8359 4.76818 25.7044 4.81204 25.5648 4.86785L25.4811 4.83994L25.3535 4.62067L25.3735 4.59675C25.4333 4.57283 25.5329 4.53296 25.6725 4.48113C25.812 4.42931 25.9595 4.36951 26.123 4.3097C26.2824 4.24592 26.4379 4.18611 26.5934 4.1303C26.7449 4.0705 26.8685 4.02266 26.9642 3.98678L29.1011 3.16152V3.14956Z" fill="#3D6059"/>
<path d="M43.6251 1.32361C43.6012 1.06447 43.5534 0.885061 43.4856 0.781406C43.4178 0.681737 43.3461 0.598015 43.2703 0.534227C43.1866 0.470439 43.079 0.434557 42.9474 0.422596C42.8158 0.410636 42.6763 0.40665 42.5288 0.410637L42.457 0.354822L42.4092 0.103656L42.4371 0.0877092C42.5009 0.0877092 42.6085 0.0837223 42.76 0.0797355C42.9075 0.0797355 43.063 0.0717617 43.2185 0.067775C43.378 0.067775 43.5295 0.0598019 43.677 0.0558152C43.8245 0.0558152 43.9321 0.0478415 43.9959 0.0478415L44.259 0.0398678C44.3228 0.0398678 44.4305 0.0358808 44.578 0.0318941C44.7255 0.0318941 44.881 0.023921 45.0365 0.0199343C45.1919 0.0159475 45.3474 0.0119605 45.4949 0.00797371C45.6424 0.00797371 45.7501 0 45.8139 0L45.8418 0.0119606L45.8059 0.263127L45.7501 0.318941C45.6026 0.318941 45.4591 0.334888 45.3235 0.350835C45.188 0.366782 45.0803 0.410636 44.9966 0.478411C44.9248 0.546186 44.8531 0.633895 44.7853 0.741537C44.7175 0.84918 44.6776 1.02858 44.6657 1.27975C44.6577 1.41131 44.6537 1.53092 44.6537 1.64255C44.6537 1.75418 44.6537 1.88574 44.6537 2.03325C44.6537 2.18076 44.6617 2.36415 44.6657 2.57545C44.6697 2.79073 44.6776 3.06183 44.6856 3.39672L44.7494 5.9642C44.7574 6.29111 44.7654 6.55822 44.7693 6.77351C44.7733 6.98879 44.7813 7.17218 44.7893 7.33165C44.7973 7.49113 44.8092 7.63863 44.8212 7.77817C44.8331 7.91771 44.8451 8.07718 44.861 8.25259C44.873 8.42801 44.9727 8.51572 45.16 8.51174L46.3441 8.48383C46.9023 8.47187 47.3209 8.44795 47.6039 8.41605C47.887 8.38416 48.0903 8.33233 48.2139 8.25259C48.3375 8.17685 48.4132 8.06123 48.4372 7.90575C48.4611 7.75026 48.501 7.54694 48.5608 7.29577L48.6006 7.23996L48.9634 7.23199L48.7561 8.99812L48.6485 9.13766C48.6006 9.13766 48.5169 9.13766 48.3893 9.14563C48.2657 9.14563 48.1182 9.1536 47.9588 9.15759C47.7953 9.16158 47.6279 9.16556 47.4564 9.16955C47.285 9.17354 47.1375 9.17752 47.0179 9.18151L44.1992 9.24929C44.1354 9.24929 44.0278 9.25327 43.8763 9.25726C43.7288 9.25726 43.5733 9.26523 43.4178 9.26922C43.2584 9.26922 43.1069 9.27719 42.9594 9.28118C42.8118 9.28118 42.7042 9.28915 42.6404 9.28915L42.6125 9.27719L42.6484 9.02603L42.7162 8.97021C42.8637 8.97021 43.0032 8.95427 43.1348 8.93832C43.2663 8.92237 43.37 8.87852 43.4537 8.81074C43.5255 8.74297 43.5932 8.64729 43.657 8.52768C43.7208 8.40409 43.7607 8.23266 43.7846 8.0094C43.7926 7.94562 43.7966 7.86588 43.8006 7.77817C43.8006 7.69046 43.8006 7.57883 43.8006 7.45126C43.8006 7.31969 43.7926 7.16421 43.7886 6.97683C43.7846 6.78946 43.7766 6.55822 43.7727 6.27915L43.7049 3.44855C43.6969 3.12163 43.6889 2.85054 43.6849 2.62728C43.681 2.40402 43.673 2.21265 43.665 2.05717C43.657 1.8977 43.6491 1.76614 43.6411 1.65451C43.6331 1.54288 43.6251 1.43125 43.6132 1.31962L43.6251 1.32361Z" fill="#3D6059"/>
<path d="M63.0644 2.73093C63.18 2.76681 63.3554 2.82661 63.5866 2.90236C63.8219 2.97811 64.0571 3.05785 64.2963 3.13758C64.5355 3.21732 64.7508 3.28509 64.9382 3.34888C65.1295 3.41267 65.2451 3.44855 65.289 3.4645L65.3169 3.60403L64.7906 5.02731L64.4597 4.91966L64.4239 4.8479C64.4717 4.6366 64.5036 4.46517 64.5116 4.34158C64.5195 4.21401 64.4597 4.10238 64.3322 3.99872C64.2046 3.89905 63.9933 3.79938 63.7023 3.7037C63.4112 3.60802 63.0006 3.47247 62.4704 3.29705L61.1986 2.87844L61.0032 3.38077C60.9474 3.51632 60.9036 3.63194 60.8677 3.72762C60.8318 3.8233 60.7879 3.93892 60.7361 4.07846C60.6843 4.21799 60.6285 4.38544 60.5647 4.58079C60.5009 4.77614 60.3454 5.25057 60.0982 6.00008C60.3613 6.08779 60.6285 6.17549 60.8916 6.2632C61.1547 6.35091 61.3979 6.43065 61.6132 6.50241C61.8285 6.57417 62.0198 6.61802 62.1793 6.63796C62.3388 6.65789 62.4584 6.64194 62.5301 6.59809C62.6258 6.55025 62.7096 6.49842 62.7853 6.44659C62.8611 6.39078 62.9209 6.29908 62.9647 6.16353L63.0524 6.11968L63.2876 6.16752L63.3315 6.21137C63.2478 6.40673 63.172 6.57816 63.1122 6.72567C63.0484 6.87318 62.9846 7.04062 62.9209 7.23597C62.8531 7.44727 62.7933 7.64661 62.7454 7.83C62.6976 8.01339 62.6498 8.21671 62.5979 8.432L62.5381 8.43997L62.3069 8.33632L62.267 8.2805C62.3149 8.13698 62.3308 7.99744 62.3189 7.85791C62.3069 7.71837 62.279 7.59877 62.2351 7.49511C62.1992 7.42335 62.1115 7.35159 61.972 7.27185C61.8285 7.1961 61.6531 7.12036 61.4418 7.05258C61.2305 6.98082 60.9913 6.90507 60.7241 6.81736C60.461 6.72965 60.1899 6.64195 59.9148 6.55025L59.4922 7.83C59.3886 8.14495 59.3049 8.40409 59.2371 8.60343C59.1733 8.80277 59.1175 8.97819 59.0696 9.13367C59.0218 9.28915 58.9819 9.43268 58.95 9.56424C58.9181 9.6958 58.8823 9.8473 58.8424 10.0187C58.7866 10.1862 58.8464 10.2978 59.0258 10.3576L60.154 10.7284C60.6843 10.9038 61.1069 11.0314 61.4178 11.1071C61.7288 11.1869 61.976 11.2148 62.1594 11.1988C62.3428 11.1789 62.4903 11.1111 62.6059 10.9835C62.7215 10.8599 62.8491 10.6885 62.9886 10.4692L63.0604 10.4334L63.4033 10.545L62.6139 12.1357L62.4664 12.2314C62.4225 12.2154 62.3189 12.1835 62.1634 12.1317C62.0039 12.0799 61.8245 12.0201 61.6252 11.9563C61.4258 11.8925 61.2265 11.8247 61.0271 11.7609C60.8278 11.6972 60.6723 11.6453 60.5567 11.6055L57.8776 10.7244C57.8138 10.7045 57.7141 10.6686 57.5746 10.6247C57.4351 10.5769 57.2876 10.529 57.1361 10.4812C56.9846 10.4334 56.841 10.3855 56.6975 10.3377C56.554 10.2898 56.4543 10.2579 56.3945 10.238L56.3706 10.2141L56.4902 9.98684L56.5739 9.95494C56.7135 10.0028 56.849 10.0387 56.9766 10.0666C57.1042 10.0945 57.2198 10.0905 57.3195 10.0546C57.4111 10.0147 57.5068 9.95893 57.6025 9.88318C57.7022 9.80743 57.7979 9.64796 57.8975 9.40876C57.9175 9.34896 57.9454 9.27321 57.9773 9.19347C58.0092 9.10975 58.049 9.01008 58.0929 8.88649C58.1367 8.7629 58.1886 8.61539 58.2484 8.43997C58.3082 8.26456 58.3799 8.0413 58.4676 7.77817L59.3527 5.08711C59.4564 4.77614 59.5401 4.517 59.6118 4.3057C59.6836 4.0944 59.7394 3.91101 59.7912 3.7635C59.8391 3.61201 59.879 3.48443 59.9108 3.37679C59.9427 3.26914 59.9706 3.1615 59.9946 3.05386C60.0544 2.81067 60.0703 2.62728 60.0384 2.50369C60.0065 2.3801 59.9627 2.27644 59.9148 2.18873C59.855 2.10102 59.7673 2.02926 59.6477 1.97744C59.5281 1.92162 59.3966 1.87378 59.257 1.82594L59.2092 1.75019L59.249 1.49902H59.2809C59.3407 1.51497 59.4444 1.54687 59.5839 1.59471C59.7235 1.64255 59.879 1.69039 60.0424 1.7462C60.2059 1.80202 60.3653 1.85385 60.5208 1.90169C60.6763 1.95351 60.7999 1.99338 60.8996 2.02528L63.0723 2.74289L63.0644 2.73093Z" fill="#3D6059"/>
<path d="M82.68 14.8424L82.5006 15.0139H82.4129C82.2973 14.9142 82.1857 14.8305 82.074 14.7547C81.9624 14.679 81.8548 14.6431 81.7591 14.6431C81.6594 14.6431 81.5558 14.667 81.4441 14.7069C81.3325 14.7468 81.185 14.8584 81.0016 15.0458C80.9099 15.1375 80.8262 15.2292 80.7504 15.3089C80.6747 15.3926 80.587 15.4883 80.4873 15.5999C80.3876 15.7116 80.268 15.8471 80.1325 16.0106C79.9929 16.174 79.8175 16.3853 79.6022 16.6405L78.0195 18.5222C77.6846 18.9209 77.4095 19.2518 77.1982 19.5109C76.9869 19.7701 76.8035 19.9933 76.656 20.1767C76.5085 20.3601 76.377 20.5276 76.2693 20.6791C76.1617 20.8306 76.0421 20.998 75.9105 21.1814L75.7989 21.1415L75.1371 20.5834V20.3641L76.1378 11.4537C76.0779 11.5255 76.0181 11.5932 75.9544 11.661C75.8906 11.7288 75.8148 11.8165 75.7271 11.9201C75.6394 12.0238 75.5397 12.1434 75.4281 12.279C75.3125 12.4145 75.1729 12.5819 75.0055 12.7813L73.355 14.7468C73.2832 14.8305 73.1875 14.9461 73.0719 15.0816C72.9563 15.2212 72.8367 15.3647 72.7131 15.5202C72.5895 15.6717 72.4739 15.8192 72.3583 15.9627C72.2467 16.1062 72.155 16.2219 72.0912 16.3136C71.9556 16.5049 71.8719 16.6644 71.844 16.792C71.8161 16.9195 71.8161 17.0391 71.844 17.1468C71.8639 17.2385 71.9158 17.3302 71.9955 17.4219C72.0752 17.5136 72.1869 17.6212 72.3304 17.7408L72.3463 17.8285L72.2148 18.0478L72.1829 18.0398C72.135 17.996 72.0553 17.9322 71.9517 17.8485C71.848 17.7608 71.7404 17.6691 71.6247 17.5734C71.5091 17.4777 71.4015 17.386 71.2978 17.2983C71.1942 17.2106 71.1184 17.1468 71.0666 17.1069L70.8633 16.9355C70.8114 16.8956 70.7317 16.8239 70.6161 16.7282C70.5005 16.6325 70.3849 16.5328 70.2652 16.4332C70.1456 16.3295 70.026 16.2338 69.9144 16.1381C69.7988 16.0425 69.7191 15.9747 69.6672 15.9308L69.6553 15.9029L69.8506 15.7395H69.9383C70.0659 15.8511 70.1775 15.9348 70.2772 15.9986C70.3769 16.0624 70.4805 16.0983 70.5922 16.1102C70.6719 16.1182 70.7716 16.1023 70.8952 16.0624C71.0187 16.0265 71.1742 15.9109 71.3696 15.7235C71.4174 15.6797 71.4732 15.6238 71.533 15.5601C71.5928 15.4963 71.6646 15.4126 71.7483 15.3129C71.832 15.2132 71.9357 15.0936 72.0553 14.9501C72.1749 14.8066 72.3264 14.6311 72.5058 14.4159L74.3278 12.2471C74.5391 11.9959 74.7145 11.7886 74.858 11.6172C75.0015 11.4457 75.1251 11.2982 75.2248 11.1786C75.3284 11.059 75.4122 10.9514 75.4799 10.8637C75.5477 10.7759 75.6155 10.6843 75.6793 10.5926C75.7909 10.4291 75.8666 10.2776 75.9025 10.1341C75.9384 9.99056 75.9464 9.86298 75.9265 9.75932C75.9025 9.65567 75.8507 9.55999 75.763 9.46829C75.6753 9.3766 75.5716 9.28091 75.452 9.17726L75.4321 9.08955L75.5597 8.87426L75.6155 8.85034C75.6633 8.89021 75.7351 8.95799 75.8268 9.04171C75.9185 9.12942 76.0102 9.21713 76.1059 9.30483C76.2015 9.39653 76.2932 9.48424 76.3849 9.56796C76.4766 9.65567 76.5484 9.71946 76.5962 9.75932L76.971 10.0743C77.0268 10.1221 77.1065 10.1899 77.2102 10.2776C77.3138 10.3653 77.4055 10.4251 77.4893 10.457L77.5172 10.5328C77.4614 10.6563 77.4055 10.8437 77.3457 11.0909C77.2899 11.3421 77.2301 11.6251 77.1783 11.9441C77.1225 12.263 77.0667 12.6059 77.0108 12.9687C76.955 13.3315 76.8992 13.6982 76.8514 14.0571C76.664 15.3807 76.5404 16.485 76.4806 17.374C76.4208 18.2591 76.3809 18.8332 76.357 19.0923C76.3969 19.0445 76.4407 18.9966 76.4806 18.9568C76.5205 18.9169 76.5643 18.8691 76.6122 18.8133C76.66 18.7574 76.7198 18.6857 76.7916 18.598C76.8633 18.5142 76.959 18.3986 77.0786 18.2551L78.9046 16.0863C79.1159 15.8351 79.2913 15.6278 79.4348 15.4564C79.5783 15.285 79.6979 15.1375 79.7976 15.0139C79.8973 14.8903 79.981 14.7826 80.0488 14.6949C80.1165 14.6072 80.1843 14.5155 80.2481 14.4238C80.3996 14.2125 80.4873 14.0451 80.5033 13.9255C80.5192 13.8059 80.5192 13.6943 80.5033 13.5986C80.4793 13.4949 80.4235 13.3953 80.3278 13.2956C80.2322 13.1999 80.1285 13.1002 80.0169 13.0045L80.0089 12.9288L80.1365 12.7135L80.1923 12.6896C80.2401 12.7295 80.3119 12.7932 80.3996 12.877C80.4873 12.9607 80.575 13.0444 80.6667 13.1321C80.7584 13.2198 80.8461 13.3036 80.9338 13.3873C81.0215 13.471 81.0893 13.5348 81.1411 13.5747L81.6435 13.9972C81.6913 14.0371 81.7631 14.0969 81.8587 14.1767C81.9504 14.2524 82.0501 14.3321 82.1578 14.4079C82.2614 14.4836 82.3651 14.5594 82.4647 14.6272C82.5644 14.6989 82.6402 14.7507 82.696 14.7866L82.6721 14.8385L82.68 14.8424Z" fill="#3D6059"/>
<path d="M21.8525 79.0658L21.6253 79.1814L21.5455 79.1695C21.4578 79.0499 21.3661 78.9382 21.2744 78.8386C21.1827 78.7389 21.0871 78.6751 20.9834 78.6472C20.8877 78.6273 20.7761 78.6193 20.6565 78.6273C20.5369 78.6352 20.3655 78.711 20.1422 78.8505C20.0306 78.9223 19.9309 78.9861 19.8392 79.0499C19.7475 79.1136 19.6399 79.1854 19.5163 79.2731C19.3927 79.3568 19.2452 79.4645 19.0738 79.5921C18.9023 79.7196 18.6791 79.8831 18.4119 80.0824L16.3468 81.6133C16.0757 81.8127 15.8524 81.9801 15.6691 82.1157C15.4857 82.2512 15.3302 82.3629 15.1986 82.4546C15.0671 82.5462 14.9554 82.626 14.8637 82.6938C14.772 82.7615 14.6843 82.8293 14.6006 82.8891C14.3016 83.1124 13.9787 83.2958 13.6398 83.4433C13.2969 83.5908 12.962 83.6904 12.6351 83.7423C12.3082 83.7941 11.9973 83.7861 11.7062 83.7184C11.4152 83.6506 11.16 83.519 10.9408 83.3197C10.881 83.2718 10.8251 83.208 10.7693 83.1363C10.7135 83.0605 10.6657 82.9928 10.6178 82.933L10.5859 82.8173L10.8092 82.614H10.9049C10.9766 82.7097 11.0404 82.7974 11.0962 82.8692C11.1521 82.9449 11.2198 83.0087 11.3075 83.0605C11.4271 83.1124 11.5587 83.1482 11.7022 83.1682C12.065 83.224 12.5474 83.0565 13.1415 82.6698C13.7355 82.2831 14.5328 81.717 15.5375 80.9755L17.8179 79.2891C18.081 79.0937 18.3003 78.9303 18.4797 78.7987C18.6591 78.6671 18.8106 78.5515 18.9342 78.4518C19.0578 78.3522 19.1654 78.2685 19.2532 78.2007C19.3409 78.1289 19.4246 78.0572 19.5123 77.9854C19.7037 77.8219 19.8233 77.6784 19.8711 77.5628C19.9189 77.4472 19.9469 77.3395 19.9548 77.2399C19.9548 77.1322 19.9269 77.0246 19.8591 76.9129C19.7914 76.8013 19.7156 76.6817 19.6279 76.5621V76.4744L19.8073 76.291L19.8352 76.307C19.8751 76.3588 19.9389 76.4465 20.0266 76.5661C20.1143 76.6857 20.206 76.8093 20.3017 76.9369C20.3974 77.0644 20.4891 77.188 20.5768 77.3076C20.6645 77.4272 20.7283 77.515 20.7681 77.5668L20.9276 77.7781C20.9675 77.8299 21.0313 77.9176 21.119 78.0372C21.2067 78.1568 21.2984 78.2804 21.394 78.408C21.4897 78.5356 21.5814 78.6592 21.6691 78.7788C21.7568 78.8984 21.8206 78.9861 21.8605 79.0379V79.0698L21.8525 79.0658Z" fill="#3D6059"/>
<path d="M30.8348 86.4092L29.5829 93.0273C29.5191 93.3143 29.4713 93.5575 29.4394 93.7528C29.4035 93.9482 29.3756 94.1156 29.3557 94.2552C29.3318 94.3947 29.3158 94.5103 29.3039 94.606C29.2919 94.7017 29.2799 94.7854 29.272 94.8532C29.2401 95.1044 29.2401 95.3117 29.272 95.4751C29.2999 95.6386 29.3477 95.7741 29.4115 95.8818C29.4753 95.9894 29.555 96.0771 29.6507 96.1449C29.7464 96.2127 29.8461 96.2765 29.9497 96.3363L29.9816 96.42L29.8899 96.6592L29.8381 96.6911C29.7823 96.6592 29.7025 96.6034 29.5949 96.5237C29.4912 96.4439 29.3756 96.3721 29.256 96.3004C29.1364 96.2286 29.0208 96.1609 28.9132 96.0971C28.8055 96.0333 28.7218 95.9854 28.666 95.9496L28.2713 95.7143C28.2155 95.6824 28.1238 95.6266 27.9962 95.5509C27.8686 95.4751 27.7331 95.3954 27.5935 95.3117C27.454 95.2279 27.3185 95.1482 27.1909 95.0725C27.0633 94.9967 26.9716 94.9409 26.9158 94.909L26.8998 94.8811L27.0633 94.6857L27.139 94.6658C27.3703 94.8014 27.5656 94.8851 27.7251 94.905C27.8846 94.9289 28.0321 94.8253 28.1676 94.5901C28.2753 94.4067 28.367 94.1117 28.4387 93.705C28.5105 93.2984 28.6022 92.788 28.7178 92.1781L28.8534 91.4804L26.1623 89.8897L25.6161 90.3442C25.1337 90.7389 24.731 91.0658 24.4121 91.3249C24.0932 91.584 23.8779 91.8073 23.7662 91.9907C23.6307 92.2219 23.6108 92.4013 23.7064 92.5329C23.8021 92.6605 23.9696 92.792 24.2008 92.9316L24.2327 93.0153L24.141 93.2545H24.1091C24.0533 93.2186 23.9656 93.1668 23.846 93.095C23.7264 93.0233 23.5988 92.9475 23.4672 92.8718C23.3357 92.792 23.2081 92.7203 23.0885 92.6485C22.9689 92.5768 22.8812 92.5249 22.8254 92.493L22.5981 92.3575C22.5423 92.3256 22.4586 92.2738 22.347 92.21C22.2353 92.1422 22.1197 92.0744 22.0001 92.0027C21.8805 91.9309 21.7609 91.8711 21.6453 91.8193C21.5297 91.7674 21.446 91.7236 21.3901 91.6917L21.4061 91.6359L21.5576 91.4325L21.6453 91.4206C21.7489 91.4804 21.8526 91.5362 21.9523 91.584C22.0519 91.6319 22.1676 91.6598 22.2951 91.6638C22.4227 91.6678 22.5622 91.6438 22.7177 91.592C22.8732 91.5402 23.0606 91.4405 23.2719 91.297C23.3197 91.2731 23.3676 91.2372 23.4194 91.1973C23.4712 91.1575 23.547 91.0977 23.6546 91.0179C23.7583 90.9382 23.8978 90.8345 24.0692 90.703C24.2407 90.5714 24.4599 90.4 24.731 90.1847C25.0021 89.9734 25.333 89.7103 25.7277 89.4033C26.1224 89.0963 26.5968 88.7216 27.159 88.287C27.4301 88.0677 27.7012 87.8524 27.9763 87.6451C28.2514 87.4338 28.5065 87.2385 28.7457 87.0551C28.9849 86.8717 29.1962 86.7122 29.3796 86.5727C29.563 86.4332 29.6985 86.3295 29.7823 86.2617L30.7032 86.3215L30.8348 86.4013V86.4092ZM26.6686 89.5069L28.965 90.8624L29.6467 87.0989L26.6686 89.5069Z" fill="#3D6059"/>
<path d="M52.1072 100C52.0434 100 51.9358 100 51.7883 99.9962C51.6408 99.9962 51.4853 99.9922 51.3298 99.9882C51.1703 99.9882 51.0188 99.9842 50.8713 99.9802C50.7238 99.9802 50.6162 99.9762 50.5484 99.9762H50.2853C50.2215 99.9722 50.1138 99.9683 49.9663 99.9683C49.8188 99.9683 49.6633 99.9643 49.5078 99.9603C49.3484 99.9603 49.1969 99.9563 49.0494 99.9523C48.9019 99.9523 48.7942 99.9483 48.7264 99.9483L48.6866 99.9324L48.7344 99.6812L48.7902 99.6254C48.9377 99.6254 49.0813 99.6254 49.2168 99.6095C49.3524 99.5975 49.456 99.5616 49.5318 99.4978C49.5995 99.434 49.6633 99.3503 49.7231 99.2506C49.7869 99.151 49.8188 98.9676 49.8228 98.7084C49.8228 98.6447 49.8228 98.5649 49.8228 98.4772C49.8228 98.3895 49.8228 98.2779 49.8228 98.1503C49.8228 98.0187 49.8148 97.8632 49.8108 97.6759C49.8029 97.4885 49.7949 97.2573 49.7789 96.9782C49.7191 96.0014 49.6753 95.22 49.6434 94.638C49.6115 94.0559 49.5836 93.6014 49.5597 93.2745C49.5357 92.9476 49.5198 92.7163 49.5078 92.5768C49.4959 92.4373 49.4879 92.3217 49.4799 92.226C49.4122 92.3934 49.3045 92.6486 49.161 92.9954C49.0175 93.3423 48.85 93.7409 48.6587 94.1875C48.4713 94.634 48.268 95.1124 48.0567 95.6227C47.8454 96.129 47.6341 96.6353 47.4267 97.1337C47.2194 97.632 47.0201 98.1025 46.8327 98.549C46.6453 98.9915 46.4819 99.3702 46.3463 99.6852L45.6925 99.6732L43.0254 92.1502C43.0134 92.2419 43.0054 92.3416 42.9935 92.4412C42.9815 92.5449 42.9696 92.6685 42.9616 92.812C42.9496 92.9555 42.9337 93.123 42.9177 93.3144C42.9018 93.5057 42.8818 93.7409 42.8579 94.02L42.6227 96.5835C42.5908 96.8985 42.5669 97.1576 42.5549 97.3649C42.543 97.5682 42.531 97.7476 42.519 97.8951C42.5071 98.0426 42.4991 98.1702 42.4991 98.2699C42.4991 98.3735 42.4991 98.4772 42.4951 98.5888C42.4911 98.848 42.5191 99.0314 42.5789 99.135C42.6387 99.2387 42.7024 99.3224 42.7782 99.3902C42.85 99.4579 42.9377 99.4978 43.0333 99.5138C43.129 99.5297 43.2526 99.5377 43.4041 99.5417L43.4599 99.5975L43.4998 99.8487L43.4719 99.9045C43.4081 99.9045 43.3124 99.9005 43.1848 99.8925C43.0612 99.8845 42.9297 99.8806 42.8021 99.8726C42.6705 99.8646 42.543 99.8606 42.4194 99.8526C42.2958 99.8447 42.2001 99.8407 42.1323 99.8407H41.8692C41.8054 99.8367 41.6978 99.8327 41.5543 99.8327C41.4107 99.8327 41.2552 99.8287 41.0958 99.8247C40.9323 99.8247 40.7808 99.8207 40.6373 99.8168C40.4938 99.8168 40.3901 99.8128 40.3223 99.8128L40.2944 99.7968L40.3423 99.5457L40.426 99.4898C40.5655 99.4898 40.7011 99.4898 40.8326 99.4739C40.9642 99.4619 41.0758 99.4261 41.1675 99.3623C41.2433 99.2985 41.323 99.2148 41.4028 99.1151C41.4825 99.0154 41.5463 98.832 41.5861 98.5729C41.5981 98.5091 41.6061 98.4334 41.618 98.3417C41.63 98.254 41.642 98.1463 41.6579 98.0147C41.6739 97.8832 41.6938 97.7277 41.7137 97.5403C41.7337 97.3529 41.7576 97.1217 41.7815 96.8426L42.0247 94.012C42.0566 93.6851 42.0845 93.414 42.1004 93.1908C42.1164 92.9675 42.1323 92.7761 42.1363 92.6207C42.1443 92.4612 42.1523 92.3296 42.1563 92.218C42.1642 92.1064 42.1682 91.9947 42.1682 91.8831C42.1722 91.624 42.1363 91.4366 42.0566 91.329C41.9808 91.2213 41.9051 91.1376 41.8293 91.0818C41.7456 91.014 41.642 90.9741 41.5104 90.9582C41.3788 90.9422 41.2393 90.9343 41.0918 90.9303L41.024 90.8745L40.9881 90.6233L41.016 90.6113C41.0798 90.6113 41.1875 90.6113 41.335 90.6153C41.4825 90.6153 41.638 90.6193 41.7935 90.6233C41.9529 90.6233 42.1044 90.6273 42.2519 90.6313C42.3994 90.6313 42.5071 90.6352 42.5749 90.6352L43.0612 90.6432C43.137 90.6432 43.2407 90.6432 43.3762 90.6472C43.5118 90.6472 43.6194 90.6472 43.7031 90.6392L43.7709 90.6831C43.7789 90.8027 43.8108 90.9662 43.8666 91.1655C43.9224 91.3648 43.9941 91.5921 44.0779 91.8472C44.1616 92.0984 44.2533 92.3695 44.349 92.6525C44.4486 92.9396 44.5443 93.2227 44.644 93.5017L45.549 96.0971C45.7005 96.5476 45.836 96.9264 45.9636 97.2413C46.0872 97.5563 46.1988 97.8353 46.2985 98.0785C46.3264 98.0307 46.4101 97.8553 46.5457 97.5443C46.6812 97.2333 46.8487 96.8506 47.044 96.3961C47.2434 95.9376 47.4507 95.4393 47.6739 94.8931C47.8972 94.3469 48.1085 93.8127 48.3158 93.2904C48.5191 92.7682 48.6945 92.2858 48.842 91.8393C48.9896 91.3927 49.0813 91.0419 49.1251 90.7828L49.1969 90.7269C49.2726 90.7349 49.3484 90.7389 49.4321 90.7429C49.5158 90.7429 49.5956 90.7509 49.6673 90.7509L50.1696 90.7588C50.2334 90.7588 50.3411 90.7588 50.4886 90.7628C50.6361 90.7628 50.7916 90.7668 50.951 90.7708C51.1105 90.7708 51.262 90.7748 51.4095 90.7788C51.557 90.7788 51.6647 90.7828 51.7285 90.7828L51.7564 90.7987L51.7085 91.0499L51.6368 91.1057C51.4893 91.1057 51.3457 91.1057 51.2102 91.1216C51.0746 91.1336 50.971 91.1695 50.8952 91.2333C50.8195 91.2891 50.7397 91.3688 50.66 91.4804C50.5803 91.5921 50.5364 91.7715 50.5324 92.0226C50.5324 92.1542 50.5324 92.2738 50.5324 92.3854C50.5324 92.4971 50.5364 92.6286 50.5404 92.7761C50.5404 92.9236 50.5484 93.107 50.5603 93.3223C50.5723 93.5376 50.5883 93.8127 50.6082 94.1476L50.7358 96.719C50.7597 97.0539 50.7756 97.325 50.7836 97.5363C50.7956 97.7476 50.8035 97.9191 50.8155 98.0586C50.8275 98.1981 50.8394 98.3177 50.8514 98.4134C50.8633 98.5131 50.8793 98.6168 50.8952 98.7284C50.9271 98.9875 50.979 99.1709 51.0547 99.2746C51.1265 99.3782 51.2022 99.4619 51.274 99.5297C51.3577 99.5975 51.4653 99.6374 51.6009 99.6533C51.7364 99.6692 51.876 99.6772 52.0275 99.6812L52.0952 99.737L52.1311 99.9882L52.1152 100H52.1072Z" fill="#3D6059"/>
<path d="M62.2299 86.6886C62.3375 86.6328 62.501 86.5451 62.7162 86.4295C62.9355 86.3139 63.1548 86.1983 63.3741 86.0787C63.5973 85.9631 63.7967 85.8554 63.9721 85.7637C64.1475 85.672 64.2591 85.6122 64.299 85.5923L64.4186 85.672L65.0804 87.0395L64.7734 87.2029L64.6977 87.179C64.5781 86.9956 64.4784 86.8601 64.3907 86.7644C64.303 86.6727 64.1794 86.6368 64.0199 86.6567C63.8565 86.6807 63.6412 86.7604 63.3701 86.9039C63.099 87.0475 62.7162 87.2508 62.2219 87.5099L61.0378 88.1358L61.2651 88.6222C61.3249 88.7578 61.3767 88.8694 61.4205 88.9611C61.4644 89.0528 61.5162 89.1644 61.584 89.296C61.6478 89.4275 61.7275 89.587 61.8272 89.7664C61.9229 89.9498 62.1581 90.3884 62.5249 91.086C62.7721 90.9545 63.0192 90.8229 63.2664 90.6953C63.5136 90.5638 63.7368 90.4482 63.9402 90.3405C64.1435 90.2329 64.303 90.1292 64.4305 90.0256C64.5541 89.9219 64.6259 89.8302 64.6458 89.7425C64.6777 89.6428 64.6977 89.5432 64.7136 89.4515C64.7296 89.3598 64.7016 89.2481 64.6339 89.1246L64.6618 89.0329L64.8571 88.8973H64.9209C65.0046 89.0927 65.0764 89.2641 65.1402 89.4116C65.2 89.5591 65.2797 89.7186 65.3754 89.902C65.4791 90.0973 65.5827 90.2767 65.6824 90.4402C65.7821 90.6036 65.8937 90.7751 66.0133 90.9664L65.9774 91.0183L65.7422 91.11L65.6744 91.098C65.6027 90.9664 65.5149 90.8548 65.4033 90.7671C65.2957 90.6794 65.188 90.6156 65.0804 90.5757C65.0046 90.5518 64.889 90.5638 64.7375 90.6116C64.586 90.6595 64.4106 90.7352 64.2113 90.8429C64.0159 90.9465 63.7927 91.0661 63.5455 91.1937C63.2983 91.3252 63.0471 91.4568 62.792 91.5924L63.4219 92.7844C63.5774 93.0794 63.705 93.3186 63.8006 93.502C63.8963 93.6854 63.988 93.8489 64.0678 93.9884C64.1475 94.1279 64.2232 94.2555 64.295 94.3711C64.3668 94.4867 64.4505 94.6143 64.5501 94.7618C64.6339 94.9173 64.7575 94.9532 64.9209 94.8655L65.9694 94.3113C66.4638 94.0482 66.8465 93.8329 67.1176 93.6655C67.3887 93.498 67.5841 93.3386 67.6957 93.195C67.8073 93.0515 67.8592 92.896 67.8512 92.7246C67.8392 92.5572 67.8073 92.3459 67.7475 92.0947L67.7715 92.0189L68.0904 91.8475L68.6924 93.518L68.6565 93.6934C68.6166 93.7133 68.521 93.7651 68.3735 93.8449C68.2259 93.9246 68.0585 94.0123 67.8751 94.108C67.6917 94.2077 67.5043 94.3034 67.321 94.403C67.1376 94.5027 66.99 94.5784 66.8824 94.6343L64.3907 95.9539C64.3349 95.9858 64.2392 96.0336 64.1076 96.1054C63.9761 96.1731 63.8405 96.2449 63.701 96.3207C63.5614 96.3964 63.4259 96.4682 63.2943 96.5359C63.1628 96.6037 63.0671 96.6555 63.0113 96.6874H62.9794L62.8996 96.4482L62.9355 96.3645C63.0671 96.2967 63.1867 96.225 63.2943 96.1492C63.402 96.0775 63.4777 95.9898 63.5216 95.8941C63.5574 95.8024 63.5814 95.6947 63.5933 95.5711C63.6053 95.4476 63.5614 95.2682 63.4538 95.029C63.4219 94.9731 63.39 94.9014 63.3541 94.8216C63.3182 94.7419 63.2704 94.6422 63.2146 94.5266C63.1588 94.411 63.087 94.2675 62.9993 94.104C62.9116 93.9406 62.8039 93.7332 62.6724 93.4861L61.3448 90.9824C61.1933 90.6953 61.0657 90.4522 60.9581 90.2568C60.8544 90.0614 60.7627 89.89 60.691 89.7505C60.6152 89.6109 60.5514 89.4913 60.4956 89.3957C60.4398 89.3 60.38 89.2043 60.3202 89.1086C60.1846 88.8973 60.065 88.7578 59.9534 88.694C59.8418 88.6302 59.7381 88.5903 59.6424 88.5664C59.5388 88.5465 59.4232 88.5664 59.3036 88.6103C59.18 88.6581 59.0564 88.7179 58.9248 88.7857L58.8371 88.7697L58.6816 88.5664L58.7016 88.5425C58.7574 88.5106 58.8531 88.4628 58.9846 88.391C59.1162 88.3232 59.2597 88.2475 59.4112 88.1637C59.5627 88.084 59.7102 88.0043 59.8537 87.9285C59.9973 87.8528 60.1129 87.789 60.2046 87.7411L62.2259 86.6687L62.2299 86.6886Z" fill="#3D6059"/>
<path d="M72.624 80.9196C72.8313 81.079 73.0306 81.1747 73.222 81.2026C73.4134 81.2345 73.6207 81.2146 73.8399 81.1428C74.0592 81.0711 74.3024 80.9515 74.5655 80.784C74.8287 80.6166 75.1317 80.4133 75.4705 80.1701C75.7695 79.9667 76.0765 79.7714 76.3915 79.592C76.7064 79.4126 77.0294 79.285 77.3643 79.2053C77.6991 79.1295 78.038 79.1215 78.3809 79.1853C78.7237 79.2491 79.0746 79.4166 79.4254 79.6916C79.8002 79.9827 80.0633 80.3016 80.2108 80.6485C80.3583 80.9993 80.4221 81.3541 80.3942 81.7249C80.3703 82.0917 80.2706 82.4664 80.0992 82.8452C79.9277 83.2239 79.7045 83.5867 79.4334 83.9415C79.0825 84.4 78.7118 84.7748 78.3171 85.0738C77.9264 85.3688 77.5357 85.612 77.149 85.7954L76.9696 85.7276L75.929 84.6312L76.1403 84.3562H76.248C76.7264 84.6592 77.1968 84.7349 77.6553 84.5714C78.1138 84.408 78.5603 84.0452 78.9908 83.487C79.4334 82.913 79.6367 82.3787 79.5968 81.8844C79.561 81.394 79.3297 80.9834 78.9111 80.6604C78.652 80.4611 78.3968 80.3535 78.1377 80.3295C77.8785 80.3056 77.6194 80.3375 77.3603 80.4252C77.1011 80.5129 76.838 80.6405 76.5789 80.8119C76.3197 80.9834 76.0566 81.1548 75.7975 81.3262C75.4745 81.5495 75.1596 81.7408 74.8486 81.9083C74.5376 82.0757 74.2346 82.1913 73.9356 82.2631C73.6366 82.3309 73.3376 82.3389 73.0426 82.2791C72.7476 82.2232 72.4526 82.0797 72.1575 81.8525C71.8107 81.5854 71.5635 81.2983 71.42 80.9953C71.2725 80.6883 71.2087 80.3734 71.2207 80.0425C71.2326 79.7116 71.3163 79.3807 71.4678 79.0458C71.6193 78.7109 71.8226 78.376 72.0778 78.0451C72.3848 77.6464 72.7117 77.2996 73.0546 77.0006C73.4014 76.7016 73.7084 76.4823 73.9835 76.3428L74.139 76.3906L75.0041 77.3036L74.7649 77.6146L74.6652 77.6265C74.4619 77.4949 74.2586 77.4391 74.0552 77.4591C73.8519 77.479 73.6605 77.5388 73.4772 77.6385C73.2938 77.7381 73.1263 77.8657 72.9708 78.0212C72.8154 78.1767 72.6878 78.3202 72.5841 78.4558C72.2173 78.9342 72.03 79.3926 72.03 79.8272C72.03 80.2618 72.2253 80.6285 72.616 80.9315L72.624 80.9196Z" fill="#3D6059"/>
<path d="M91.3775 50.5841C91.3775 50.5841 89.2007 48.794 89.2007 47.6538C89.2007 47.0638 89.6791 46.5894 90.2651 46.5894C90.7236 46.5894 91.1143 46.8764 91.2658 47.2831C91.4173 46.8764 91.808 46.5894 92.2665 46.5894C92.8565 46.5894 93.331 47.0678 93.331 47.6538C93.331 48.794 91.3775 50.5841 91.3775 50.5841Z" fill="#3D6059"/>
<path d="M2.17677 50.5841C2.17677 50.5841 0 48.794 0 47.6538C0 47.0638 0.478411 46.5894 1.06446 46.5894C1.52294 46.5894 1.91365 46.8764 2.06514 47.2831C2.21664 46.8764 2.60734 46.5894 3.06582 46.5894C3.65586 46.5894 4.13028 47.0678 4.13028 47.6538C4.13028 48.794 2.17677 50.5841 2.17677 50.5841Z" fill="#3D6059"/>
<path d="M32.3047 58.8921C33.1778 61.4277 35.0157 62.9028 38.1254 63.5526C35.5738 61.9021 33.3293 59.8688 32.3047 58.8921Z" fill="#3D6059"/>
<path d="M49.1084 58.8363C49.1084 58.9878 49.1602 59.1313 49.2639 59.239C49.3675 59.3466 49.5111 59.4064 49.6586 59.4104C49.8101 59.4104 49.9536 59.3586 50.0612 59.2549C50.1689 59.1513 50.2327 59.0117 50.2327 58.8602C50.2327 58.7087 50.1808 58.5652 50.0772 58.4576C49.9855 58.3619 49.8619 58.3021 49.7303 58.2861C49.7144 58.2861 49.6984 58.2861 49.6825 58.2861C49.531 58.2861 49.3875 58.338 49.2798 58.4416C49.1722 58.5453 49.1084 58.6848 49.1084 58.8363Z" fill="#3D6059"/>
<path d="M27.7681 52.5054C26.5641 53.817 25.8505 55.5712 25.8385 57.3573C25.8345 58.023 25.9302 58.9241 26.3488 59.7413C26.5083 56.6237 27.3096 53.8569 27.7641 52.5054H27.7681Z" fill="#3D6059"/>
<path d="M45.7594 62.1973C45.7514 62.5959 46.0703 62.9268 46.465 62.9348C46.8637 62.9428 47.1946 62.6238 47.2026 62.2291C47.2105 61.8305 46.8916 61.4956 46.4929 61.4916C46.0942 61.4836 45.7633 61.8026 45.7554 62.1973H45.7594Z" fill="#3D6059"/>
<path d="M38.852 63.5006C37.9311 59.8527 35.2002 58.8401 32.4692 58.4534C33.4619 59.4102 36.0095 61.7504 38.852 63.5006Z" fill="#3D6059"/>
<path d="M26.7598 60.1478C27.2701 59.9644 27.6767 59.6813 28.0515 59.2348C28.4621 58.7404 28.7771 58.1185 28.9844 57.3889C29.4708 55.6627 29.2156 53.7171 28.3266 52.2021C27.9279 53.3025 26.8834 56.5238 26.7598 60.1518V60.1478Z" fill="#3D6059"/>
<path d="M39.3979 49.559C39.3979 49.4075 39.3461 49.2639 39.2385 49.1563C39.1428 49.0566 39.0232 48.9968 38.8876 48.9849C38.8717 48.9849 38.8557 48.9849 38.8398 48.9849C38.6883 48.9849 38.5448 49.0367 38.4371 49.1404C38.3295 49.244 38.2657 49.3875 38.2617 49.539C38.2617 49.6905 38.3135 49.834 38.4172 49.9417C38.5209 50.0493 38.6644 50.1131 38.8159 50.1171C39.1268 50.1251 39.386 49.8739 39.394 49.5629L39.3979 49.559Z" fill="#3D6059"/>
<path d="M55.9638 42.2553C55.9678 41.9961 55.7724 41.7808 55.5213 41.7529C55.5093 41.7529 55.4933 41.7529 55.4814 41.7529C55.3498 41.7529 55.2223 41.8008 55.1306 41.8885C55.0389 41.9762 54.983 42.1038 54.9791 42.2353C54.9751 42.5064 55.1904 42.7377 55.4654 42.7417C55.7365 42.7456 55.9638 42.5304 55.9718 42.2553H55.9638Z" fill="#3D6059"/>
<path d="M42.1198 47.1031C42.2913 46.9357 42.3909 46.7124 42.3949 46.4732C42.3989 46.234 42.3112 46.0068 42.1438 45.8314C41.9962 45.6759 41.8009 45.5802 41.5856 45.5603C41.5617 45.5603 41.5378 45.5603 41.5099 45.5563C41.2707 45.5523 41.0434 45.64 40.868 45.8075C40.6926 45.9749 40.5969 46.1981 40.5929 46.4374C40.5889 46.6766 40.6766 46.9038 40.8441 47.0792C41.0115 47.2546 41.2348 47.3503 41.474 47.3543C41.7132 47.3583 41.9404 47.2706 42.1158 47.1031H42.1198Z" fill="#3D6059"/>
<path d="M74.9842 37.9894C74.4579 37.5708 73.6526 37.5589 73.1064 37.9496C73.0825 37.9695 73.0546 37.9894 73.0267 38.0094C72.931 38.0772 72.8034 38.0572 72.7316 37.9655C72.6599 37.8738 72.6758 37.7423 72.7675 37.6705C72.7914 37.6506 72.8193 37.6306 72.8433 37.6107C73.0825 37.4074 73.2419 37.1004 73.2778 36.7496C73.3177 36.3668 73.2061 36.004 72.9708 35.7569C72.7356 35.5057 72.3768 35.3861 72.01 35.4379C71.5635 35.5017 71.1848 35.8087 70.9416 36.2991C70.8977 36.4266 70.8499 36.5542 70.802 36.6778C69.8532 39.1097 66.9189 41.6692 64.5109 43.4832C67.1821 42.4985 69.5024 42.5423 69.6339 42.5423C69.7575 42.5423 69.8452 42.642 69.8412 42.7616C69.8412 42.8812 69.7416 42.9729 69.622 42.9689C69.5821 42.9689 65.998 42.9051 62.6651 44.8108C62.5813 44.8666 62.5016 44.9224 62.4219 44.9782C63.4903 44.6434 64.5947 44.4719 65.5993 44.3404C66.4365 44.2327 67.2937 44.2008 68.119 44.1729C68.721 44.153 69.3429 44.1291 69.9489 44.0772C71.6871 43.9257 72.9589 43.531 73.9476 42.8373C75.1795 41.9682 75.8612 40.5928 75.6818 39.333C75.6021 38.7629 75.3509 38.2845 74.9842 37.9934V37.9894Z" fill="#3D6059"/>
<path d="M58.3911 38.8506C58.2954 38.7828 58.2755 38.6473 58.3433 38.5516C58.4111 38.4559 58.5466 38.436 58.6423 38.5038C58.6742 38.5277 61.2735 40.4613 61.3094 43.9018C61.3214 43.8381 61.3334 43.7743 61.3413 43.7145C61.5765 42.2155 61.2616 40.7842 60.8908 39.4606C60.7991 39.1417 60.7074 38.8227 60.6117 38.5038C60.1692 37.0167 59.7107 35.4818 59.7905 33.8592C59.7945 33.7516 59.8064 33.632 59.8224 33.5084C59.3798 32.9263 58.4788 32.7589 57.8569 33.1416C57.231 33.5243 56.9798 34.4054 57.2987 35.0632C57.3466 35.1589 57.3147 35.2745 57.227 35.3343C57.1393 35.3941 57.0197 35.3821 56.9479 35.3024C56.5971 34.9237 55.9034 34.9117 55.4609 35.2745C55.0462 35.6134 54.8389 36.2313 54.9306 36.8533C55.0064 37.3795 55.2814 37.9297 55.7439 38.4838C56.3419 39.2054 57.1154 39.7915 57.8609 40.3616L58.0802 40.529C58.9134 41.1669 59.7785 41.8646 60.3885 42.7616C60.5998 43.0726 60.7632 43.3915 60.8868 43.7185C60.7792 40.6327 58.5107 38.9343 58.3951 38.8506H58.3911Z" fill="#3D6059"/>
<path d="M59.5271 55.2682C55.8393 54.8934 52.909 53.3505 51.8525 52.7246C52.0917 53.522 52.925 55.1326 55.7994 55.6908C59.0965 56.3326 60.7151 55.7705 61.4128 55.3479C60.7669 55.3599 60.137 55.328 59.5271 55.2682Z" fill="#3D6059"/>
<path d="M61.5087 54.9215C59.2163 52.948 55.0262 51.8198 52.1079 52.3819C53.3438 53.1075 57.0635 55.0331 61.5087 54.9215Z" fill="#3D6059"/>
<path d="M47.8199 53.0911C49.598 50.2127 49.4306 45.8671 48.3023 42.8013C47.9475 44.1727 47.2099 47.8485 47.8199 53.0911Z" fill="#3D6059"/>
<path d="M69.0105 47.6453C69.3454 47.6533 69.6245 47.3862 69.6325 47.0473C69.6404 46.7284 69.3972 46.4613 69.0863 46.4294C69.0703 46.4294 69.0544 46.4294 69.0384 46.4294C68.7035 46.4214 68.4245 46.6885 68.4165 47.0274C68.4165 47.1908 68.4723 47.3463 68.5879 47.4619C68.6996 47.5815 68.855 47.6493 69.0145 47.6493L69.0105 47.6453Z" fill="#3D6059"/>
<path d="M47.8272 42.9526C46.9103 44.1367 46.3322 45.7832 46.2485 47.5334C46.1608 49.3713 46.5953 51.3607 47.3608 52.784C46.8465 47.968 47.4565 44.4915 47.8272 42.9526Z" fill="#3D6059"/>
<path d="M67.9385 50.9346C67.9624 51.0503 67.8907 51.1619 67.7751 51.1898C67.7511 51.1938 67.7312 51.1938 67.7073 51.1898C67.6196 51.1818 67.5398 51.114 67.5199 51.0223C67.4083 50.5001 67.2129 50.1094 67.0056 49.8144C67.181 50.4283 67.1691 51.1978 66.9936 52.2822C66.9737 52.3938 66.874 52.4735 66.7624 52.4616C66.7584 52.4616 66.7544 52.4616 66.7505 52.4616C66.6348 52.4416 66.5551 52.334 66.575 52.2184C66.7983 50.839 66.7186 50.0815 66.4435 49.5472C66.3757 50.3247 66.0767 51.5167 65.4069 52.5812C65.1597 52.9719 64.9684 53.5181 65.0999 53.849C65.1597 54.0005 65.2913 54.1001 65.4986 54.1559C65.8494 54.2476 66.1405 53.829 66.2481 53.526C66.288 53.4144 66.4076 53.3586 66.5192 53.3945C66.6308 53.4304 66.6907 53.55 66.6548 53.6616C66.6029 53.8211 66.6269 53.9606 66.7146 54.0762C66.8342 54.2277 67.0574 54.3154 67.2847 54.2995C67.488 54.2835 67.6554 54.1799 67.8229 53.9526C68.102 53.5818 68.0621 52.9001 68.0023 52.6489C67.9744 52.5413 68.0382 52.4297 68.1458 52.3938C68.2535 52.3579 68.3691 52.4137 68.4089 52.5174C68.5006 52.7446 68.8395 52.9719 69.1385 52.9798C69.3379 52.9918 69.4854 52.9161 69.5771 52.7566C69.7804 52.3858 69.5771 51.7599 69.29 51.3014C69.0349 50.9027 68.2415 49.93 67.2368 49.3958C67.5239 49.7466 67.799 50.2409 67.9465 50.9267L67.9385 50.9346Z" fill="#3D6059"/>
<path d="M61.0217 38.3842C61.1174 38.7031 61.2131 39.026 61.3048 39.349C61.6915 40.7164 62.0144 42.2035 61.7672 43.7823C61.7473 43.9138 61.7194 44.0613 61.6875 44.2208C63.1347 41.3144 62.6084 37.4274 62.6005 37.3795C62.5845 37.2639 62.6643 37.1563 62.7799 37.1363C62.8955 37.1204 63.0031 37.2001 63.0231 37.3157C63.051 37.5151 63.6131 41.6453 61.9307 44.6753C65.1958 41.8008 65.9254 38.6473 65.9334 38.6114C65.9573 38.4958 66.0729 38.424 66.1885 38.448C66.3042 38.4719 66.3759 38.5875 66.352 38.7031C66.3241 38.8307 65.7859 41.147 63.5653 43.6547C66.0331 41.8646 69.4099 39.0938 70.4105 36.5184C70.8052 35.5017 71.0883 34.517 70.1952 33.628C69.8085 33.2413 69.1986 33.2014 68.752 33.2891C68.2058 33.3967 67.7075 33.6878 67.2211 33.9668C67.1533 34.0067 67.0696 34.0067 67.0018 33.9668C66.9341 33.927 66.8982 33.8512 66.9022 33.7715C66.954 32.8306 66.1806 31.8937 65.2477 31.7622C64.3188 31.6426 63.3141 32.3243 63.1068 33.2452C63.0868 33.325 63.0231 33.3888 62.9433 33.4087C62.8636 33.4286 62.7799 33.3967 62.728 33.329C62.4848 33.006 62.2616 32.727 61.9825 32.5276C61.6835 32.3163 61.3406 32.2366 61.0616 32.3123C60.8024 32.3841 60.5632 32.6074 60.4197 32.9064C60.2682 33.2253 60.2323 33.5961 60.2204 33.8831C60.1446 35.43 60.5911 36.933 61.0257 38.3842H61.0217Z" fill="#3D6059"/>
<path d="M76.1034 39.2696C76.0077 38.5918 75.7007 38.0177 75.2463 37.6549C74.7838 37.2881 74.1539 37.1645 73.5798 37.2881C73.6396 37.1327 73.6834 36.9652 73.6994 36.7938C73.7512 36.2875 73.5997 35.8051 73.2808 35.4662C72.9499 35.1114 72.4515 34.9439 71.9452 35.0157C71.6661 35.0555 71.407 35.1712 71.1798 35.3386C71.2635 34.6569 71.1319 33.9672 70.4901 33.3253C70.0595 32.8987 69.3777 32.7273 68.6601 32.8708C68.1698 32.9665 67.7192 33.1937 67.3046 33.421C67.181 32.3924 66.3319 31.4834 65.2953 31.3359C64.2747 31.1924 63.2262 31.8183 62.8116 32.7472C62.6321 32.5279 62.4448 32.3326 62.2175 32.1691C61.8069 31.8781 61.3404 31.7784 60.9378 31.8901C60.555 31.9977 60.2202 32.2967 60.0248 32.7153C59.9809 32.807 59.9491 32.8987 59.9211 32.9904C59.3072 32.4482 58.3304 32.3366 57.6288 32.7671C56.9989 33.1539 56.66 33.9353 56.7437 34.6648C56.2454 34.4815 55.6314 34.5692 55.1849 34.9359C54.6506 35.3745 54.3875 36.128 54.5031 36.9094C54.5908 37.5154 54.8978 38.1333 55.4081 38.7513C56.038 39.5088 56.8314 40.1108 57.5969 40.6968L57.8161 40.8643C58.6215 41.4822 59.4547 42.152 60.0288 43.0012C60.6308 43.8862 60.854 44.871 60.6547 45.7161C60.6547 45.7241 60.6507 45.7361 60.6507 45.7441C60.6507 45.756 60.6507 45.764 60.6427 45.776C59.4148 47.2231 57.9397 48.5029 56.1616 49.6471C56.4407 48.9375 56.64 48.1082 56.7277 47.2391C57.6527 46.6211 58.0514 45.3613 57.9557 44.4005C57.9437 44.2849 57.8401 44.2012 57.7205 44.2092C57.6048 44.2211 57.5171 44.3248 57.5291 44.4444C57.6009 45.17 57.3537 46.0909 56.7676 46.661C56.8234 45.3653 56.6241 44.0337 56.0859 42.9214C56.2613 42.758 56.3769 42.5267 56.3809 42.2676C56.3929 41.7613 55.9862 41.3347 55.4799 41.3267C55.2327 41.3227 55.0015 41.4144 54.8221 41.5819C54.6427 41.7533 54.543 41.9806 54.539 42.2277C54.5271 42.7101 54.8938 43.1168 55.3683 43.1646C55.3922 43.1646 55.4161 43.1646 55.444 43.1686C55.5397 43.1686 55.6274 43.1527 55.7151 43.1287C56.7397 45.2696 56.4327 48.2796 55.5118 50.0537C53.5742 51.2179 51.3058 52.2425 48.6306 53.1594C48.4871 53.2073 48.3396 53.2511 48.1921 53.299C50.1456 50.1096 49.8307 45.2218 48.4632 42.0523C48.4512 42.0244 48.4313 42.0005 48.4074 41.9806C48.3994 41.9766 48.3914 41.9726 48.3835 41.9686C48.3675 41.9606 48.3556 41.9487 48.3396 41.9407C48.3356 41.9407 48.3276 41.9407 48.3237 41.9407C48.3197 41.9407 48.3157 41.9367 48.3117 41.9367C48.3037 41.9367 48.2957 41.9367 48.2918 41.9367C48.2678 41.9367 48.2479 41.9367 48.228 41.9367C48.22 41.9367 48.212 41.9367 48.2041 41.9447C48.1801 41.9526 48.1602 41.9646 48.1443 41.9806C48.1403 41.9806 48.1323 41.9845 48.1283 41.9885L48.1203 41.9965C48.1203 41.9965 48.1203 41.9965 48.1163 42.0005C46.7848 43.2563 45.9316 45.3175 45.824 47.5142C45.7203 49.7228 46.3103 52.0631 47.3389 53.578C45.5808 54.1322 43.7907 54.6186 42.0166 55.0731C41.5222 55.2007 41.0239 55.3282 40.5335 55.4518C39.2538 55.7747 37.9621 56.1056 36.6664 56.4565C37.2325 55.8744 37.7308 55.1369 38.1255 54.2797C38.9548 53.7654 39.6405 53.1714 40.1907 52.4936C40.1907 52.4936 40.1947 52.4936 40.1986 52.4936C40.2186 52.4777 42.3116 50.7873 44.0658 51.4132C44.1774 51.4531 44.301 51.3973 44.3369 51.2857C44.3768 51.174 44.317 51.0544 44.2093 51.0146C42.9854 50.576 41.6777 51.0903 40.8325 51.5647C41.4585 50.4644 41.7734 49.1926 41.7814 47.7574C42.3674 47.6298 42.8179 47.1155 42.8299 46.4896C42.8379 46.1348 42.7063 45.7999 42.4591 45.5447C42.212 45.2896 41.885 45.146 41.5302 45.1381C41.1754 45.1301 40.8405 45.2617 40.5854 45.5088C40.3302 45.756 40.1867 46.0829 40.1787 46.4377C40.1707 46.7926 40.3023 47.1275 40.5495 47.3826C40.7648 47.6099 41.0518 47.7494 41.3588 47.7813C41.3389 50.277 40.378 52.1827 38.4245 53.578C38.7953 52.5853 39.0186 51.5288 39.0624 50.5202C39.493 50.4205 39.8239 50.0378 39.8319 49.5753C39.8358 49.3082 39.7402 49.0571 39.5568 48.8657C39.3734 48.6743 39.1262 48.5667 38.8591 48.5587C38.592 48.5547 38.3408 48.6504 38.1494 48.8338C37.9581 49.0172 37.8504 49.2644 37.8425 49.5315C37.8345 49.7986 37.9342 50.0498 38.1176 50.2411C38.2571 50.3886 38.4365 50.4803 38.6279 50.5202C38.572 51.6923 38.269 52.9402 37.7627 54.0525C37.2365 55.2086 36.5268 56.1336 35.7135 56.7316C34.4059 57.1023 33.1022 57.509 31.8185 57.9675C31.8025 57.9675 31.7866 57.9754 31.7706 57.9834C31.1846 58.1947 30.6065 58.41 30.0324 58.6412C29.5221 58.8485 29.0237 59.0718 28.5334 59.303C28.9081 58.8007 29.1992 58.1987 29.3945 57.509C29.9527 55.5236 29.5939 53.2591 28.4576 51.6006C28.4576 51.5966 28.4497 51.5926 28.4457 51.5886C28.4377 51.5767 28.4257 51.5647 28.4138 51.5568C28.4018 51.5488 28.3938 51.5408 28.3819 51.5328C28.3779 51.5328 28.3739 51.5249 28.3659 51.5209C28.358 51.5209 28.346 51.5209 28.338 51.5169C28.3301 51.5169 28.3221 51.5089 28.3141 51.5089C28.3101 51.5089 28.3061 51.5089 28.2982 51.5089C28.2782 51.5089 28.2623 51.5089 28.2423 51.5129C28.2344 51.5129 28.2264 51.5129 28.2184 51.5169C28.1985 51.5249 28.1825 51.5328 28.1626 51.5448C28.1586 51.5448 28.1506 51.5488 28.1427 51.5528C26.4483 52.9721 25.4277 55.1409 25.4117 57.3535C25.4038 58.2146 25.5593 59.4386 26.2928 60.4632C22.9559 62.3848 20.2688 64.8127 18.5386 67.5197C18.4748 67.6194 18.5027 67.751 18.6024 67.8148C18.6303 67.8347 18.6622 67.8427 18.6941 67.8467C18.7698 67.8546 18.8495 67.8188 18.8974 67.751C21.1898 64.1669 25.2004 61.0692 30.1919 59.0319C30.6982 58.8246 31.2085 58.6333 31.7228 58.4459C32.6358 61.7629 34.9959 63.5848 39.1421 64.1629C39.1421 64.1629 39.1461 64.1629 39.1501 64.1629C39.186 64.1629 39.2219 64.1589 39.2578 64.143C39.2697 64.139 39.2737 64.131 39.2857 64.127C39.3016 64.119 39.3176 64.1111 39.3295 64.0991C39.3375 64.0911 39.3375 64.0832 39.3455 64.0752C39.3495 64.0712 39.3574 64.0672 39.3614 64.0632C39.3654 64.0552 39.3694 64.0433 39.3734 64.0313C39.3774 64.0194 39.3814 64.0114 39.3853 63.9994C39.3893 63.9755 39.3893 63.9556 39.3853 63.9317C39.3853 63.9237 39.3853 63.9197 39.3853 63.9117C38.9348 61.6034 37.7587 58.8964 32.7793 58.0751C35.3667 57.202 38.0338 56.5243 40.6372 55.8664C41.1236 55.7429 41.6139 55.6193 42.1043 55.4917C43.1847 55.3043 44.305 55.4239 45.4452 55.8545C46.9921 56.6558 47.1755 59.4944 46.5655 61.0692C46.5496 61.0692 46.5336 61.0652 46.5137 61.0612C45.8798 61.0492 45.3535 61.5516 45.3416 62.1855C45.3296 62.7875 45.7841 63.2938 46.3741 63.3536C46.406 63.3536 46.4379 63.3576 46.4658 63.3576C47.0997 63.3695 47.626 62.8672 47.6379 62.2333C47.6459 61.7668 47.3748 61.3602 46.9801 61.1728C47.4904 59.8173 47.4585 57.7283 46.6253 56.4126C47.4545 56.8871 48.2359 57.509 48.9017 58.2386C48.7742 58.402 48.6944 58.6014 48.6904 58.8246C48.6785 59.3429 49.0732 59.7775 49.5795 59.8293C49.6074 59.8293 49.6313 59.8333 49.6592 59.8333C49.9223 59.8373 50.1735 59.7416 50.3649 59.5582C50.5562 59.3748 50.6639 59.1276 50.6679 58.8645C50.6719 58.6014 50.5762 58.3502 50.3928 58.1588C50.2094 57.9675 49.9662 57.8638 49.6991 57.8558C49.5277 57.8558 49.3722 57.8957 49.2287 57.9675C48.212 56.8472 46.9323 55.9581 45.6087 55.4598C45.0266 55.2365 44.4445 55.097 43.8704 55.0252C45.1781 54.6744 46.4858 54.2996 47.7775 53.885C47.7775 53.885 47.7815 53.885 47.7854 53.885C48.1163 53.7774 48.4512 53.6777 48.7821 53.5661C49.6991 53.2511 50.5642 52.9242 51.3895 52.5853C51.5649 53.3468 52.3463 55.4598 55.7271 56.1176C56.2852 56.2253 56.7955 56.301 57.266 56.3488C61.1132 56.7395 62.1737 55.3083 62.2215 55.2405C62.2295 55.2325 62.2295 55.2206 62.2335 55.2126C62.2374 55.2007 62.2454 55.1927 62.2494 55.1807C62.2534 55.1608 62.2574 55.1448 62.2574 55.1249C62.2574 55.1169 62.2574 55.1129 62.2574 55.105C62.2574 55.0771 62.2494 55.0531 62.2375 55.0292C62.2375 55.0252 62.2295 55.0173 62.2255 55.0133C62.2175 54.9973 62.2095 54.9814 62.1936 54.9694C60.1285 52.9043 56.2254 51.6285 53.0998 51.8358C54.0526 51.3853 54.9417 50.9109 55.7709 50.4125C55.7789 50.4125 55.7869 50.4046 55.7948 50.4006C56.365 50.0577 56.9072 49.6989 57.4214 49.3321C58.6813 48.3673 60.2082 48.1162 61.2687 48.0763C62.0142 48.0484 62.7797 48.1002 63.5172 48.1521C63.6807 48.164 63.8521 48.172 64.0195 48.184C64.0195 48.184 64.0275 48.184 64.0315 48.184C64.6175 48.1959 65.5146 48.483 66.0289 48.9933C66.0289 48.9933 66.0289 48.9933 66.0328 48.9973C66.1086 49.3242 65.9252 50.9707 65.0521 52.3581C64.7571 52.8285 64.5099 53.5103 64.7132 54.0126C64.793 54.2079 64.9724 54.4631 65.4029 54.5747C65.4468 54.5867 65.4867 54.5947 65.5305 54.5986C65.8415 54.6305 66.1126 54.479 66.3239 54.2518C66.3438 54.2837 66.3638 54.3156 66.3917 54.3475C66.599 54.6106 66.9578 54.7581 67.3285 54.7342C67.6594 54.7103 67.9385 54.5428 68.1777 54.2199C68.397 53.9289 68.4688 53.5382 68.4807 53.2033C68.6721 53.3269 68.8993 53.4066 69.1186 53.4186C69.4814 53.4425 69.7884 53.279 69.9558 52.976C70.2668 52.4179 70.0037 51.6325 69.6528 51.0863C69.286 50.5122 67.8947 48.8617 66.276 48.6424C66.1046 48.483 65.9053 48.3474 65.694 48.2278C66.6947 48.1959 67.5359 48.0285 68.2575 47.7175C68.2694 47.7295 68.2774 47.7454 68.2894 47.7574C68.4608 47.9368 68.688 48.0444 68.9312 48.0723C68.9591 48.0723 68.987 48.0763 69.0149 48.0763C69.5851 48.0883 70.0595 47.6338 70.0714 47.0597C70.0754 46.7846 69.9758 46.5215 69.7844 46.3221C69.593 46.1228 69.3339 46.0112 69.0588 46.0032C68.4887 45.9912 68.0143 46.4457 68.0023 47.0198C68.0023 47.1314 68.0183 47.2391 68.0502 47.3427C67.2847 47.6617 66.3677 47.8172 65.2475 47.8052C64.6853 47.8012 64.1072 47.7614 63.5531 47.7215C62.8036 47.6697 62.0262 47.6138 61.2567 47.6457C60.6348 47.6697 59.8534 47.7653 59.056 48.0245C59.7577 47.4025 60.4035 46.7527 60.9896 46.059C62.4527 45.2497 64.1033 44.9786 65.6701 44.7753C66.4873 44.6676 67.3325 44.6397 68.1498 44.6118C68.7558 44.5919 69.3817 44.568 69.9997 44.5161C71.8176 44.3607 73.1532 43.942 74.2097 43.2005C75.5732 42.2397 76.3227 40.7048 76.1194 39.2855L76.1034 39.2696ZM55.456 42.738C55.1809 42.738 54.9656 42.5068 54.9696 42.2317C54.9696 42.1002 55.0254 41.9766 55.1211 41.8849C55.2168 41.7932 55.3404 41.7453 55.4719 41.7493C55.4839 41.7493 55.4998 41.7493 55.5118 41.7493C55.7669 41.7732 55.9623 41.9925 55.9543 42.2517C55.9503 42.5228 55.7231 42.742 55.448 42.738H55.456ZM40.5973 46.4338C40.6013 46.1946 40.701 45.9713 40.8724 45.8039C41.0478 45.6364 41.2751 45.5487 41.5143 45.5527C41.5382 45.5527 41.5621 45.5527 41.59 45.5567C41.8013 45.5766 41.9967 45.6723 42.1482 45.8278C42.3156 46.0032 42.4033 46.2304 42.3993 46.4696C42.3953 46.7088 42.2957 46.9361 42.1242 47.0996C41.9488 47.267 41.7216 47.3547 41.4824 47.3507C41.2392 47.3467 41.0199 47.2471 40.8525 47.0756C40.685 46.9002 40.5973 46.673 40.6013 46.4338H40.5973ZM38.2651 49.5315C38.2651 49.38 38.3288 49.2404 38.4405 49.1328C38.5521 49.0252 38.6916 48.9733 38.8431 48.9773C38.8591 48.9773 38.875 48.9773 38.891 48.9773C39.0225 48.9893 39.1461 49.0491 39.2418 49.1487C39.3455 49.2564 39.4013 49.3999 39.4013 49.5514C39.3933 49.8624 39.1342 50.1135 38.8232 50.1056C38.6717 50.1016 38.5322 50.0418 38.4245 49.9302C38.3209 49.8225 38.2651 49.679 38.269 49.5275L38.2651 49.5315ZM28.9839 57.3814C28.7766 58.111 28.4656 58.7329 28.051 59.2273C27.6802 59.6738 27.2696 59.9608 26.7593 60.1403C26.8789 56.5123 27.9274 53.291 28.3261 52.1906C29.2111 53.7056 29.4703 55.6512 28.9839 57.3774V57.3814ZM27.7679 52.5016C27.3134 53.8531 26.5121 56.6199 26.3526 59.7376C25.934 58.9163 25.8343 58.0193 25.8423 57.3535C25.8543 55.5674 26.5639 53.8133 27.7719 52.5016H27.7679ZM32.3049 58.8884C33.3295 59.8652 35.578 61.8984 38.1255 63.5489C35.0158 62.8991 33.174 61.424 32.3049 58.8884ZM38.8471 63.4971C36.0046 61.7469 33.461 59.4107 32.4643 58.4499C35.1953 58.8326 37.9222 59.8492 38.8471 63.4971ZM47.2034 62.2213C47.1954 62.62 46.8645 62.939 46.4658 62.927C46.0711 62.919 45.7482 62.5881 45.7602 62.1894C45.7681 61.7908 46.099 61.4718 46.4977 61.4838C46.8924 61.4878 47.2153 61.8227 47.2074 62.2213H47.2034ZM49.6831 58.2784C49.6831 58.2784 49.715 58.2784 49.731 58.2784C49.8625 58.2904 49.9861 58.3502 50.0778 58.4499C50.1815 58.5575 50.2373 58.701 50.2333 58.8525C50.2333 59.004 50.1695 59.1436 50.0619 59.2472C49.9542 59.3509 49.8107 59.4067 49.6592 59.4027C49.5077 59.3987 49.3682 59.3389 49.2645 59.2313C49.1609 59.1236 49.1051 58.9801 49.109 58.8286C49.109 58.6771 49.1728 58.5376 49.2805 58.4339C49.3881 58.3303 49.5316 58.2744 49.6831 58.2784ZM47.8213 53.0837C47.2114 47.8411 47.9449 44.1653 48.3037 42.7939C49.432 45.8597 49.5994 50.2052 47.8213 53.0837ZM47.8253 42.9453C47.4545 44.4842 46.8446 47.9607 47.3589 52.7767C46.5934 51.3494 46.1588 49.364 46.2466 47.5261C46.3303 45.7799 46.9084 44.1334 47.8253 42.9453ZM69.0389 46.4178C69.0389 46.4178 69.0708 46.4178 69.0867 46.4178C69.3977 46.4497 69.6409 46.7168 69.6329 47.0358C69.6249 47.3707 69.3458 47.6378 69.011 47.6338C68.8515 47.6338 68.696 47.562 68.5844 47.4464C68.4727 47.3308 68.4129 47.1753 68.4129 47.0118C68.4209 46.677 68.7 46.4098 69.0349 46.4138L69.0389 46.4178ZM69.2821 51.3016C69.5731 51.7601 69.7764 52.386 69.5691 52.7568C69.4814 52.9202 69.3339 52.996 69.1306 52.98C68.8316 52.9681 68.4927 52.7448 68.401 52.5176C68.3611 52.4139 68.2455 52.3581 68.1379 52.394C68.0302 52.4299 67.9704 52.5375 67.9943 52.6491C68.0541 52.9003 68.094 53.582 67.8149 53.9528C67.6475 54.1761 67.48 54.2837 67.2767 54.2996C67.0495 54.3156 66.8262 54.2279 66.7066 54.0764C66.6149 53.9608 66.595 53.8212 66.6468 53.6618C66.6827 53.5501 66.6229 53.4305 66.5113 53.3947C66.3996 53.3588 66.28 53.4146 66.2402 53.5262C66.1325 53.8292 65.8415 54.2438 65.4906 54.1561C65.2833 54.1043 65.1518 54.0046 65.092 53.8491C64.9604 53.5182 65.1518 52.9721 65.399 52.5814C66.0687 51.5169 66.3677 50.3248 66.4355 49.5474C66.7106 50.0816 66.7903 50.8391 66.5671 52.2186C66.5471 52.3342 66.6269 52.4458 66.7425 52.4617C66.7465 52.4617 66.7505 52.4617 66.7545 52.4617C66.8661 52.4737 66.9697 52.394 66.9857 52.2823C67.1611 51.1979 67.1731 50.4245 66.9977 49.8145C67.205 50.1096 67.4003 50.5003 67.5119 51.0225C67.5319 51.1142 67.6076 51.182 67.6993 51.19C67.7192 51.19 67.7432 51.19 67.7671 51.19C67.8827 51.1661 67.9545 51.0504 67.9305 50.9348C67.783 50.2451 67.508 49.7507 67.2209 49.4039C68.2256 49.9381 69.0189 50.9109 69.2741 51.3096L69.2821 51.3016ZM60.4155 32.8987C60.559 32.5957 60.7982 32.3764 61.0574 32.3047C61.3325 32.2289 61.6793 32.3047 61.9783 32.52C62.2574 32.7193 62.4806 33.0024 62.7238 33.3213C62.7757 33.3891 62.8594 33.421 62.9391 33.401C63.0189 33.3851 63.0826 33.3213 63.1026 33.2376C63.3099 32.3166 64.3146 31.6349 65.2435 31.7545C66.1764 31.8861 66.9498 32.823 66.898 33.7638C66.894 33.8436 66.9339 33.9153 66.9977 33.9592C67.0654 33.9991 67.1491 34.003 67.2169 33.9592C67.7033 33.6801 68.2056 33.3891 68.7478 33.2814C69.1944 33.1937 69.8043 33.2336 70.191 33.6203C71.0841 34.5094 70.801 35.4981 70.4063 36.5107C69.4017 39.0862 66.0289 41.853 63.5611 43.647C65.7817 41.1433 66.3199 38.823 66.3478 38.6955C66.3717 38.5798 66.3 38.4682 66.1843 38.4403C66.0687 38.4164 65.9571 38.4882 65.9292 38.6038C65.9212 38.6396 65.1916 41.7932 61.9265 44.6676C63.6049 41.6377 63.0468 37.5074 63.0189 37.3081C63.0029 37.1925 62.8913 37.1127 62.7757 37.1287C62.66 37.1446 62.5763 37.2523 62.5963 37.3719C62.6042 37.4157 63.1305 41.3068 61.6833 44.2131C61.7152 44.0537 61.7431 43.9062 61.763 43.7746C62.0102 42.1958 61.6873 40.7088 61.3006 39.3413C61.2089 39.0184 61.1132 38.6995 61.0175 38.3765C60.583 36.9253 60.1364 35.4223 60.2122 33.8755C60.2281 33.5884 60.264 33.2177 60.4115 32.8987H60.4155ZM58.0793 40.5214L57.86 40.354C57.1145 39.7838 56.341 39.1978 55.743 38.4762C55.2806 37.922 55.0095 37.3719 54.9297 36.8456C54.838 36.2237 55.0453 35.6057 55.46 35.2668C55.9025 34.9041 56.6002 34.916 56.947 35.2948C57.0188 35.3745 57.1384 35.3865 57.2261 35.3266C57.3138 35.2668 57.3417 35.1512 57.2979 35.0555C56.9749 34.3977 57.2301 33.5167 57.856 33.1339C58.4779 32.7512 59.3789 32.9186 59.8215 33.5007C59.8055 33.6243 59.7936 33.7439 59.7896 33.8515C59.7099 35.4742 60.1683 37.0091 60.6109 38.4961C60.7065 38.8151 60.8022 39.134 60.8899 39.4529C61.2647 40.7766 61.5757 42.2078 61.3404 43.7068C61.3325 43.7666 61.3205 43.8264 61.3085 43.8942C61.2687 40.4536 58.6693 38.52 58.6414 38.4961C58.5457 38.4283 58.4142 38.4483 58.3424 38.544C58.2706 38.6397 58.2945 38.7712 58.3902 38.843C58.5058 38.9267 60.7743 40.6251 60.882 43.7108C60.7584 43.3879 60.5949 43.065 60.3836 42.754C59.7736 41.853 58.9085 41.1553 58.0753 40.5214H58.0793ZM55.7988 55.687C52.9244 55.1289 52.0911 53.5182 51.8519 52.7209C52.9084 53.3428 55.8387 54.8857 59.5265 55.2644C60.1364 55.3282 60.7663 55.3561 61.4122 55.3442C60.7145 55.7668 59.0959 56.3289 55.7988 55.687ZM61.5079 54.9136C57.0626 55.0252 53.343 53.0996 52.1071 52.374C55.0294 51.8119 59.2155 52.9402 61.5079 54.9136ZM73.9506 42.8297C72.9618 43.5274 71.6901 43.9181 69.9518 44.0696C69.3458 44.1214 68.7239 44.1454 68.1219 44.1653C67.2967 44.1932 66.4395 44.2251 65.6023 44.3327C64.5976 44.4643 63.4973 44.6357 62.4248 44.9706C62.5046 44.9188 62.5843 44.863 62.668 44.8032C66.001 42.8975 69.5851 42.9613 69.6249 42.9613C69.7445 42.9613 69.8402 42.8696 69.8442 42.754C69.8442 42.6344 69.7565 42.5387 69.6369 42.5347C69.5053 42.5347 67.185 42.4909 64.5139 43.4756C66.9219 41.6616 69.8601 39.0981 70.805 36.6702C70.8528 36.5466 70.9007 36.419 70.9445 36.2914C71.1877 35.8011 71.5665 35.4941 72.013 35.4303C72.3798 35.3745 72.7386 35.4941 72.9738 35.7492C73.205 36.0004 73.3167 36.3632 73.2808 36.742C73.2449 37.0928 73.0894 37.4038 72.8462 37.6031C72.8223 37.623 72.7944 37.643 72.7705 37.6629C72.6828 37.7347 72.6668 37.8662 72.7346 37.9579C72.8064 38.0496 72.9339 38.0695 73.0296 38.0018C73.0575 37.9818 73.0814 37.9619 73.1094 37.942C73.6516 37.5513 74.4609 37.5632 74.9871 37.9818C75.3579 38.2769 75.6051 38.7513 75.6848 39.3214C75.8642 40.5812 75.1825 41.9566 73.9506 42.8257V42.8297Z" fill="#3D6059"/>
</g>
</svg>
