<svg width="15.000000" height="15.000000" viewBox="0 0 15 15" fill="none" xmlns="http://www.w3.org/2000/svg" xmlns:xlink="http://www.w3.org/1999/xlink">
	<path d="M14.1689 0L0.831055 0C0.611328 0.00164795 0.400879 0.0897522 0.245117 0.24527C0.0898438 0.400818 0.00146484 0.611298 0 0.831238L0 14.1688C0.00146484 14.3887 0.0898438 14.5992 0.245117 14.7547C0.400879 14.9102 0.611328 14.9984 0.831055 15L8.0127 15L8.0127 9.20001L6.0625 9.20001L6.0625 6.93124L8.0127 6.93124L8.0127 5.26251C8.0127 3.32501 9.19385 2.26874 10.9312 2.26874C11.5127 2.26874 12.0938 2.26874 12.6748 2.35626L12.6748 4.375L11.4814 4.375C10.5376 4.375 10.3564 4.82501 10.3564 5.48126L10.3564 6.92499L12.6064 6.92499L12.3125 9.19376L10.3564 9.19376L10.3564 15L14.1689 15C14.3887 14.9984 14.5991 14.9102 14.7549 14.7547C14.9102 14.5992 14.9985 14.3887 15 14.1688L15 0.831238C14.9985 0.611298 14.9102 0.400818 14.7549 0.24527C14.5991 0.0897522 14.3887 0.00164795 14.1689 0Z" fill="#525252" fill-opacity="1.000000" fill-rule="nonzero"/>
</svg>
