<svg width="181.566895" height="48.141785" viewBox="0 0 181.567 48.1418" fill="none" xmlns="http://www.w3.org/2000/svg" xmlns:xlink="http://www.w3.org/1999/xlink">
	<desc>
			Created with Pixso.
	</desc>
	<defs/>
	<path id="Path 63" d="M61.2002 18.009L61.2002 18.332C61.1821 18.4793 61.146 18.6237 61.0923 18.762L60.5542 20.053C60.3018 20.775 59.958 21.4618 59.5322 22.097C59.1206 22.6439 58.5864 23.0861 57.9722 23.388C57.3325 23.8058 56.5854 24.0298 55.8213 24.033C55.3188 24.0412 54.8213 23.9309 54.3691 23.711L53.4551 23.227C53.3477 23.227 53.2407 23.478 53.1333 23.98L52.6494 25.54L52.1113 27.0991C51.6616 28.1836 51.0444 29.1909 50.2822 30.084C50.0244 30.4548 49.689 30.7646 49.2988 30.9921C48.9087 31.2197 48.4736 31.3592 48.0244 31.4011C47.8252 31.4106 47.626 31.3927 47.4321 31.348C46.7983 31.2546 46.2095 30.9662 45.7471 30.5229C45.2847 30.0795 44.9712 29.5033 44.8511 28.874L44.6895 28.0671C44.5806 27.6702 44.4175 27.2903 44.2051 26.938L42.645 30.165C42.4092 30.6525 42.0098 31.0418 41.5161 31.2651C40.9146 31.487 40.2749 31.5889 39.6343 31.565C39.0962 31.5675 38.5747 31.3799 38.1611 31.0355C37.748 30.691 37.4697 30.2117 37.375 29.6821C36.7935 27.4706 36.5039 25.1926 36.5142 22.9061C36.5342 21.5935 36.624 20.283 36.7832 18.98C36.7114 19.0161 36.5498 19.1057 36.2993 19.249C31.8838 21.3846 27.0591 22.5407 22.1553 22.638C18.9385 22.6119 15.7285 22.9364 12.582 23.606C10.9678 23.9763 9.39209 24.4983 7.87646 25.165C6.55176 25.7622 5.32715 26.5602 4.24609 27.5311C3.2041 28.4161 2.35889 29.5101 1.76611 30.7422C1.17334 31.9744 0.845703 33.3173 0.804199 34.684C0.738281 35.5161 0.946289 36.347 1.396 37.05C1.42773 37.0767 1.45361 37.1096 1.47217 37.1465C1.49072 37.1835 1.50146 37.2238 1.50439 37.2651C1.50439 37.3724 1.42334 37.453 1.26221 37.507C1.19482 37.5348 1.12109 37.5419 1.0498 37.5275C0.978516 37.5131 0.913086 37.4777 0.862305 37.426C0.664551 37.2687 0.507812 37.066 0.405273 36.835C0.279785 36.5024 0.179199 36.1608 0.105469 35.813L0 34.471C-0.0102539 33.0782 0.342285 31.7065 1.02246 30.491C2.11621 28.3964 3.79834 26.6672 5.8623 25.5161C7.92188 24.4047 10.1318 23.5986 12.4233 23.123C14.4619 22.7014 16.5293 22.4316 18.6084 22.316C19.9351 22.2087 20.8682 22.137 21.4082 22.101L24.2583 21.94C28.4761 21.5854 32.585 20.4165 36.3584 18.498C36.5625 18.3835 36.7603 18.2576 36.9502 18.121L37 18.009C37.0918 17.796 37.2407 17.6127 37.4307 17.4797C37.6206 17.3467 37.8438 17.2692 38.0752 17.256C38.7559 17.256 39.1143 17.6503 39.1504 18.439L39.311 20.644L39.4194 22.5261L39.6343 25.161C39.6343 25.0537 39.6704 25.5377 39.7422 26.613C39.7744 27.8412 40.1069 29.0428 40.7104 30.113C41.71 28.6557 42.6348 27.1481 43.4805 25.596C43.9458 24.6347 44.2285 23.5949 44.313 22.53C44.2368 21.9057 44.3901 21.2748 44.7441 20.7551C44.8721 20.6338 45.0254 20.542 45.1924 20.4862C45.3599 20.4304 45.5371 20.4119 45.7124 20.4321C46.5361 20.4321 47.02 21.149 47.1641 22.5831C47.2817 24.1339 47.4795 25.6776 47.7563 27.2081L47.917 28.499C47.9292 28.7831 47.9834 29.0639 48.0781 29.332C48.1172 29.4155 48.1772 29.4872 48.2529 29.54C48.3281 29.5927 48.4165 29.6244 48.5083 29.632L48.562 29.632C48.6738 29.6298 48.7842 29.6048 48.8857 29.5585C48.9878 29.5123 49.0791 29.4458 49.1543 29.363L49.4761 28.987C49.9067 28.4137 50.3193 27.8044 50.7134 27.159C50.8218 27.0285 50.9121 26.8839 50.9824 26.7291L51.1431 26.406C51.3584 25.8687 51.5825 25.277 51.8154 24.631C52.0479 23.985 52.2363 23.3934 52.3804 22.856C52.4292 22.7559 52.4478 22.6436 52.4331 22.533C52.3784 22.2557 52.2256 22.0073 52.0034 21.8331C51.3696 21.074 50.8936 20.1962 50.603 19.251C50.2769 18.2252 50.1138 17.1545 50.1191 16.0781C50.064 14.5718 50.4375 13.0809 51.1953 11.778C51.4277 11.4028 51.7285 11.0745 52.082 10.81C52.3818 10.5738 52.75 10.4418 53.1313 10.434C53.3135 10.4548 53.4932 10.4909 53.6694 10.5421C54.1084 10.7093 54.4814 11.0137 54.7339 11.41C54.9858 11.8064 55.1035 12.2735 55.0693 12.742C55.1675 15.0584 54.9316 17.3768 54.3691 19.626L53.7773 22.315C54.3291 22.7959 55.0352 23.063 55.7671 23.0681C56.4048 23.0724 57.0322 22.9112 57.5884 22.6C58.1445 22.2888 58.6104 21.8384 58.9404 21.293C59.0474 21.1137 59.334 20.4684 59.8003 19.357L60.2305 18.335C60.2715 18.203 60.3608 18.0912 60.4805 18.0217C60.5996 17.9521 60.7412 17.9297 60.8765 17.959L61.2002 18.009ZM53.9932 15.858L54.1011 14.137C54.1147 13.4672 54.0425 12.7985 53.8862 12.147C53.7427 11.609 53.5098 11.322 53.186 11.2861L53.0791 11.2861C52.7563 11.2861 52.5054 11.501 52.3262 11.931C51.7261 13.364 51.3979 14.8961 51.3584 16.449C51.3711 18.1434 51.856 19.8007 52.7583 21.235C53.397 19.5039 53.812 17.6983 53.9932 15.862L53.9932 15.858Z" fill="#0D3830" fill-opacity="1.000000" fill-rule="nonzero"/>
	<path id="Path 64" d="M59.0483 30.679C58.3335 29.9444 57.8965 28.9843 57.811 27.963L57.7031 26.027C57.6963 24.6387 57.9146 23.2585 58.3491 21.9401C58.8433 20.5184 59.5112 19.1634 60.3384 17.9061C60.7412 17.2577 61.3042 16.7239 61.9727 16.3561C62.6416 15.9883 63.394 15.7989 64.1572 15.806C64.7607 15.7689 65.3564 15.9611 65.8242 16.3441C66.0259 16.5374 66.1831 16.7721 66.2856 17.0321C66.3877 17.2921 66.4321 17.5712 66.4165 17.85C66.4253 18.0489 66.4072 18.2481 66.3623 18.442C65.9902 20.4044 65.0557 22.2165 63.6733 23.658C63.1934 24.3824 62.5933 25.0193 61.8984 25.541C61.5151 25.7659 61.1987 26.0886 60.9814 26.4761C60.7642 26.8636 60.6533 27.3018 60.6611 27.746C60.6611 29.2513 61.1279 30.0044 62.061 30.0051C62.6943 29.9917 63.3179 29.8448 63.8901 29.574C64.4785 29.327 65.0093 28.9609 65.4492 28.499C66.084 27.7473 66.6177 26.9155 67.0361 26.025C67.4131 25.201 67.8882 23.9464 68.4614 22.261L69.1611 20.3781C69.5552 19.3387 69.8242 18.6573 69.9683 18.334C69.999 18.2283 70.062 18.1349 70.1489 18.0673C70.2363 17.9998 70.3423 17.9615 70.4521 17.9581C70.5776 17.9526 70.7012 17.9907 70.8013 18.066C70.8433 18.0971 70.8774 18.1377 70.9009 18.1844C70.9243 18.2311 70.9365 18.2827 70.936 18.335C70.9185 18.4823 70.8818 18.6267 70.8281 18.765C69.2505 22.745 68.2642 25.219 67.8701 26.187C67.4658 27.1646 66.9707 28.1021 66.3911 28.9871C65.8784 29.6611 65.2725 30.2588 64.5913 30.762C63.7739 31.3466 62.7964 31.6657 61.7915 31.676C61.2905 31.7012 60.79 31.626 60.3188 31.4548C59.8481 31.2836 59.416 31.0198 59.0483 30.679ZM65.2324 19.4661C65.3926 19.0931 65.4663 18.6885 65.4473 18.283C65.457 17.9584 65.4302 17.6337 65.3672 17.3151C65.3071 17.0896 65.1865 16.8849 65.0181 16.723C64.8018 16.5565 64.5381 16.4624 64.2651 16.454C64.0405 16.4563 63.8198 16.5114 63.6201 16.6151C63.3789 16.7145 63.1597 16.8609 62.9751 17.0456C62.7905 17.2302 62.6445 17.4496 62.5454 17.691C61.6235 20.1771 60.9746 22.7559 60.6094 25.382C62.668 23.8757 64.2681 21.8278 65.2324 19.4661Z" fill="#0D3830" fill-opacity="1.000000" fill-rule="nonzero"/>
	<path id="Path 65" d="M77.415 30.733C76.832 30.2079 76.4121 29.5266 76.2051 28.77L75.936 27.21C75.8594 26.5767 75.6382 25.9694 75.29 25.435L73.1387 28.769C72.9268 29.2177 72.5918 29.5971 72.1733 29.8636C71.7549 30.1301 71.269 30.2726 70.7729 30.275C70.1416 30.2671 69.5327 30.039 69.0518 29.63C68.4927 29.1634 68.1128 28.5173 67.9771 27.802C67.8477 26.9652 67.7759 26.1206 67.7617 25.274C67.7568 24.3499 67.8652 23.4286 68.085 22.531C68.5688 20.792 69.3911 19.1655 70.5049 17.745C70.8511 17.3119 71.3198 16.9933 71.8501 16.831C72.5547 16.6707 73.2798 16.6165 74.001 16.67L74.7007 16.723C74.8228 16.7394 74.9463 16.7232 75.0601 16.6759C75.1733 16.6286 75.272 16.5521 75.3457 16.454C75.5376 16.09 75.6304 15.6821 75.6147 15.271C75.9727 12.439 76.3062 10.252 76.6147 8.71002C76.9194 7.16827 77.3608 5.65668 77.9331 4.19299C78.2617 3.04376 78.8506 1.98547 79.6538 1.10004C79.9351 0.771973 80.2803 0.505127 80.6689 0.315979C81.0571 0.12677 81.4805 0.0192261 81.9121 0C82.3672 0.00720215 82.8164 0.109375 83.23 0.299988C83.666 0.483215 84.021 0.817749 84.23 1.242C84.6304 2.17468 84.8145 3.18604 84.7681 4.20001C84.7612 5.67731 84.5347 7.14539 84.0957 8.55597C83.5703 10.2094 82.8955 11.8113 82.0791 13.342C81.5659 14.5208 80.9546 15.6541 80.251 16.73C79.915 17.2753 79.5181 17.7805 79.0679 18.236C78.8696 18.3922 78.7285 18.61 78.668 18.855C78.6045 19.2006 78.5771 19.5518 78.5869 19.903C78.4819 22.7472 78.6621 25.5947 79.125 28.403C79.3755 29.515 79.7163 30.0707 80.147 30.07C80.4243 30.0154 80.6729 29.8628 80.8467 29.64C81.5562 28.6957 82.1597 27.6766 82.647 26.601C83.166 25.4717 83.7847 23.921 84.502 21.949L84.771 21.196L85.0928 20.389C85.4878 19.3497 85.7563 18.6683 85.8999 18.345C85.9307 18.2392 85.9937 18.1459 86.0806 18.0783C86.168 18.0107 86.2739 17.9725 86.3838 17.969C86.5098 17.9636 86.6333 18.0017 86.7339 18.077C86.7759 18.1082 86.8096 18.1487 86.833 18.1955C86.8564 18.2422 86.8682 18.2938 86.8677 18.346C86.8506 18.4933 86.814 18.6379 86.7598 18.776C85.1821 22.756 84.1958 25.23 83.8018 26.198L82.6187 28.511L81.812 30.07C81.5967 30.5278 81.2539 30.9136 80.8247 31.1808C80.395 31.4481 79.8975 31.5854 79.3921 31.576C78.6592 31.5162 77.9653 31.2204 77.415 30.733ZM75.3979 20.488L75.3447 19.628C75.3511 19.1599 75.269 18.6948 75.103 18.257C75.0527 18.0867 74.9673 17.9289 74.8511 17.7944C74.7354 17.6599 74.5918 17.5517 74.4307 17.477C74.2925 17.4312 74.1465 17.4128 74.001 17.423C73.7705 17.4145 73.5425 17.4673 73.3394 17.5761C73.1362 17.6849 72.9653 17.8456 72.8447 18.042C72.4902 18.6302 72.1929 19.2515 71.958 19.897C71.7642 20.3696 71.6025 20.8547 71.4741 21.349C71.1499 22.5409 70.9863 23.7708 70.9888 25.006C71.0127 26.0504 71.103 27.0921 71.2588 28.125C74.0176 26.0096 75.3975 23.464 75.3979 20.488ZM80.3457 14.519C80.7041 13.873 81.3311 12.673 82.228 10.919C83.2236 8.87933 83.7046 6.62659 83.6279 4.35797C83.6343 3.72809 83.5894 3.09869 83.4937 2.47601C83.4224 1.9776 83.2075 1.51074 82.876 1.13202C82.6885 0.898621 82.4194 0.744934 82.123 0.701965C81.8076 0.733215 81.5176 0.887817 81.3159 1.13202C80.7705 1.79492 80.417 2.59448 80.2939 3.44403C79.5713 7.7677 79.1221 12.1327 78.9497 16.513C79.4775 15.894 79.9453 15.226 80.3457 14.518L80.3457 14.519Z" fill="#0D3830" fill-opacity="1.000000" fill-rule="nonzero"/>
	<path id="Path 66" d="M93.333 30.733C92.7505 30.2075 92.3311 29.5264 92.123 28.77L91.854 27.21C91.7773 26.5768 91.5566 25.9695 91.209 25.435L89.0581 28.769C88.8457 29.2177 88.5107 29.5972 88.0918 29.8637C87.6729 30.1301 87.1875 30.2727 86.6909 30.275C86.0596 30.2671 85.4507 30.039 84.9697 29.63C84.4106 29.1636 84.0303 28.5175 83.894 27.802C83.7646 26.9652 83.6929 26.1206 83.6787 25.274C83.6733 24.3499 83.7817 23.4287 84.001 22.531C84.4849 20.7919 85.3076 19.1655 86.4219 17.745C86.7676 17.3118 87.2358 16.9932 87.7661 16.831C88.4707 16.6707 89.1958 16.6165 89.917 16.67L90.6167 16.723C90.7388 16.7395 90.8623 16.7233 90.9761 16.6761C91.0894 16.6288 91.188 16.5521 91.2617 16.454C91.4536 16.09 91.5464 15.6821 91.5308 15.271C91.8887 12.439 92.2207 10.252 92.5259 8.71002C92.8306 7.16833 93.272 5.65668 93.8438 4.19299C94.1733 3.04382 94.7622 1.98566 95.5649 1.10004C95.8462 0.771851 96.1919 0.504944 96.5806 0.315735C96.9688 0.126587 97.3921 0.019104 97.8237 0C98.2793 0.00720215 98.728 0.109375 99.1421 0.299988C99.5757 0.484436 99.9287 0.818787 100.136 1.242C100.537 2.17456 100.721 3.18597 100.674 4.20001C100.667 5.67731 100.441 7.14539 100.002 8.55597C99.4766 10.2094 98.8013 11.8113 97.9849 13.342C97.4722 14.5208 96.8604 15.6542 96.1567 16.73C95.8208 17.2753 95.4243 17.7805 94.9741 18.236C94.7759 18.3923 94.6348 18.61 94.5737 18.855C94.5112 19.2006 94.4844 19.5519 94.4941 19.903C94.3887 22.7472 94.5688 25.5948 95.0317 28.403C95.2827 29.515 95.623 30.0707 96.0537 30.07C96.3315 30.0154 96.5796 29.8628 96.7539 29.64C97.4629 28.6957 98.0664 27.6766 98.5537 26.601C99.0732 25.4717 99.6919 23.921 100.41 21.949L100.679 21.196L101.002 20.389C101.395 19.3497 101.664 18.6683 101.808 18.345C101.839 18.2393 101.902 18.146 101.989 18.0785C102.076 18.011 102.182 17.9727 102.292 17.969C102.417 17.9633 102.542 18.0015 102.642 18.077C102.684 18.1081 102.718 18.1486 102.742 18.1954C102.765 18.2421 102.777 18.2937 102.777 18.346C102.759 18.4932 102.723 18.6377 102.67 18.776C101.092 22.756 100.106 25.23 99.7119 26.198L98.5288 28.511L97.7217 30.07C97.5059 30.5268 97.1616 30.9112 96.7319 31.1768C96.3018 31.4424 95.8042 31.578 95.2988 31.567C94.5713 31.507 93.8818 31.2147 93.333 30.733ZM91.3169 20.488L91.2627 19.628C91.269 19.1599 91.187 18.6948 91.021 18.257C90.9707 18.0865 90.8848 17.9287 90.7686 17.7942C90.6528 17.6597 90.5093 17.5515 90.3481 17.477C90.2095 17.4311 90.0635 17.4128 89.918 17.423C89.6875 17.4145 89.4595 17.4673 89.2563 17.5761C89.0532 17.6849 88.8823 17.8456 88.7617 18.042C88.4067 18.6303 88.1094 19.2515 87.874 19.897C87.6802 20.3696 87.5186 20.8547 87.3901 21.349C87.0659 22.5409 86.9033 23.7709 86.9058 25.006C86.9297 26.0503 87.0195 27.092 87.1748 28.125C89.9355 26.0096 91.3159 23.464 91.3159 20.488L91.3169 20.488ZM96.2637 14.519C96.6221 13.873 97.2495 12.673 98.147 10.919C99.1426 8.87927 99.6235 6.62653 99.5469 4.35797C99.5532 3.72809 99.5083 3.09869 99.4131 2.47601C99.3413 1.9776 99.1265 1.51074 98.7949 1.13202C98.6074 0.89856 98.3384 0.744873 98.042 0.701965C97.7266 0.733215 97.4365 0.887817 97.2349 1.13202C96.689 1.79468 96.3354 2.59436 96.2129 3.44403C95.4897 7.76764 95.041 12.1327 94.8691 16.513C95.3965 15.8941 95.8638 15.2261 96.2637 14.518L96.2637 14.519Z" fill="#0D3830" fill-opacity="1.000000" fill-rule="nonzero"/>
	<path id="Path 67" d="M100.782 29.522C100.545 28.9784 100.417 28.3937 100.406 27.801L100.352 25.65L100.352 24.413C100.317 22.3586 100.479 20.3055 100.836 18.282L101.213 16.561C101.355 15.9517 101.804 15.6647 102.557 15.7C102.707 15.6889 102.858 15.7122 102.998 15.7679C103.137 15.8237 103.263 15.9106 103.364 16.022C103.457 16.1433 103.523 16.2822 103.561 16.4303C103.597 16.5784 103.604 16.7324 103.579 16.883L103.149 24.789L103.041 27.589C103.001 28.0654 103.028 28.545 103.121 29.014C103.228 29.4671 103.419 29.896 103.686 30.278C103.901 30.278 104.135 30.063 104.386 29.633C105.095 28.6888 105.699 27.6697 106.186 26.594C106.705 25.4647 107.324 23.914 108.042 21.942L108.311 21.189L108.634 20.382C109.028 19.3427 109.297 18.6613 109.441 18.338C109.472 18.2322 109.535 18.1389 109.622 18.0713C109.708 18.0037 109.815 17.9655 109.925 17.962C110.051 17.9563 110.174 17.9944 110.275 18.07C110.317 18.1012 110.351 18.1418 110.374 18.1885C110.397 18.2352 110.409 18.2868 110.409 18.339C110.391 18.4863 110.355 18.6308 110.301 18.769C108.723 22.749 107.737 25.223 107.343 26.191L106.16 28.504L105.353 30.063C105.138 30.5209 104.795 30.9068 104.366 31.1741C103.936 31.4413 103.438 31.5784 102.933 31.569C102.424 31.4514 101.956 31.1995 101.578 30.8394C101.199 30.4794 100.924 30.0244 100.782 29.522ZM102.182 12.178C102.042 12.0657 101.93 11.9221 101.855 11.7587C101.78 11.5953 101.745 11.4166 101.752 11.237C101.751 11.0622 101.789 10.8894 101.863 10.7313C101.938 10.5731 102.046 10.4336 102.182 10.323C102.481 10.0674 102.865 9.93286 103.258 9.94598C103.426 9.93567 103.595 9.96149 103.752 10.0217C103.91 10.0818 104.053 10.175 104.172 10.295C104.391 10.5379 104.506 10.8563 104.495 11.183C104.503 11.517 104.389 11.8425 104.172 12.097C104.064 12.2222 103.932 12.3246 103.785 12.3985C103.637 12.4723 103.476 12.516 103.311 12.527C102.904 12.5472 102.503 12.4236 102.179 12.178L102.182 12.178Z" fill="#0D3830" fill-opacity="1.000000" fill-rule="nonzero"/>
	<path id="Path 68" d="M118.045 29.765C117.589 28.3516 117.425 26.8607 117.561 25.382C117.74 23.4487 117.848 21.5126 117.884 19.574L117.938 18.767C117.938 17.9063 117.705 17.4047 117.238 17.262C117.135 17.2205 117.025 17.2021 116.915 17.2079C116.52 17.2079 116.125 17.495 115.732 18.069L115.248 18.6609C113.588 20.7646 112.512 23.2688 112.129 25.921C112.081 26.1511 112.063 26.3863 112.075 26.621C112.082 27.1626 112.136 27.7026 112.236 28.235C112.307 28.8803 112.343 29.2927 112.343 29.472L112.397 30.225C112.408 30.3752 112.385 30.526 112.329 30.6658C112.273 30.8057 112.186 30.931 112.074 31.032C111.738 31.2443 111.341 31.339 110.945 31.301C110.735 31.3185 110.524 31.2928 110.325 31.2255C110.125 31.1583 109.941 31.0507 109.785 30.9097C109.629 30.7686 109.503 30.597 109.416 30.4055C109.329 30.2139 109.282 30.0065 109.278 29.796C109.026 27.9293 108.847 26.4143 108.74 25.251C108.633 24.116 108.597 22.9755 108.632 21.836L108.793 18.936C108.785 18.673 108.871 18.4157 109.035 18.21C109.204 18.0092 109.445 17.8837 109.707 17.861L109.976 17.861C110.232 17.8568 110.484 17.9321 110.695 18.0766C110.907 18.2211 111.069 18.4277 111.159 18.668C111.464 19.5121 111.61 20.4056 111.589 21.303L111.697 22.97L112.288 21.895C112.933 20.819 113.328 20.119 113.471 19.795C114.871 17.5723 116.18 16.461 117.397 16.461C117.924 16.4877 118.431 16.6781 118.845 17.0057C119.259 17.3333 119.561 17.7819 119.709 18.289C119.993 18.9978 120.192 19.738 120.301 20.494C120.408 21.2466 120.516 22.3403 120.624 23.775C120.695 25.281 120.731 26.751 120.732 28.185C120.732 29.333 120.911 29.9066 121.27 29.9059C121.46 29.8823 121.633 29.7859 121.754 29.637C122.463 28.6927 123.066 27.6736 123.554 26.598C124.073 25.4687 124.692 23.918 125.41 21.946L125.679 21.193L126.002 20.386C126.396 19.3467 126.665 18.6653 126.809 18.342C126.839 18.2362 126.903 18.1428 126.99 18.0753C127.077 18.0078 127.183 17.9695 127.293 17.966C127.418 17.9606 127.542 17.9987 127.642 18.074C127.684 18.105 127.718 18.1456 127.742 18.1923C127.765 18.2391 127.777 18.2907 127.777 18.343C127.759 18.4903 127.723 18.6348 127.669 18.773C126.091 22.753 125.105 25.227 124.711 26.195L123.528 28.508L122.721 30.067C122.523 30.5046 122.207 30.8779 121.808 31.1442C121.408 31.4106 120.942 31.5591 120.462 31.573C119.914 31.5917 119.375 31.4228 118.936 31.0941C118.496 30.7653 118.182 30.2964 118.045 29.765Z" fill="#0D3830" fill-opacity="1.000000" fill-rule="nonzero"/>
	<path id="Path 69" d="M130.011 47.19C129.499 46.6088 129.171 45.8876 129.07 45.119C128.915 44.2305 128.825 43.3317 128.8 42.43C128.803 40.0909 129.415 37.7927 130.575 35.762C131.55 33.8528 132.82 32.1102 134.34 30.5989C134.587 30.3916 134.79 30.1376 134.938 29.8515C135.085 29.5654 135.175 29.2529 135.201 28.9319C135.128 26.9987 135.093 24.8293 135.093 22.424C135.018 22.4333 134.941 22.4144 134.878 22.371C134.797 22.3239 134.703 22.3049 134.609 22.317C134.02 23.3558 133.374 24.3613 132.673 25.329L131.544 26.943C131.337 27.2834 131.103 27.6071 130.844 27.9109C130.535 28.3452 130.132 28.7053 129.667 28.9655C129.201 29.2256 128.684 29.3795 128.151 29.416L127.398 29.308C126.733 29.1541 126.133 28.797 125.68 28.2863C125.227 27.7756 124.944 27.1366 124.871 26.4579C124.764 25.8182 124.71 25.1707 124.71 24.522C124.693 22.5738 125.254 20.6643 126.324 19.0359C126.774 18.2972 127.415 17.6934 128.179 17.288C128.948 16.8765 129.808 16.664 130.679 16.67C131.728 16.6624 132.756 16.9613 133.637 17.53C133.995 17.7453 134.462 18.068 135.037 18.498C135.177 18.4124 135.294 18.2944 135.378 18.1539C135.462 18.0133 135.512 17.8546 135.521 17.691C135.556 17.512 135.629 17.243 135.736 16.884C135.937 16.6292 136.224 16.457 136.543 16.4C136.641 16.3884 136.739 16.3981 136.832 16.4285C136.925 16.4588 137.01 16.509 137.082 16.5756C137.154 16.6422 137.21 16.7236 137.247 16.8141C137.284 16.9047 137.301 17.0023 137.296 17.1C137.6 19.0752 137.744 21.0717 137.728 23.07C137.728 24.218 137.745 25.0607 137.78 25.598L137.834 27.749C138.427 27.541 138.988 27.2512 139.501 26.888C144.52 24.138 150.088 22.5397 155.801 22.209C159.629 21.983 163.428 21.4069 167.151 20.488C169.121 19.9321 171.038 19.2032 172.879 18.31C174.379 17.5566 175.735 16.5464 176.886 15.325C179.126 13.2268 180.441 10.3253 180.543 7.258C180.562 6.54633 180.508 5.83472 180.382 5.13397C180.269 4.64062 180.028 4.18591 179.682 3.81598C179.63 3.74811 179.597 3.66693 179.587 3.58148C179.578 3.49603 179.593 3.40967 179.629 3.33197C179.678 3.28076 179.736 3.23993 179.801 3.21204C179.866 3.18414 179.935 3.16974 180.006 3.16974C180.076 3.16974 180.146 3.18414 180.211 3.21204C180.276 3.23993 180.334 3.28076 180.382 3.33197C180.649 3.49091 180.864 3.72449 181 4.00397C181.165 4.41058 181.282 4.83466 181.349 5.26801C181.509 5.95618 181.581 6.66174 181.564 7.36798C181.571 8.84595 181.22 10.3036 180.542 11.617C179.417 14.1925 177.529 16.3608 175.132 17.829C172.709 19.2769 170.093 20.3725 167.361 21.0829C164.96 21.71 162.515 22.1595 160.047 22.428L158.325 22.589C155.745 22.8403 154.095 23.0197 153.377 23.127C148.364 23.7944 143.525 25.4195 139.125 27.914C139.089 27.914 139.036 27.967 138.964 28.075C138.624 28.3343 138.242 28.5345 137.835 28.667C137.833 29.3498 137.869 30.0322 137.943 30.711C138.086 32.8623 138.158 34.7446 138.158 36.358C138.191 38.9415 137.938 41.5208 137.405 44.049C137.13 45.1022 136.615 46.0775 135.9 46.899C135.522 47.3165 135.055 47.6442 134.534 47.8582C134.013 48.0722 133.451 48.1671 132.888 48.136C132.547 48.1483 132.205 48.1302 131.866 48.082C131.158 48.0297 130.495 47.711 130.011 47.19ZM134.395 20.757C134.468 20.6063 134.505 20.4406 134.502 20.273C134.502 19.9146 134.367 19.5693 134.125 19.305C133.76 18.7764 133.28 18.3374 132.722 18.0208C132.163 17.7042 131.54 17.5183 130.898 17.477C130.51 17.4991 130.136 17.6258 129.814 17.8435C129.492 18.0613 129.235 18.3621 129.07 18.714C128.167 20.2861 127.686 22.0643 127.67 23.877C127.683 25.2726 127.938 26.6556 128.423 27.964C130.888 25.998 132.921 23.5446 134.395 20.757ZM132.511 47.2709C132.813 47.2374 133.103 47.132 133.355 46.9636C133.608 46.7951 133.816 46.5686 133.963 46.303C134.428 45.5161 134.773 44.6639 134.985 43.775C135.307 41.8194 135.469 39.8408 135.469 37.8589C135.469 35.9576 135.344 33.7706 135.093 31.298C133.522 32.8448 132.222 34.645 131.248 36.623C130.403 38.4233 129.971 40.3895 129.983 42.378L130.037 43.4C130.077 44.4656 130.433 45.4952 131.06 46.358C131.22 46.6071 131.433 46.8179 131.684 46.9756C131.935 47.1334 132.217 47.2342 132.511 47.2709Z" fill="#0D3830" fill-opacity="1.000000" fill-rule="nonzero"/>
</svg>
