<svg width="20.000000" height="20.000000" viewBox="0 0 20 20" fill="none" xmlns="http://www.w3.org/2000/svg" xmlns:xlink="http://www.w3.org/1999/xlink">
	<g clip-path="url(#clip683_431)">
		<path id="Vector" d="M10 1.25C7.97119 1.26382 6.01074 1.98209 4.45312 3.28189C2.89551 4.58173 1.83838 6.38235 1.46143 8.37573C1.08496 10.3691 1.41309 12.4314 2.38916 14.2098C3.36523 15.9882 4.92871 17.3722 6.8125 18.125C6.68604 17.2965 6.68604 16.4535 6.8125 15.625L7.84375 11.25C7.68066 10.8538 7.59961 10.4285 7.60645 10C7.60645 8.78751 8.3125 7.875 9.1875 7.875C9.34619 7.87262 9.50293 7.90451 9.64844 7.96854C9.79346 8.03253 9.92285 8.12714 10.0278 8.24588C10.1328 8.36459 10.2109 8.50461 10.2568 8.65634C10.3027 8.80807 10.3154 8.96796 10.2939 9.125C10.2939 9.875 9.81885 11 9.56885 12.0375C9.51514 12.231 9.5083 12.4346 9.55029 12.6311C9.5918 12.8275 9.68018 13.0111 9.80762 13.1663C9.93506 13.3214 10.0981 13.4435 10.2827 13.5223C10.4673 13.601 10.6685 13.6341 10.8687 13.6187C12.4189 13.6187 13.6187 11.975 13.6187 9.61249C13.6343 9.13242 13.5498 8.65439 13.3701 8.20883C13.1909 7.76331 12.9204 7.36008 12.5762 7.02487C12.2324 6.6897 11.8223 6.42987 11.3721 6.26202C10.9219 6.09415 10.4419 6.02194 9.9624 6.04999C9.45068 6.02802 8.93945 6.11014 8.45996 6.29138C7.98096 6.47266 7.54346 6.74927 7.17432 7.10452C6.80469 7.45978 6.51172 7.88626 6.31201 8.35815C6.1123 8.83008 6.01025 9.33759 6.0127 9.85001C6.00537 10.5638 6.22412 11.2616 6.6377 11.8438C6.66748 11.8771 6.68896 11.9174 6.69971 11.961C6.71094 12.0045 6.71094 12.0501 6.7002 12.0938C6.63135 12.3687 6.48145 12.9688 6.45605 13.0875C6.43115 13.2062 6.3252 13.2812 6.1626 13.2062C5.06885 12.6938 4.3877 11.1 4.3877 9.8125C4.3877 7.05624 6.39355 4.51874 10.1689 4.51874C13.2002 4.51874 15.5625 6.68124 15.5625 9.57501C15.5625 12.5875 13.6875 15.0125 11.0186 15.0125C10.6274 15.0261 10.2393 14.9418 9.88867 14.7671C9.53857 14.5925 9.2373 14.3331 9.0127 14.0125L8.46875 16.0938C8.20801 16.9026 7.84229 17.6737 7.38135 18.3875C8.23096 18.6387 9.11377 18.7609 10 18.75C12.3208 18.75 14.5464 17.8281 16.187 16.1872C17.8281 14.5462 18.75 12.3206 18.75 10C18.75 7.67935 17.8281 5.45377 16.187 3.81281C14.5464 2.17188 12.3208 1.25 10 1.25Z" fill="#525252" fill-opacity="1.000000" fill-rule="nonzero"/>
		<path id="Vector" d="M10 1.25C7.97119 1.26382 6.01074 1.98209 4.45312 3.28189C2.89551 4.58173 1.83838 6.38235 1.46143 8.37573C1.08496 10.3691 1.41309 12.4314 2.38916 14.2098C3.36523 15.9882 4.92871 17.3722 6.8125 18.125C6.68604 17.2965 6.68604 16.4535 6.8125 15.625L7.84375 11.25C7.68066 10.8538 7.59961 10.4285 7.60645 10C7.60645 8.78751 8.3125 7.875 9.1875 7.875C9.34619 7.87262 9.50293 7.90451 9.64844 7.96854C9.79346 8.03253 9.92285 8.12714 10.0278 8.24588C10.1328 8.36459 10.2109 8.50461 10.2568 8.65634C10.3027 8.80807 10.3154 8.96796 10.2939 9.125C10.2939 9.875 9.81885 11 9.56885 12.0375C9.51514 12.231 9.5083 12.4346 9.55029 12.6311C9.5918 12.8275 9.68018 13.0111 9.80762 13.1663C9.93506 13.3214 10.0981 13.4435 10.2827 13.5223C10.4673 13.601 10.6685 13.6341 10.8687 13.6187C12.4189 13.6187 13.6187 11.975 13.6187 9.61249C13.6343 9.13242 13.5498 8.65439 13.3701 8.20883C13.1909 7.76331 12.9204 7.36008 12.5762 7.02487C12.2324 6.6897 11.8223 6.42987 11.3721 6.26202C10.9219 6.09415 10.4419 6.02194 9.9624 6.04999C9.45068 6.02802 8.93945 6.11014 8.45996 6.29138C7.98096 6.47266 7.54346 6.74927 7.17432 7.10452C6.80469 7.45978 6.51172 7.88626 6.31201 8.35815C6.1123 8.83008 6.01025 9.33759 6.0127 9.85001C6.00537 10.5638 6.22412 11.2616 6.6377 11.8438C6.66748 11.8771 6.68896 11.9174 6.69971 11.961C6.71094 12.0045 6.71094 12.0501 6.7002 12.0938C6.63135 12.3687 6.48145 12.9688 6.45605 13.0875C6.43115 13.2062 6.3252 13.2812 6.1626 13.2062C5.06885 12.6938 4.3877 11.1 4.3877 9.8125C4.3877 7.05624 6.39355 4.51874 10.1689 4.51874C13.2002 4.51874 15.5625 6.68124 15.5625 9.57501C15.5625 12.5875 13.6875 15.0125 11.0186 15.0125C10.6274 15.0261 10.2393 14.9418 9.88867 14.7671C9.53857 14.5925 9.2373 14.3331 9.0127 14.0125L8.46875 16.0938C8.20801 16.9026 7.84229 17.6737 7.38135 18.3875C8.23096 18.6387 9.11377 18.7609 10 18.75C12.3208 18.75 14.5464 17.8281 16.187 16.1872C17.8281 14.5462 18.75 12.3206 18.75 10C18.75 7.67935 17.8281 5.45377 16.187 3.81281C14.5464 2.17188 12.3208 1.25 10 1.25Z" fill="#000000" fill-opacity="0.800000" fill-rule="nonzero"/>
	</g>
</svg>
