<svg width="52" height="57" viewBox="0 0 52 57" fill="none" xmlns="http://www.w3.org/2000/svg">
<path d="M49.2683 37.9215L27.3558 29.6427L49.2683 21.3639C51.7127 20.4405 52.7361 17.6199 51.4269 15.4108C50.1177 13.2038 47.0912 12.6486 45.0424 14.2399L26.5189 28.6288L26.4982 28.5L30.2331 4.78822C30.6309 2.26938 28.6236 0 26.001 0C23.3785 0 21.3712 2.26938 21.7689 4.78822L25.5039 28.502L25.4832 28.6308L6.95963 14.242C4.91089 12.6506 1.8844 13.2058 0.575203 15.4129C-0.733997 17.6199 0.289333 20.4425 2.73373 21.3659L24.6463 29.6447L2.73166 37.9215C0.287262 38.845 -0.736069 41.6656 0.573132 43.8726C1.88233 46.0796 4.90882 46.6349 6.95756 45.0435L25.1186 30.9364L21.7668 52.2118C21.3691 54.7306 23.3764 57 25.999 57C28.6215 57 30.6288 54.7306 30.2311 52.2118L26.8794 30.9364L45.0404 45.0435C47.0891 46.6349 50.1156 46.0796 51.4248 43.8726C52.7361 41.6656 51.7127 38.845 49.2683 37.9215Z" fill="#3D6059"/>
</svg>
