<svg width="18" height="18" viewBox="0 0 18 18" fill="none" xmlns="http://www.w3.org/2000/svg">
<path d="M14.7431 2.25002H3.25688C2.99516 2.24844 2.74323 2.34941 2.55503 2.5313C2.36684 2.71318 2.25735 2.96152 2.25 3.22314V14.7375C2.25591 14.9996 2.36495 15.2488 2.55346 15.431C2.74197 15.6132 2.99473 15.7137 3.25688 15.7106H14.7431C15.0053 15.7137 15.258 15.6132 15.4465 15.431C15.635 15.2488 15.7441 14.9996 15.75 14.7375V3.22314C15.7427 2.96152 15.6332 2.71318 15.445 2.5313C15.2568 2.34941 15.0048 2.24844 14.7431 2.25002ZM6.24937 13.7306H4.26938V7.31252H6.24937V13.7306ZM5.28188 6.41814C4.97788 6.41823 4.6859 6.29942 4.46832 6.08711C4.25075 5.87479 4.12484 5.5858 4.1175 5.28189C4.11199 5.1275 4.13835 4.97363 4.19491 4.82987C4.25148 4.68612 4.33705 4.55555 4.44629 4.44631C4.55553 4.33707 4.6861 4.2515 4.82986 4.19493C4.97362 4.13836 5.12749 4.11201 5.28188 4.11752C5.57597 4.138 5.85136 4.26927 6.05245 4.48485C6.25354 4.70043 6.36537 4.98427 6.36537 5.27908C6.36537 5.57389 6.25354 5.85773 6.05245 6.07331C5.85136 6.28889 5.57597 6.42016 5.28188 6.44064V6.41814ZM13.77 13.6913H11.8125V10.5525C11.8125 9.80439 11.8125 8.83127 10.7662 8.83127C9.72 8.83127 9.5625 9.65252 9.5625 10.4794V13.6575H7.56V7.31252H9.4275V8.15627H9.46688C9.65829 7.82384 9.9374 7.55044 10.2737 7.36592C10.61 7.1814 10.9905 7.09288 11.3737 7.11002C13.3931 7.11002 13.77 8.46002 13.77 10.1756V13.6913Z" fill="#5D7A74"/>
</svg>
