<svg width="18" height="18" viewBox="0 0 18 18" fill="none" xmlns="http://www.w3.org/2000/svg">
<path d="M16.3125 13.4213H15.1875C15.1875 13.5488 15.1623 13.6751 15.1133 13.7928C15.0643 13.9106 14.9926 14.0175 14.9021 14.1074C14.8117 14.1973 14.7044 14.2685 14.5863 14.3168C14.4683 14.365 14.3419 14.3895 14.2144 14.3888C13.5675 14.3888 13.1906 13.905 12.7631 13.2638C13.5953 12.6946 14.2757 11.9308 14.7453 11.0387C15.2149 10.1465 15.4594 9.15319 15.4575 8.14503C15.5081 4.10066 12.1669 1.45691 8.61188 1.45691C5.05688 1.45691 1.6875 4.14566 1.6875 8.08316C1.6875 12.0207 5.0625 14.715 8.53312 14.715C9.11881 14.7095 9.70056 14.6185 10.26 14.445C10.9069 15.6319 11.7169 16.5488 13.3313 16.5488C13.7426 16.5762 14.1549 16.5129 14.539 16.3633C14.9232 16.2137 15.2697 15.9815 15.5542 15.6831C15.8386 15.3847 16.054 15.0274 16.185 14.6366C16.3161 14.2457 16.3596 13.8308 16.3125 13.4213ZM11.7338 11.4807C11.4181 10.9326 10.9617 10.4789 10.4119 10.1663C9.86201 9.85384 9.23864 9.69393 8.60625 9.70316C7.85242 9.67765 7.11177 9.90539 6.5025 10.35L6.8625 11.25C7.01939 11.204 7.18298 11.1849 7.34625 11.1938C8.37 11.1938 9.03375 12.0544 9.66375 13.2413C9.3116 13.3223 8.95058 13.3582 8.58938 13.3482C6.10875 13.365 5.0625 11.5875 5.0625 8.13941C5.0625 4.69128 6.13687 2.90816 8.56687 2.90816C10.9969 2.90816 12.1219 4.68566 12.1219 8.13941C12.1496 9.2669 12.0131 10.3924 11.7169 11.4807H11.7338Z" fill="#5D7A74"/>
</svg>
