<svg width="18" height="18" viewBox="0 0 18 18" fill="none" xmlns="http://www.w3.org/2000/svg">
<path d="M15.0019 2.25H2.99812C2.80016 2.25147 2.61073 2.33076 2.47075 2.47075C2.33076 2.61073 2.25147 2.80016 2.25 2.99812V15.0019C2.25147 15.1998 2.33076 15.3893 2.47075 15.5293C2.61073 15.6692 2.80016 15.7485 2.99812 15.75H9.46125V10.53H7.70625V8.48812H9.46125V6.98625C9.46125 5.2425 10.5244 4.29188 12.0881 4.29188C12.6112 4.29188 13.1344 4.29187 13.6575 4.37063V6.1875H12.5831C11.7338 6.1875 11.5706 6.5925 11.5706 7.18313V8.4825H13.5956L13.3313 10.5244H11.5706V15.75H15.0019C15.1998 15.7485 15.3893 15.6692 15.5293 15.5293C15.6692 15.3893 15.7485 15.1998 15.75 15.0019V2.99812C15.7485 2.80016 15.6692 2.61073 15.5293 2.47075C15.3893 2.33076 15.1998 2.25147 15.0019 2.25Z" fill="#3D6059"/>
</svg>
