<svg width="18" height="18" viewBox="0 0 18 18" fill="none" xmlns="http://www.w3.org/2000/svg">
<path d="M2.25 2.25V15.75H15.75V2.25H2.25ZM13.4654 5.44866L12.7414 6.1425C12.7108 6.16586 12.6871 6.19712 12.6729 6.23293C12.6587 6.26874 12.6546 6.30774 12.6609 6.34573V11.4461C12.6546 11.4841 12.6587 11.5231 12.6729 11.5589C12.6871 11.5948 12.7108 11.626 12.7414 11.6494L13.4485 12.3434V12.4959H9.89179V12.3434L10.6243 11.6325C10.6963 11.5605 10.6963 11.5393 10.6963 11.4295V7.30687L8.66003 12.4795H8.38462L6.01352 7.30687V10.7736C6.0038 10.8455 6.01058 10.9187 6.03332 10.9876C6.05607 11.0565 6.09419 11.1194 6.14481 11.1714L7.09746 12.3271V12.4795H4.39616V12.3271L5.34881 11.1713C5.39902 11.1192 5.4363 11.0561 5.45763 10.987C5.47896 10.9179 5.48375 10.8448 5.47161 10.7735V6.76485C5.47718 6.70997 5.46972 6.65456 5.44984 6.60311C5.42996 6.55165 5.39822 6.50562 5.35719 6.46875L4.51046 5.44866V5.29622H7.13976L9.17207 9.75341L10.9589 5.29622H13.4654V5.44866Z" fill="#5D7A74"/>
</svg>
