<svg width="20" height="20" viewBox="0 0 20 20" fill="none" xmlns="http://www.w3.org/2000/svg">
<path fill-rule="evenodd" clip-rule="evenodd" d="M13.0306 3.89513C12.2398 3.859 12.0026 3.85137 10 3.85137V3.85131C7.99744 3.85131 7.76019 3.859 6.96938 3.89506C6.49378 3.90072 6.02269 3.98808 5.57669 4.15331C5.25324 4.27812 4.95951 4.46925 4.71436 4.7144C4.46922 4.95955 4.27811 5.2533 4.15331 5.57675C3.98808 6.02276 3.90072 6.49384 3.89506 6.96944C3.85894 7.76025 3.85131 7.9975 3.85131 10.0001C3.85131 12.0026 3.859 12.2399 3.89506 13.0307C3.90072 13.5063 3.98808 13.9774 4.15331 14.4234C4.27812 14.7468 4.46923 15.0405 4.71437 15.2857C4.95951 15.5308 5.25325 15.7219 5.57669 15.8467C6.02269 16.012 6.49378 16.0993 6.96938 16.105C7.76013 16.1411 7.99725 16.1487 10 16.1487C12.0028 16.1487 12.2399 16.1411 13.0306 16.105C13.5062 16.0993 13.9773 16.012 14.4233 15.8467C14.7467 15.7219 15.0405 15.5308 15.2856 15.2857C15.5308 15.0405 15.7219 14.7468 15.8467 14.4234C16.0119 13.9774 16.0993 13.5063 16.1049 13.0307C16.1411 12.2399 16.1487 12.0026 16.1487 10.0001C16.1487 7.9975 16.141 7.76025 16.1049 6.96944C16.0993 6.49384 16.0119 6.02276 15.8467 5.57675C15.7219 5.25331 15.5308 4.95958 15.2856 4.71444C15.0405 4.4693 14.7467 4.27818 14.4233 4.15338C13.9773 3.98814 13.5062 3.90079 13.0306 3.89513ZM6.90775 2.54512C7.70769 2.50862 7.96312 2.5 10 2.5C12.0369 2.5 12.2923 2.50863 13.0919 2.54544C13.7141 2.5579 14.3297 2.67578 14.9125 2.89406C15.4108 3.08672 15.8633 3.38135 16.2411 3.75907C16.6188 4.13679 16.9135 4.58927 17.1063 5.0875C17.3245 5.67018 17.4424 6.28566 17.4549 6.90775C17.4914 7.70769 17.5 7.96312 17.5 10C17.5 12.0369 17.4914 12.2923 17.4552 13.0919C17.4427 13.7141 17.3248 14.3297 17.1066 14.9125C16.9139 15.4108 16.6192 15.8633 16.2414 16.2411C15.8636 16.6189 15.4111 16.9136 14.9128 17.1063C14.33 17.3245 13.7144 17.4424 13.0922 17.4549C12.2923 17.4914 12.0369 17.5 10 17.5C7.96312 17.5 7.70769 17.4914 6.90806 17.4552C6.28586 17.4427 5.67028 17.3249 5.0875 17.1066C4.58921 16.9139 4.13667 16.6192 3.7589 16.2414C3.38112 15.8636 3.08645 15.4111 2.89375 14.9128C2.67547 14.33 2.55759 13.7144 2.54512 13.0922C2.50862 12.2923 2.5 12.0369 2.5 10C2.5 7.96312 2.50862 7.70769 2.54512 6.90806C2.55758 6.28586 2.67546 5.67028 2.89375 5.0875C3.08645 4.58921 3.38112 4.13667 3.7589 3.7589C4.13667 3.38112 4.58921 3.08645 5.0875 2.89375C5.67018 2.67549 6.28566 2.55761 6.90775 2.54512ZM14.0035 6.89644C14.5005 6.89644 14.9035 6.49349 14.9035 5.99644C14.9035 5.49938 14.5005 5.09644 14.0035 5.09644C13.5064 5.09644 13.1035 5.49938 13.1035 5.99644C13.1035 6.49349 13.5064 6.89644 14.0035 6.89644ZM9.99998 6.14868C9.23825 6.14868 8.49363 6.37456 7.86027 6.79776C7.22692 7.22095 6.73328 7.82245 6.44178 8.5262C6.15027 9.22995 6.074 10.0043 6.22261 10.7514C6.37122 11.4985 6.73802 12.1848 7.27665 12.7234C7.81527 13.262 8.50152 13.6288 9.24862 13.7774C9.99571 13.926 10.7701 13.8498 11.4738 13.5583C12.1776 13.2668 12.7791 12.7731 13.2023 12.1398C13.6255 11.5064 13.8514 10.7618 13.8514 10.0001C13.8514 8.97861 13.4456 7.999 12.7233 7.27672C12.001 6.55445 11.0214 6.14868 9.99998 6.14868ZM9.99998 12.5001C9.50553 12.5001 9.02218 12.3534 8.61106 12.0787C8.19993 11.804 7.8795 11.4136 7.69028 10.9568C7.50106 10.5 7.45156 9.99728 7.54802 9.51233C7.64448 9.02738 7.88258 8.58192 8.23221 8.23229C8.58185 7.88266 9.0273 7.64456 9.51226 7.54809C9.99721 7.45163 10.4999 7.50114 10.9567 7.69036C11.4135 7.87958 11.804 8.20001 12.0787 8.61113C12.3534 9.02225 12.5 9.5056 12.5 10.0001C12.5 10.6631 12.2366 11.299 11.7677 11.7678C11.2989 12.2367 10.663 12.5001 9.99998 12.5001Z" fill="#E7EBEA"/>
</svg>
