<svg width="182" height="49" viewBox="0 0 182 49" fill="none" xmlns="http://www.w3.org/2000/svg">
<path d="M61.203 18.012V18.335C61.1851 18.4823 61.1488 18.6267 61.095 18.765L60.557 20.056C60.3044 20.7779 59.961 21.4648 59.535 22.1C59.1236 22.6468 58.5891 23.0891 57.975 23.391C57.3351 23.8088 56.5882 24.0328 55.824 24.036C55.3214 24.0442 54.824 23.9339 54.372 23.714L53.458 23.23C53.3507 23.23 53.2433 23.481 53.136 23.983L52.652 25.543L52.114 27.102C51.6642 28.1865 51.0471 29.1938 50.285 30.087C50.0273 30.4577 49.6916 30.7676 49.3016 30.9951C48.9116 31.2226 48.4766 31.3622 48.027 31.404C47.8282 31.4135 47.629 31.3957 47.435 31.351C46.8012 31.2575 46.2122 30.9691 45.7497 30.5258C45.2872 30.0825 44.9742 29.5062 44.854 28.877L44.692 28.07C44.5834 27.6732 44.4205 27.2933 44.208 26.941L42.648 30.168C42.412 30.6555 42.0125 31.0448 41.519 31.268C40.9173 31.4899 40.2779 31.5918 39.637 31.568C39.099 31.5705 38.5774 31.3829 38.1641 31.0385C37.7508 30.694 37.4725 30.2147 37.378 29.685C36.7964 27.4736 36.5069 25.1956 36.517 22.909C36.5369 21.5965 36.6267 20.286 36.786 18.983C36.714 19.019 36.5527 19.1087 36.302 19.252C31.8866 21.3876 27.0618 22.5437 22.158 22.641C18.9413 22.6148 15.7313 22.9394 12.585 23.609C10.9707 23.9792 9.39506 24.5012 7.87901 25.168C6.55445 25.7651 5.33002 26.5632 4.249 27.534C3.20671 28.4191 2.36178 29.5131 1.76887 30.7452C1.17596 31.9774 0.848267 33.3202 0.806986 34.687C0.741153 35.5191 0.949047 36.3499 1.399 37.053C1.43055 37.0797 1.4564 37.1125 1.47495 37.1495C1.49351 37.1864 1.5044 37.2267 1.507 37.268C1.507 37.3753 1.42633 37.456 1.26499 37.51C1.19781 37.5377 1.12389 37.5449 1.05265 37.5304C0.981415 37.516 0.916095 37.4807 0.864999 37.429C0.667275 37.2717 0.510491 37.0689 0.407999 36.838C0.282461 36.5053 0.182189 36.1637 0.108011 35.816L0.00299997 34.474C-0.00737782 33.0811 0.344829 31.7095 1.025 30.494C2.11902 28.3994 3.80131 26.6702 5.865 25.519C7.9245 24.4076 10.1346 23.6016 12.426 23.126C14.4649 22.7044 16.5322 22.4346 18.611 22.319C19.9377 22.2117 20.871 22.14 21.411 22.104L24.261 21.943C28.4789 21.5883 32.588 20.4195 36.361 18.501C36.5652 18.3864 36.7628 18.2606 36.953 18.124L37.003 18.012C37.0945 17.799 37.2435 17.6156 37.4334 17.4826C37.6233 17.3496 37.8465 17.2722 38.078 17.259C38.7587 17.259 39.117 17.6533 39.153 18.442L39.314 20.647L39.422 22.529L39.637 25.164C39.637 25.0567 39.673 25.5407 39.745 26.616C39.7772 27.8442 40.1095 29.0458 40.713 30.116C41.7129 28.6586 42.6375 27.151 43.483 25.599C43.9488 24.6377 44.2313 23.5979 44.316 22.533C44.2396 21.9086 44.3928 21.2778 44.747 20.758C44.875 20.6367 45.028 20.545 45.1952 20.4892C45.3624 20.4334 45.5399 20.4149 45.715 20.435C46.539 20.435 47.023 21.152 47.167 22.586C47.2845 24.1368 47.4821 25.6806 47.759 27.211L47.92 28.502C47.932 28.7861 47.9862 29.0669 48.081 29.335C48.1198 29.4185 48.1801 29.4902 48.2556 29.5429C48.3311 29.5956 48.4192 29.6273 48.511 29.635H48.565C48.6768 29.6328 48.787 29.6078 48.8887 29.5615C48.9905 29.5153 49.0818 29.4487 49.157 29.366L49.479 28.99C49.9097 28.4167 50.322 27.8073 50.716 27.162C50.8247 27.0314 50.9151 26.8868 50.985 26.732L51.146 26.409C51.3613 25.8717 51.5853 25.28 51.818 24.634C52.0507 23.988 52.239 23.3963 52.383 22.859C52.432 22.7588 52.4504 22.6465 52.436 22.536C52.3812 22.2587 52.2285 22.0103 52.006 21.836C51.3724 21.0769 50.8965 20.1991 50.606 19.254C50.2797 18.2281 50.1164 17.1575 50.122 16.081C50.0669 14.5748 50.4401 13.0838 51.198 11.781C51.4306 11.4058 51.7315 11.0774 52.085 10.813C52.3844 10.5768 52.7527 10.4447 53.134 10.437C53.3161 10.4577 53.496 10.4938 53.672 10.545C54.111 10.7122 54.4844 11.0166 54.7366 11.413C54.9888 11.8093 55.1064 12.2765 55.072 12.745C55.1701 15.0614 54.9343 17.3798 54.372 19.629L53.78 22.318C54.332 22.7989 55.038 23.066 55.77 23.071C56.4073 23.0754 57.0349 22.9141 57.5912 22.603C58.1474 22.2918 58.6132 21.8414 58.943 21.296C59.0503 21.1167 59.337 20.4713 59.803 19.36L60.233 18.338C60.2743 18.206 60.3635 18.0942 60.483 18.0246C60.6026 17.955 60.7438 17.9327 60.879 17.962L61.203 18.012ZM53.996 15.861L54.104 14.14C54.1173 13.4702 54.045 12.8015 53.889 12.15C53.7457 11.612 53.5123 11.325 53.189 11.289H53.082C52.7593 11.289 52.5083 11.504 52.329 11.934C51.7289 13.3669 51.4007 14.899 51.361 16.452C51.3741 18.1464 51.8589 19.8037 52.761 21.238C53.3997 19.5069 53.8147 17.7013 53.996 15.865V15.861Z" fill="white"/>
<path d="M59.051 30.682C58.3363 29.9474 57.8991 28.9873 57.814 27.966L57.706 26.03C57.6989 24.6417 57.917 23.2614 58.352 21.943C58.8458 20.5213 59.5138 19.1663 60.341 17.909C60.7438 17.2606 61.3067 16.7269 61.9756 16.3591C62.6444 15.9913 63.3967 15.8018 64.16 15.809C64.7636 15.7719 65.3589 15.964 65.827 16.347C66.0286 16.5403 66.1859 16.7751 66.2881 17.0351C66.3903 17.2951 66.435 17.5741 66.419 17.853C66.4281 18.0519 66.4099 18.251 66.365 18.445C65.9928 20.4074 65.0586 22.2195 63.676 23.661C63.1961 24.3854 62.5958 25.0222 61.901 25.544C61.5178 25.7689 61.2014 26.0916 60.984 26.4791C60.7667 26.8665 60.6562 27.3048 60.664 27.749C60.664 29.2543 61.1306 30.0073 62.064 30.008C62.6972 29.9946 63.3204 29.8478 63.893 29.577C64.4812 29.3299 65.0119 28.9639 65.452 28.502C66.0868 27.7502 66.6204 26.9185 67.039 26.028C67.4156 25.204 67.8907 23.9493 68.464 22.264L69.164 20.381C69.558 19.3417 69.827 18.6603 69.971 18.337C70.0016 18.2312 70.0649 18.1378 70.1519 18.0703C70.2388 18.0027 70.3449 17.9645 70.455 17.961C70.5803 17.9555 70.7037 17.9937 70.804 18.069C70.846 18.1001 70.8801 18.1406 70.9036 18.1874C70.927 18.2341 70.9392 18.2857 70.939 18.338C70.921 18.4853 70.8847 18.6297 70.831 18.768C69.253 22.748 68.267 25.222 67.873 26.19C67.4687 27.1675 66.9735 28.105 66.394 28.99C65.8812 29.6641 65.2752 30.2617 64.594 30.765C63.7765 31.3496 62.799 31.6687 61.794 31.679C61.2934 31.7042 60.7928 31.629 60.3217 31.4577C59.8506 31.2865 59.4185 31.0227 59.051 30.682ZM65.235 19.469C65.3953 19.096 65.4688 18.6915 65.45 18.286C65.4597 17.9613 65.4328 17.6366 65.37 17.318C65.3098 17.0925 65.1891 16.8878 65.021 16.726C64.8045 16.5594 64.541 16.4653 64.268 16.457C64.0433 16.4593 63.8223 16.5144 63.623 16.618C63.3817 16.7175 63.1624 16.8639 62.9779 17.0485C62.7934 17.2332 62.6473 17.4526 62.548 17.694C61.6263 20.1801 60.9771 22.7588 60.612 25.385C62.6706 23.8787 64.271 21.8307 65.235 19.469Z" fill="white"/>
<path d="M77.418 30.736C76.8352 30.2109 76.4152 29.5296 76.208 28.773L75.939 27.213C75.8624 26.5797 75.6414 25.9724 75.293 25.438L73.142 28.772C72.9298 29.2206 72.595 29.6001 72.1764 29.8665C71.7577 30.133 71.2723 30.2757 70.776 30.278C70.1447 30.2701 69.536 30.042 69.055 29.633C68.496 29.1664 68.116 28.5203 67.98 27.805C67.8507 26.9682 67.7789 26.1236 67.765 25.277C67.7598 24.3529 67.8683 23.4316 68.088 22.534C68.5719 20.795 69.3943 19.1685 70.508 17.748C70.8541 17.3149 71.3229 16.9963 71.853 16.834C72.558 16.6737 73.283 16.6195 74.004 16.673L74.704 16.726C74.8257 16.7424 74.9496 16.7262 75.0629 16.6789C75.1763 16.6316 75.275 16.555 75.349 16.457C75.5405 16.093 75.6333 15.6851 75.618 15.274C75.976 12.442 76.3093 10.255 76.618 8.71301C76.9227 7.17128 77.3637 5.65964 77.936 4.19598C78.265 3.04672 78.8539 1.98849 79.657 1.103C79.9381 0.774991 80.2836 0.508141 80.672 0.318939C81.0603 0.129738 81.4834 0.0222009 81.915 0.00299072C82.3704 0.010164 82.8193 0.112362 83.233 0.303009C83.669 0.486232 84.0241 0.820741 84.233 1.245C84.6335 2.17768 84.8175 3.18902 84.771 4.203C84.7643 5.6803 84.5378 7.14836 84.099 8.55899C83.5736 10.2123 82.8984 11.8143 82.082 13.345C81.569 14.5237 80.9575 15.6571 80.254 16.733C79.9181 17.2783 79.5212 17.7835 79.071 18.239C78.8726 18.3951 78.7318 18.6129 78.671 18.858C78.6075 19.2036 78.5804 19.5548 78.59 19.906C78.4851 22.7502 78.6654 25.5977 79.128 28.406C79.3787 29.518 79.7193 30.0737 80.15 30.073C80.4274 30.0184 80.6759 29.8658 80.85 29.643C81.559 28.6987 82.1626 27.6796 82.65 26.604C83.1693 25.4747 83.7876 23.924 84.505 21.952L84.774 21.199L85.096 20.392C85.4906 19.3527 85.7597 18.6713 85.903 18.348C85.9336 18.2422 85.9969 18.1489 86.0839 18.0813C86.1708 18.0137 86.2769 17.9755 86.387 17.972C86.5126 17.9665 86.6363 18.0047 86.737 18.08C86.7789 18.1111 86.8129 18.1517 86.8362 18.1985C86.8595 18.2452 86.8714 18.2968 86.871 18.349C86.8534 18.4963 86.8172 18.6408 86.763 18.779C85.185 22.759 84.199 25.233 83.805 26.201L82.622 28.514L81.815 30.073C81.6 30.5308 81.2571 30.9166 80.8277 31.1839C80.3983 31.4511 79.9007 31.5884 79.395 31.579C78.6622 31.5192 77.9685 31.2234 77.418 30.736ZM75.401 20.491L75.348 19.631C75.3541 19.1629 75.272 18.6978 75.106 18.26C75.056 18.0896 74.9701 17.9319 74.8542 17.7974C74.7384 17.6629 74.5951 17.5547 74.434 17.48C74.2955 17.4342 74.1495 17.4158 74.004 17.426C73.7737 17.4175 73.5454 17.4703 73.3422 17.5791C73.1391 17.6878 72.9685 17.8486 72.848 18.045C72.4932 18.6333 72.1961 19.2545 71.961 19.9C71.7672 20.3726 71.6055 20.8577 71.477 21.352C71.1528 22.5439 70.9896 23.7738 70.992 25.009C71.0159 26.0533 71.1061 27.0951 71.262 28.128C74.0207 26.0127 75.4003 23.467 75.401 20.491ZM80.349 14.522C80.707 13.876 81.3343 12.676 82.231 10.922C83.2269 8.88231 83.7076 6.62955 83.631 4.36099C83.6373 3.73107 83.5925 3.10168 83.497 2.479C83.4255 1.98062 83.2108 1.51372 82.879 1.13501C82.6914 0.901614 82.4223 0.747944 82.126 0.704987C81.8108 0.736195 81.5207 0.890787 81.319 1.13501C80.7736 1.79789 80.4201 2.59746 80.297 3.44699C79.5743 7.77069 79.1254 12.1357 78.953 16.516C79.4809 15.897 79.9483 15.229 80.349 14.521V14.522Z" fill="white"/>
<path d="M93.336 30.736C92.7537 30.2104 92.3339 29.5293 92.126 28.773L91.857 27.213C91.7805 26.5798 91.5599 25.9726 91.212 25.438L89.061 28.772C88.8486 29.2207 88.5137 29.6002 88.0949 29.8667C87.676 30.1331 87.1904 30.2757 86.694 30.278C86.0627 30.2701 85.4539 30.042 84.973 29.633C84.4136 29.1665 84.0333 28.5205 83.897 27.805C83.7676 26.9682 83.6958 26.1236 83.682 25.277C83.6765 24.3529 83.7846 23.4317 84.004 22.534C84.4882 20.7949 85.3109 19.1685 86.425 17.748C86.7706 17.3148 87.2391 16.9962 87.769 16.834C88.474 16.6737 89.199 16.6195 89.92 16.673L90.62 16.726C90.7417 16.7425 90.8656 16.7263 90.979 16.679C91.0924 16.6318 91.1911 16.5551 91.265 16.457C91.4566 16.093 91.5493 15.6851 91.534 15.274C91.892 12.442 92.2236 10.255 92.529 8.71301C92.8338 7.17132 93.2749 5.6597 93.847 4.19598C94.1763 3.04681 94.765 1.98862 95.568 1.103C95.8492 0.774871 96.1949 0.507962 96.5834 0.318756C96.972 0.12955 97.3952 0.022066 97.827 0.00299072C98.2824 0.0101933 98.7313 0.11239 99.145 0.303009C99.5787 0.487431 99.9315 0.8218 100.139 1.245C100.54 2.17757 100.724 3.18899 100.677 4.203C100.67 5.6803 100.444 7.14836 100.005 8.55899C99.4795 10.2123 98.8044 11.8143 97.988 13.345C97.4752 14.5238 96.8637 15.6572 96.16 16.733C95.8241 17.2783 95.4272 17.7835 94.977 18.239C94.7787 18.3953 94.638 18.613 94.577 18.858C94.5141 19.2036 94.4873 19.5548 94.497 19.906C94.3919 22.7502 94.5722 25.5978 95.035 28.406C95.2856 29.518 95.6263 30.0737 96.057 30.073C96.3344 30.0184 96.5829 29.8658 96.757 29.643C97.466 28.6987 98.0697 27.6796 98.557 26.604C99.0763 25.4747 99.695 23.924 100.413 21.952L100.682 21.199L101.005 20.392C101.398 19.3527 101.667 18.6713 101.811 18.348C101.842 18.2423 101.905 18.149 101.992 18.0815C102.079 18.014 102.185 17.9756 102.295 17.972C102.421 17.9663 102.544 18.0045 102.645 18.08C102.687 18.1111 102.721 18.1516 102.745 18.1984C102.768 18.2451 102.78 18.2967 102.78 18.349C102.762 18.4962 102.726 18.6407 102.673 18.779C101.095 22.759 100.109 25.233 99.715 26.201L98.532 28.514L97.725 30.073C97.5087 30.5298 97.1648 30.9142 96.7349 31.1798C96.3049 31.4454 95.8073 31.581 95.302 31.57C94.5742 31.51 93.8849 31.2176 93.336 30.736ZM91.32 20.491L91.266 19.631C91.272 19.1629 91.1899 18.6978 91.024 18.26C90.9739 18.0895 90.8879 17.9317 90.7719 17.7972C90.6558 17.6627 90.5123 17.5545 90.351 17.48C90.2126 17.4341 90.0665 17.4158 89.921 17.426C89.6907 17.4175 89.4624 17.4703 89.2592 17.5791C89.0561 17.6878 88.8855 17.8486 88.765 18.045C88.41 18.6333 88.1126 19.2545 87.877 19.9C87.6833 20.3726 87.5216 20.8577 87.393 21.352C87.0691 22.5439 86.9063 23.7739 86.909 25.009C86.9327 26.0533 87.0225 27.0951 87.178 28.128C89.9387 26.0127 91.319 23.467 91.319 20.491H91.32ZM96.267 14.522C96.625 13.876 97.2526 12.676 98.15 10.922C99.1457 8.88224 99.6264 6.62953 99.55 4.36099C99.5563 3.73107 99.5115 3.10168 99.416 2.479C99.3445 1.98062 99.1298 1.51372 98.798 1.13501C98.6105 0.901537 98.3414 0.747848 98.045 0.704987C97.7298 0.736195 97.4397 0.890787 97.238 1.13501C96.6922 1.79764 96.3387 2.59733 96.216 3.44699C95.4929 7.77063 95.044 12.1357 94.872 16.516C95.3997 15.8971 95.8668 15.229 96.267 14.521V14.522Z" fill="white"/>
<path d="M100.785 29.525C100.548 28.9814 100.421 28.3967 100.409 27.804L100.355 25.653V24.416C100.32 22.3616 100.482 20.3085 100.839 18.285L101.216 16.564C101.359 15.9546 101.807 15.6677 102.56 15.703C102.71 15.6919 102.861 15.7151 103.001 15.7709C103.14 15.8267 103.266 15.9136 103.367 16.025C103.46 16.1463 103.526 16.2852 103.563 16.4333C103.6 16.5813 103.607 16.7354 103.582 16.886L103.152 24.792L103.044 27.592C103.004 28.0684 103.031 28.5481 103.124 29.017C103.231 29.4701 103.423 29.899 103.689 30.281C103.904 30.281 104.138 30.066 104.389 29.636C105.098 28.6918 105.702 27.6727 106.189 26.597C106.708 25.4677 107.327 23.917 108.045 21.945L108.314 21.192L108.637 20.385C109.031 19.3457 109.3 18.6643 109.444 18.341C109.475 18.2352 109.538 18.1418 109.625 18.0743C109.712 18.0067 109.818 17.9685 109.928 17.965C110.054 17.9593 110.177 17.9975 110.278 18.073C110.32 18.1042 110.354 18.1448 110.377 18.1915C110.4 18.2382 110.412 18.2898 110.412 18.342C110.394 18.4893 110.358 18.6338 110.304 18.772C108.726 22.752 107.74 25.226 107.346 26.194L106.163 28.507L105.356 30.066C105.141 30.5239 104.798 30.9098 104.369 31.177C103.939 31.4443 103.442 31.5815 102.936 31.572C102.427 31.4544 101.959 31.2025 101.581 30.8424C101.202 30.4824 100.928 30.0274 100.785 29.525ZM102.185 12.181C102.045 12.0687 101.933 11.9251 101.858 11.7617C101.783 11.5982 101.748 11.4195 101.755 11.24C101.754 11.0652 101.792 10.8924 101.866 10.7342C101.941 10.5761 102.05 10.4366 102.185 10.326C102.484 10.0703 102.868 9.93587 103.261 9.94899C103.429 9.93868 103.598 9.96448 103.756 10.0247C103.913 10.0849 104.056 10.178 104.175 10.298C104.394 10.5409 104.51 10.8593 104.498 11.186C104.507 11.52 104.392 11.8455 104.175 12.1C104.067 12.2252 103.935 12.3277 103.788 12.4015C103.64 12.4753 103.479 12.519 103.314 12.53C102.907 12.5501 102.507 12.4266 102.182 12.181H102.185Z" fill="white"/>
<path d="M118.048 29.768C117.592 28.3547 117.428 26.8637 117.564 25.385C117.743 23.4517 117.851 21.5157 117.887 19.577L117.941 18.77C117.941 17.9094 117.708 17.4077 117.241 17.265C117.139 17.2235 117.028 17.2051 116.918 17.211C116.523 17.211 116.128 17.498 115.735 18.072L115.251 18.664C113.591 20.7676 112.515 23.2718 112.132 25.924C112.084 26.1541 112.066 26.3893 112.078 26.624C112.085 27.1656 112.139 27.7056 112.239 28.238C112.31 28.8833 112.346 29.2957 112.346 29.475L112.4 30.228C112.411 30.3782 112.388 30.529 112.332 30.6689C112.276 30.8087 112.189 30.934 112.077 31.035C111.741 31.2474 111.344 31.342 110.948 31.304C110.738 31.3216 110.527 31.2959 110.328 31.2286C110.128 31.1613 109.945 31.0538 109.788 30.9127C109.632 30.7716 109.506 30.6 109.419 30.4084C109.332 30.2169 109.285 30.0095 109.281 29.799C109.03 27.9323 108.85 26.4173 108.743 25.254C108.636 24.119 108.6 22.9785 108.635 21.839L108.796 18.939C108.788 18.676 108.874 18.4188 109.038 18.213C109.207 18.0122 109.449 17.8867 109.71 17.864H109.979C110.235 17.8598 110.487 17.9351 110.699 18.0797C110.91 18.2242 111.072 18.4308 111.162 18.671C111.467 19.5151 111.613 20.4086 111.592 21.306L111.7 22.973L112.291 21.898C112.936 20.822 113.331 20.122 113.474 19.798C114.874 17.5753 116.183 16.464 117.4 16.464C117.927 16.4907 118.434 16.6811 118.848 17.0087C119.262 17.3363 119.564 17.7849 119.712 18.292C119.996 19.0008 120.195 19.741 120.304 20.497C120.411 21.2497 120.519 22.3433 120.627 23.778C120.698 25.284 120.734 26.754 120.735 28.188C120.735 29.336 120.914 29.9097 121.273 29.909C121.463 29.8853 121.637 29.7889 121.757 29.64C122.466 28.6957 123.07 27.6766 123.557 26.601C124.076 25.4717 124.695 23.921 125.413 21.949L125.682 21.196L126.005 20.389C126.399 19.3497 126.668 18.6683 126.812 18.345C126.843 18.2392 126.906 18.1459 126.993 18.0783C127.08 18.0108 127.186 17.9725 127.296 17.969C127.421 17.9636 127.545 18.0018 127.645 18.077C127.687 18.108 127.721 18.1486 127.745 18.1953C127.768 18.2421 127.78 18.2937 127.78 18.346C127.762 18.4933 127.726 18.6378 127.672 18.776C126.094 22.756 125.108 25.23 124.714 26.198L123.531 28.511L122.724 30.07C122.527 30.5077 122.21 30.881 121.811 31.1473C121.411 31.4136 120.945 31.5622 120.465 31.576C119.916 31.5947 119.378 31.4258 118.939 31.097C118.499 30.7683 118.185 30.2995 118.048 29.768Z" fill="white"/>
<path d="M130.014 47.193C129.501 46.6118 129.173 45.8907 129.073 45.122C128.917 44.2335 128.827 43.3347 128.803 42.433C128.805 40.0939 129.417 37.7957 130.578 35.765C131.552 33.8558 132.823 32.1132 134.343 30.602C134.589 30.3946 134.792 30.1406 134.94 29.8545C135.088 29.5684 135.177 29.2559 135.204 28.935C135.131 27.0017 135.095 24.8323 135.096 22.427C135.02 22.4363 134.944 22.4174 134.881 22.374C134.8 22.3269 134.705 22.3079 134.612 22.32C134.022 23.3588 133.376 24.3643 132.676 25.332L131.547 26.946C131.339 27.2865 131.105 27.6101 130.847 27.914C130.537 28.3481 130.135 28.7083 129.669 28.9685C129.204 29.2287 128.686 29.3826 128.154 29.419L127.401 29.311C126.736 29.1571 126.135 28.8 125.683 28.2893C125.23 27.7786 124.947 27.1396 124.874 26.461C124.767 25.8212 124.713 25.1737 124.713 24.525C124.696 22.5768 125.257 20.6673 126.327 19.039C126.777 18.3003 127.418 17.6964 128.182 17.291C128.951 16.8795 129.81 16.667 130.682 16.673C131.731 16.6654 132.759 16.9643 133.64 17.533C133.998 17.7483 134.465 18.071 135.04 18.501C135.18 18.4154 135.297 18.2974 135.381 18.1569C135.465 18.0164 135.514 17.8576 135.524 17.694C135.559 17.515 135.632 17.246 135.739 16.887C135.94 16.6322 136.227 16.46 136.546 16.403C136.643 16.3914 136.742 16.4012 136.835 16.4315C136.928 16.4618 137.013 16.512 137.085 16.5786C137.156 16.6452 137.213 16.7266 137.25 16.8172C137.287 16.9078 137.304 17.0053 137.299 17.103C137.602 19.0782 137.746 21.0747 137.73 23.073C137.73 24.221 137.748 25.0637 137.783 25.601L137.837 27.752C138.43 27.544 138.991 27.2542 139.504 26.891C144.523 24.141 150.091 22.5427 155.804 22.212C159.632 21.986 163.431 21.4099 167.154 20.491C169.124 19.9351 171.041 19.2063 172.882 18.313C174.382 17.5597 175.738 16.5494 176.889 15.328C179.129 13.2299 180.444 10.3284 180.546 7.26099C180.564 6.54936 180.51 5.83772 180.385 5.13699C180.272 4.64364 180.03 4.18895 179.685 3.819C179.632 3.7511 179.599 3.66994 179.59 3.5845C179.581 3.49906 179.595 3.41268 179.632 3.33499C179.68 3.28375 179.739 3.24295 179.804 3.21506C179.868 3.18716 179.938 3.17276 180.009 3.17276C180.079 3.17276 180.149 3.18716 180.214 3.21506C180.278 3.24295 180.337 3.28375 180.385 3.33499C180.652 3.4939 180.867 3.72749 181.003 4.00699C181.167 4.41358 181.284 4.8377 181.352 5.271C181.512 5.9592 181.584 6.66475 181.567 7.371C181.574 8.84897 181.223 10.3066 180.545 11.62C179.42 14.1955 177.532 16.3638 175.135 17.832C172.712 19.2799 170.096 20.3755 167.364 21.086C164.962 21.713 162.518 22.1625 160.05 22.431L158.328 22.592C155.747 22.8433 154.098 23.0227 153.38 23.13C148.366 23.7974 143.528 25.4225 139.128 27.917C139.092 27.917 139.039 27.97 138.967 28.078C138.627 28.3373 138.245 28.5375 137.838 28.67C137.836 29.3528 137.872 30.0352 137.946 30.714C138.089 32.8653 138.16 34.7477 138.161 36.361C138.194 38.9445 137.941 41.5238 137.408 44.052C137.132 45.1052 136.617 46.0805 135.903 46.902C135.525 47.3195 135.058 47.6472 134.537 47.8612C134.016 48.0753 133.454 48.1702 132.891 48.139C132.549 48.1513 132.207 48.1333 131.869 48.085C131.16 48.0327 130.497 47.714 130.014 47.193ZM134.397 20.76C134.47 20.6093 134.507 20.4436 134.505 20.276C134.504 19.9176 134.37 19.5724 134.128 19.308C133.763 18.7795 133.283 18.3404 132.724 18.0238C132.165 17.7072 131.542 17.5213 130.901 17.48C130.513 17.5021 130.138 17.6288 129.817 17.8466C129.495 18.0643 129.238 18.3651 129.073 18.717C128.17 20.2891 127.688 22.0673 127.673 23.88C127.685 25.2757 127.94 26.6586 128.426 27.967C130.891 26.0011 132.924 23.5476 134.397 20.76ZM132.514 47.274C132.816 47.2404 133.105 47.135 133.358 46.9666C133.61 46.7981 133.819 46.5716 133.966 46.306C134.431 45.5191 134.775 44.667 134.988 43.778C135.309 41.8224 135.471 39.8439 135.472 37.862C135.472 35.9607 135.347 33.7737 135.096 31.301C133.525 32.8479 132.224 34.648 131.25 36.626C130.406 38.4264 129.974 40.3925 129.986 42.381L130.04 43.403C130.08 44.4686 130.435 45.4982 131.062 46.361C131.223 46.6101 131.436 46.8209 131.687 46.9786C131.938 47.1364 132.22 47.2372 132.514 47.274Z" fill="white"/>
<path d="M147.851 17.216C146.304 18.6382 145.068 20.366 144.222 22.29C143.501 23.9285 143.116 25.695 143.09 27.485C143.042 28.3728 143.264 29.2544 143.726 30.014C143.909 30.304 144.164 30.5417 144.466 30.7041C144.768 30.8666 145.106 30.9482 145.449 30.941C146.897 30.941 148.406 29.6743 149.975 27.141C151.399 25.0557 152.214 22.6147 152.328 20.092C152.352 19.5621 152.245 19.0344 152.016 18.556C151.947 18.392 151.833 18.2512 151.686 18.1502C151.54 18.0492 151.368 17.9922 151.19 17.986C150.555 17.986 149.966 18.465 149.423 19.423C148.938 20.1915 148.657 21.0714 148.608 21.979C148.594 22.0877 148.603 22.1981 148.633 22.3034C148.664 22.4087 148.716 22.5065 148.786 22.5909C148.856 22.6753 148.942 22.7444 149.04 22.794C149.138 22.8435 149.245 22.8725 149.354 22.879C149.559 22.901 149.661 23.001 149.661 23.179C149.648 23.3632 149.597 23.5428 149.511 23.7063C149.425 23.8697 149.306 24.0133 149.161 24.128C148.89 24.4129 148.519 24.5802 148.126 24.594C147.907 24.5925 147.691 24.537 147.498 24.4323C147.305 24.3277 147.141 24.1771 147.02 23.994C146.71 23.5568 146.553 23.0295 146.574 22.494C146.607 21.1393 147.114 19.8391 148.006 18.819C148.327 18.3208 148.757 17.902 149.264 17.5942C149.77 17.2864 150.34 17.0976 150.93 17.042C151.245 17.0322 151.557 17.1008 151.838 17.2414C152.12 17.3821 152.362 17.5906 152.543 17.848C152.972 18.5066 153.18 19.2852 153.135 20.07C153.083 22.0984 152.565 24.0876 151.621 25.884C150.711 27.8078 149.424 29.5294 147.836 30.947C146.696 32.102 145.176 32.8053 143.558 32.927C143.055 32.9316 142.558 32.8143 142.11 32.5851C141.662 32.3559 141.276 32.0217 140.985 31.611C140.276 30.6271 139.918 29.4329 139.97 28.221C139.982 26.6904 140.282 25.1756 140.854 23.756C141.412 22.3033 142.188 20.9438 143.154 19.724C143.773 18.8549 144.539 18.1006 145.417 17.495C146.182 17.1492 147.018 16.9931 147.856 17.04L147.851 17.216Z" fill="white"/>
</svg>
