<svg width="182" height="49" viewBox="0 0 182 49" fill="none" xmlns="http://www.w3.org/2000/svg">
<g clip-path="url(#clip0_596_804)">
<path d="M61.203 18.0115V18.3345C61.1851 18.4818 61.1488 18.6262 61.095 18.7645L60.557 20.0555C60.3044 20.7775 59.961 21.4643 59.535 22.0995C59.1236 22.6464 58.5891 23.0886 57.975 23.3905C57.3352 23.8083 56.5882 24.0323 55.824 24.0355C55.3215 24.0437 54.824 23.9334 54.372 23.7135L53.458 23.2295C53.3507 23.2295 53.2434 23.4805 53.136 23.9825L52.652 25.5425L52.114 27.1015C51.6642 28.1861 51.0471 29.1933 50.285 30.0865C50.0273 30.4573 49.6917 30.7672 49.3016 30.9947C48.9116 31.2221 48.4766 31.3617 48.027 31.4035C47.8282 31.4131 47.629 31.3952 47.435 31.3505C46.8013 31.2571 46.2122 30.9687 45.7498 30.5254C45.2873 30.082 44.9742 29.5058 44.854 28.8765L44.692 28.0695C44.5834 27.6727 44.4205 27.2928 44.208 26.9405L42.648 30.1675C42.412 30.655 42.0125 31.0443 41.519 31.2675C40.9173 31.4895 40.2779 31.5914 39.637 31.5675C39.099 31.57 38.5774 31.3825 38.1641 31.038C37.7509 30.6935 37.4725 30.2142 37.378 29.6845C36.7964 27.4732 36.5069 25.1951 36.517 22.9085C36.5369 21.596 36.6267 20.2855 36.786 18.9825C36.714 19.0185 36.5527 19.1082 36.302 19.2515C31.8866 21.3871 27.0618 22.5432 22.158 22.6405C18.9413 22.6144 15.7314 22.9389 12.585 23.6085C10.9708 23.9788 9.39509 24.5008 7.87904 25.1675C6.55448 25.7647 5.33005 26.5627 4.24903 27.5335C3.20674 28.4186 2.36181 29.5126 1.7689 30.7448C1.17599 31.9769 0.848298 33.3198 0.807016 34.6865C0.741184 35.5186 0.949077 36.3495 1.39903 37.0525C1.43058 37.0792 1.45643 37.1121 1.47498 37.149C1.49354 37.186 1.50443 37.2263 1.50703 37.2675C1.50703 37.3749 1.42636 37.4555 1.26502 37.5095C1.19784 37.5373 1.12392 37.5444 1.05268 37.53C0.981445 37.5155 0.916125 37.4802 0.86503 37.4285C0.667305 37.2712 0.510521 37.0685 0.408029 36.8375C0.282492 36.5049 0.18222 36.1632 0.108041 35.8155L0.00303049 34.4735C-0.0073473 33.0807 0.34486 31.7091 1.02503 30.4935C2.11906 28.399 3.80134 26.6697 5.86503 25.5185C7.92453 24.4072 10.1346 23.6011 12.426 23.1255C14.4649 22.7039 16.5322 22.4341 18.611 22.3185C19.9377 22.2112 20.871 22.1395 21.411 22.1035L24.261 21.9425C28.4789 21.5879 32.588 20.419 36.361 18.5005C36.5652 18.386 36.7629 18.2601 36.953 18.1235L37.003 18.0115C37.0945 17.7985 37.2436 17.6152 37.4334 17.4822C37.6233 17.3492 37.8466 17.2717 38.078 17.2585C38.7587 17.2585 39.117 17.6529 39.153 18.4415L39.314 20.6465L39.422 22.5285L39.637 25.1635C39.637 25.0562 39.673 25.5402 39.745 26.6155C39.7772 27.8437 40.1095 29.0454 40.713 30.1155C41.7129 28.6582 42.6375 27.1505 43.483 25.5985C43.9488 24.6372 44.2313 23.5974 44.316 22.5325C44.2396 21.9082 44.3928 21.2773 44.747 20.7575C44.875 20.6363 45.028 20.5445 45.1952 20.4887C45.3625 20.4329 45.5399 20.4144 45.715 20.4345C46.539 20.4345 47.023 21.1515 47.167 22.5855C47.2845 24.1364 47.4821 25.6801 47.759 27.2105L47.92 28.5015C47.932 28.7856 47.9863 29.0664 48.081 29.3345C48.1199 29.418 48.1801 29.4898 48.2556 29.5424C48.3311 29.5951 48.4193 29.6269 48.511 29.6345H48.565C48.6768 29.6323 48.787 29.6073 48.8888 29.5611C48.9906 29.5148 49.0818 29.4483 49.157 29.3655L49.479 28.9895C49.9097 28.4162 50.322 27.8069 50.716 27.1615C50.8247 27.031 50.9152 26.8863 50.985 26.7315L51.146 26.4085C51.3614 25.8712 51.5854 25.2795 51.818 24.6335C52.0507 23.9875 52.239 23.3959 52.383 22.8585C52.432 22.7584 52.4505 22.6461 52.436 22.5355C52.3812 22.2582 52.2286 22.0098 52.006 21.8355C51.3724 21.0765 50.8965 20.1987 50.606 19.2535C50.2798 18.2277 50.1165 17.157 50.122 16.0805C50.067 14.5743 50.4401 13.0833 51.198 11.7805C51.4307 11.4053 51.7315 11.077 52.085 10.8125C52.3844 10.5763 52.7528 10.4443 53.134 10.4365C53.3161 10.4573 53.4961 10.4934 53.672 10.5445C54.111 10.7118 54.4844 11.0162 54.7366 11.4125C54.9888 11.8089 55.1065 12.276 55.072 12.7445C55.1701 15.0609 54.9343 17.3793 54.372 19.6285L53.78 22.3175C54.332 22.7984 55.038 23.0656 55.77 23.0705C56.4074 23.0749 57.0349 22.9137 57.5912 22.6025C58.1474 22.2913 58.6133 21.841 58.943 21.2955C59.0504 21.1162 59.337 20.4709 59.803 19.3595L60.233 18.3375C60.2743 18.2055 60.3635 18.0937 60.4831 18.0242C60.6026 17.9546 60.7439 17.9323 60.879 17.9615L61.203 18.0115ZM53.996 15.8605L54.104 14.1395C54.1174 13.4697 54.0451 12.801 53.889 12.1495C53.7457 11.6115 53.5124 11.3245 53.189 11.2885H53.082C52.7594 11.2885 52.5084 11.5035 52.329 11.9335C51.729 13.3665 51.4007 14.8985 51.361 16.4515C51.3741 18.1459 51.8589 19.8032 52.761 21.2375C53.3997 19.5064 53.8147 17.7008 53.996 15.8645V15.8605Z" fill="#3D6059"/>
<path d="M59.051 30.6822C58.3364 29.9476 57.8991 28.9875 57.814 27.9662L57.706 26.0302C57.6989 24.6419 57.9171 23.2616 58.352 21.9432C58.8458 20.5215 59.5139 19.1665 60.341 17.9092C60.7438 17.2609 61.3068 16.7271 61.9756 16.3593C62.6445 15.9915 63.3967 15.8021 64.16 15.8092C64.7636 15.7721 65.359 15.9643 65.827 16.3472C66.0286 16.5405 66.186 16.7753 66.2882 17.0353C66.3904 17.2953 66.435 17.5743 66.419 17.8532C66.4281 18.0521 66.41 18.2513 66.365 18.4452C65.9928 20.4076 65.0586 22.2197 63.676 23.6612C63.1962 24.3856 62.5958 25.0224 61.901 25.5442C61.5179 25.7691 61.2014 26.0918 60.9841 26.4793C60.7667 26.8667 60.6562 27.305 60.664 27.7492C60.664 29.2545 61.1307 30.0075 62.064 30.0082C62.6972 29.9949 63.3205 29.848 63.893 29.5772C64.4812 29.3301 65.012 28.9641 65.452 28.5022C66.0869 27.7504 66.6204 26.9187 67.039 26.0282C67.4157 25.2042 67.8907 23.9495 68.464 22.2642L69.164 20.3812C69.558 19.3419 69.827 18.6605 69.971 18.3372C70.0016 18.2314 70.0649 18.1381 70.1519 18.0705C70.2389 18.0029 70.345 17.9647 70.455 17.9612C70.5804 17.9557 70.7037 17.9939 70.804 18.0692C70.8461 18.1003 70.8802 18.1409 70.9036 18.1876C70.9271 18.2343 70.9392 18.2859 70.939 18.3382C70.921 18.4855 70.8848 18.6299 70.831 18.7682C69.253 22.7482 68.267 25.2222 67.873 26.1902C67.4688 27.1678 66.9736 28.1052 66.394 28.9902C65.8813 29.6643 65.2752 30.2619 64.594 30.7652C63.7765 31.3498 62.799 31.6689 61.794 31.6792C61.2934 31.7044 60.7928 31.6292 60.3218 31.458C59.8507 31.2867 59.4186 31.023 59.051 30.6822ZM65.235 19.4692C65.3954 19.0963 65.4689 18.6917 65.45 18.2862C65.4597 17.9616 65.4329 17.6369 65.37 17.3182C65.3098 17.0928 65.1891 16.888 65.021 16.7262C64.8045 16.5597 64.541 16.4656 64.268 16.4572C64.0434 16.4595 63.8224 16.5146 63.623 16.6182C63.3817 16.7177 63.1625 16.8641 62.978 17.0487C62.7935 17.2334 62.6473 17.4528 62.548 17.6942C61.6263 20.1803 60.9772 22.759 60.612 25.3852C62.6707 23.8789 64.271 21.8309 65.235 19.4692Z" fill="#3D6059"/>
<path d="M77.418 30.7359C76.8352 30.2108 76.4152 29.5296 76.208 28.7729L75.939 27.213C75.8624 26.5796 75.6414 25.9723 75.293 25.4379L73.142 28.7719C72.9298 29.2206 72.5951 29.6 72.1764 29.8665C71.7578 30.133 71.2723 30.2756 70.776 30.2779C70.1447 30.27 69.536 30.0419 69.055 29.6329C68.496 29.1663 68.1161 28.5203 67.98 27.8049C67.8507 26.9682 67.7789 26.1235 67.765 25.2769C67.7598 24.3528 67.8683 23.4316 68.088 22.5339C68.5719 20.7949 69.3943 19.1685 70.508 17.7479C70.8541 17.3148 71.3229 16.9963 71.853 16.8339C72.558 16.6736 73.283 16.6194 74.004 16.6729L74.704 16.7259C74.8257 16.7424 74.9496 16.7261 75.063 16.6788C75.1763 16.6316 75.2751 16.555 75.349 16.4569C75.5406 16.0929 75.6333 15.685 75.618 15.2739C75.976 12.4419 76.3093 10.255 76.618 8.71295C76.9227 7.17122 77.3638 5.65958 77.936 4.19592C78.2651 3.04666 78.8539 1.98843 79.657 1.10294C79.9382 0.77493 80.2836 0.50808 80.672 0.318878C81.0604 0.129677 81.4834 0.0221398 81.915 0.00292969C82.3704 0.0101029 82.8194 0.112301 83.233 0.302948C83.669 0.486171 84.0241 0.82068 84.233 1.24493C84.6336 2.17762 84.8175 3.18896 84.771 4.20294C84.7643 5.68024 84.5378 7.1483 84.099 8.55893C83.5736 10.2123 82.8985 11.8142 82.082 13.3449C81.5691 14.5237 80.9576 15.657 80.254 16.7329C79.9181 17.2782 79.5212 17.7835 79.071 18.2389C78.8726 18.3951 78.7319 18.6129 78.671 18.8579C78.6076 19.2035 78.5804 19.5547 78.59 19.9059C78.4852 22.7501 78.6654 25.5977 79.128 28.4059C79.3787 29.5179 79.7194 30.0736 80.15 30.0729C80.4274 30.0183 80.6759 29.8657 80.85 29.6429C81.559 28.6986 82.1627 27.6796 82.65 26.6039C83.1694 25.4746 83.7877 23.9239 84.505 21.9519L84.774 21.1989L85.096 20.3919C85.4907 19.3526 85.7597 18.6713 85.903 18.3479C85.9336 18.2422 85.9969 18.1488 86.0839 18.0812C86.1708 18.0137 86.277 17.9754 86.387 17.9719C86.5127 17.9665 86.6363 18.0046 86.737 18.0799C86.7789 18.1111 86.8129 18.1517 86.8362 18.1984C86.8595 18.2451 86.8714 18.2967 86.871 18.3489C86.8535 18.4963 86.8172 18.6408 86.763 18.7789C85.185 22.7589 84.199 25.2329 83.805 26.2009L82.622 28.5139L81.815 30.0729C81.6 30.5308 81.2571 30.9166 80.8277 31.1838C80.3983 31.451 79.9007 31.5883 79.395 31.5789C78.6622 31.5191 77.9685 31.2233 77.418 30.7359ZM75.401 20.4909L75.348 19.631C75.3541 19.1628 75.272 18.6977 75.106 18.2599C75.056 18.0896 74.9702 17.9318 74.8543 17.7973C74.7384 17.6628 74.5951 17.5546 74.434 17.4799C74.2956 17.4341 74.1495 17.4158 74.004 17.4259C73.7738 17.4174 73.5454 17.4702 73.3422 17.579C73.1391 17.6878 72.9686 17.8486 72.848 18.0449C72.4932 18.6332 72.1962 19.2544 71.961 19.8999C71.7672 20.3725 71.6055 20.8576 71.477 21.3519C71.1528 22.5438 70.9897 23.7738 70.992 25.0089C71.0159 26.0533 71.1061 27.095 71.262 28.1279C74.0207 26.0126 75.4004 23.4669 75.401 20.4909ZM80.349 14.5219C80.707 13.8759 81.3343 12.6759 82.231 10.9219C83.2269 8.88224 83.7076 6.62949 83.631 4.36093C83.6374 3.73101 83.5925 3.10162 83.497 2.47894C83.4255 1.98055 83.2108 1.51366 82.879 1.13495C82.6914 0.901553 82.4223 0.747883 82.126 0.704926C81.8108 0.736134 81.5207 0.890726 81.319 1.13495C80.7736 1.79783 80.4202 2.59739 80.297 3.44693C79.5743 7.77062 79.1254 12.1356 78.953 16.5159C79.4809 15.897 79.9484 15.2289 80.349 14.5209V14.5219Z" fill="#3D6059"/>
<path d="M93.336 30.7359C92.7538 30.2104 92.3339 29.5293 92.126 28.7729L91.857 27.213C91.7805 26.5798 91.5599 25.9725 91.212 25.4379L89.061 28.7719C88.8487 29.2206 88.5137 29.6001 88.0949 29.8666C87.6761 30.1331 87.1904 30.2757 86.694 30.2779C86.0627 30.27 85.454 30.0419 84.973 29.6329C84.4136 29.1665 84.0333 28.5204 83.897 27.8049C83.7677 26.9682 83.6959 26.1235 83.682 25.2769C83.6765 24.3529 83.7847 23.4316 84.004 22.5339C84.4882 20.7948 85.3109 19.1684 86.425 17.7479C86.7706 17.3148 87.2391 16.9962 87.769 16.8339C88.474 16.6737 89.199 16.6194 89.92 16.6729L90.62 16.7259C90.7417 16.7425 90.8656 16.7263 90.979 16.679C91.0924 16.6317 91.1911 16.5551 91.265 16.4569C91.4566 16.0929 91.5493 15.685 91.534 15.2739C91.892 12.4419 92.2237 10.255 92.529 8.71295C92.8339 7.17126 93.2749 5.65964 93.847 4.19592C94.1763 3.04675 94.7651 1.98856 95.568 1.10294C95.8493 0.77481 96.1949 0.507901 96.5835 0.318695C96.972 0.129489 97.3953 0.0220049 97.827 0.00292969C98.2824 0.0101323 98.7313 0.112329 99.145 0.302948C99.5787 0.48737 99.9316 0.821739 100.139 1.24493C100.54 2.17751 100.724 3.18893 100.677 4.20294C100.67 5.68023 100.444 7.1483 100.005 8.55893C99.4796 10.2123 98.8044 11.8142 97.988 13.3449C97.4752 14.5238 96.8637 15.6571 96.16 16.7329C95.8242 17.2782 95.4272 17.7835 94.977 18.2389C94.7788 18.3952 94.6381 18.613 94.577 18.8579C94.5141 19.2036 94.4873 19.5548 94.497 19.9059C94.392 22.7501 94.5722 25.5977 95.035 28.4059C95.2857 29.5179 95.6264 30.0736 96.057 30.0729C96.3344 30.0183 96.5829 29.8657 96.757 29.6429C97.4661 28.6986 98.0697 27.6796 98.557 26.6039C99.0764 25.4746 99.695 23.9239 100.413 21.9519L100.682 21.1989L101.005 20.3919C101.398 19.3526 101.667 18.6713 101.811 18.3479C101.842 18.2422 101.905 18.149 101.992 18.0814C102.079 18.0139 102.185 17.9756 102.295 17.9719C102.421 17.9662 102.544 18.0044 102.645 18.0799C102.687 18.111 102.721 18.1516 102.745 18.1983C102.768 18.245 102.78 18.2966 102.78 18.3489C102.762 18.4962 102.726 18.6406 102.673 18.7789C101.095 22.7589 100.109 25.2329 99.715 26.2009L98.532 28.5139L97.725 30.0729C97.5087 30.5297 97.1649 30.9141 96.7349 31.1797C96.305 31.4454 95.8073 31.5809 95.302 31.5699C94.5742 31.51 93.885 31.2176 93.336 30.7359ZM91.32 20.4909L91.266 19.631C91.2721 19.1628 91.19 18.6977 91.024 18.2599C90.9739 18.0895 90.888 17.9316 90.7719 17.7971C90.6558 17.6626 90.5123 17.5545 90.351 17.4799C90.2126 17.434 90.0665 17.4157 89.921 17.4259C89.6908 17.4174 89.4624 17.4702 89.2593 17.579C89.0561 17.6878 88.8856 17.8486 88.765 18.0449C88.41 18.6332 88.1127 19.2545 87.877 19.8999C87.6834 20.3726 87.5217 20.8576 87.393 21.3519C87.0691 22.5438 86.9063 23.7738 86.909 25.0089C86.9327 26.0532 87.0226 27.095 87.178 28.1279C89.9387 26.0126 91.319 23.4669 91.319 20.4909H91.32ZM96.267 14.5219C96.625 13.8759 97.2527 12.6759 98.15 10.9219C99.1457 8.88218 99.6264 6.62947 99.55 4.36093C99.5563 3.73101 99.5115 3.10162 99.416 2.47894C99.3445 1.98055 99.1298 1.51366 98.798 1.13495C98.6105 0.901476 98.3414 0.747787 98.045 0.704926C97.7298 0.736134 97.4397 0.890726 97.238 1.13495C96.6922 1.79758 96.3387 2.59727 96.216 3.44693C95.4929 7.77057 95.044 12.1356 94.872 16.5159C95.3997 15.897 95.8668 15.229 96.267 14.5209V14.5219Z" fill="#3D6059"/>
<path d="M100.785 29.5245C100.549 28.9809 100.421 28.3962 100.409 27.8035L100.355 25.6525V24.4155C100.32 22.3611 100.482 20.308 100.839 18.2845L101.216 16.5635C101.359 15.9542 101.807 15.6672 102.56 15.7025C102.71 15.6914 102.861 15.7146 103.001 15.7704C103.141 15.8262 103.266 15.9131 103.367 16.0245C103.46 16.1458 103.527 16.2847 103.563 16.4328C103.6 16.5808 103.607 16.7349 103.582 16.8855L103.152 24.7915L103.044 27.5915C103.004 28.0679 103.031 28.5476 103.124 29.0165C103.231 29.4696 103.423 29.8985 103.689 30.2805C103.904 30.2805 104.138 30.0655 104.389 29.6355C105.098 28.6913 105.702 27.6722 106.189 26.5965C106.708 25.4672 107.327 23.9165 108.045 21.9445L108.314 21.1915L108.637 20.3845C109.031 19.3452 109.3 18.6638 109.444 18.3405C109.475 18.2347 109.538 18.1414 109.625 18.0738C109.712 18.0063 109.818 17.968 109.928 17.9645C110.054 17.9588 110.177 17.997 110.278 18.0725C110.32 18.1037 110.354 18.1443 110.377 18.191C110.4 18.2378 110.412 18.2893 110.412 18.3415C110.394 18.4888 110.358 18.6333 110.304 18.7715C108.726 22.7515 107.74 25.2255 107.346 26.1935L106.163 28.5065L105.356 30.0655C105.141 30.5234 104.798 30.9093 104.369 31.1766C103.939 31.4438 103.442 31.581 102.936 31.5715C102.427 31.4539 101.959 31.202 101.581 30.8419C101.202 30.4819 100.928 30.0269 100.785 29.5245ZM102.185 12.1805C102.045 12.0682 101.933 11.9246 101.858 11.7612C101.783 11.5977 101.748 11.419 101.755 11.2395C101.754 11.0647 101.792 10.8919 101.866 10.7338C101.941 10.5756 102.05 10.4361 102.185 10.3255C102.484 10.0699 102.868 9.93539 103.261 9.9485C103.429 9.93819 103.598 9.964 103.756 10.0242C103.913 10.0844 104.056 10.1776 104.175 10.2975C104.394 10.5404 104.51 10.8588 104.498 11.1855C104.507 11.5196 104.392 11.845 104.175 12.0995C104.067 12.2247 103.936 12.3272 103.788 12.401C103.64 12.4748 103.479 12.5185 103.314 12.5295C102.907 12.5497 102.507 12.4261 102.182 12.1805H102.185Z" fill="#3D6059"/>
<path d="M118.048 29.7679C117.592 28.3545 117.428 26.8635 117.564 25.3849C117.743 23.4515 117.851 21.5155 117.887 19.5768L117.941 18.7699C117.941 17.9092 117.708 17.4075 117.241 17.2649C117.139 17.2234 117.028 17.2049 116.918 17.2108C116.523 17.2108 116.128 17.4979 115.735 18.0719L115.251 18.6638C113.591 20.7674 112.515 23.2717 112.132 25.9239C112.084 26.1539 112.066 26.3892 112.078 26.6239C112.085 27.1655 112.139 27.7055 112.239 28.2379C112.31 28.8832 112.346 29.2955 112.346 29.4749L112.4 30.2278C112.411 30.3781 112.388 30.5289 112.332 30.6687C112.276 30.8086 112.189 30.9338 112.077 31.0349C111.741 31.2472 111.344 31.3418 110.948 31.3039C110.738 31.3214 110.527 31.2957 110.328 31.2284C110.128 31.1611 109.945 31.0536 109.788 30.9125C109.632 30.7715 109.507 30.5999 109.419 30.4083C109.332 30.2167 109.285 30.0093 109.281 29.7989C109.03 27.9322 108.85 26.4172 108.743 25.2538C108.636 24.1188 108.6 22.9783 108.635 21.8389L108.796 18.9389C108.788 18.6759 108.874 18.4186 109.038 18.2129C109.207 18.0121 109.449 17.8865 109.71 17.8639H109.979C110.235 17.8597 110.487 17.935 110.699 18.0795C110.91 18.224 111.072 18.4306 111.162 18.6709C111.467 19.515 111.613 20.4085 111.592 21.3058L111.7 22.9729L112.291 21.8979C112.936 20.8219 113.331 20.1219 113.474 19.7979C114.874 17.5752 116.183 16.4639 117.4 16.4639C117.928 16.4906 118.434 16.681 118.848 17.0086C119.262 17.3362 119.564 17.7847 119.712 18.2919C119.996 19.0007 120.195 19.7409 120.304 20.4969C120.411 21.2495 120.519 22.3432 120.627 23.7779C120.698 25.2839 120.734 26.7539 120.735 28.1879C120.735 29.3359 120.914 29.9095 121.273 29.9088C121.463 29.8852 121.637 29.7888 121.757 29.6399C122.466 28.6956 123.07 27.6765 123.557 26.6009C124.076 25.4715 124.695 23.9209 125.413 21.9489L125.682 21.1959L126.005 20.3889C126.399 19.3495 126.668 18.6682 126.812 18.3448C126.843 18.2391 126.906 18.1457 126.993 18.0782C127.08 18.0106 127.186 17.9724 127.296 17.9689C127.421 17.9635 127.545 18.0016 127.645 18.0768C127.687 18.1079 127.721 18.1484 127.745 18.1952C127.768 18.2419 127.78 18.2936 127.78 18.3459C127.762 18.4932 127.726 18.6376 127.672 18.7758C126.094 22.7558 125.108 25.2298 124.714 26.1978L123.531 28.5109L122.724 30.0699C122.527 30.5075 122.21 30.8808 121.811 31.1471C121.411 31.4134 120.945 31.562 120.465 31.5759C119.917 31.5946 119.378 31.4256 118.939 31.0969C118.499 30.7682 118.185 30.2993 118.048 29.7679Z" fill="#3D6059"/>
<path d="M130.014 47.1931C129.501 46.6119 129.173 45.8908 129.073 45.1221C128.917 44.2336 128.827 43.3348 128.803 42.4331C128.805 40.094 129.417 37.7958 130.578 35.7651C131.552 33.8559 132.823 32.1133 134.343 30.6021C134.589 30.3947 134.792 30.1407 134.94 29.8546C135.088 29.5685 135.177 29.256 135.204 28.9351C135.131 27.0018 135.095 24.8324 135.096 22.4271C135.02 22.4364 134.944 22.4175 134.881 22.3741C134.8 22.327 134.705 22.308 134.612 22.3201C134.022 23.3589 133.376 24.3644 132.676 25.3321L131.547 26.9461C131.339 27.2866 131.105 27.6102 130.847 27.9141C130.537 28.3482 130.135 28.7083 129.669 28.9686C129.204 29.2288 128.686 29.3826 128.154 29.4191L127.401 29.3111C126.736 29.1572 126.135 28.8001 125.683 28.2894C125.23 27.7787 124.947 27.1397 124.874 26.4611C124.767 25.8213 124.713 25.1738 124.713 24.5251C124.696 22.5769 125.257 20.6674 126.327 19.0391C126.777 18.3003 127.418 17.6965 128.182 17.2911C128.951 16.8796 129.81 16.6671 130.682 16.6731C131.731 16.6655 132.759 16.9644 133.64 17.5331C133.998 17.7484 134.465 18.0711 135.04 18.5011C135.18 18.4155 135.297 18.2975 135.381 18.157C135.465 18.0164 135.514 17.8576 135.524 17.6941C135.559 17.5151 135.632 17.2461 135.739 16.8871C135.94 16.6323 136.227 16.4601 136.546 16.4031C136.643 16.3915 136.742 16.4013 136.835 16.4316C136.928 16.4619 137.013 16.5121 137.085 16.5787C137.156 16.6453 137.213 16.7267 137.25 16.8173C137.287 16.9078 137.304 17.0054 137.299 17.1031C137.602 19.0783 137.746 21.0748 137.73 23.0731C137.73 24.2211 137.748 25.0638 137.783 25.6011L137.837 27.7521C138.43 27.5441 138.991 27.2543 139.504 26.8911C144.523 24.1411 150.091 22.5428 155.804 22.2121C159.632 21.9861 163.431 21.41 167.154 20.4911C169.124 19.9352 171.041 19.2064 172.882 18.3131C174.382 17.5598 175.738 16.5495 176.889 15.3281C179.129 13.2299 180.444 10.3284 180.546 7.26108C180.564 6.54945 180.51 5.83782 180.385 5.13708C180.272 4.64373 180.03 4.18904 179.685 3.81909C179.632 3.7512 179.599 3.67003 179.59 3.58459C179.581 3.49916 179.595 3.41278 179.632 3.33508C179.68 3.28385 179.739 3.24304 179.804 3.21515C179.868 3.18725 179.938 3.17285 180.009 3.17285C180.079 3.17285 180.149 3.18725 180.214 3.21515C180.278 3.24304 180.337 3.28385 180.385 3.33508C180.652 3.49399 180.867 3.72758 181.003 4.00708C181.167 4.41367 181.284 4.83779 181.352 5.27109C181.512 5.95929 181.584 6.66484 181.567 7.37109C181.574 8.84907 181.223 10.3067 180.545 11.6201C179.42 14.1956 177.532 16.3639 175.135 17.8321C172.712 19.2799 170.096 20.3756 167.364 21.0861C164.962 21.7131 162.518 22.1626 160.05 22.4311L158.328 22.5921C155.747 22.8434 154.098 23.0228 153.38 23.1301C148.366 23.7975 143.528 25.4226 139.128 27.9171C139.092 27.9171 139.039 27.9701 138.967 28.0781C138.627 28.3374 138.245 28.5376 137.838 28.6701C137.836 29.3529 137.872 30.0353 137.946 30.7141C138.089 32.8654 138.16 34.7478 138.161 36.3611C138.194 38.9446 137.941 41.5239 137.408 44.0521C137.132 45.1053 136.617 46.0806 135.903 46.9021C135.525 47.3196 135.058 47.6473 134.537 47.8613C134.016 48.0753 133.454 48.1703 132.891 48.1391C132.549 48.1514 132.207 48.1333 131.869 48.0851C131.16 48.0328 130.497 47.7141 130.014 47.1931ZM134.397 20.7601C134.47 20.6094 134.507 20.4436 134.505 20.2761C134.504 19.9177 134.37 19.5725 134.128 19.3081C133.763 18.7796 133.283 18.3405 132.724 18.0239C132.165 17.7073 131.542 17.5214 130.901 17.4801C130.513 17.5022 130.138 17.6289 129.817 17.8466C129.495 18.0644 129.238 18.3652 129.073 18.7171C128.17 20.2892 127.688 22.0674 127.673 23.8801C127.685 25.2758 127.94 26.6587 128.426 27.9671C130.891 26.0012 132.924 23.5477 134.397 20.7601ZM132.514 47.2741C132.816 47.2405 133.105 47.1351 133.358 46.9666C133.61 46.7982 133.819 46.5717 133.966 46.3061C134.431 45.5192 134.775 44.6671 134.988 43.7781C135.309 41.8225 135.471 39.8439 135.472 37.8621C135.472 35.9608 135.347 33.7738 135.096 31.3011C133.525 32.848 132.224 34.6481 131.25 36.6261C130.406 38.4264 129.974 40.3926 129.986 42.3811L130.04 43.4031C130.08 44.4687 130.435 45.4983 131.062 46.3611C131.223 46.6102 131.436 46.821 131.687 46.9787C131.938 47.1365 132.22 47.2373 132.514 47.2741Z" fill="#3D6059"/>
<path d="M147.851 17.2164C146.304 18.6386 145.068 20.3663 144.222 22.2904C143.501 23.9288 143.116 25.6954 143.09 27.4853C143.042 28.3732 143.264 29.2548 143.726 30.0144C143.909 30.3043 144.164 30.5421 144.466 30.7045C144.768 30.8669 145.106 30.9485 145.449 30.9414C146.897 30.9414 148.406 29.6747 149.975 27.1413C151.399 25.056 152.214 22.6151 152.328 20.0924C152.353 19.5625 152.245 19.0347 152.016 18.5564C151.947 18.3924 151.833 18.2515 151.686 18.1505C151.54 18.0495 151.368 17.9925 151.19 17.9864C150.555 17.9864 149.966 18.4654 149.423 19.4234C148.938 20.1918 148.657 21.0718 148.608 21.9794C148.594 22.0881 148.603 22.1985 148.633 22.3038C148.664 22.409 148.716 22.5069 148.786 22.5913C148.856 22.6757 148.942 22.7448 149.04 22.7944C149.138 22.8439 149.245 22.8728 149.354 22.8794C149.559 22.9014 149.661 23.0013 149.661 23.1793C149.648 23.3636 149.597 23.5432 149.511 23.7066C149.425 23.87 149.306 24.0137 149.161 24.1283C148.89 24.4133 148.519 24.5806 148.126 24.5944C147.907 24.5929 147.691 24.5373 147.498 24.4327C147.305 24.3281 147.141 24.1775 147.02 23.9943C146.71 23.5571 146.553 23.0298 146.574 22.4943C146.607 21.1397 147.114 19.8395 148.006 18.8194C148.327 18.3212 148.757 17.9024 149.264 17.5946C149.77 17.2868 150.34 17.098 150.93 17.0423C151.245 17.0326 151.557 17.1011 151.838 17.2418C152.12 17.3825 152.362 17.5909 152.543 17.8483C152.972 18.507 153.18 19.2855 153.135 20.0704C153.083 22.0988 152.565 24.088 151.621 25.8844C150.711 27.8082 149.424 29.5298 147.836 30.9473C146.696 32.1023 145.176 32.8057 143.558 32.9274C143.055 32.9319 142.558 32.8146 142.11 32.5855C141.662 32.3563 141.276 32.0221 140.985 31.6114C140.276 30.6274 139.918 29.4333 139.97 28.2214C139.982 26.6907 140.282 25.176 140.854 23.7564C141.412 22.3037 142.188 20.9442 143.154 19.7244C143.773 18.8553 144.539 18.1009 145.417 17.4954C146.182 17.1496 147.018 16.9935 147.856 17.0404L147.851 17.2164Z" fill="#3D6059"/>
</g>
<defs>
<clipPath id="clip0_596_804">
<rect width="181.563" height="48.134" fill="white"/>
</clipPath>
</defs>
</svg>
