<svg width="15" height="18" viewBox="0 0 15 18" fill="none" xmlns="http://www.w3.org/2000/svg">
<path d="M13.8 5V13C13.8 16.2 13 17 9.8 17H5C1.8 17 1 16.2 1 13V5C1 1.8 1.8 1 5 1H9.8C13 1 13.8 1.8 13.8 5Z" stroke="#3D6059" stroke-width="1.5" stroke-linecap="round" stroke-linejoin="round"/>
<path d="M9.00078 3.7998H5.80078" stroke="#3D6059" stroke-width="1.5" stroke-linecap="round" stroke-linejoin="round"/>
<path d="M7.40003 14.6802C8.08487 14.6802 8.64003 14.125 8.64003 13.4402C8.64003 12.7554 8.08487 12.2002 7.40003 12.2002C6.7152 12.2002 6.16003 12.7554 6.16003 13.4402C6.16003 14.125 6.7152 14.6802 7.40003 14.6802Z" stroke="#3D6059" stroke-width="1.5" stroke-linecap="round" stroke-linejoin="round"/>
</svg>
