<svg width="50" height="50" viewBox="0 0 50 50" fill="none" xmlns="http://www.w3.org/2000/svg">
<g clip-path="url(#clip0_856_2328)">
<path d="M38.9433 32.8767V0H3.229V45.3522C3.229 47.915 5.31403 50 7.87675 50H42.1233C44.686 50 46.7711 47.915 46.7711 45.3522V32.8767H38.9433ZM7.87675 48.5323C6.12333 48.5323 4.69671 47.1057 4.69671 45.3522V1.46771H37.4756V45.3522C37.4756 46.5812 37.955 47.7003 38.7367 48.5323H7.87675ZM45.3034 45.3522C45.3034 47.1057 43.8768 48.5323 42.1233 48.5323C40.3699 48.5323 38.9433 47.1057 38.9433 45.3522V34.3444H45.3034V45.3522Z" fill="#3D6059"/>
<path d="M17.8173 18.0635L21.0862 14.7787L24.3552 18.0635L30.7806 11.6071C32.5339 9.84529 32.5283 6.98404 30.7681 5.22895C29.9174 4.38071 28.7882 3.91388 27.5876 3.91388C27.5847 3.91388 27.5815 3.91388 27.5786 3.91388C26.3747 3.91613 25.2438 4.38766 24.3942 5.24128L24.3552 5.28042L24.3164 5.24128C23.4667 4.38766 22.3357 3.91623 21.1317 3.91388C19.9273 3.91261 18.7951 4.37866 17.9423 5.22895C17.9127 5.2585 17.8847 5.28922 17.856 5.31946L17.7782 5.24138C16.9287 4.38766 15.7978 3.91623 14.5939 3.91388C14.5908 3.91388 14.5879 3.91388 14.5849 3.91388C13.3843 3.91388 12.255 4.38071 11.4043 5.22895C9.64416 6.98404 9.63859 9.84519 11.392 11.607L17.8173 18.0635ZM18.9787 6.26828C19.5523 5.69637 20.3135 5.38159 21.1229 5.38159H21.129C21.9406 5.38316 22.7031 5.70106 23.276 6.2767L24.3552 7.36114L25.4345 6.2767C26.0073 5.70106 26.7697 5.38316 27.5813 5.38159H27.5874C28.3967 5.38159 29.1581 5.69637 29.7317 6.26828C30.9193 7.45243 30.9231 9.38296 29.7401 10.5717L24.3551 15.9828L18.9702 10.5717C17.7873 9.38306 17.791 7.45253 18.9787 6.26828ZM12.4406 6.26828C13.0143 5.69637 13.7756 5.38159 14.585 5.38159H14.591C15.4027 5.38316 16.1652 5.70106 16.738 6.2767L17.0201 6.56026C16.27 8.21897 16.572 10.2426 17.93 11.6072L20.0509 13.7384L17.8173 15.983L12.4323 10.5719C11.2493 9.38306 11.2531 7.45253 12.4406 6.26828Z" fill="#3D6059"/>
<path d="M9.83347 25.5278L8.78679 24.4811L7.74902 25.5189L9.83347 27.6033L13.6792 23.7576L12.6414 22.7198L9.83347 25.5278Z" fill="#3D6059"/>
<path d="M15.5088 22.7006H34.0998V24.1683H15.5088V22.7006Z" fill="#3D6059"/>
<path d="M15.5088 25.636H27.2505V27.1037H15.5088V25.636Z" fill="#3D6059"/>
<path d="M7.92578 35.91H13.3074V30.5284H7.92578V35.91ZM9.39349 31.9961H11.8397V34.4423H9.39349V31.9961Z" fill="#3D6059"/>
<path d="M15.5088 30.5284H34.0998V31.9961H15.5088V30.5284Z" fill="#3D6059"/>
<path d="M15.5088 33.4638H27.2505V34.9315H15.5088V33.4638Z" fill="#3D6059"/>
<path d="M7.92578 43.7378H13.3074V38.3562H7.92578V43.7378ZM9.39349 39.8239H11.8397V42.2701H9.39349V39.8239Z" fill="#3D6059"/>
<path d="M15.5088 38.3562H34.0998V39.8239H15.5088V38.3562Z" fill="#3D6059"/>
<path d="M15.5088 41.2916H27.2505V42.7593H15.5088V41.2916Z" fill="#3D6059"/>
</g>
<defs>
<clipPath id="clip0_856_2328">
<rect width="50" height="50" fill="white"/>
</clipPath>
</defs>
</svg>
