<svg width="50" height="50" viewBox="0 0 50 50" fill="none" xmlns="http://www.w3.org/2000/svg">
<path d="M40.2124 20.5076C40.3109 20.7727 40.5684 20.9394 40.8336 20.9394C40.9094 20.9394 40.9927 20.9242 41.0684 20.9015L43.2957 20.0758C43.6366 19.947 43.8109 19.5682 43.6821 19.2197C43.5533 18.8788 43.1745 18.7045 42.826 18.8333L40.5987 19.6591C40.2578 19.7879 40.0836 20.1667 40.2124 20.5076Z" fill="#3D6059"/>
<path d="M38.7498 18.3257C38.9165 18.3257 39.0907 18.2651 39.2195 18.1288L40.8559 16.4924C41.1134 16.2348 41.1134 15.8106 40.8559 15.553C40.5983 15.2954 40.174 15.2954 39.9165 15.553L38.2801 17.1894C38.0225 17.447 38.0225 17.8712 38.2801 18.1288C38.4165 18.2651 38.5831 18.3257 38.7498 18.3257Z" fill="#3D6059"/>
<path d="M35.909 16.2046C35.9847 16.2349 36.0605 16.2424 36.1363 16.2424C36.409 16.2424 36.659 16.0758 36.7575 15.8106L37.5832 13.5833C37.712 13.2424 37.5378 12.8561 37.1969 12.7273C36.856 12.5985 36.4696 12.7727 36.3408 13.1136L35.5151 15.3409C35.3938 15.697 35.5681 16.0833 35.909 16.2046Z" fill="#3D6059"/>
<path d="M45.1819 23.3636H36.7501L35.1895 20.2576C35.0759 20.0379 34.8486 19.8939 34.5986 19.8939H26.4698C26.2198 19.8939 25.9925 20.0379 25.8789 20.2576L24.3183 23.3636H15.8789C13.6744 23.3636 11.8789 25.1591 11.8789 27.3636V44.1667C11.8789 46.3712 13.6744 48.1667 15.8789 48.1667H45.1744C47.3789 48.1667 49.1744 46.3712 49.1744 44.1667V27.356C49.1744 25.1515 47.3865 23.3636 45.1819 23.3636ZM47.8486 44.1591C47.8486 45.6363 46.6516 46.8333 45.1744 46.8333H15.8789C14.4092 46.8333 13.2047 45.6363 13.2047 44.1591V27.356C13.2047 25.8788 14.4016 24.6818 15.8789 24.6818H24.7198C24.9698 24.6818 25.1971 24.5379 25.3107 24.3182L26.8713 21.2121H34.1744L35.735 24.3182C35.8486 24.5379 36.0759 24.6818 36.3259 24.6818H45.1668C46.6441 24.6818 47.841 25.8788 47.841 27.356V44.1591H47.8486Z" fill="#3D6059"/>
<path d="M30.5305 26.2803C25.3032 26.2803 21.0532 30.5303 21.0532 35.7576C21.0532 40.9849 25.3032 45.2349 30.5305 45.2349C35.7578 45.2349 40.0078 40.9849 40.0078 35.7576C40.0078 30.5303 35.7578 26.2803 30.5305 26.2803ZM30.5305 43.9091C26.0381 43.9091 22.379 40.25 22.379 35.7576C22.379 31.2652 26.0381 27.6061 30.5305 27.6061C35.0229 27.6061 38.682 31.2652 38.682 35.7576C38.682 40.25 35.0229 43.9091 30.5305 43.9091Z" fill="#3D6059"/>
<path d="M30.5305 29.3106C26.9774 29.3106 24.0835 32.2045 24.0835 35.7576C24.0835 39.3106 26.9774 42.2045 30.5305 42.2045C34.0835 42.2045 36.9774 39.3106 36.9774 35.7576C36.9774 32.2045 34.0835 29.3106 30.5305 29.3106ZM30.5305 40.8788C27.7047 40.8788 25.4093 38.5833 25.4093 35.7576C25.4093 32.9318 27.7047 30.6364 30.5305 30.6364C33.3562 30.6364 35.6517 32.9318 35.6517 35.7576C35.6517 38.5833 33.3562 40.8788 30.5305 40.8788Z" fill="#3D6059"/>
<path d="M30.5304 32.3409C30.1668 32.3409 29.8638 32.6364 29.8638 33.0076C29.8638 33.3788 30.1592 33.6742 30.5304 33.6742C31.682 33.6742 32.6213 34.6136 32.6213 35.7652C32.6213 36.1288 32.9168 36.4318 33.288 36.4318C33.6592 36.4318 33.9547 36.1364 33.9547 35.7652C33.9471 33.8712 32.4168 32.3409 30.5304 32.3409Z" fill="#3D6059"/>
<path d="M43.2274 26.2803C41.9395 26.2803 40.894 27.3258 40.894 28.6136C40.894 29.9015 41.9395 30.947 43.2274 30.947C44.5153 30.947 45.5607 29.9015 45.5607 28.6136C45.5607 27.3258 44.5153 26.2803 43.2274 26.2803ZM43.2274 29.6136C42.6743 29.6136 42.2198 29.1667 42.2198 28.6061C42.2198 28.0455 42.6668 27.5985 43.2274 27.5985C43.7804 27.5985 44.235 28.0455 44.235 28.6061C44.235 29.1667 43.7804 29.6136 43.2274 29.6136Z" fill="#3D6059"/>
<path d="M19.1743 21.7348C19.3788 21.7348 19.5076 21.7273 19.5455 21.7273C19.7197 21.7197 19.8788 21.6439 20 21.5151C20.1894 21.3182 24.5303 16.5606 22.4091 12.0227C21.5682 10.2197 19.4243 9.43939 17.6212 10.2803C16.5834 10.7651 15.8712 11.6894 15.6364 12.7576C14.6667 12.25 13.4925 12.2045 12.4546 12.6894C11.5834 13.0985 10.9243 13.8182 10.5909 14.7197C10.2576 15.6288 10.3031 16.6061 10.7121 17.4773C12.5606 21.447 17.7273 21.7348 19.1743 21.7348ZM11.8409 15.1742C12.0531 14.6061 12.4697 14.1439 13.0152 13.8939C13.3258 13.75 13.6515 13.6818 13.9773 13.6818C14.6515 13.6818 15.3106 13.9848 15.7576 14.5379C15.947 14.7803 16.2803 14.8561 16.5531 14.7273C16.8334 14.5985 16.9849 14.2954 16.9243 14C16.7197 12.9621 17.2349 11.9318 18.1818 11.4848C19.3182 10.9545 20.6743 11.447 21.2046 12.5833C22.7197 15.8409 19.947 19.5076 19.197 20.4091C18.0228 20.4091 13.4243 20.1742 11.9091 16.9167C11.6591 16.3636 11.6288 15.7424 11.8409 15.1742Z" fill="#3D6059"/>
<path d="M2.33336 14.9621C2.11367 14.4924 2.09094 13.9621 2.26518 13.4773C2.43942 12.9924 2.80306 12.5985 3.27276 12.3788L22.644 3.34848C23.6137 2.89393 24.7728 3.31817 25.2273 4.28787L31.5303 17.803C31.6818 18.1364 32.0758 18.2803 32.4091 18.1212C32.7425 17.9697 32.8864 17.5757 32.7273 17.2424L26.4243 3.72726C25.6667 2.09847 23.7122 1.38635 22.0834 2.14393L2.71215 11.1818C1.92427 11.553 1.31821 12.2045 1.02276 13.0227C0.727304 13.8409 0.765182 14.7273 1.12882 15.5227L8.9167 32.2197C9.03033 32.4621 9.26518 32.5985 9.51518 32.5985C9.60609 32.5985 9.70458 32.5757 9.79549 32.5379C10.1288 32.3864 10.2728 31.9924 10.1137 31.6591L2.33336 14.9621Z" fill="#3D6059"/>
<path d="M5.4241 14.6288L22.9771 6.43939L28.2802 17.803C28.4317 18.1364 28.8256 18.2803 29.159 18.1212C29.4923 17.9697 29.6362 17.5758 29.4771 17.2424L23.9014 5.2803C23.7499 4.94696 23.3559 4.80302 23.0226 4.96211L4.25744 13.7045C3.93168 13.8636 3.78774 14.2576 3.93925 14.5909L9.18168 25.8333C9.29532 26.0757 9.53016 26.2121 9.78016 26.2121C9.87107 26.2121 9.96956 26.1894 10.0605 26.1515C10.3938 26 10.5377 25.6061 10.3786 25.2727L5.4241 14.6288Z" fill="#3D6059"/>
</svg>
