<svg width="50" height="50" viewBox="0 0 50 50" fill="none" xmlns="http://www.w3.org/2000/svg">
<g clip-path="url(#clip0_856_2367)">
<path d="M15.1905 13.0039C14.9136 12.7837 14.5106 12.8297 14.2904 13.1066C14.2897 13.1074 14.2891 13.1083 14.2885 13.109C14.0692 13.3836 14.1141 13.784 14.3887 14.0033C14.3902 14.0045 14.3916 14.0057 14.3931 14.0068C14.6701 14.227 15.0731 14.181 15.2933 13.9041C15.5135 13.6272 15.4675 13.2242 15.1905 13.0039Z" fill="#3D6059"/>
<path d="M49.3624 49.1284H48.1683V23.3243C48.1923 11.9927 39.0257 2.7872 27.6941 2.76312C25.9521 2.75941 24.2167 2.97764 22.5298 3.41236C22.6443 3.04715 22.6066 2.65112 22.4252 2.31413C22.1871 1.92463 21.7811 1.66837 21.327 1.6212C20.8598 1.5713 20.3889 1.67371 19.9847 1.91319C19.9847 0.854179 19.2787 0 18.4158 0C17.5529 0 16.8512 0.871611 16.8469 1.91319C16.4427 1.67371 15.9718 1.5713 15.5046 1.6212C15.049 1.66707 14.6409 1.92343 14.402 2.31413C14.1801 2.71779 14.1622 3.20274 14.3541 3.62155C14.5446 4.05071 14.8687 4.40687 15.278 4.63697C14.8695 4.87013 14.5459 5.22727 14.3541 5.65676C14.1623 6.07557 14.1801 6.56051 14.402 6.96418C14.4951 7.11529 14.6164 7.24701 14.7594 7.35204C13.6072 8.27323 12.5568 9.31491 11.6259 10.4593C11.5881 10.5088 11.56 10.565 11.5431 10.6249C11.0044 10.7901 10.6321 11.2818 10.6192 11.8452C10.5743 11.8769 10.5359 11.9169 10.5059 11.9629C10.2488 12.342 10.0135 12.7386 9.78248 13.1352C9.15001 12.6441 8.27655 12.6058 7.60345 13.0393C7.60345 11.9803 6.89744 11.1218 6.03455 11.1218C5.17165 11.1218 4.46565 11.9934 4.46129 13.0393C3.5461 12.512 2.45222 12.695 2.02078 13.4403C1.58933 14.1855 1.98155 15.2227 2.89239 15.7544C1.95976 16.2861 1.56754 17.3233 1.99899 18.0729C2.43479 18.8181 3.52431 18.9968 4.4395 18.4738C4.4395 19.5328 5.14986 20.387 6.01276 20.387C6.73173 20.3352 7.3302 19.8149 7.48142 19.1101C7.33761 19.7987 7.22866 20.5003 7.15457 21.1976V21.2194C7.10761 21.2739 7.06534 21.3321 7.02818 21.3937C6.80483 21.7967 6.78544 22.2816 6.97589 22.7011C7.16644 23.1303 7.49047 23.4864 7.8998 23.7166C7.48981 23.9477 7.16557 24.3055 6.97589 24.7363C6.78686 25.1557 6.80462 25.6393 7.02383 26.0438L7.04562 26.0699V49.1197H1.38014C1.13947 49.1197 0.944336 49.3148 0.944336 49.5555C0.944336 49.7962 1.13947 49.9913 1.38014 49.9913H15.5046C15.7453 49.9913 15.9404 49.7962 15.9404 49.5555C15.9404 49.3148 15.7453 49.1197 15.5046 49.1197H10.7107V28.3012C10.8133 28.3277 10.9187 28.3409 11.0245 28.3405C11.8961 28.3405 12.5891 27.4688 12.5934 26.4273C12.9982 26.6652 13.469 26.7661 13.9357 26.7149C14.6992 26.6616 15.275 25.9995 15.2218 25.236C15.2095 25.0595 15.1635 24.8869 15.0862 24.7276C14.8965 24.2968 14.5724 23.939 14.1623 23.7078C14.5717 23.4777 14.8957 23.1216 15.0862 22.6924C15.4204 22.0011 15.1309 21.1699 14.4397 20.8357C14.2817 20.7593 14.1107 20.7135 13.9357 20.7008C13.469 20.6496 12.9982 20.7505 12.5934 20.9884C12.6437 20.1474 12.1211 19.378 11.3209 19.1144C11.5667 18.2176 11.8874 17.3429 12.2796 16.4996C12.6145 16.4817 12.9409 16.3878 13.2341 16.225C13.2341 17.2797 13.9401 18.1382 14.803 18.1382C15.6659 18.1382 16.3719 17.2666 16.3762 16.225C17.2914 16.748 18.3853 16.5693 18.8167 15.8241C19.0387 15.4204 19.0565 14.9355 18.8647 14.5167C18.6761 14.0866 18.3536 13.7289 17.9451 13.4969C18.856 12.9652 19.2525 11.928 18.8167 11.1828C18.3836 10.568 17.5884 10.3255 16.8861 10.5944C17.4613 10.1176 18.0685 9.68077 18.7034 9.28702C18.7352 9.26392 18.7631 9.23603 18.7862 9.20422C19.0207 9.13384 19.2326 9.00309 19.4007 8.82507C19.4617 8.82256 19.5213 8.80622 19.575 8.77713C19.9455 8.5723 20.329 8.39362 20.7125 8.2193C20.7734 20.7714 28.9528 31.84 40.9339 35.5835C38.8862 39.8029 37.8422 44.4386 37.8832 49.1284H23.2576C23.0169 49.1284 22.8218 49.3235 22.8218 49.5642C22.8218 49.8049 23.0169 50 23.2576 50H49.3624C49.603 50 49.7982 49.8049 49.7982 49.5642C49.7982 49.3235 49.603 49.1284 49.3624 49.1284ZM13.6699 9.4657C13.387 9.84289 13.2341 10.3017 13.2341 10.7731C13.0564 10.6733 12.8657 10.5986 12.6675 10.5509C12.9769 10.1848 13.3125 9.8187 13.6699 9.4657ZM7.10227 16.8047C6.96935 16.6378 6.73511 16.5917 6.5488 16.6957C6.36086 16.8022 6.27925 17.0302 6.35704 17.2318C6.53409 17.6226 6.64871 18.0388 6.69697 18.4651C6.69697 19.036 6.37448 19.5154 5.99968 19.5154C5.62489 19.5154 5.29804 19.036 5.29804 18.4651C5.34957 18.0351 5.46865 17.6159 5.65104 17.223C5.72611 17.0272 5.65104 16.8055 5.47236 16.6957C5.28714 16.5907 5.053 16.6349 4.91888 16.8003C4.66775 17.1545 4.36171 17.4663 4.01241 17.7242C3.51995 18.0075 2.94468 17.9726 2.75293 17.6458C2.56118 17.3189 2.82266 16.7916 3.31512 16.504C3.71355 16.3352 4.13531 16.228 4.56588 16.1858C4.80656 16.1858 5.00169 15.9907 5.00169 15.75C5.00169 15.5093 4.80656 15.3142 4.56588 15.3142C4.13433 15.2744 3.71203 15.1655 3.31512 14.9917C2.82266 14.7084 2.56553 14.1898 2.75293 13.863C2.94033 13.5361 3.51995 13.4969 4.01241 13.7845C4.36171 14.0424 4.66775 14.3542 4.91888 14.7084C5.053 14.8738 5.28714 14.9181 5.47236 14.813C5.6603 14.7066 5.7419 14.4786 5.66411 14.277C5.48173 13.8841 5.36264 13.465 5.31111 13.035C5.31111 12.464 5.63361 11.9803 6.01276 11.9803C6.39191 11.9803 6.69697 12.4771 6.69697 13.048C6.64489 13.4779 6.52581 13.8971 6.34397 14.2901C6.24482 14.5094 6.34233 14.7676 6.56165 14.8666C6.74992 14.9517 6.97207 14.8929 7.09356 14.7259C7.34338 14.368 7.65128 14.0542 8.00439 13.7976C8.49685 13.5143 9.07647 13.5492 9.26387 13.8761C9.45126 14.2029 9.19414 14.7215 8.70168 15.0048C8.30477 15.1786 7.88247 15.2875 7.45092 15.3273C7.23606 15.3599 7.07798 15.5457 7.08048 15.7631C7.07798 15.9805 7.23606 16.1663 7.45092 16.1989C7.88149 16.2411 8.30324 16.3483 8.70168 16.517C9.19414 16.8047 9.45126 17.3233 9.26387 17.6501C9.07647 17.977 8.49685 18.0119 8.00439 17.7286C7.65596 17.4711 7.35133 17.1592 7.10227 16.8047ZM9.85221 49.1022H7.91723V26.6626C8.44543 26.787 9.00119 26.7028 9.4687 26.4273C9.46608 26.8695 9.60009 27.3017 9.85221 27.665V49.1022ZM11.7349 21.0015C11.6846 21.4312 11.5669 21.8503 11.3862 22.2435C11.2945 22.466 11.4005 22.7208 11.6231 22.8125C11.8033 22.8868 12.0109 22.8323 12.1315 22.6793C12.3803 22.3247 12.6849 22.0127 13.0336 21.7554C13.2749 21.6073 13.5579 21.5416 13.8398 21.568C14.017 21.5887 14.1762 21.6858 14.2756 21.8339C14.3573 21.9986 14.3573 22.1921 14.2756 22.3568C14.1586 22.6143 13.9614 22.8267 13.7134 22.9626C13.3161 23.1345 12.8939 23.2418 12.4627 23.2807C12.222 23.2807 12.0269 23.4759 12.0269 23.7166C12.0269 23.9572 12.222 24.1524 12.4627 24.1524C12.8937 24.1921 13.3158 24.2996 13.7134 24.4705C13.9614 24.6064 14.1586 24.8189 14.2756 25.0763C14.3575 25.2425 14.3575 25.4373 14.2756 25.6036C14.1749 25.7496 14.016 25.8449 13.8398 25.8651C13.5585 25.8901 13.2764 25.8261 13.0336 25.682C12.687 25.4208 12.3827 25.1076 12.1315 24.7538C11.9825 24.5647 11.7085 24.5323 11.5195 24.6812C11.3664 24.8018 11.312 25.0094 11.3862 25.1896C11.5683 25.5838 11.6861 26.0045 11.7349 26.436C11.7349 27.0025 11.4167 27.4863 11.0376 27.4863C10.6584 27.4863 10.3403 27.0025 10.3403 26.436C10.3891 26.0045 10.5069 25.5838 10.689 25.1896C10.765 24.9904 10.6857 24.7654 10.5016 24.6579C10.4355 24.6188 10.3604 24.5976 10.2837 24.5969C10.1518 24.5964 10.0269 24.6557 9.94372 24.7581C9.6939 25.1133 9.38949 25.4265 9.04161 25.6864C8.54915 25.9697 7.96953 25.9348 7.78213 25.6079C7.70031 25.4417 7.70031 25.2469 7.78213 25.0806C7.89914 24.8233 8.09634 24.6107 8.34432 24.4749C8.74199 24.3039 9.16407 24.1965 9.59508 24.1567C9.83575 24.1567 10.0309 23.9616 10.0309 23.7209C10.0309 23.4802 9.83575 23.2851 9.59508 23.2851C9.16385 23.2462 8.74166 23.1389 8.34432 22.967C8.09634 22.8311 7.89914 22.6186 7.78213 22.3612C7.70042 22.1965 7.70042 22.003 7.78213 21.8382C7.8816 21.6902 8.04078 21.5931 8.21793 21.5724C8.4999 21.5459 8.78285 21.6116 9.02417 21.7598C9.37282 22.017 9.67745 22.3291 9.92629 22.6837C10.0752 22.8727 10.3492 22.9053 10.5383 22.7563C10.6913 22.6356 10.7457 22.4281 10.6714 22.2479C10.4901 21.855 10.3724 21.4358 10.3228 21.0058C10.2846 20.5808 10.5043 20.1741 10.8806 19.973C10.924 19.9664 10.968 19.9664 11.0113 19.973C11.4167 19.9468 11.7349 20.4306 11.7349 21.0015ZM10.397 19.2495C9.79827 19.6229 9.44429 20.2875 9.4687 20.9928C9.06394 20.7548 8.59316 20.6539 8.12641 20.7051H8.09155C8.17479 20.0503 8.29115 19.4001 8.4402 18.7571C9.0513 18.8599 9.66535 18.5915 10.0047 18.0729C10.4405 17.3233 10.044 16.2861 9.13313 15.7544C9.73824 15.43 10.1347 14.8181 10.1834 14.1332C10.2071 14.1108 10.2263 14.0843 10.2401 14.0547C10.4667 13.6451 10.7064 13.2572 10.9504 12.865L10.9548 12.8824C11.1406 13.1434 11.3798 13.3617 11.6564 13.5231C11.2506 13.7475 10.9269 14.0956 10.7325 14.5167C10.5408 14.9355 10.5585 15.4204 10.7805 15.8241C10.9252 16.0672 11.1434 16.258 11.4037 16.3689C10.9842 17.2977 10.6473 18.2617 10.397 19.2495ZM18.0671 11.6447C18.2589 11.9716 17.9974 12.4902 17.505 12.7735C17.1074 12.9446 16.6852 13.0519 16.2542 13.0916C16.0135 13.0916 15.8184 13.2867 15.8184 13.5274C15.8184 13.7681 16.0135 13.9632 16.2542 13.9632C16.6852 14.0029 17.1074 14.1102 17.505 14.2814C17.7342 14.4168 17.9167 14.619 18.0279 14.861C18.1078 15.0277 18.1078 15.2216 18.0279 15.3883C17.8362 15.7152 17.2609 15.75 16.7684 15.4667C16.4198 15.2064 16.114 14.8932 15.862 14.5385C15.713 14.3495 15.439 14.3169 15.25 14.4659C15.0969 14.5865 15.0425 14.7941 15.1168 14.9743C15.299 15.3687 15.4181 15.7894 15.4699 16.2207C15.4699 16.7916 15.1474 17.271 14.7682 17.271C14.3891 17.271 14.1058 16.7872 14.1058 16.2163C14.1571 15.7854 14.2748 15.365 14.4544 14.9699C14.5305 14.7708 14.4512 14.5458 14.267 14.4382C14.0818 14.3297 13.8451 14.3722 13.7092 14.5385C13.4552 14.893 13.148 15.2061 12.7984 15.4667C12.3059 15.75 11.7263 15.7152 11.5389 15.3883C11.4597 15.2215 11.4597 15.0278 11.5389 14.861C11.6576 14.6048 11.8544 14.3927 12.1011 14.2552C12.4986 14.084 12.9208 13.9767 13.3518 13.9371C13.5925 13.9371 13.7876 13.7419 13.7876 13.5013C13.7876 13.2606 13.5925 13.0655 13.3518 13.0655C12.9207 13.0346 12.4972 12.936 12.0967 12.7735C11.85 12.636 11.6533 12.4238 11.5345 12.1677C11.4498 11.9975 11.4498 11.7975 11.5345 11.6273L11.5389 11.6447C11.7263 11.3135 12.3059 11.2787 12.7984 11.5663C13.1468 11.8237 13.4514 12.1357 13.7005 12.4902C13.8351 12.658 14.072 12.7023 14.2583 12.5948C14.4446 12.4869 14.5242 12.2592 14.4457 12.0587C14.2668 11.6649 14.1493 11.2461 14.0971 10.8167C14.0971 10.2458 14.4196 9.76205 14.7944 9.76205C15.1691 9.76205 15.4655 10.1979 15.4916 10.747C15.4719 10.8182 15.4719 10.8936 15.4916 10.9649C15.417 11.3399 15.3046 11.7064 15.1561 12.0587C15.0783 12.2603 15.1599 12.4883 15.3478 12.5948C15.533 12.6998 15.7672 12.6556 15.9013 12.4902C16.1509 12.1347 16.4572 11.8226 16.8078 11.5663C17.3001 11.2787 17.8754 11.3179 18.0671 11.6447ZM16.215 9.99739C16.0214 9.36176 15.4532 8.91332 14.7899 8.87301C14.4712 8.87431 14.1629 8.98686 13.9183 9.19114C14.4995 8.63331 15.1137 8.11089 15.7574 7.6266C16.1404 7.62192 16.5157 7.5183 16.8469 7.3259C16.8305 7.95258 17.1059 8.55138 17.5921 8.94709C17.1153 9.2734 16.6557 9.62401 16.215 9.99739ZM19.9629 7.57866C19.9747 7.49488 19.982 7.41044 19.9847 7.3259C20.0683 7.371 20.1541 7.41164 20.2418 7.44792L19.9629 7.57866ZM20.3769 6.57195C20.0285 6.3145 19.7239 6.00257 19.4748 5.64804C19.3259 5.45901 19.0518 5.42654 18.8628 5.57548C18.7097 5.69609 18.6554 5.90364 18.7297 6.08385C18.9121 6.4764 19.0297 6.89575 19.0783 7.3259C19.0783 7.8968 18.7602 8.37619 18.381 8.37619C18.0019 8.37619 17.6837 7.8968 17.6837 7.3259C17.7323 6.89575 17.85 6.4764 18.0324 6.08385C18.119 5.8593 18.0072 5.60708 17.7827 5.52035C17.733 5.50118 17.6803 5.49126 17.6271 5.49115C17.4953 5.49072 17.3703 5.54999 17.2872 5.6524C17.0368 6.00573 16.7323 6.31755 16.385 6.57631C16.1422 6.72034 15.8601 6.78441 15.5788 6.75935C15.2878 6.74725 15.0617 6.50157 15.0738 6.21067C15.0773 6.12623 15.1011 6.04397 15.143 5.97065L15.1604 5.96193C15.279 5.70775 15.4761 5.49845 15.7226 5.36488C16.1207 5.19535 16.5426 5.08803 16.9734 5.04674C17.2141 5.04674 17.4092 4.85161 17.4092 4.61093C17.4092 4.37026 17.2141 4.17513 16.9734 4.17513C16.5417 4.13612 16.1193 4.02728 15.7226 3.85263C15.4742 3.71949 15.2766 3.50813 15.1604 3.25122C15.0793 3.08485 15.0793 2.89026 15.1604 2.7239C15.2586 2.57529 15.4189 2.47908 15.5962 2.46241C15.8777 2.43463 16.1606 2.4988 16.4025 2.64545C16.7497 2.90421 17.0542 3.21603 17.3046 3.56936C17.4535 3.75839 17.7275 3.79086 17.9166 3.64192C18.0697 3.52131 18.124 3.31376 18.0498 3.13355C17.8692 2.74035 17.7515 2.32121 17.7012 1.89151C17.7012 1.3206 18.0193 0.841214 18.3985 0.841214C18.7776 0.841214 19.0958 1.3206 19.0958 1.89151C19.0472 2.32165 18.9295 2.741 18.7471 3.13355C18.6554 3.35603 18.7614 3.61087 18.984 3.7025C19.1642 3.7768 19.3717 3.72233 19.4923 3.56936C19.7427 3.21603 20.0472 2.90421 20.3945 2.64545C20.6363 2.4988 20.9193 2.43463 21.2007 2.46241C21.3781 2.47908 21.5383 2.57529 21.6365 2.7239C21.7177 2.89026 21.7177 3.08485 21.6365 3.25122C21.5187 3.50704 21.3215 3.71797 21.0743 3.85263C20.6774 4.02641 20.2551 4.13536 19.8236 4.17513C19.5829 4.17513 19.3877 4.37026 19.3877 4.61093C19.3877 4.85161 19.5829 5.04674 19.8236 5.04674C20.2541 5.0889 20.6759 5.19611 21.0743 5.36488C21.3216 5.49954 21.5187 5.71047 21.6365 5.96629C21.7183 6.13255 21.7183 6.32736 21.6365 6.49362C21.449 6.82036 20.8694 6.85523 20.3769 6.57195ZM21.5797 7.91859C21.5822 7.89103 21.5822 7.86335 21.5797 7.83579C22.2555 7.57616 22.9469 7.35923 23.6498 7.18644V9.61823C23.6498 9.85891 23.8449 10.054 24.0856 10.054H24.1771C26.165 9.64035 28.2108 9.58718 30.2174 9.89715H30.2828C30.306 9.89966 30.3293 9.89966 30.3525 9.89715H30.4048C30.4423 9.88756 30.4777 9.87133 30.5094 9.84921L30.5486 9.82306C30.5776 9.80127 30.6027 9.7748 30.6227 9.74462L30.6576 9.70104C30.6729 9.67053 30.6846 9.63839 30.6924 9.60516C30.6935 9.58773 30.6935 9.5703 30.6924 9.55286L30.9234 7.0862C31.5723 7.20169 32.2141 7.35444 32.8453 7.5438L32.6971 10.1586C32.6971 10.1586 32.6971 10.1586 32.6971 10.1891C32.6951 10.2153 32.6951 10.2414 32.6971 10.2676C32.6946 10.2966 32.6946 10.3258 32.6971 10.3547C32.7071 10.376 32.7187 10.3964 32.732 10.4158C32.7486 10.4433 32.7692 10.4683 32.793 10.4898C32.8073 10.5066 32.8252 10.52 32.8453 10.5291C32.8735 10.5514 32.9043 10.5705 32.9368 10.5857C34.7606 11.2057 36.4656 12.1312 37.9791 13.3226C38.0552 13.3816 38.1486 13.4138 38.2449 13.4141C38.291 13.4228 38.3383 13.4228 38.3844 13.4141C38.5233 13.3678 38.6298 13.2548 38.6677 13.1134L39.1427 11.3702C39.6418 11.8394 40.1118 12.3386 40.5504 12.865C40.5383 12.8933 40.528 12.9224 40.5199 12.9521C39.5491 19.6407 40.9358 26.4586 44.4421 32.2366V33.2563L41.3915 34.8209C29.5671 31.2184 21.5113 20.2794 21.5797 7.91859ZM24.5127 9.09091V6.99468C25.5359 6.80315 26.5746 6.70683 27.6157 6.70705C28.4382 6.70694 29.2597 6.76665 30.0736 6.88573L29.8818 8.96453C28.096 8.73594 26.2858 8.77855 24.5127 9.09091ZM33.5818 9.86228L33.7169 7.84015C35.4509 8.51434 37.0617 9.46995 38.4846 10.6685L38.0488 12.2244C36.6794 11.2291 35.1754 10.4337 33.5818 9.86228ZM44.4857 49.1022H38.7461C38.7247 44.4033 39.8037 39.7644 41.897 35.5574L44.4857 34.2238V49.1022ZM44.4857 30.4236C41.7558 25.3277 40.6545 19.5172 41.3305 13.7758C43.3846 16.6342 44.4884 20.0659 44.4857 23.5858V30.4236ZM47.2966 49.1022H45.3573V33.7749L47.2966 32.7813V49.1022ZM47.2966 23.3243V31.8007L45.3573 32.7944V23.5858C45.3716 13.797 37.4478 5.85004 27.659 5.83577C26.4469 5.83402 25.2379 5.95659 24.0508 6.20152C23.9968 6.2038 23.9437 6.21557 23.8939 6.23638C23.4581 6.33662 23.0005 6.44993 22.5603 6.58067C22.6344 6.26177 22.6054 5.92761 22.4775 5.62625C22.2856 5.19677 21.962 4.83962 21.5536 4.60647C21.6954 4.52464 21.8284 4.42822 21.9502 4.31884C22.0534 4.38192 22.178 4.39924 22.2945 4.36677C32.7642 1.42792 43.6339 7.5329 46.5727 18.0026C47.0588 19.7347 47.3054 21.5252 47.3054 23.3243H47.2966Z" fill="#3D6059"/>
<path d="M6.01036 16.3965C6.36261 16.3965 6.64816 16.111 6.64816 15.7587C6.64816 15.4065 6.36261 15.1209 6.01036 15.1209C5.65811 15.1209 5.37256 15.4065 5.37256 15.7587C5.37256 16.111 5.65811 16.3965 6.01036 16.3965Z" fill="#3D6059"/>
<path d="M11.4363 23.2085C11.4356 23.2079 11.4347 23.2072 11.4339 23.2067C11.1569 22.9885 10.7556 23.0353 10.5362 23.3112C10.316 23.5882 10.362 23.9912 10.6389 24.2114C10.9159 24.4316 11.3189 24.3856 11.5391 24.1087C11.7593 23.8318 11.7133 23.4288 11.4363 23.2085Z" fill="#3D6059"/>
<path d="M18.825 4.10909C18.548 3.8889 18.145 3.93488 17.9248 4.21184C17.9242 4.2126 17.9235 4.21347 17.923 4.21423C17.7048 4.4913 17.7516 4.89256 18.0276 5.11199C18.3045 5.33218 18.7075 5.28621 18.9277 5.00925C19.1479 4.73241 19.1019 4.32939 18.825 4.10909Z" fill="#3D6059"/>
<path d="M42.9428 32.6244C38.0794 28.4988 35.2787 22.4414 35.2857 16.0638C35.2857 15.8231 35.0906 15.628 34.8499 15.628C34.6092 15.628 34.4141 15.8231 34.4141 16.0638C34.4059 22.6964 37.3183 28.9962 42.3763 33.2868C42.5592 33.4433 42.8343 33.4218 42.9907 33.2389C43.1472 33.056 43.1257 32.7809 42.9428 32.6244Z" fill="#3D6059"/>
<path d="M40.9422 32.7552C37.5551 30.6265 34.8246 27.6002 33.0541 24.0129C32.9537 23.7942 32.6949 23.6984 32.4762 23.7988C32.2574 23.8993 32.1616 24.158 32.2621 24.3768C32.2658 24.385 32.2698 24.3929 32.274 24.4009C34.1138 28.132 36.9532 31.2791 40.4759 33.4918C40.5448 33.5364 40.6249 33.5604 40.7069 33.5615C40.9476 33.5648 41.1453 33.3723 41.1485 33.1316C41.1505 32.9785 41.0722 32.8357 40.9422 32.7552Z" fill="#3D6059"/>
<path d="M13.5348 27.6475C13.4274 27.6027 13.3067 27.6027 13.1992 27.6475C13.0887 27.6878 12.9991 27.7711 12.9508 27.8785C12.5074 28.8759 12.4746 30.0078 12.8593 31.0294C13.2386 32.0544 14.0078 32.8877 14.9991 33.3478C15.1064 33.3926 15.2273 33.3926 15.3347 33.3478C15.4438 33.3051 15.5325 33.2226 15.5831 33.1169C16.5012 31.04 15.5913 28.6103 13.5348 27.6475ZM14.9468 32.3237C14.3624 31.9394 13.9153 31.3793 13.6699 30.7243C13.4274 30.0703 13.3984 29.3562 13.5871 28.6847C14.7822 29.474 15.3315 30.9442 14.9468 32.3237Z" fill="#3D6059"/>
<path d="M6.29161 23.0367C6.24378 22.9944 6.18724 22.9632 6.12601 22.9452C6.12601 22.919 6.1478 22.9016 6.15651 22.8755C6.18016 22.7607 6.15651 22.6414 6.09114 22.5442C4.85422 20.6503 2.33297 20.0877 0.408235 21.276C0.307673 21.3385 0.236854 21.4393 0.212122 21.555C0.187282 21.669 0.20929 21.7884 0.273135 21.8862C0.872259 22.7973 1.80477 23.4373 2.87054 23.6686C3.11601 23.7191 3.36529 23.7482 3.61577 23.7558C3.44068 23.8882 3.27606 24.0339 3.12331 24.1916C2.36751 24.9903 1.95861 26.0557 1.98585 27.1551C1.98585 27.3957 2.18098 27.5909 2.42166 27.5909C4.68916 27.5012 6.46877 25.615 6.42671 23.3461C6.42508 23.229 6.37638 23.1175 6.29161 23.0367ZM1.27985 21.7859C1.92397 21.503 2.64141 21.4328 3.32813 21.5855V21.5811C4.00363 21.7329 4.61376 22.0944 5.07136 22.614C3.76198 23.192 2.22903 22.8573 1.27985 21.7859ZM4.67477 25.669V25.6646C4.19637 26.1718 3.56913 26.5137 2.88361 26.6408C3.06545 25.2204 4.14298 24.0795 5.55074 23.8168C5.46151 24.5111 5.15492 25.1595 4.67477 25.669Z" fill="#3D6059"/>
<path d="M11.7868 6.41941C11.7299 6.18549 11.4943 6.04201 11.2604 6.09877C11.2572 6.09953 11.254 6.1004 11.2507 6.10127C10.1963 6.38139 9.29354 7.06353 8.73615 8.00139C8.73615 8.03625 8.70129 8.07548 8.67949 8.11034L8.37443 6.89444C8.37443 6.87265 8.35264 6.85522 8.34392 6.83343C9.37918 4.88461 8.71153 2.46644 6.82296 1.32484C6.72393 1.26394 6.60473 1.24509 6.49175 1.27255C6.37768 1.30153 6.28027 1.3754 6.22155 1.47737C5.11057 3.38533 5.68464 5.829 7.52897 7.04261C7.52483 7.06571 7.52483 7.08925 7.52897 7.11234L7.68586 7.72683C6.66564 6.56083 5.08268 6.05715 3.57621 6.41941C3.34229 6.47629 3.1988 6.71195 3.25556 6.94576C3.25633 6.94903 3.2572 6.95219 3.25807 6.95545C3.53045 8.01926 4.21379 8.93151 5.15818 9.49184C5.801 9.87633 6.53587 10.0796 7.28492 10.0802C7.5781 10.0767 7.8702 10.0431 8.15653 9.97995C8.14236 10.3639 8.1805 10.7481 8.26984 11.1218C8.29784 11.2351 8.36996 11.3324 8.47031 11.392C8.57109 11.4525 8.69213 11.4699 8.80588 11.4399C11.0006 10.857 12.3256 8.62535 11.7868 6.41941ZM5.61578 8.75533C5.01241 8.40353 4.53978 7.86509 4.26914 7.2213C4.96251 7.15113 5.66012 7.30377 6.26077 7.6571C6.86088 8.01163 7.33133 8.54931 7.60306 9.19114C6.9111 9.2613 6.21479 9.10855 5.61578 8.75533ZM7.72072 6.10999C7.18381 5.66471 6.80226 5.06046 6.63121 4.3842C6.45678 3.70892 6.50406 2.99529 6.76631 2.34899C7.86726 3.26254 8.25284 4.78209 7.72072 6.10999ZM9.03686 10.4463C8.97116 9.75017 9.12838 9.05124 9.48574 8.45027C9.8407 7.8506 10.3783 7.38015 11.0198 7.10799C11.1515 8.53274 10.351 9.88037 9.03686 10.4463Z" fill="#3D6059"/>
<path d="M32.1435 46.6007H25.7503C25.5096 46.6007 25.3145 46.7958 25.3145 47.0365C25.3145 47.2772 25.5096 47.4723 25.7503 47.4723H32.1435C32.3842 47.4723 32.5793 47.2772 32.5793 47.0365C32.5793 46.7958 32.3842 46.6007 32.1435 46.6007Z" fill="#3D6059"/>
</g>
<defs>
<clipPath id="clip0_856_2367">
<rect width="50" height="50" fill="white"/>
</clipPath>
</defs>
</svg>
