<svg width="18" height="18" viewBox="0 0 18 18" fill="none" xmlns="http://www.w3.org/2000/svg">
<path d="M17.1247 16.2412L12.4046 11.5211C13.5388 10.1595 14.1044 8.41299 13.9837 6.64496C13.863 4.87693 13.0653 3.2235 11.7566 2.02862C10.4479 0.833738 8.72885 0.189409 6.95716 0.229669C5.18548 0.269929 3.49752 0.991678 2.24442 2.24477C0.991327 3.49787 0.269578 5.18583 0.229318 6.95751C0.189058 8.7292 0.833387 10.4482 2.02827 11.7569C3.22315 13.0656 4.87658 13.8633 6.64461 13.984C8.41264 14.1047 10.1591 13.5391 11.5208 12.4049L16.2408 17.125L17.1247 16.2412ZM1.49966 7.12501C1.49966 6.01249 1.82956 4.92495 2.44764 3.99993C3.06573 3.0749 3.94423 2.35393 4.97206 1.92819C5.9999 1.50245 7.1309 1.39105 8.22204 1.60809C9.31318 1.82514 10.3155 2.36086 11.1021 3.14753C11.8888 3.9342 12.4245 4.93648 12.6416 6.02763C12.8586 7.11877 12.7472 8.24977 12.3215 9.2776C11.8957 10.3054 11.1748 11.1839 10.2497 11.802C9.32471 12.4201 8.23718 12.75 7.12466 12.75C5.63332 12.7484 4.20354 12.1552 3.14901 11.1007C2.09448 10.0461 1.50131 8.61634 1.49966 7.12501V7.12501Z" fill="#3D6059"/>
</svg>
