<svg width="18" height="18" viewBox="0 0 18 18" fill="none" xmlns="http://www.w3.org/2000/svg">
<path fill-rule="evenodd" clip-rule="evenodd" d="M14.0998 4.5518C15.5934 5.61747 16.7419 7.09743 17.4035 8.80875C17.4482 8.93234 17.4482 9.06766 17.4035 9.19125C16.7419 10.9026 15.5934 12.3825 14.0998 13.4482C12.6063 14.5139 10.8332 15.1186 8.99976 15.1875C7.1663 15.1186 5.39323 14.5139 3.89969 13.4482C2.40614 12.3825 1.2576 10.9026 0.596011 9.19125C0.55133 9.06766 0.55133 8.93234 0.596011 8.80875C1.2576 7.09743 2.40614 5.61747 3.89969 4.5518C5.39323 3.48612 7.1663 2.88145 8.99976 2.8125C10.8332 2.88145 12.6063 3.48612 14.0998 4.5518ZM1.72664 9C2.86851 11.8519 6.01851 14.0625 8.99976 14.0625C11.981 14.0625 15.131 11.8519 16.2729 9C15.131 6.14812 11.981 3.9375 8.99976 3.9375C6.01851 3.9375 2.86851 6.14812 1.72664 9ZM7.12471 6.19379C7.67973 5.82294 8.33225 5.625 8.99976 5.625C9.89487 5.625 10.7533 5.98058 11.3862 6.61351C12.0192 7.24645 12.3748 8.10489 12.3748 9C12.3748 9.66751 12.1768 10.32 11.806 10.875C11.4351 11.4301 10.908 11.8626 10.2913 12.1181C9.67462 12.3735 8.99602 12.4404 8.34133 12.3102C7.68665 12.1799 7.08528 11.8585 6.61328 11.3865C6.14127 10.9145 5.81984 10.3131 5.68961 9.65843C5.55939 9.00374 5.62622 8.32514 5.88167 7.70844C6.13711 7.09174 6.5697 6.56464 7.12471 6.19379ZM7.74973 10.8708C8.11974 11.118 8.55475 11.25 8.99976 11.25C9.5965 11.25 10.1688 11.0129 10.5908 10.591C11.0127 10.169 11.2498 9.59674 11.2498 9C11.2498 8.55499 11.1178 8.11998 10.8706 7.74997C10.6233 7.37996 10.2719 7.09157 9.8608 6.92127C9.44967 6.75097 8.99727 6.70642 8.56081 6.79323C8.12435 6.88005 7.72344 7.09434 7.40877 7.40901C7.0941 7.72368 6.87981 8.12459 6.79299 8.56105C6.70618 8.9975 6.75073 9.4499 6.92103 9.86104C7.09133 10.2722 7.37972 10.6236 7.74973 10.8708Z" fill="#5D7A74"/>
</svg>
