<svg width="40" height="40" viewBox="0 0 40 40" fill="none" xmlns="http://www.w3.org/2000/svg">
<path fill-rule="evenodd" clip-rule="evenodd" d="M26.0613 7.79025C24.4796 7.718 24.0051 7.70275 20 7.70275V7.70262C15.9949 7.70262 15.5204 7.718 13.9388 7.79012C12.9876 7.80145 12.0454 7.97616 11.1534 8.30662C10.5065 8.55625 9.91901 8.9385 9.42873 9.4288C8.93845 9.91911 8.55622 10.5066 8.30662 11.1535C7.97616 12.0455 7.80145 12.9877 7.79012 13.9389C7.71788 15.5205 7.70262 15.995 7.70262 20.0001C7.70262 24.0052 7.718 24.4797 7.79012 26.0614C7.80145 27.0126 7.97616 27.9547 8.30662 28.8468C8.55623 29.4936 8.93847 30.0811 9.42875 30.5714C9.91903 31.0617 10.5065 31.4439 11.1534 31.6935C12.0454 32.024 12.9876 32.1987 13.9388 32.21C15.5203 32.2822 15.9945 32.2975 20 32.2975C24.0055 32.2975 24.4798 32.2821 26.0613 32.21C27.0124 32.1987 27.9546 32.024 28.8466 31.6935C29.4935 31.4439 30.081 31.0617 30.5713 30.5714C31.0615 30.0811 31.4438 29.4936 31.6934 28.8468C32.0238 27.9547 32.1986 27.0126 32.2099 26.0614C32.2821 24.4797 32.2974 24.0052 32.2974 20.0001C32.2974 15.995 32.282 15.5205 32.2099 13.9389C32.1986 12.9877 32.0238 12.0455 31.6934 11.1535C31.4438 10.5066 31.0615 9.91915 30.5713 9.42887C30.081 8.93859 29.4935 8.55636 28.8466 8.30675C27.9546 7.97628 27.0124 7.80157 26.0613 7.79025ZM13.8155 5.09025C15.4154 5.01725 15.9262 5 20 5C24.0737 5 24.5846 5.01725 26.1839 5.09088C27.4283 5.1158 28.6594 5.35156 29.825 5.78812C30.8215 6.17345 31.7266 6.76271 32.4821 7.51815C33.2376 8.27358 33.827 9.17853 34.2125 10.175C34.649 11.3404 34.8848 12.5713 34.9097 13.8155C34.9827 15.4154 35 15.9262 35 20C35 24.0737 34.9828 24.5846 34.9104 26.1839C34.8855 27.4283 34.6497 28.6594 34.2131 29.825C33.8277 30.8216 33.2384 31.7267 32.4828 32.4822C31.7273 33.2378 30.8222 33.8271 29.8256 34.2125C28.6601 34.6491 27.4289 34.8848 26.1845 34.9097C24.5846 34.9827 24.0737 35 20 35C15.9262 35 15.4154 34.9828 13.8161 34.9104C12.5717 34.8855 11.3406 34.6497 10.175 34.2131C9.17842 33.8277 8.27335 33.2384 7.5178 32.4828C6.76225 31.7273 6.17289 30.8222 5.7875 29.8256C5.35093 28.6601 5.11517 27.4289 5.09025 26.1845C5.01725 24.5846 5 24.0737 5 20C5 15.9262 5.01725 15.4154 5.09025 13.8161C5.11516 12.5717 5.35092 11.3406 5.7875 10.175C6.17289 9.17842 6.76225 8.27335 7.5178 7.5178C8.27335 6.76225 9.17842 6.17289 10.175 5.7875C11.3404 5.35099 12.5713 5.11523 13.8155 5.09025ZM28.007 13.7929C29.0011 13.7929 29.807 12.987 29.807 11.9929C29.807 10.9988 29.0011 10.1929 28.007 10.1929C27.0129 10.1929 26.207 10.9988 26.207 11.9929C26.207 12.987 27.0129 13.7929 28.007 13.7929ZM20 12.2974C18.4765 12.2974 16.9873 12.7491 15.7205 13.5955C14.4538 14.4419 13.4666 15.6449 12.8836 17.0524C12.3005 18.4599 12.148 20.0087 12.4452 21.5028C12.7424 22.997 13.476 24.3695 14.5533 25.4468C15.6305 26.524 17.003 27.2576 18.4972 27.5549C19.9914 27.8521 21.5402 27.6995 22.9477 27.1165C24.3552 26.5335 25.5582 25.5462 26.4046 24.2795C27.251 23.0128 27.7027 21.5236 27.7027 20.0001C27.7027 17.9572 26.8912 15.998 25.4466 14.5534C24.0021 13.1089 22.0429 12.2974 20 12.2974ZM20 25.0001C19.0111 25.0001 18.0444 24.7069 17.2221 24.1575C16.3999 23.6081 15.759 22.8272 15.3806 21.9135C15.0021 20.9999 14.9031 19.9946 15.096 19.0247C15.289 18.0548 15.7652 17.1638 16.4644 16.4646C17.1637 15.7653 18.0546 15.2891 19.0245 15.0962C19.9944 14.9033 20.9998 15.0023 21.9134 15.3807C22.827 15.7592 23.6079 16.4 24.1573 17.2223C24.7067 18.0445 25 19.0112 25 20.0001C25 21.3262 24.4732 22.598 23.5355 23.5356C22.5978 24.4733 21.326 25.0001 20 25.0001Z" fill="white"/>
</svg>
