<svg width="181" height="229" viewBox="0 0 181 229" fill="none" xmlns="http://www.w3.org/2000/svg">
<path d="M180.717 227.85C158.974 213.336 140.587 190.768 131.782 165.861C132.687 160.56 133.656 155.268 134.772 150.021C134.873 150.03 134.982 149.975 134.946 149.847C134.918 149.756 134.9 149.656 134.873 149.564C134.982 149.052 135.092 148.54 135.211 148.038C135.385 148.129 135.65 148.102 135.75 147.855C137.652 143.129 139.59 138.422 142.626 134.3C145.204 130.79 148.322 127.692 150.316 123.779C151.76 120.955 152.611 117.957 153.123 114.895C153.141 114.895 153.15 114.886 153.168 114.877C153.342 114.804 153.305 114.603 153.187 114.511C153.607 111.806 153.781 109.036 153.836 106.285C153.991 106.185 154 105.938 153.836 105.846C153.872 104.009 153.863 102.181 153.863 100.362C153.863 100.106 153.534 100.006 153.388 100.216C150.434 104.457 146.539 107.61 142.928 111.001C141.904 102.437 138.402 94.5673 132.587 88.1417C132.258 87.7852 131.745 88.1965 131.919 88.6078C136.427 99.3019 129.277 111.842 128.106 122.683C127.247 130.699 128.445 139.135 133.3 145.634C133.519 146.502 133.757 147.352 134.022 148.202C132.861 153.275 131.864 158.384 130.95 163.457C130.438 161.903 129.972 160.34 129.533 158.768C125.391 143.669 121.532 128.496 117.839 113.286C116.028 105.819 113.889 95.9109 108.43 89.5859C108.256 88.9095 108.137 88.2331 108.055 87.5659C108.092 87.0631 108.165 86.5696 108.256 86.0851C109.171 82.685 112.59 80.3725 114.94 77.7401C116.787 75.6653 118.433 73.3985 119.841 71.0129C122.438 66.6073 124.248 61.7538 125.153 56.7267C127.046 46.1971 124.76 35.302 119.137 26.2531C118.954 25.9515 118.543 25.9241 118.341 26.2166C116.293 29.1506 114.529 32.2126 113.011 35.4299C113.002 35.3842 112.983 35.3477 112.974 35.302C113.038 35.2928 113.093 35.2563 113.093 35.1648C113.185 30.284 114.026 25.6133 116.001 21.1803C116.604 21.747 117.528 21.9572 118.296 21.4728C119.521 20.705 119.658 18.7764 118.296 18.0635C117.793 17.7984 117.199 17.8075 116.732 18.0817C116.659 18.1 116.577 18.1274 116.504 18.1549C115.864 18.4199 115.397 19.014 115.37 19.7178C115.352 20.1749 115.525 20.5862 115.781 20.9244C113.669 25.1563 112.545 29.6533 112.764 34.4153C111.127 27.5967 108.732 20.9335 105.888 14.6359C105.76 14.3525 105.321 14.2703 105.102 14.4988C100.128 19.7635 96.6535 25.8966 94.7791 32.3588C91.1218 22.4965 92.3836 12.9541 95.9037 3.33852C96.4706 3.77726 97.2204 3.94178 97.897 3.64015C98.5553 3.34766 98.9485 2.62558 98.9668 1.93093C98.985 1.16315 98.601 0.413646 97.8604 0.121158C97.5861 0.0114752 97.3118 -0.00680526 97.0467 0.0297557C96.3518 -0.0982077 95.5929 0.18514 95.3094 0.907219C95.3094 0.925499 95.3094 0.95292 95.2911 0.980341C95.2271 1.09002 95.1631 1.19971 95.1266 1.30939C94.962 1.84866 95.1266 2.43364 95.4374 2.89065C91.643 12.2503 89.9606 23.2825 94.6968 32.5873C94.6968 32.6239 94.6785 32.6604 94.6603 32.697C91.0029 27.9349 86.2118 24.5896 80.4607 22.8164C80.3876 22.7981 80.3236 22.7981 80.2596 22.8164C76.6754 17.5973 75.313 11.5099 74.1152 5.38594C74.4353 5.25797 74.7096 5.05689 74.9016 4.75526C75.3862 3.98748 75.0936 2.86323 74.353 2.36052C74.289 2.32396 74.225 2.2874 74.161 2.25997C73.9781 2.11373 73.777 2.00405 73.5667 1.93093C72.5518 1.61102 71.5917 2.49762 71.6557 3.51219C71.6648 3.64015 71.6923 3.77726 71.7289 3.89608C71.7289 4.56332 72.1586 5.13915 72.7986 5.38594C73.1278 5.5139 73.4935 5.53218 73.8318 5.4682C74.8193 11.7293 76.2548 17.9721 79.8755 23.2825C78.056 28.7027 76.1451 35.0186 78.1292 40.6307C73.8867 37.779 69.2784 35.4573 64.3776 33.7847C64.1308 33.7024 63.8748 33.9035 63.8656 34.1503C63.7376 38.3548 63.7559 42.4222 64.2313 46.3251C58.3613 37.8704 49.8032 31.6733 40.2576 27.9532C40.349 27.3134 40.1753 26.6461 39.6907 26.1983C38.9867 25.5402 37.8438 25.4671 37.0757 26.052C36.6551 26.3719 36.4357 26.8472 36.4083 27.3408C36.3534 27.551 36.3351 27.6881 36.3991 27.9806C36.3991 27.9806 36.3991 27.9806 36.3991 27.9898C36.4631 28.6844 36.9477 29.2785 37.6335 29.5436C38.5112 29.8727 39.5353 29.5436 40.0016 28.721C40.1204 28.5108 40.2027 28.2914 40.2393 28.0629C50.2604 32.1668 58.1876 39.15 64.4051 48.0343C64.4325 48.0709 64.4599 48.0892 64.4874 48.1166C64.4874 48.1531 64.4965 48.1897 64.5056 48.2263C64.4691 48.1988 64.4325 48.1714 64.3868 48.1531C60.6563 46.9192 56.8527 46.0143 52.9668 45.4111C52.6742 45.3654 52.5096 45.6944 52.5462 45.9321C53.0034 49.3139 53.9268 52.8695 55.8469 55.7395C55.6641 55.7121 55.4812 55.6938 55.2983 55.6664C50.937 52.5405 46.3013 49.5516 40.9799 48.9575C41.0256 47.4402 39.1513 46.0874 37.8346 47.2025C37.5146 47.4768 37.3043 47.8606 37.2037 48.2628C37.0209 48.7107 37.0026 49.2317 37.2312 49.6796C37.3775 49.9538 37.5786 50.1731 37.8163 50.3377C38.0815 50.5479 38.3924 50.6941 38.7398 50.6941C39.6176 50.8129 40.5685 50.4199 40.8885 49.4876C40.9251 49.3779 40.9525 49.2591 40.9616 49.1494C45.9173 49.9355 50.1415 52.6776 54.2743 55.5476C51.769 55.2368 49.3186 54.99 47.1242 54.6153C46.7402 54.5513 46.411 54.8804 46.5939 55.2551C51.3119 65.4008 60.0163 73.9103 69.7448 79.2848C74.5084 81.9172 79.6469 83.8732 84.9775 84.9883C91.4692 86.3411 98.1987 86.1034 104.562 87.968C114.428 96.4685 115.836 111.139 118.863 123.569C120.316 129.538 121.715 135.58 123.187 141.594C121.926 139.592 120.618 137.627 119.265 135.689C119.274 135.634 119.283 135.589 119.265 135.534C115.443 119.639 102.807 106.523 86.8702 102.565C86.7879 102.492 86.7239 102.41 86.6324 102.336C86.5044 102.218 86.349 102.209 86.221 102.263C86.1661 102.218 86.1113 102.181 86.0473 102.135C85.9924 102.099 85.9375 102.181 85.9924 102.227C86.029 102.254 86.0656 102.291 86.1113 102.318C85.9284 102.446 85.8461 102.684 86.0564 102.867C89.5217 105.965 90.9024 110.38 93.1425 114.319C94.9894 117.564 97.2295 120.58 99.7622 123.313C104.956 128.907 111.347 133.084 118.433 135.863C120.262 138.413 122.026 141.027 123.709 143.714C125.729 151.895 127.924 160.039 130.639 167.954C134.937 180.486 142.772 191.847 150.901 202.212C150.919 202.239 150.937 202.258 150.956 202.285C140.038 193.437 128.344 185.211 116.001 178.228C116.001 178.21 115.982 178.182 115.973 178.164C114.62 176.391 113.331 174.59 112.087 172.762C112.106 172.698 112.087 172.634 112.023 172.588C111.996 172.57 111.959 172.552 111.932 172.534C111.594 172.04 111.274 171.537 110.954 171.044C110.99 171.007 111.018 170.961 111.036 170.907C112.718 166.035 112.782 161.346 111.767 156.876C111.795 156.831 111.822 156.794 111.85 156.748C111.959 156.584 111.822 156.419 111.667 156.41C111.008 153.732 109.975 151.136 108.668 148.632C108.787 148.458 108.65 148.202 108.467 148.239C104.828 141.438 99.2136 135.314 93.9471 130.068C93.7459 129.867 93.3436 129.977 93.3436 130.296C93.3436 132.536 93.3436 134.775 93.3436 137.015C93.2979 136.978 93.2522 136.951 93.2065 136.914C93.0693 136.813 92.9413 137.033 93.0693 137.133C93.1608 137.207 93.2522 137.28 93.3436 137.353C93.3436 140.003 93.3253 142.645 93.2979 145.286C93.2613 149.281 93.0693 153.385 94.2214 157.26C96.4706 164.801 104.489 168.466 110.826 172.278C111.941 173.978 113.102 175.65 114.309 177.296C103.282 171.199 91.7435 166.108 79.7384 162.516C79.7567 162.388 79.711 162.251 79.5555 162.159C78.2755 161.41 77.1325 160.496 76.1451 159.472C74.1244 154.856 78.056 149.144 79.0526 144.61C79.903 140.726 80.1041 136.713 79.5738 132.764C78.3395 123.441 72.6249 115.37 72.1312 105.874C72.1129 105.563 71.6923 105.252 71.4363 105.554C68.3641 109.183 66.3709 113.168 65.1914 117.326C63.4633 111.102 64.8348 105.316 66.3343 99.3111C66.4257 99.3476 66.5263 99.3751 66.6269 99.4025C66.7549 99.4665 66.8829 99.5213 67.0292 99.5579C68.0075 99.7864 69.0224 99.174 69.4064 98.2782C69.7996 97.3551 69.443 96.3405 68.6384 95.7738C67.8429 95.2071 66.7183 95.1888 65.9503 95.8104C65.8131 95.92 65.7034 96.048 65.6028 96.1943C65.5388 96.2674 65.4657 96.3314 65.42 96.4136C65.3285 96.569 65.2737 96.7335 65.2462 96.9072C65.0908 97.4099 65.1091 97.9675 65.3377 98.4336C65.4657 98.6804 65.6303 98.8815 65.8314 99.0369C63.8839 105.024 62.7593 111.431 65.0177 117.473C65.036 117.528 65.0908 117.546 65.1365 117.546C65.1 117.692 65.0542 117.829 65.0177 117.975C65.0085 117.93 64.9902 117.893 64.9628 117.847C63.2256 115.398 60.4094 114.191 58.4528 111.915C56.0664 109.137 54.6492 105.7 53.2502 102.355C53.1222 102.053 52.6285 102.044 52.4731 102.318C49.0626 108.534 47.6545 115.471 48.8889 122.463C48.8432 122.418 48.7883 122.372 48.7426 122.326C47.2248 117.18 45.9082 111.952 44.9207 106.678C45.835 106.751 46.7768 106.175 46.9505 105.079C47.0785 104.293 46.7585 103.479 46.0819 103.049C45.2956 102.538 44.1618 102.757 43.5949 103.497C43.4486 103.689 43.348 103.899 43.3023 104.128C43.0646 104.667 43.1194 105.307 43.4669 105.819C43.7595 106.249 44.1709 106.514 44.6098 106.623C45.4053 111.714 46.475 116.705 47.9837 121.641C44.0521 118.149 39.7639 115.032 35.1648 112.382C34.7808 112.162 34.3967 112.555 34.5613 112.939C36.2345 116.915 38.0175 120.909 39.9742 124.831C35.8505 119.621 31.9738 114.356 28.7005 108.561C29.3496 107.967 29.6056 106.925 29.2033 106.13C28.2159 104.201 24.9151 105.243 25.4454 107.428C25.6283 108.186 26.2683 108.799 27.0272 108.981C27.0455 108.981 27.073 108.991 27.0912 109C27.1552 109.009 27.201 109.018 27.265 109.027C27.6856 109.082 28.1153 108.991 28.4902 108.744C31.7818 115.188 35.7682 121.449 40.7788 126.677C40.8428 126.741 40.9068 126.759 40.9799 126.759C41.2542 127.28 41.5102 127.81 41.7937 128.331C36.5728 123.094 29.4776 120.306 22.1721 119.52C21.9344 119.493 21.715 119.767 21.779 119.995C23.5894 125.918 25.0706 132.71 29.5874 137.234C23.4431 133.103 17.6553 128.532 12.5442 123.185C13.3123 122.509 13.4586 121.376 13.0106 120.443C12.4802 119.374 11.255 118.816 10.1213 119.292C9.3258 119.621 8.81377 120.37 8.74977 121.175C8.59433 121.897 8.85949 122.664 9.47209 123.167C10.2493 123.798 11.4288 123.926 12.2882 123.386C12.3248 123.368 12.3431 123.332 12.3797 123.313C17.2165 128.551 22.4647 133.267 28.4627 137.161C21.5504 135.004 14.4369 133.377 7.19541 132.253C6.80225 132.189 6.62852 132.737 6.85711 132.993C12.4345 139.272 19.3011 144.921 26.8809 149.491C26.5061 149.518 26.1403 149.555 25.7746 149.61C18.6885 147.16 11.4196 145.707 3.95868 145.195C3.95868 145.159 3.95868 145.14 3.95868 145.104C3.91296 144.162 3.2455 143.257 2.30374 143.047C1.15168 142.791 0.109348 143.815 0.00877125 144.93C-0.0918051 145.954 0.685376 146.868 1.682 147.032C2.04773 147.087 2.39517 147.032 2.6969 146.886C3.35522 146.667 3.88553 146.146 3.94954 145.36C11.0356 146.045 17.9114 147.535 24.65 149.811C22.5196 150.286 20.5172 151.191 18.588 152.334C16.1833 153.76 12.782 155.624 11.2459 157.973C11.1636 158.101 11.1545 158.275 11.2276 158.412C13.7237 162.671 19.484 166.748 24.3391 168.046C24.2934 168.064 24.2385 168.091 24.1928 168.11C18.6977 168.238 11.8128 167.726 6.59195 170.102C6.52795 169.855 6.41823 169.627 6.2445 169.435C6.2445 169.289 6.18964 169.143 6.0525 169.051C4.9553 168.302 3.21807 168.768 2.9072 170.139C2.57804 171.629 4.16897 173.137 5.60447 172.369C6.36337 171.967 6.74739 171.08 6.63767 170.294C11.3556 168.356 17.7651 168.649 22.8579 168.722C19.2097 170.367 15.4975 171.784 11.5202 172.406C10.999 172.488 11.0173 173.265 11.4836 173.411C22.8762 176.866 35.2928 179.736 47.1334 176.802C54.4023 174.992 59.9066 169.993 66.0234 166.227C67.2212 165.587 68.3915 164.911 69.571 164.289C69.5985 164.271 69.6167 164.253 69.635 164.234C71.1711 163.485 72.762 162.854 74.4536 162.397C76.1908 162.397 77.9646 162.635 79.7292 163.174C79.8115 163.192 79.8755 163.073 79.7932 163.037C79.6927 162.991 79.5921 162.955 79.4915 162.909C79.5098 162.909 79.5281 162.891 79.5372 162.881C104.005 171.089 125.309 185.156 146.064 200.311C139.728 197.98 133.08 196.591 126.305 195.96C126.278 195.905 126.232 195.859 126.168 195.823C126.022 195.75 125.876 195.677 125.729 195.604C125.738 195.558 125.729 195.512 125.693 195.457C118.433 187.524 109.262 181.719 98.9576 178.612C94.7974 177.35 90.5001 176.537 86.157 176.217C86.1296 175.943 85.773 175.943 85.7272 176.181C84.9958 176.135 84.2552 176.089 83.5237 176.071C76.9588 175.879 70.4579 177.149 64.1033 174.883C63.7742 174.764 63.5273 175.203 63.7467 175.449C65.7674 177.698 67.9435 179.727 70.2568 181.555C70.2476 181.555 70.2385 181.555 70.2293 181.555C70.1013 181.582 70.1196 181.783 70.2568 181.783C70.3574 181.783 70.4488 181.783 70.5494 181.783C73.1552 183.822 75.9439 185.577 78.9063 187.048C78.9246 187.121 78.9978 187.185 79.0892 187.149C79.0892 187.149 79.0984 187.149 79.1075 187.149C81.9328 188.538 84.9044 189.672 88.0314 190.522C82.7008 192.807 77.9829 196.417 73.6398 200.375C71.2168 201.874 68.9493 203.839 67.084 205.932C66.9103 206.124 67.1115 206.407 67.3126 206.334C67.3766 206.407 67.4681 206.471 67.5869 206.48C67.6418 206.544 67.7332 206.554 67.8155 206.508C78.8515 207.458 90.5458 209.652 101.618 208.619C110.999 207.742 118.625 202.578 125.775 196.847C132.806 197.55 139.755 199.068 146.475 201.453C146.814 201.572 147.042 201.307 147.061 201.033C149.502 202.815 151.934 204.616 154.366 206.426C161.736 215.173 170.211 223.134 180.104 228.911C180.754 229.294 181.366 228.344 180.735 227.923L180.717 227.85ZM148.953 124.657C147.874 126.503 146.558 128.185 145.214 129.839C143.897 130.123 142.617 130.498 141.373 131.028C141.127 131.137 139.92 131.878 139.389 132.079C139.984 130.178 140.605 128.295 141.273 126.421C142.425 125.05 144.391 124.575 145.991 123.935C147.381 123.377 148.77 122.829 150.169 122.271C149.804 123.085 149.41 123.88 148.953 124.657ZM150.48 121.531C148.45 122.335 146.411 123.131 144.391 123.953C144.19 124.035 142.644 124.812 141.657 125.406C142.315 123.606 143.001 121.823 143.742 120.05C146.457 118.231 149.31 116.623 152.291 115.279C151.879 117.418 151.303 119.52 150.48 121.531ZM152.382 114.731C149.511 115.965 146.777 117.4 144.144 119.081C145.122 116.787 146.174 114.511 147.307 112.281C148.999 111.093 150.956 110.197 153.004 109.969C152.867 111.568 152.656 113.159 152.373 114.731H152.382ZM153.123 108.57C153.104 108.826 153.086 109.082 153.059 109.338C151.138 109.868 149.346 110.517 147.701 111.532C148.331 110.316 148.99 109.119 149.666 107.921C149.74 107.949 149.822 107.939 149.886 107.885C150.855 106.961 152.035 106.44 153.36 106.349C153.251 107.391 153.15 108.278 153.123 108.57ZM153.379 101.87C153.68 102.181 153.571 104.101 153.406 105.819C152.208 105.892 151.093 106.294 150.169 107.035C151.184 105.289 152.245 103.57 153.379 101.87ZM150.983 104.009C151.504 103.461 152.665 101.815 153.223 101.797C151.961 103.552 150.782 105.344 149.657 107.163C149.42 106.678 149.356 106.166 149.447 105.609C149.447 105.59 149.447 105.581 149.447 105.563C149.968 105.051 150.48 104.539 150.992 104L150.983 104.009ZM149.136 105.883C149.045 106.477 149.136 107.035 149.419 107.574C148.505 109.082 147.627 110.599 146.795 112.144C146.695 112.217 146.594 112.299 146.494 112.372C146.475 111.212 146.43 110.06 146.338 108.899C146.338 108.808 146.201 108.799 146.192 108.899C146.11 110.197 146.082 111.477 146.091 112.775C146.091 112.939 146.247 113.012 146.375 112.957C145.497 114.621 144.674 116.312 143.888 118.021C144.107 115.855 143.851 113.707 143.019 111.641C144.994 109.731 147.088 107.885 149.136 105.883ZM142.196 111.696C139.664 114.127 137.323 116.742 135.604 119.995C135.732 119.054 135.86 118.113 135.979 117.162C135.997 117.144 136.015 117.135 136.015 117.107C137.222 114.1 139.252 111.632 141.968 109.868C142.05 110.471 142.132 111.084 142.196 111.687V111.696ZM136.363 139.007C136.271 138.925 136.207 138.733 136.025 138.431C135.183 137.005 134.068 135.826 132.733 134.876C132.77 131.32 133.282 127.774 134.434 124.264C134.443 124.218 134.461 124.173 134.479 124.127C135.897 125.772 136.975 127.554 137.57 129.675C137.744 130.278 137.634 132.198 138.256 132.655C137.579 134.757 136.957 136.877 136.363 139.007ZM138.548 131.759C138.32 131.366 138.356 130.772 138.256 130.306C137.716 127.838 136.39 125.626 134.562 123.898C135.503 121.175 136.82 118.871 138.374 116.815C139.664 119.995 140.386 123.131 140.349 126.595C139.718 128.304 139.115 130.022 138.548 131.759ZM141.876 109.292C141.876 109.292 141.812 109.311 141.776 109.329C139.353 110.855 137.478 112.875 136.189 115.352C136.409 113.369 136.582 111.367 136.674 109.374C137.698 107.345 139.005 105.673 140.77 104.247C141.245 105.901 141.602 107.583 141.876 109.283V109.292ZM134.114 94.3936C134.05 93.242 134.004 91.7064 133.538 90.6553C132.806 89.0009 132.87 89.1745 133.629 90.5913C135.403 93.9001 137.853 96.6056 139.334 100.152C139.828 101.322 140.24 102.501 140.605 103.698C138.95 104.85 137.597 106.386 136.71 108.186C136.756 106.258 136.738 104.338 136.582 102.437C136.582 102.428 136.601 102.419 136.61 102.4C136.975 100.975 137.661 99.8229 138.31 98.5341C138.384 98.3879 138.21 98.2051 138.073 98.3422C137.295 99.11 136.783 100.198 136.473 101.285C136.098 97.8395 135.311 94.4393 133.903 91.1488C133.885 91.1031 133.812 91.1306 133.821 91.1763C135.028 94.549 135.65 97.9675 135.915 101.413C135.321 100.691 134.735 99.9692 134.104 99.2654C134.031 99.1831 133.949 99.1923 133.876 99.238C134.095 97.6293 134.205 96.0114 134.114 94.3845V94.3936ZM133.272 102.656C133.492 101.633 133.684 100.591 133.839 99.5579C134.525 100.435 135.247 101.267 135.97 102.108C136.098 104.238 136.079 106.367 135.988 108.506C135.119 107.236 134.031 106.194 132.669 105.417C132.879 104.494 133.08 103.58 133.282 102.666L133.272 102.656ZM132.605 105.636C134.004 106.559 135.129 107.711 135.951 109.164C135.833 111.358 135.622 113.561 135.366 115.754C134.342 114.082 133.016 112.674 131.361 111.541C131.307 111.504 131.252 111.513 131.215 111.541C131.682 109.557 132.157 107.583 132.605 105.627V105.636ZM131.179 111.724C131.179 111.724 131.188 111.769 131.215 111.788C132.925 113.177 134.251 114.831 135.257 116.769C135.101 118.122 134.927 119.474 134.763 120.818C134.735 121.037 134.873 121.147 135.037 121.165C134.863 121.549 134.69 121.924 134.534 122.326C134.187 123.195 133.885 124.081 133.62 124.986C133.62 124.977 133.62 124.968 133.611 124.949C132.605 123.14 131.215 121.659 129.487 120.526C129.46 120.507 129.441 120.507 129.414 120.516C129.871 117.592 130.511 114.648 131.188 111.733L131.179 111.724ZM128.692 129.063C128.673 126.339 128.929 123.569 129.359 120.791C130.923 121.988 132.175 123.478 133.117 125.196C133.218 125.37 133.41 125.361 133.528 125.26C132.77 127.883 132.34 130.607 132.175 133.358C131.389 131.777 130.127 130.315 128.856 129.127C128.801 129.081 128.746 129.063 128.692 129.063ZM128.692 129.611C129.908 130.936 130.868 132.38 131.864 133.879C131.938 133.989 132.047 134.017 132.139 133.998C131.992 137.526 132.294 141.091 133.053 144.528C129.981 139.839 128.811 134.803 128.701 129.611H128.692ZM133.931 145.789C133.172 142.307 132.724 138.797 132.724 135.287C134.178 136.548 135.339 138.02 136.143 139.784C135.54 142.005 134.973 144.226 134.443 146.466C134.26 146.237 134.095 146.018 133.931 145.789ZM140.807 125.397C140.715 124.173 140.486 121.668 140.413 121.33C140.038 119.621 139.444 118.003 138.63 116.467C139.773 114.987 141.026 113.625 142.352 112.308C142.48 112.455 142.69 112.5 142.845 112.446C143.44 114.941 143.549 117.363 142.955 119.922C142.946 119.977 142.955 120.041 142.964 120.096C142.205 121.842 141.492 123.615 140.816 125.397H140.807ZM139.206 132.7C139.28 132.673 139.353 132.646 139.435 132.627C141.218 132.106 142.864 131.119 144.674 130.525C143.458 132.015 142.233 133.496 141.163 135.086C140.816 135.607 140.477 136.137 140.157 136.676C139.398 137.115 138.658 137.581 137.963 138.111C137.835 138.203 137.698 138.34 137.561 138.477C138.082 136.539 138.63 134.611 139.225 132.7H139.206ZM137.314 139.327C138.036 138.742 138.777 138.194 139.554 137.691C138 140.46 136.765 143.404 135.586 146.356C136.125 143.998 136.701 141.649 137.314 139.327ZM78.2755 32.8432C78.5498 30.6039 78.9612 26.7741 80.2321 24.8912C82.6917 21.2351 92.4933 31.2071 94.2122 33.4739C94.2762 33.5653 94.3585 33.6019 94.4408 33.6201C92.2373 42.1846 92.8133 51.2791 96.4158 59.7521C95.5563 58.3262 94.6145 56.9552 93.6453 55.6024C89.9789 49.5059 87.4096 43.1626 86.3307 35.8778C86.2941 35.6219 85.9193 35.7224 85.9467 35.9692C86.6233 41.4808 88.2691 47.0563 90.9024 52.056C87.3913 47.8789 83.3317 44.168 78.8241 41.0512C78.2297 38.2999 77.9372 35.6493 78.2755 32.8341V32.8432ZM64.5056 39.5065C64.5331 37.0477 63.829 34.2874 66.9926 35.5487C84.8221 42.5959 98.1987 58.5913 102.615 77.1094C102.56 77.475 102.514 77.8498 102.496 78.2245C102.286 78.0691 102.066 77.9229 101.847 77.7767C98.3999 72.7861 93.1425 69.1117 88.9 64.8432C83.542 59.4688 78.6229 53.7104 74.1335 47.5864C74.0787 47.5133 73.9873 47.6047 74.033 47.6778C78.1383 53.4728 82.6002 58.9935 87.5102 64.1211C91.6521 68.4445 96.7724 72.2011 100.494 76.9449C98.6467 75.9303 96.6626 75.254 94.4591 74.9066C93.5905 74.7695 93.3345 76.0492 93.9745 76.4696C96.0592 77.8224 97.9976 79.3214 99.8811 80.9118C100.274 81.2682 100.677 81.6247 101.079 81.9812C90.7469 77.2557 80.1864 71.9361 72.442 63.4265C68.611 59.222 66.0417 54.3868 65.1 48.7472C65.0634 48.5462 65.0542 48.3542 65.0177 48.1531C65.2005 48.0617 65.3011 47.8606 65.1548 47.6321C65.0725 47.5042 64.9811 47.3762 64.8897 47.2482C64.5696 44.6798 64.4691 42.0932 64.4965 39.5156L64.5056 39.5065ZM53.4971 46.3342C57.127 46.9192 60.6746 47.7875 64.1673 48.9301C64.3868 49.0032 64.5514 48.8935 64.6336 48.7381C65.3925 52.9152 66.8006 56.8821 69.315 60.593C68.995 60.3097 68.6567 60.0537 68.3184 59.8069C68.355 59.743 68.3641 59.6698 68.291 59.6059C65.6668 57.1471 62.9787 54.7524 60.318 52.3302C60.2814 52.3028 60.2357 52.3485 60.2631 52.3759C62.549 54.597 64.8257 56.8364 67.1389 59.03C64.0119 57.1837 60.1626 56.3337 56.3041 55.7852C56.3498 55.7213 56.3681 55.639 56.3315 55.5385C55.1246 52.4765 54.0091 49.5699 53.488 46.3342H53.4971ZM84.7215 83.8366C77.6994 82.1914 71.0248 79.1477 65.1182 75.0072C59.0745 70.7752 53.8537 65.3642 49.9221 59.1214C49.2363 58.0337 47.8557 56.4433 48.5871 55.6847C49.1083 55.1454 54.5394 56.5804 55.6092 56.745C60.638 57.5127 65.8314 58.0703 69.5985 61.8635C69.7996 62.0646 70.0739 61.9732 70.1836 61.7812C70.7231 62.5033 71.29 63.2071 71.93 63.9018C79.5921 72.3382 89.8143 77.5664 100.155 81.9812C98.3816 81.643 96.5895 81.5699 94.7791 81.771C81.9236 77.7127 70.0465 71.6253 59.4585 63.2345C59.4403 63.2163 59.4128 63.2528 59.4311 63.2711C69.5162 71.6161 81.0276 78.06 93.5356 81.9538C93.1333 82.0269 92.731 82.1091 92.3196 82.2097C91.5607 82.3925 91.7527 83.3979 92.4476 83.4985C96.2238 84.0469 99.7531 85.1071 103.109 86.7341C103.282 86.8621 103.456 86.9992 103.63 87.1363C97.5312 85.162 90.9846 85.3174 84.7123 83.8366H84.7215ZM108.86 76.9449C108.394 77.3379 107.964 77.7675 107.571 78.2428C107.296 75.7749 107.452 73.3345 108.055 70.8758C108.201 70.2908 107.763 69.8247 107.26 69.7972C107.424 64.6421 106.537 59.5419 105.742 54.4233C104.562 46.8552 104.114 39.3145 104.553 31.6641C104.562 31.4631 104.252 31.4539 104.233 31.6641C103.721 38.3731 103.84 45.0454 104.718 51.727C105.523 57.8783 106.693 63.8926 106.611 70.0623C104.901 71.5065 103.703 73.3071 103.045 75.3088C102.167 72 100.987 68.7827 99.5611 65.6933C99.6525 65.6933 99.7348 65.6201 99.6799 65.5287C95.0626 57.7138 92.9322 48.2263 93.9928 39.2048C94.5963 34.0315 96.2603 28.9769 98.7747 24.4159C99.9908 22.2131 101.399 20.1383 103.017 18.2097C103.712 17.3871 104.389 15.9703 105.568 16.3725C106.062 16.5462 106.729 19.142 106.903 19.599C114.328 37.9892 117.208 58.4999 108.851 76.9449H108.86ZM113.313 36.6913C114.017 35.174 117.372 27.2677 119 27.7338C119.393 27.8435 120.591 30.6861 120.764 31.0517C121.651 32.8981 122.401 34.8084 123.004 36.7644C124.989 43.1808 125.446 50.0086 124.266 56.6261C122.913 64.2034 119.475 71.3236 114.401 77.1186C112.91 78.8186 110.954 80.473 109.491 82.3285C109.939 81.3322 110.478 80.3725 111.054 79.4219C111.484 78.7912 111.905 78.1514 112.298 77.5025C112.718 76.8718 113.157 76.2502 113.596 75.6287C113.715 75.4642 113.697 75.2722 113.605 75.126C118.899 64.7518 119.521 52.5039 119.201 40.978C119.201 40.8044 118.945 40.7952 118.936 40.978C118.323 52.6501 118.232 64.3953 113.084 74.8701H113.066C112.17 75.0894 111.338 75.4093 110.579 75.8115C115.964 63.3534 116.11 49.7984 113.322 36.7004L113.313 36.6913ZM113.377 123.176C113.879 124.008 114.346 124.849 114.794 125.717C114.748 125.763 114.702 125.818 114.693 125.891C114.556 126.988 114.501 128.094 114.492 129.2C113.303 127.701 112.087 126.22 110.844 124.767C111.008 123.085 111.082 121.403 111.036 119.712C111.859 120.836 112.654 121.979 113.367 123.176H113.377ZM106.044 113.945C107.68 115.535 109.171 117.253 110.551 119.054C110.515 119.091 110.487 119.145 110.487 119.219C110.506 120.873 110.46 122.509 110.314 124.145C108.686 122.271 107.031 120.425 105.312 118.643C105.184 116.933 105.367 115.343 105.742 113.67C105.843 113.762 105.943 113.853 106.044 113.945ZM105.266 113.223C104.7 114.722 104.498 116.312 104.59 117.893C103.109 116.376 101.591 114.886 100.037 113.442C99.8171 111.897 99.7896 110.352 99.6616 108.808C101.637 110.115 103.502 111.586 105.266 113.223ZM99.0856 108.442C98.9119 109.877 99.1313 111.44 99.4422 112.893C98.0616 111.632 96.6718 110.38 95.2454 109.173C95.026 108.214 94.9894 107.19 95.2271 106.221C96.5529 106.897 97.833 107.638 99.0856 108.442ZM87.4645 103.068C90.0155 103.863 92.4842 104.85 94.8523 106.029C94.7334 107.016 94.7334 107.939 94.9254 108.899C92.539 106.897 90.0795 104.969 87.5468 103.15C87.5285 103.123 87.5011 103.104 87.4736 103.077L87.4645 103.068ZM88.2782 103.991C90.2258 105.572 92.1276 107.208 94.0019 108.872C93.1333 108.762 92.2647 108.853 91.4052 109.109C90.5001 107.291 89.5491 105.554 88.2782 103.991ZM92.3836 111.075C92.0636 110.426 91.7527 109.777 91.4327 109.146C92.4384 108.945 93.4168 108.991 94.3951 109.219C95.922 110.581 97.4124 111.97 98.8753 113.369C97.129 112.976 95.3826 112.976 93.6362 113.442C93.1973 112.665 92.7767 111.879 92.3836 111.075ZM93.7185 113.588C95.6477 113.204 97.6044 113.287 99.4696 113.926C101.152 115.544 102.798 117.199 104.416 118.889C102.112 118.359 99.7348 118.478 97.5404 119.392C96.1232 117.546 94.8523 115.608 93.7185 113.588ZM102.999 125.361C101.618 124.081 100.311 122.728 99.0948 121.312C98.6284 120.763 98.1804 120.206 97.7416 119.639C100.155 118.926 102.542 118.862 104.992 119.685C105.056 119.703 105.12 119.703 105.175 119.685C106.556 121.147 107.909 122.646 109.235 124.163C107.095 123.78 104.91 124.136 103.026 125.342C103.026 125.342 103.026 125.352 103.008 125.361H102.999ZM103.346 125.681C105.431 124.63 107.625 124.319 109.856 124.913C111.027 126.266 112.17 127.637 113.294 129.026C111.493 128.514 109.637 128.606 107.827 129.291C106.263 128.176 104.764 126.969 103.337 125.681H103.346ZM113.779 132.911C112.033 132.024 110.35 131.009 108.732 129.913C108.54 129.785 108.357 129.648 108.174 129.52C110.067 128.925 112.042 128.989 113.879 129.721C115.15 131.311 116.385 132.92 117.592 134.565C116.668 134.757 114.812 133.432 113.788 132.911H113.779ZM118.113 133.962C117.107 132.563 116.065 131.183 115.004 129.83C115.004 128.715 115.068 127.609 115.196 126.503C115.434 126.979 115.681 127.445 115.891 127.92C116.568 129.41 118.396 132.426 118.122 133.962H118.113ZM110.524 170.258C109.756 169.051 109.015 167.835 108.293 166.602C108.293 166.602 108.293 166.592 108.293 166.583C108.65 163.402 109.646 160.459 111.264 157.745C112.023 161.876 111.877 166.117 110.515 170.258H110.524ZM108.293 148.997C109.582 151.575 110.56 154.29 111.136 157.068C110.332 158.266 109.628 159.527 109.088 160.871C108.723 161.766 108.439 162.69 108.211 163.631C108.174 163.805 107.964 165.651 107.817 165.742C107.817 165.742 107.799 165.742 107.79 165.742C106.583 163.658 105.44 161.547 104.361 159.39C104.361 159.381 104.38 159.362 104.389 159.344C104.919 157.662 105.458 155.99 105.98 154.308C106.51 152.58 106.894 150.277 108.284 148.979L108.293 148.997ZM107.379 147.27C107.616 147.69 107.845 148.111 108.064 148.531C105.897 150.341 105.44 154.171 104.681 156.684L104.178 158.375C104.096 158.448 104.014 158.494 103.941 158.54C102.734 156.072 101.609 153.568 100.567 151.017C100.832 150.853 100.841 150.634 101.024 150.35C101.573 149.509 101.847 148.412 102.341 147.508C103.109 146.109 104.032 144.839 105.01 143.596C105.852 144.784 106.656 145.999 107.369 147.27H107.379ZM104.773 143.248C103.228 145.003 102.304 146.987 101.097 148.97C100.777 149.491 100.475 149.811 100.165 149.994C99.4605 148.23 98.793 146.456 98.1621 144.665C98.5553 142.325 99.4788 140.259 100.905 138.386C102.267 139.949 103.566 141.576 104.773 143.257V143.248ZM100.128 137.472C100.274 137.636 100.421 137.81 100.567 137.983C99.4239 139.501 98.5462 141.237 98.0798 143.075C97.9884 143.431 97.9518 143.724 97.9153 143.943C97.3758 142.362 96.8638 140.78 96.3883 139.181C96.7175 137.755 97.3027 136.484 98.0798 135.241C98.7747 135.982 99.4605 136.722 100.137 137.481L100.128 137.472ZM96.3792 133.45C96.8455 133.934 97.3118 134.419 97.769 134.903C97.769 134.903 97.7507 134.903 97.7416 134.921C96.9918 135.991 96.4889 137.207 96.1689 138.468C95.538 136.302 94.9346 134.117 94.4134 131.914C94.9346 131.311 95.346 132.38 96.3701 133.45H96.3792ZM94.0659 132.527C94.1391 132.362 94.2122 132.234 94.2762 132.115C94.7243 134.346 95.2454 136.558 95.8306 138.742C95.218 138.285 94.6054 137.837 93.9928 137.389C93.9379 135.963 93.5814 133.651 94.0751 132.518L94.0659 132.527ZM93.9928 137.773C93.9928 137.773 93.9928 137.773 93.9928 137.764C94.6511 138.276 95.3094 138.797 95.9769 139.309C96.4249 140.981 96.9278 142.636 97.4581 144.272C97.321 144.208 97.1472 144.107 96.8912 143.925C95.922 143.23 94.962 142.526 93.9654 141.877C93.9654 140.506 93.9837 139.144 93.9928 137.773ZM94.514 155.295C93.7094 151.557 93.9288 147.572 93.9471 143.769C93.9471 143.175 93.9562 142.581 93.9562 141.987C95.1174 143.075 96.3883 144.025 97.6775 144.948C98.2536 146.703 98.8936 148.44 99.5611 150.167C98.9668 150.195 98.3267 149.857 97.5404 149.491C96.5621 149.034 95.5837 148.595 94.5871 148.175C94.4682 148.129 94.3768 148.321 94.4865 148.385C95.9769 149.189 97.4855 149.966 99.0216 150.698C99.2868 150.825 99.5976 151.027 99.9177 151.1C100.914 153.641 102.011 156.136 103.191 158.595C103.045 158.531 102.898 158.439 102.752 158.284C101.966 158.074 101.152 157.498 100.411 157.169C98.5645 156.319 96.6809 155.551 94.7608 154.865C94.5414 154.783 94.4408 155.121 94.6511 155.204C97.6684 156.392 100.613 157.708 103.484 159.216C104.553 161.419 105.696 163.585 106.903 165.715C105.751 165.377 104.005 164.289 103.392 164.024C101.591 163.247 99.7439 162.562 97.8604 162.013C96.2786 160.103 95.0717 157.909 94.514 155.295ZM98.4364 162.671C101.509 163.823 104.508 165.066 107.424 166.592C108.375 168.238 109.354 169.865 110.387 171.464C106.254 168.859 101.673 166.263 98.4273 162.68L98.4364 162.671ZM50.1324 110.471C50.5621 108.753 51.0833 106.751 52.025 105.225C53.3691 103.049 53.2045 104.43 54.1097 106.294C55.2526 108.643 56.5418 110.965 58.3339 112.884C60.2083 114.895 62.7776 116.111 64.4599 118.286C64.6154 118.487 64.8257 118.442 64.9537 118.305C62.6587 127.481 64.2313 137.508 67.1663 146.822C67.0749 146.722 66.9835 146.612 66.892 146.52C66.9743 146.42 67.0018 146.283 66.9195 146.127C62.0918 136.969 58.0505 127.655 55.3623 117.628C55.3349 117.518 55.1703 117.564 55.1978 117.674C56.7613 124.52 58.9191 131.302 61.7809 137.746C58.3248 132.307 54.1828 127.326 49.4649 122.92C49.4649 122.92 49.4649 122.92 49.4649 122.902C49.0169 118.698 49.0992 114.584 50.1232 110.471H50.1324ZM25.1986 127.883C24.7506 126.622 24.3391 125.342 23.9277 124.072C23.6168 123.121 23.3059 122.162 22.995 121.202C23.2236 120.224 23.8179 120.014 24.7597 120.58C27.7496 120.352 32.2298 122.591 34.7625 123.944C37.478 125.388 39.9102 127.244 42.2783 129.191C46.9505 137.728 52.6559 145.643 60.254 151.712C49.9312 145.149 40.157 137.6 31.2972 129.209C31.16 129.081 30.9589 129.273 31.0869 129.401C37.5877 135.808 44.4361 141.667 51.7142 146.996C44.9481 143.23 37.8346 140.168 30.4651 137.746C30.5383 137.673 30.5657 137.554 30.4651 137.453C27.9599 134.574 26.4421 131.457 25.1803 127.902L25.1986 127.883ZM16.7502 162.69C15.8815 161.94 14.6838 160.999 13.9797 160.085C12.8003 158.531 12.7637 157.946 14.0072 156.474C16.7044 153.266 21.6327 151.109 25.8569 150.158C25.9575 150.195 26.058 150.222 26.1586 150.259C26.3506 150.332 26.4878 150.177 26.5061 150.021C26.8535 149.948 27.201 149.884 27.5393 149.838C27.5393 149.838 27.5393 149.838 27.5484 149.838C34.6619 154.043 42.4063 157.278 50.3244 159.134C40.6965 158.915 31.0869 159.107 21.4498 159.207C21.3675 159.207 21.3675 159.335 21.4498 159.335C30.84 159.271 40.2393 159.664 49.6295 160.057C46.1642 160.313 42.7263 160.871 39.3798 161.748C34.3967 163.055 29.7702 165.432 25.098 167.634C25.0889 167.634 25.0889 167.616 25.0706 167.607C21.9253 166.446 19.2829 164.883 16.7502 162.69ZM50.6078 174.49C38.4838 178.932 25.8112 176.135 13.7694 172.89C21.9253 170.76 28.9839 165.925 37.03 163.393C45.7619 160.642 54.6949 160.331 63.6096 161.794C63.0244 162.223 62.5124 162.726 62.101 163.311C61.9638 163.338 61.8632 163.357 61.7992 163.375C60.5832 163.732 59.3762 164.216 58.1785 164.646C56.4595 165.267 54.7589 165.898 53.0674 166.565C48.7792 168.238 44.555 170.047 40.4222 172.058C40.3125 172.104 40.4039 172.259 40.5045 172.214C45.4601 170.203 50.4158 168.192 55.4538 166.4C57.4744 165.678 59.5043 164.984 61.5432 164.326C61.2232 165.084 61.0403 165.962 61.0678 166.985C61.0769 167.452 61.6346 167.744 61.9912 167.406C62.0278 167.378 62.0552 167.351 62.0918 167.324C62.0918 167.369 62.0918 167.406 62.0918 167.452C58.3522 170.093 54.6949 172.991 50.5987 174.49H50.6078ZM65.74 160.596C65.74 160.596 65.7034 160.615 65.6943 160.624C54.9052 159.107 44.6189 157.068 34.6802 152.379C30.1542 150.241 25.8112 147.736 21.7058 144.866C17.6553 142.033 12.1968 138.504 9.38066 134.327C9.00578 133.779 8.7772 133.578 8.67662 133.514C8.7772 133.541 8.9875 133.541 9.33494 133.322C10.2493 132.755 12.9465 133.879 14.254 134.126C17.1159 134.666 19.9503 135.305 22.7665 136.046C27.9233 137.408 32.9795 139.144 37.9078 141.192C47.5265 145.195 56.3864 150.496 64.7342 156.666C62.357 155.907 59.9706 155.386 57.3739 156.063C45.7436 151.977 34.479 147.051 23.5985 141.219C23.4522 141.146 23.3151 141.356 23.4613 141.438C34.1042 147.471 45.2407 152.535 56.7887 156.575C56.7795 156.73 56.8253 156.876 56.9807 156.968C60.0711 158.686 63.3536 159.472 66.7549 160.011C66.4074 160.185 66.0691 160.377 65.7308 160.578L65.74 160.596ZM62.6495 158.531C61.2689 158.247 60.0163 157.891 59.2665 157.443C59.8974 157.617 60.5192 157.772 61.1592 157.927C61.6529 158.138 62.1558 158.339 62.6495 158.531ZM62.5581 148.751C56.8893 141.804 51.6867 134.556 46.5573 127.152C46.4568 127.006 46.2099 127.134 46.3105 127.289C50.8913 134.218 55.4995 141.256 60.7295 147.764C60.5466 147.891 60.446 148.157 60.5374 148.385C61.3329 150.387 62.3752 152.178 63.6187 153.796C63.4084 153.668 63.1981 153.54 62.9787 153.412C55.7464 147.782 50.0501 140.662 45.3687 132.783C43.2109 129.154 41.2816 125.388 39.453 121.586C38.4929 119.584 37.5786 117.555 36.6734 115.526C36.6003 115.361 35.7682 113.716 35.8048 113.661C35.8597 113.588 38.2918 115.169 38.4472 115.27C42.0223 117.546 45.3596 120.133 48.4317 122.975C48.4774 123.131 48.5323 123.295 48.578 123.46C48.6511 123.67 48.9163 123.679 49.026 123.56C57.9316 131.987 64.6245 142.636 68.5927 154.29C66.7823 152.224 64.7708 150.396 62.549 148.742L62.5581 148.751ZM68.4098 150.963C68.4556 150.944 68.5013 150.917 68.5378 150.889C68.8853 151.858 69.251 152.827 69.6167 153.769C69.6167 153.942 69.5893 154.098 69.5893 154.271C69.2236 153.156 68.8213 152.05 68.4007 150.953L68.4098 150.963ZM71.9849 150.286C72.0032 150.213 71.994 150.149 71.9666 150.094C71.9026 149.29 71.8934 148.467 71.9666 147.636C71.9757 147.471 71.9209 147.361 71.8386 147.279C71.8934 145.049 71.5917 142.837 71.3174 140.543C70.6957 135.314 70.6317 130.077 71.3174 124.849C71.3448 124.657 71.0431 124.648 71.0157 124.849C70.4031 129.382 70.0739 133.898 70.3848 138.477C70.5859 141.429 71.1254 144.345 71.1894 147.288C71.1162 147.343 71.0614 147.398 71.0157 147.489C70.1928 149.445 69.763 151.365 69.6533 153.339C69.3059 152.251 68.9493 151.145 68.611 150.049C68.5287 149.4 68.3275 148.76 68.035 148.166C65.7857 140.652 64.021 132.901 64.6154 125.032C65.0085 119.767 66.444 114.493 69.2144 109.969C69.3333 109.777 71.1711 106.916 71.4088 107.08C71.5551 107.181 71.5826 108.652 71.6374 109.064C71.9483 111.139 72.4969 113.168 73.1461 115.16C75.9531 123.816 79.775 131.658 78.6961 141.036C78.1292 145.999 75.4776 150.195 74.7004 155.012C74.5541 155.88 74.5358 156.721 74.6273 157.525C73.1552 155.405 72.2317 152.937 71.994 150.295L71.9849 150.286ZM111.777 185.019C111.74 185.074 111.731 185.156 111.777 185.238C113.13 187.478 114.739 189.544 116.577 191.399C113.87 190.348 111.118 189.461 108.32 188.849C108.421 188.767 108.467 188.611 108.339 188.492C106.254 186.482 104.8 184.014 104.078 181.235C106.729 182.314 109.299 183.593 111.777 185.019ZM109.226 189.763C110.679 191.006 112.106 192.203 113.724 193.236C114.51 193.739 117.162 194.717 117.884 195.521C114.913 195.521 111.932 195.631 108.942 195.878C108.915 195.823 108.869 195.768 108.796 195.741C104.407 193.876 100.302 191.564 96.3975 188.849C100.695 188.328 105.01 188.757 109.226 189.772V189.763ZM94.4317 188.474C93.0145 188.739 91.643 189.123 90.308 189.58C92.8499 187.725 96.0683 187.039 99.2045 186.591C100.722 187.039 102.231 187.533 103.712 188.099C100.658 187.798 97.5587 187.862 94.4408 188.465L94.4317 188.474ZM109.335 189.79C113.98 190.924 118.506 192.77 122.739 194.891C123.352 195.192 123.754 195.466 124.01 195.713C122.41 195.604 120.792 195.558 119.183 195.53C119.146 195.476 119.1 195.43 119.036 195.402C115.598 193.958 112.279 192.094 109.335 189.79ZM103.63 181.061C104.242 184.005 105.687 186.664 107.863 188.767C107.379 188.666 106.894 188.556 106.4 188.474C106.364 188.428 106.318 188.392 106.263 188.364C104.224 187.45 102.139 186.71 100.027 186.07C100.027 186.07 100.027 186.052 100.009 186.043C97.5861 183.703 95.5746 181.135 94.0568 178.137C97.3301 178.84 100.53 179.827 103.63 181.071V181.061ZM93.5356 178.027C94.2579 179.581 95.0808 181.071 96.0592 182.478C96.7449 183.456 97.577 184.27 98.2993 185.202C98.4456 185.394 98.5553 185.54 98.6376 185.659C95.7575 184.845 92.8224 184.206 89.8783 183.612C87.9399 181.783 86.6599 179.599 86.2758 176.994C88.7263 177.177 91.1401 177.542 93.5356 178.027ZM82.838 176.82C83.8437 176.839 84.8495 176.884 85.8461 176.948C86.0473 178.191 86.3764 179.389 86.9159 180.54C87.0347 180.787 88.2599 182.57 88.7537 183.374C85.6084 182.743 82.4631 182.122 79.3635 181.372C79.3635 181.354 79.3635 181.326 79.3452 181.308C78.184 179.983 77.2971 178.584 76.6022 176.994C78.6778 176.903 80.7624 176.784 82.838 176.811V176.82ZM65.1914 175.979C65.1914 175.979 66.5355 176.4 66.5629 176.4C67.9892 176.546 69.3699 176.93 70.8145 177.021C72.5883 177.131 74.3621 177.095 76.1359 177.021C76.6388 178.557 77.4983 180.01 78.6046 181.18C73.9598 180.001 69.4339 178.475 65.1914 176.025C65.1822 176.007 65.1731 175.989 65.1822 175.979H65.1914ZM71.418 181.701C73.7861 181.656 76.0536 181.674 78.4309 182.131C78.7692 182.195 78.8515 181.719 78.504 181.665C76.0719 181.272 73.4752 181.052 70.9974 181.39C69.6442 180.339 68.3458 179.215 67.1206 177.999C66.9835 177.862 65.8863 176.839 65.4108 176.308C72.3963 180.559 80.3418 182.241 88.2965 183.959C87.6839 184.041 86.8519 184.087 86.5959 184.142C85.5444 184.343 84.502 184.608 83.4871 184.919C82.0699 185.348 80.6893 185.878 79.3909 186.582C76.5839 185.22 73.9141 183.602 71.4271 181.71L71.418 181.701ZM79.8938 186.811C83.1488 185.677 86.2667 184.654 89.732 184.251C92.4933 184.855 95.2546 185.476 97.961 186.235C97.8604 186.253 97.769 186.262 97.6593 186.28C94.5231 186.856 91.5973 187.779 89.3114 189.937C89.1651 189.991 89.028 190.037 88.8817 190.101C88.8451 190.055 88.7994 190.019 88.7263 190.001C85.6815 189.205 82.7191 188.136 79.8938 186.811ZM88.4702 190.951C88.4977 191.052 88.6165 191.125 88.6988 191.024C88.7903 190.915 88.9 190.823 88.9914 190.723C89.8052 190.403 90.6189 190.11 91.4601 189.854C92.9505 189.406 94.4408 189.096 95.9403 188.895C99.6708 191.71 103.648 194.031 107.9 195.96C104.471 196.271 101.033 196.737 97.6318 197.349C93.8099 195.805 90.116 193.876 86.5501 191.81C87.1719 191.509 87.8211 191.225 88.4611 190.96L88.4702 190.951ZM86.2301 191.966C88.2051 193.154 90.2166 194.296 92.2739 195.338C92.795 195.604 95.73 196.664 97.1838 197.413C93.6728 198.053 90.1892 198.83 86.7604 199.735C84.054 198.94 81.4665 197.898 78.9795 196.554C81.2653 194.817 83.67 193.245 86.2301 191.957V191.966ZM74.9199 199.881C76.1542 198.803 77.416 197.751 78.7143 196.755C79.8298 197.377 80.9544 197.953 82.1248 198.464C83.35 199.004 84.9958 199.296 86.2393 199.881C83.7157 200.558 81.2105 201.298 78.7509 202.102C78.7235 202.038 78.6778 201.993 78.6138 201.974C77.2057 201.645 75.9713 200.987 74.8193 200.146C74.8284 200.137 74.8376 200.128 74.8559 200.119C74.9473 200.055 74.9473 199.963 74.9107 199.881H74.9199ZM68.6658 205.667C70.2659 204.141 71.8934 202.596 73.5667 201.088C73.8501 200.877 74.1335 200.667 74.417 200.457C75.505 201.389 76.7394 201.956 78.1292 202.312C74.993 203.354 71.9209 204.479 68.9401 205.685C68.8487 205.685 68.7573 205.667 68.675 205.658L68.6658 205.667ZM76.2731 206.407C74.0055 206.179 71.738 205.941 69.4887 205.74C72.1677 204.936 74.8376 204.113 77.4983 203.318C76.9131 204.268 76.4925 205.283 76.2731 206.416V206.407ZM84.4655 207.148C84.4655 207.148 84.4655 207.184 84.4655 207.202C81.8322 206.974 79.1898 206.709 76.5657 206.435C76.9771 205.256 77.4891 204.131 78.1749 203.099C81.1739 202.203 84.1729 201.344 87.1993 200.539C87.3822 200.823 87.1536 201.088 86.8244 201.654C86.477 202.258 86.157 202.879 85.8553 203.51C85.2884 204.68 84.8038 205.886 84.4563 207.139L84.4655 207.148ZM84.7306 207.23C85.709 204.863 86.7056 202.559 88.0588 200.384C88.0679 200.366 88.0771 200.338 88.0771 200.32C91.3595 199.47 94.6694 198.72 98.025 198.099C98.3084 199.278 95.7483 201.727 95.1723 202.632C94.1482 204.241 93.2705 205.932 92.5939 207.714C89.9789 207.632 87.3548 207.458 84.7306 207.239V207.23ZM101.902 207.495C101.134 207.577 100.366 207.65 99.5885 207.687C97.4581 207.778 95.3186 207.778 93.1699 207.714C94.834 204.278 96.6992 201.27 99.2136 198.355C99.3508 198.199 99.3142 197.98 99.1131 197.907C99.1039 197.907 99.0948 197.907 99.0856 197.898C100.978 197.56 102.871 197.258 104.8 197.029C105.934 196.892 107.077 196.783 108.211 196.682C105.998 200.201 103.886 203.839 101.911 207.504L101.902 207.495ZM102.716 207.385C104.846 203.875 106.885 200.265 108.778 196.627C111.822 196.38 114.867 196.298 117.912 196.344C117.363 197.34 115.672 199.15 115.315 199.671C114.327 201.143 113.523 202.696 112.81 204.314C109.591 205.868 106.245 206.901 102.716 207.376V207.385ZM121.98 198.538C119.713 200.192 117.418 201.801 114.977 203.19C114.611 203.4 114.236 203.592 113.87 203.784C115.15 201.088 116.75 198.62 118.716 196.362C120.572 196.408 122.419 196.481 124.266 196.636C123.992 197.176 123.069 197.733 121.98 198.528V198.538ZM117.793 191.874C117.793 191.81 117.775 191.737 117.701 191.673C115.726 189.772 113.998 187.697 112.49 185.412C117.034 188.118 121.249 191.39 124.998 195.156C122.648 193.986 120.243 192.871 117.793 191.874Z" fill="#5E5B35" fill-opacity="0.1"/>
</svg>
