<svg width="126" height="99" viewBox="0 0 126 99" fill="none" xmlns="http://www.w3.org/2000/svg">
<path fill-rule="evenodd" clip-rule="evenodd" d="M11.6956 46.8125H42.25C45.0016 46.8125 47.6405 47.9056 49.5862 49.8513C51.5319 51.797 52.625 54.4359 52.625 57.1875V88.3125C52.625 91.0641 51.5319 93.703 49.5862 95.6487C47.6405 97.5944 45.0016 98.6875 42.25 98.6875H11.125C8.37338 98.6875 5.73446 97.5944 3.78877 95.6487C1.84308 93.703 0.75 91.0641 0.75 88.3125V53.8156C0.753149 44.423 3.07481 35.1763 7.50896 26.8962C11.9431 18.6161 18.3526 11.5586 26.1687 6.35L35.4544 0.125L41.1606 8.73625L31.875 14.9612C26.4817 18.5755 21.9015 23.2748 18.4269 28.7591C14.9523 34.2434 12.6597 40.3922 11.6956 46.8125ZM84.3206 46.8125H114.875C117.627 46.8125 120.266 47.9056 122.211 49.8513C124.157 51.797 125.25 54.4359 125.25 57.1875V88.3125C125.25 91.0641 124.157 93.703 122.211 95.6487C120.266 97.5944 117.627 98.6875 114.875 98.6875H83.75C80.9984 98.6875 78.3595 97.5944 76.4138 95.6487C74.4681 93.703 73.375 91.0641 73.375 88.3125V53.8156C73.3782 44.423 75.6998 35.1763 80.134 26.8962C84.5681 18.6161 90.9776 11.5586 98.7937 6.35L108.131 0.125L113.786 8.73625L104.5 14.9612C99.1067 18.5755 94.5265 23.2748 91.0519 28.7591C87.5773 34.2434 85.2847 40.3922 84.3206 46.8125Z" fill="#F2EBE3"/>
</svg>
