<svg width="166" height="166" viewBox="0 0 166 166" fill="none" xmlns="http://www.w3.org/2000/svg">
<path fill-rule="evenodd" clip-rule="evenodd" d="M31.6956 77.8125H62.25C65.0016 77.8125 67.6405 78.9056 69.5862 80.8513C71.5319 82.797 72.625 85.4359 72.625 88.1875V119.312C72.625 122.064 71.5319 124.703 69.5862 126.649C67.6405 128.594 65.0016 129.688 62.25 129.688H31.125C28.3734 129.688 25.7345 128.594 23.7888 126.649C21.8431 124.703 20.75 122.064 20.75 119.312V84.8156C20.7531 75.423 23.0748 66.1763 27.509 57.8962C31.9431 49.6161 38.3526 42.5586 46.1687 37.35L55.4544 31.125L61.1606 39.7362L51.875 45.9612C46.4817 49.5755 41.9015 54.2748 38.4269 59.7591C34.9523 65.2434 32.6597 71.3922 31.6956 77.8125ZM104.321 77.8125H134.875C137.627 77.8125 140.266 78.9056 142.211 80.8513C144.157 82.797 145.25 85.4359 145.25 88.1875V119.312C145.25 122.064 144.157 124.703 142.211 126.649C140.266 128.594 137.627 129.688 134.875 129.688H103.75C100.998 129.688 98.3595 128.594 96.4138 126.649C94.4681 124.703 93.375 122.064 93.375 119.312V84.8156C93.3782 75.423 95.6998 66.1763 100.134 57.8962C104.568 49.6161 110.978 42.5586 118.794 37.35L128.131 31.125L133.786 39.7362L124.5 45.9612C119.107 49.5755 114.526 54.2748 111.052 59.7591C107.577 65.2434 105.285 71.3922 104.321 77.8125Z" fill="#90A3A0" fill-opacity="0.2"/>
</svg>
