<svg width="18" height="18" viewBox="0 0 18 18" fill="none" xmlns="http://www.w3.org/2000/svg">
<path fill-rule="evenodd" clip-rule="evenodd" d="M14.1001 4.5518C15.5936 5.61747 16.7422 7.09743 17.4038 8.80875C17.4484 8.93234 17.4484 9.06766 17.4038 9.19125C16.7422 10.9026 15.5936 12.3825 14.1001 13.4482C12.6065 14.5139 10.8335 15.1186 9 15.1875C7.16655 15.1186 5.39347 14.5139 3.89993 13.4482C2.40639 12.3825 1.25785 10.9026 0.596255 9.19125C0.551574 9.06766 0.551574 8.93234 0.596255 8.80875C1.25785 7.09743 2.40639 5.61747 3.89993 4.5518C5.39347 3.48612 7.16655 2.88145 9 2.8125C10.8335 2.88145 12.6065 3.48612 14.1001 4.5518ZM1.72688 9C2.86875 11.8519 6.01875 14.0625 9 14.0625C11.9813 14.0625 15.1313 11.8519 16.2731 9C15.1313 6.14812 11.9813 3.9375 9 3.9375C6.01875 3.9375 2.86875 6.14812 1.72688 9ZM7.12496 6.19379C7.67997 5.82294 8.33249 5.625 9.00001 5.625C9.89511 5.625 10.7536 5.98058 11.3865 6.61351C12.0194 7.24645 12.375 8.10489 12.375 9C12.375 9.66751 12.1771 10.32 11.8062 10.875C11.4354 11.4301 10.9083 11.8626 10.2916 12.1181C9.67486 12.3735 8.99626 12.4404 8.34158 12.3102C7.68689 12.1799 7.08552 11.8585 6.61352 11.3865C6.14152 10.9145 5.82008 10.3131 5.68986 9.65843C5.55963 9.00374 5.62647 8.32514 5.88191 7.70844C6.13736 7.09174 6.56994 6.56464 7.12496 6.19379ZM7.74997 10.8708C8.11998 11.118 8.555 11.25 9.00001 11.25C9.59674 11.25 10.169 11.0129 10.591 10.591C11.013 10.169 11.25 9.59674 11.25 9C11.25 8.55499 11.118 8.11998 10.8708 7.74997C10.6236 7.37996 10.2722 7.09157 9.86104 6.92127C9.44991 6.75097 8.99751 6.70642 8.56105 6.79323C8.1246 6.88005 7.72368 7.09434 7.40902 7.40901C7.09435 7.72368 6.88005 8.12459 6.79324 8.56105C6.70642 8.9975 6.75098 9.4499 6.92128 9.86104C7.09157 10.2722 7.37996 10.6236 7.74997 10.8708Z" fill="#5D7A74"/>
</svg>
