<svg width="182" height="49" viewBox="0 0 182 49" fill="none" xmlns="http://www.w3.org/2000/svg">
<path d="M61.203 18.012V18.335C61.1851 18.4823 61.1488 18.6267 61.095 18.765L60.557 20.056C60.3044 20.7779 59.961 21.4648 59.535 22.1C59.1236 22.6469 58.5891 23.0891 57.975 23.391C57.3352 23.8088 56.5882 24.0328 55.824 24.036C55.3215 24.0442 54.824 23.9339 54.372 23.714L53.458 23.23C53.3507 23.23 53.2434 23.481 53.136 23.983L52.652 25.543L52.114 27.102C51.6642 28.1866 51.0471 29.1938 50.285 30.087C50.0273 30.4578 49.6917 30.7677 49.3016 30.9951C48.9116 31.2226 48.4766 31.3622 48.027 31.404C47.8282 31.4136 47.629 31.3957 47.435 31.351C46.8013 31.2576 46.2122 30.9692 45.7498 30.5258C45.2873 30.0825 44.9742 29.5063 44.854 28.877L44.692 28.07C44.5834 27.6732 44.4205 27.2933 44.208 26.941L42.648 30.168C42.412 30.6555 42.0125 31.0448 41.519 31.268C40.9173 31.49 40.2779 31.5919 39.637 31.568C39.099 31.5705 38.5774 31.383 38.1641 31.0385C37.7509 30.694 37.4725 30.2147 37.378 29.685C36.7964 27.4736 36.5069 25.1956 36.517 22.909C36.5369 21.5965 36.6267 20.286 36.786 18.983C36.714 19.019 36.5527 19.1087 36.302 19.252C31.8866 21.3876 27.0618 22.5437 22.158 22.641C18.9413 22.6148 15.7314 22.9394 12.585 23.609C10.9708 23.9793 9.39509 24.5013 7.87904 25.168C6.55448 25.7652 5.33005 26.5632 4.24903 27.534C3.20674 28.4191 2.36181 29.5131 1.7689 30.7452C1.17599 31.9774 0.848298 33.3203 0.807016 34.687C0.741184 35.5191 0.949077 36.35 1.39903 37.053C1.43058 37.0797 1.45643 37.1126 1.47498 37.1495C1.49354 37.1865 1.50443 37.2268 1.50703 37.268C1.50703 37.3754 1.42636 37.456 1.26502 37.51C1.19784 37.5378 1.12392 37.5449 1.05268 37.5305C0.981445 37.516 0.916125 37.4807 0.86503 37.429C0.667305 37.2717 0.510521 37.069 0.408029 36.838C0.282492 36.5054 0.18222 36.1637 0.108041 35.816L0.00303049 34.474C-0.0073473 33.0812 0.34486 31.7096 1.02503 30.494C2.11906 28.3994 3.80134 26.6702 5.86503 25.519C7.92453 24.4077 10.1346 23.6016 12.426 23.126C14.4649 22.7044 16.5322 22.4346 18.611 22.319C19.9377 22.2117 20.871 22.14 21.411 22.104L24.261 21.943C28.4789 21.5884 32.588 20.4195 36.361 18.501C36.5652 18.3865 36.7629 18.2606 36.953 18.124L37.003 18.012C37.0945 17.799 37.2436 17.6157 37.4334 17.4827C37.6233 17.3497 37.8466 17.2722 38.078 17.259C38.7587 17.259 39.117 17.6533 39.153 18.442L39.314 20.647L39.422 22.529L39.637 25.164C39.637 25.0567 39.673 25.5407 39.745 26.616C39.7772 27.8442 40.1095 29.0458 40.713 30.116C41.7129 28.6587 42.6375 27.151 43.483 25.599C43.9488 24.6377 44.2313 23.5979 44.316 22.533C44.2396 21.9087 44.3928 21.2778 44.747 20.758C44.875 20.6368 45.028 20.545 45.1952 20.4892C45.3625 20.4334 45.5399 20.4149 45.715 20.435C46.539 20.435 47.023 21.152 47.167 22.586C47.2845 24.1369 47.4821 25.6806 47.759 27.211L47.92 28.502C47.932 28.7861 47.9863 29.0669 48.081 29.335C48.1199 29.4185 48.1801 29.4902 48.2556 29.5429C48.3311 29.5956 48.4193 29.6274 48.511 29.635H48.565C48.6768 29.6328 48.787 29.6078 48.8888 29.5616C48.9906 29.5153 49.0818 29.4488 49.157 29.366L49.479 28.99C49.9097 28.4167 50.322 27.8074 50.716 27.162C50.8247 27.0315 50.9152 26.8868 50.985 26.732L51.146 26.409C51.3614 25.8717 51.5854 25.28 51.818 24.634C52.0507 23.988 52.239 23.3963 52.383 22.859C52.432 22.7589 52.4505 22.6465 52.436 22.536C52.3812 22.2587 52.2286 22.0103 52.006 21.836C51.3724 21.0769 50.8965 20.1992 50.606 19.254C50.2798 18.2282 50.1165 17.1575 50.122 16.081C50.067 14.5748 50.4401 13.0838 51.198 11.781C51.4307 11.4058 51.7315 11.0775 52.085 10.813C52.3844 10.5768 52.7528 10.4448 53.134 10.437C53.3161 10.4577 53.4961 10.4939 53.672 10.545C54.111 10.7123 54.4844 11.0167 54.7366 11.413C54.9888 11.8094 55.1065 12.2765 55.072 12.745C55.1701 15.0614 54.9343 17.3798 54.372 19.629L53.78 22.318C54.332 22.7989 55.038 23.066 55.77 23.071C56.4074 23.0754 57.0349 22.9142 57.5912 22.603C58.1474 22.2918 58.6133 21.8415 58.943 21.296C59.0504 21.1167 59.337 20.4713 59.803 19.36L60.233 18.338C60.2743 18.206 60.3635 18.0942 60.4831 18.0247C60.6026 17.9551 60.7439 17.9328 60.879 17.962L61.203 18.012ZM53.996 15.861L54.104 14.14C54.1174 13.4702 54.0451 12.8015 53.889 12.15C53.7457 11.612 53.5124 11.325 53.189 11.289H53.082C52.7594 11.289 52.5084 11.504 52.329 11.934C51.729 13.367 51.4007 14.899 51.361 16.452C51.3741 18.1464 51.8589 19.8037 52.761 21.238C53.3997 19.5069 53.8147 17.7013 53.996 15.865V15.861Z" fill="#A67944"/>
<path d="M59.051 30.6817C58.3364 29.9471 57.8991 28.987 57.814 27.9657L57.706 26.0297C57.6989 24.6414 57.9171 23.2612 58.352 21.9427C58.8458 20.521 59.5139 19.1661 60.341 17.9087C60.7438 17.2604 61.3068 16.7266 61.9756 16.3588C62.6445 15.991 63.3967 15.8016 64.16 15.8087C64.7636 15.7716 65.359 15.9638 65.827 16.3467C66.0286 16.5401 66.186 16.7748 66.2882 17.0348C66.3904 17.2948 66.435 17.5738 66.419 17.8527C66.4281 18.0516 66.41 18.2508 66.365 18.4447C65.9928 20.4071 65.0586 22.2192 63.676 23.6607C63.1962 24.3851 62.5958 25.0219 61.901 25.5437C61.5179 25.7686 61.2014 26.0913 60.9841 26.4788C60.7667 26.8663 60.6562 27.3045 60.664 27.7487C60.664 29.2541 61.1307 30.0071 62.064 30.0077C62.6972 29.9944 63.3205 29.8475 63.893 29.5767C64.4812 29.3296 65.012 28.9636 65.452 28.5017C66.0869 27.7499 66.6204 26.9182 67.039 26.0277C67.4157 25.2037 67.8907 23.949 68.464 22.2637L69.164 20.3807C69.558 19.3414 69.827 18.66 69.971 18.3367C70.0016 18.2309 70.0649 18.1376 70.1519 18.07C70.2389 18.0025 70.345 17.9642 70.455 17.9607C70.5804 17.9553 70.7037 17.9934 70.804 18.0687C70.8461 18.0998 70.8802 18.1404 70.9036 18.1871C70.9271 18.2338 70.9392 18.2854 70.939 18.3377C70.921 18.485 70.8848 18.6294 70.831 18.7677C69.253 22.7477 68.267 25.2217 67.873 26.1897C67.4688 27.1673 66.9736 28.1047 66.394 28.9897C65.8813 29.6638 65.2752 30.2615 64.594 30.7647C63.7765 31.3493 62.799 31.6684 61.794 31.6787C61.2934 31.7039 60.7928 31.6287 60.3218 31.4575C59.8507 31.2862 59.4186 31.0225 59.051 30.6817ZM65.235 19.4687C65.3954 19.0958 65.4689 18.6912 65.45 18.2857C65.4597 17.9611 65.4329 17.6364 65.37 17.3177C65.3098 17.0923 65.1891 16.8875 65.021 16.7257C64.8045 16.5592 64.541 16.4651 64.268 16.4567C64.0434 16.459 63.8224 16.5141 63.623 16.6177C63.3817 16.7173 63.1625 16.8636 62.978 17.0483C62.7935 17.2329 62.6473 17.4523 62.548 17.6937C61.6263 20.1798 60.9772 22.7586 60.612 25.3847C62.6707 23.8784 64.271 21.8305 65.235 19.4687Z" fill="#A67944"/>
<path d="M77.418 30.7359C76.8352 30.2108 76.4152 29.5296 76.208 28.7729L75.939 27.213C75.8624 26.5796 75.6414 25.9723 75.293 25.4379L73.142 28.7719C72.9298 29.2206 72.5951 29.6 72.1764 29.8665C71.7578 30.133 71.2723 30.2756 70.776 30.2779C70.1447 30.27 69.536 30.0419 69.055 29.6329C68.496 29.1663 68.1161 28.5203 67.98 27.8049C67.8507 26.9682 67.7789 26.1235 67.765 25.2769C67.7598 24.3528 67.8683 23.4316 68.088 22.5339C68.5719 20.7949 69.3943 19.1685 70.508 17.7479C70.8541 17.3148 71.3229 16.9963 71.853 16.8339C72.558 16.6736 73.283 16.6194 74.004 16.6729L74.704 16.7259C74.8257 16.7424 74.9496 16.7261 75.063 16.6788C75.1763 16.6316 75.2751 16.555 75.349 16.4569C75.5406 16.0929 75.6333 15.685 75.618 15.2739C75.976 12.4419 76.3093 10.255 76.618 8.71295C76.9227 7.17122 77.3638 5.65958 77.936 4.19592C78.2651 3.04666 78.8539 1.98843 79.657 1.10294C79.9382 0.77493 80.2836 0.50808 80.672 0.318878C81.0604 0.129677 81.4834 0.0221398 81.915 0.00292969C82.3704 0.0101029 82.8194 0.112301 83.233 0.302948C83.669 0.486171 84.0241 0.82068 84.233 1.24493C84.6336 2.17762 84.8175 3.18896 84.771 4.20294C84.7643 5.68024 84.5378 7.1483 84.099 8.55893C83.5736 10.2123 82.8985 11.8142 82.082 13.3449C81.5691 14.5237 80.9576 15.657 80.254 16.7329C79.9181 17.2782 79.5212 17.7835 79.071 18.2389C78.8726 18.3951 78.7319 18.6129 78.671 18.8579C78.6076 19.2035 78.5804 19.5547 78.59 19.9059C78.4852 22.7501 78.6654 25.5977 79.128 28.4059C79.3787 29.5179 79.7194 30.0736 80.15 30.0729C80.4274 30.0183 80.6759 29.8657 80.85 29.6429C81.559 28.6986 82.1627 27.6796 82.65 26.6039C83.1694 25.4746 83.7877 23.9239 84.505 21.9519L84.774 21.1989L85.096 20.3919C85.4907 19.3526 85.7597 18.6713 85.903 18.3479C85.9336 18.2422 85.9969 18.1488 86.0839 18.0812C86.1708 18.0137 86.277 17.9754 86.387 17.9719C86.5127 17.9665 86.6363 18.0046 86.737 18.0799C86.7789 18.1111 86.8129 18.1517 86.8362 18.1984C86.8595 18.2451 86.8714 18.2967 86.871 18.3489C86.8535 18.4963 86.8172 18.6408 86.763 18.7789C85.185 22.7589 84.199 25.2329 83.805 26.2009L82.622 28.5139L81.815 30.0729C81.6 30.5308 81.2571 30.9166 80.8277 31.1838C80.3983 31.451 79.9007 31.5883 79.395 31.5789C78.6622 31.5191 77.9685 31.2233 77.418 30.7359ZM75.401 20.4909L75.348 19.631C75.3541 19.1628 75.272 18.6977 75.106 18.2599C75.056 18.0896 74.9702 17.9318 74.8543 17.7973C74.7384 17.6628 74.5951 17.5546 74.434 17.4799C74.2956 17.4341 74.1495 17.4158 74.004 17.4259C73.7738 17.4174 73.5454 17.4702 73.3422 17.579C73.1391 17.6878 72.9686 17.8486 72.848 18.0449C72.4932 18.6332 72.1962 19.2544 71.961 19.8999C71.7672 20.3725 71.6055 20.8576 71.477 21.3519C71.1528 22.5438 70.9897 23.7738 70.992 25.0089C71.0159 26.0533 71.1061 27.095 71.262 28.1279C74.0207 26.0126 75.4004 23.4669 75.401 20.4909ZM80.349 14.5219C80.707 13.8759 81.3343 12.6759 82.231 10.9219C83.2269 8.88224 83.7076 6.62949 83.631 4.36093C83.6374 3.73101 83.5925 3.10162 83.497 2.47894C83.4255 1.98055 83.2108 1.51366 82.879 1.13495C82.6914 0.901553 82.4223 0.747883 82.126 0.704926C81.8108 0.736134 81.5207 0.890726 81.319 1.13495C80.7736 1.79783 80.4202 2.59739 80.297 3.44693C79.5743 7.77062 79.1254 12.1356 78.953 16.5159C79.4809 15.897 79.9484 15.2289 80.349 14.5209V14.5219Z" fill="#A67944"/>
<path d="M93.336 30.7359C92.7538 30.2104 92.3339 29.5293 92.126 28.7729L91.857 27.213C91.7805 26.5798 91.5599 25.9725 91.212 25.4379L89.061 28.7719C88.8487 29.2206 88.5137 29.6001 88.0949 29.8666C87.6761 30.1331 87.1904 30.2757 86.694 30.2779C86.0627 30.27 85.454 30.0419 84.973 29.6329C84.4136 29.1665 84.0333 28.5204 83.897 27.8049C83.7677 26.9682 83.6959 26.1235 83.682 25.2769C83.6765 24.3529 83.7847 23.4316 84.004 22.5339C84.4882 20.7948 85.3109 19.1684 86.425 17.7479C86.7706 17.3148 87.2391 16.9962 87.769 16.8339C88.474 16.6737 89.199 16.6194 89.92 16.6729L90.62 16.7259C90.7417 16.7425 90.8656 16.7263 90.979 16.679C91.0924 16.6317 91.1911 16.5551 91.265 16.4569C91.4566 16.0929 91.5493 15.685 91.534 15.2739C91.892 12.4419 92.2237 10.255 92.529 8.71295C92.8339 7.17126 93.2749 5.65964 93.847 4.19592C94.1763 3.04675 94.7651 1.98856 95.568 1.10294C95.8493 0.77481 96.1949 0.507901 96.5835 0.318695C96.972 0.129489 97.3953 0.0220049 97.827 0.00292969C98.2824 0.0101323 98.7313 0.112329 99.145 0.302948C99.5787 0.48737 99.9316 0.821739 100.139 1.24493C100.54 2.17751 100.724 3.18893 100.677 4.20294C100.67 5.68023 100.444 7.1483 100.005 8.55893C99.4796 10.2123 98.8044 11.8142 97.988 13.3449C97.4752 14.5238 96.8637 15.6571 96.16 16.7329C95.8242 17.2782 95.4272 17.7835 94.977 18.2389C94.7788 18.3952 94.6381 18.613 94.577 18.8579C94.5141 19.2036 94.4873 19.5548 94.497 19.9059C94.392 22.7501 94.5722 25.5977 95.035 28.4059C95.2857 29.5179 95.6264 30.0736 96.057 30.0729C96.3344 30.0183 96.5829 29.8657 96.757 29.6429C97.4661 28.6986 98.0697 27.6796 98.557 26.6039C99.0764 25.4746 99.695 23.9239 100.413 21.9519L100.682 21.1989L101.005 20.3919C101.398 19.3526 101.667 18.6713 101.811 18.3479C101.842 18.2422 101.905 18.149 101.992 18.0814C102.079 18.0139 102.185 17.9756 102.295 17.9719C102.421 17.9662 102.544 18.0044 102.645 18.0799C102.687 18.111 102.721 18.1516 102.745 18.1983C102.768 18.245 102.78 18.2966 102.78 18.3489C102.762 18.4962 102.726 18.6406 102.673 18.7789C101.095 22.7589 100.109 25.2329 99.715 26.2009L98.532 28.5139L97.725 30.0729C97.5087 30.5297 97.1649 30.9141 96.7349 31.1797C96.305 31.4454 95.8073 31.5809 95.302 31.5699C94.5742 31.51 93.885 31.2176 93.336 30.7359ZM91.32 20.4909L91.266 19.631C91.2721 19.1628 91.19 18.6977 91.024 18.2599C90.9739 18.0895 90.888 17.9316 90.7719 17.7971C90.6558 17.6626 90.5123 17.5545 90.351 17.4799C90.2126 17.434 90.0665 17.4157 89.921 17.4259C89.6908 17.4174 89.4624 17.4702 89.2593 17.579C89.0561 17.6878 88.8856 17.8486 88.765 18.0449C88.41 18.6332 88.1127 19.2545 87.877 19.8999C87.6834 20.3726 87.5217 20.8576 87.393 21.3519C87.0691 22.5438 86.9063 23.7738 86.909 25.0089C86.9327 26.0532 87.0226 27.095 87.178 28.1279C89.9387 26.0126 91.319 23.4669 91.319 20.4909H91.32ZM96.267 14.5219C96.625 13.8759 97.2527 12.6759 98.15 10.9219C99.1457 8.88218 99.6264 6.62947 99.55 4.36093C99.5563 3.73101 99.5115 3.10162 99.416 2.47894C99.3445 1.98055 99.1298 1.51366 98.798 1.13495C98.6105 0.901476 98.3414 0.747787 98.045 0.704926C97.7298 0.736134 97.4397 0.890726 97.238 1.13495C96.6922 1.79758 96.3387 2.59727 96.216 3.44693C95.4929 7.77057 95.044 12.1356 94.872 16.5159C95.3997 15.897 95.8668 15.229 96.267 14.5209V14.5219Z" fill="#A67944"/>
<path d="M100.785 29.525C100.549 28.9814 100.421 28.3967 100.409 27.804L100.355 25.653V24.416C100.32 22.3616 100.482 20.3085 100.839 18.285L101.216 16.564C101.359 15.9546 101.807 15.6677 102.56 15.703C102.71 15.6919 102.861 15.7151 103.001 15.7709C103.141 15.8267 103.266 15.9136 103.367 16.025C103.46 16.1463 103.527 16.2852 103.563 16.4333C103.6 16.5813 103.607 16.7354 103.582 16.886L103.152 24.792L103.044 27.592C103.004 28.0684 103.031 28.5481 103.124 29.017C103.231 29.4701 103.423 29.899 103.689 30.281C103.904 30.281 104.138 30.066 104.389 29.636C105.098 28.6918 105.702 27.6727 106.189 26.597C106.708 25.4677 107.327 23.917 108.045 21.945L108.314 21.192L108.637 20.385C109.031 19.3457 109.3 18.6643 109.444 18.341C109.475 18.2352 109.538 18.1418 109.625 18.0743C109.712 18.0067 109.818 17.9685 109.928 17.965C110.054 17.9593 110.177 17.9975 110.278 18.073C110.32 18.1042 110.354 18.1448 110.377 18.1915C110.4 18.2382 110.412 18.2898 110.412 18.342C110.394 18.4893 110.358 18.6338 110.304 18.772C108.726 22.752 107.74 25.226 107.346 26.194L106.163 28.507L105.356 30.066C105.141 30.5239 104.798 30.9098 104.369 31.177C103.939 31.4443 103.442 31.5814 102.936 31.572C102.427 31.4544 101.959 31.2025 101.581 30.8424C101.202 30.4824 100.928 30.0274 100.785 29.525ZM102.185 12.181C102.045 12.0687 101.933 11.9251 101.858 11.7617C101.783 11.5982 101.748 11.4195 101.755 11.24C101.754 11.0652 101.792 10.8924 101.866 10.7342C101.941 10.5761 102.05 10.4366 102.185 10.326C102.484 10.0703 102.868 9.93587 103.261 9.94899C103.429 9.93868 103.598 9.96448 103.756 10.0247C103.913 10.0849 104.056 10.178 104.175 10.298C104.394 10.5409 104.51 10.8593 104.498 11.186C104.507 11.52 104.392 11.8455 104.175 12.1C104.067 12.2252 103.936 12.3277 103.788 12.4015C103.64 12.4753 103.479 12.519 103.314 12.53C102.907 12.5501 102.507 12.4266 102.182 12.181H102.185Z" fill="#A67944"/>
<path d="M118.048 29.7679C117.592 28.3545 117.428 26.8635 117.564 25.3849C117.743 23.4515 117.851 21.5155 117.887 19.5768L117.941 18.7699C117.941 17.9092 117.708 17.4075 117.241 17.2649C117.139 17.2234 117.028 17.2049 116.918 17.2108C116.523 17.2108 116.128 17.4979 115.735 18.0719L115.251 18.6638C113.591 20.7674 112.515 23.2717 112.132 25.9239C112.084 26.1539 112.066 26.3892 112.078 26.6239C112.085 27.1655 112.139 27.7055 112.239 28.2379C112.31 28.8832 112.346 29.2955 112.346 29.4749L112.4 30.2278C112.411 30.3781 112.388 30.5289 112.332 30.6687C112.276 30.8086 112.189 30.9338 112.077 31.0349C111.741 31.2472 111.344 31.3418 110.948 31.3039C110.738 31.3214 110.527 31.2957 110.328 31.2284C110.128 31.1611 109.945 31.0536 109.788 30.9125C109.632 30.7715 109.507 30.5999 109.419 30.4083C109.332 30.2167 109.285 30.0093 109.281 29.7989C109.03 27.9322 108.85 26.4172 108.743 25.2538C108.636 24.1188 108.6 22.9783 108.635 21.8389L108.796 18.9389C108.788 18.6759 108.874 18.4186 109.038 18.2129C109.207 18.0121 109.449 17.8865 109.71 17.8639H109.979C110.235 17.8597 110.487 17.935 110.699 18.0795C110.91 18.224 111.072 18.4306 111.162 18.6709C111.467 19.515 111.613 20.4085 111.592 21.3058L111.7 22.9729L112.291 21.8979C112.936 20.8219 113.331 20.1219 113.474 19.7979C114.874 17.5752 116.183 16.4639 117.4 16.4639C117.928 16.4906 118.434 16.681 118.848 17.0086C119.262 17.3362 119.564 17.7847 119.712 18.2919C119.996 19.0007 120.195 19.7409 120.304 20.4969C120.411 21.2495 120.519 22.3432 120.627 23.7779C120.698 25.2839 120.734 26.7539 120.735 28.1879C120.735 29.3359 120.914 29.9095 121.273 29.9088C121.463 29.8852 121.637 29.7888 121.757 29.6399C122.466 28.6956 123.07 27.6765 123.557 26.6009C124.076 25.4715 124.695 23.9209 125.413 21.9489L125.682 21.1959L126.005 20.3889C126.399 19.3495 126.668 18.6682 126.812 18.3448C126.843 18.2391 126.906 18.1457 126.993 18.0782C127.08 18.0106 127.186 17.9724 127.296 17.9689C127.421 17.9635 127.545 18.0016 127.645 18.0768C127.687 18.1079 127.721 18.1484 127.745 18.1952C127.768 18.2419 127.78 18.2936 127.78 18.3459C127.762 18.4932 127.726 18.6376 127.672 18.7758C126.094 22.7558 125.108 25.2298 124.714 26.1978L123.531 28.5109L122.724 30.0699C122.527 30.5075 122.21 30.8808 121.811 31.1471C121.411 31.4134 120.945 31.562 120.465 31.5759C119.917 31.5946 119.378 31.4256 118.939 31.0969C118.499 30.7682 118.185 30.2993 118.048 29.7679Z" fill="#A67944"/>
<path d="M130.014 47.1931C129.501 46.6119 129.173 45.8908 129.073 45.1221C128.917 44.2336 128.827 43.3348 128.803 42.4331C128.805 40.094 129.417 37.7958 130.578 35.7651C131.552 33.8559 132.823 32.1133 134.343 30.6021C134.589 30.3947 134.792 30.1407 134.94 29.8546C135.088 29.5685 135.177 29.256 135.204 28.9351C135.131 27.0018 135.095 24.8324 135.096 22.4271C135.02 22.4364 134.944 22.4175 134.881 22.3741C134.8 22.327 134.705 22.308 134.612 22.3201C134.022 23.3589 133.376 24.3644 132.676 25.3321L131.547 26.9461C131.339 27.2866 131.105 27.6102 130.847 27.9141C130.537 28.3482 130.135 28.7083 129.669 28.9686C129.204 29.2288 128.686 29.3826 128.154 29.4191L127.401 29.3111C126.736 29.1572 126.135 28.8001 125.683 28.2894C125.23 27.7787 124.947 27.1397 124.874 26.4611C124.767 25.8213 124.713 25.1738 124.713 24.5251C124.696 22.5769 125.257 20.6674 126.327 19.0391C126.777 18.3003 127.418 17.6965 128.182 17.2911C128.951 16.8796 129.81 16.6671 130.682 16.6731C131.731 16.6655 132.759 16.9644 133.64 17.5331C133.998 17.7484 134.465 18.0711 135.04 18.5011C135.18 18.4155 135.297 18.2975 135.381 18.157C135.465 18.0164 135.514 17.8576 135.524 17.6941C135.559 17.5151 135.632 17.2461 135.739 16.8871C135.94 16.6323 136.227 16.4601 136.546 16.4031C136.643 16.3915 136.742 16.4013 136.835 16.4316C136.928 16.4619 137.013 16.5121 137.085 16.5787C137.156 16.6453 137.213 16.7267 137.25 16.8173C137.287 16.9078 137.304 17.0054 137.299 17.1031C137.602 19.0783 137.746 21.0748 137.73 23.0731C137.73 24.2211 137.748 25.0638 137.783 25.6011L137.837 27.7521C138.43 27.5441 138.991 27.2543 139.504 26.8911C144.523 24.1411 150.091 22.5428 155.804 22.2121C159.632 21.9861 163.431 21.41 167.154 20.4911C169.124 19.9352 171.041 19.2064 172.882 18.3131C174.382 17.5598 175.738 16.5495 176.889 15.3281C179.129 13.2299 180.444 10.3284 180.546 7.26108C180.564 6.54945 180.51 5.83782 180.385 5.13708C180.272 4.64373 180.03 4.18904 179.685 3.81909C179.632 3.7512 179.599 3.67003 179.59 3.58459C179.581 3.49916 179.595 3.41278 179.632 3.33508C179.68 3.28385 179.739 3.24304 179.804 3.21515C179.868 3.18725 179.938 3.17285 180.009 3.17285C180.079 3.17285 180.149 3.18725 180.214 3.21515C180.278 3.24304 180.337 3.28385 180.385 3.33508C180.652 3.49399 180.867 3.72758 181.003 4.00708C181.167 4.41367 181.284 4.83779 181.352 5.27109C181.512 5.95929 181.584 6.66484 181.567 7.37109C181.574 8.84907 181.223 10.3067 180.545 11.6201C179.42 14.1956 177.532 16.3639 175.135 17.8321C172.712 19.2799 170.096 20.3756 167.364 21.0861C164.962 21.7131 162.518 22.1626 160.05 22.4311L158.328 22.5921C155.747 22.8434 154.098 23.0228 153.38 23.1301C148.366 23.7975 143.528 25.4226 139.128 27.9171C139.092 27.9171 139.039 27.9701 138.967 28.0781C138.627 28.3374 138.245 28.5376 137.838 28.6701C137.836 29.3529 137.872 30.0353 137.946 30.7141C138.089 32.8654 138.16 34.7478 138.161 36.3611C138.194 38.9446 137.941 41.5239 137.408 44.0521C137.132 45.1053 136.617 46.0806 135.903 46.9021C135.525 47.3196 135.058 47.6473 134.537 47.8613C134.016 48.0753 133.454 48.1703 132.891 48.1391C132.549 48.1514 132.207 48.1333 131.869 48.0851C131.16 48.0328 130.497 47.7141 130.014 47.1931ZM134.397 20.7601C134.47 20.6094 134.507 20.4436 134.505 20.2761C134.504 19.9177 134.37 19.5725 134.128 19.3081C133.763 18.7796 133.283 18.3405 132.724 18.0239C132.165 17.7073 131.542 17.5214 130.901 17.4801C130.513 17.5022 130.138 17.6289 129.817 17.8466C129.495 18.0644 129.238 18.3652 129.073 18.7171C128.17 20.2892 127.688 22.0674 127.673 23.8801C127.685 25.2758 127.94 26.6587 128.426 27.9671C130.891 26.0012 132.924 23.5477 134.397 20.7601ZM132.514 47.2741C132.816 47.2405 133.105 47.1351 133.358 46.9666C133.61 46.7982 133.819 46.5717 133.966 46.3061C134.431 45.5192 134.775 44.6671 134.988 43.7781C135.309 41.8225 135.471 39.8439 135.472 37.8621C135.472 35.9608 135.347 33.7738 135.096 31.3011C133.525 32.848 132.224 34.6481 131.25 36.6261C130.406 38.4264 129.974 40.3926 129.986 42.3811L130.04 43.4031C130.08 44.4687 130.435 45.4983 131.062 46.3611C131.223 46.6102 131.436 46.821 131.687 46.9787C131.938 47.1365 132.22 47.2373 132.514 47.2741Z" fill="#A67944"/>
<path d="M147.851 17.2159C146.304 18.6381 145.068 20.3658 144.222 22.2899C143.501 23.9283 143.116 25.6949 143.09 27.4849C143.042 28.3727 143.264 29.2543 143.726 30.0139C143.909 30.3038 144.164 30.5416 144.466 30.704C144.768 30.8664 145.106 30.948 145.449 30.9409C146.897 30.9409 148.406 29.6742 149.975 27.1409C151.399 25.0555 152.214 22.6146 152.328 20.0919C152.353 19.562 152.245 19.0343 152.016 18.5559C151.947 18.3919 151.833 18.2511 151.686 18.15C151.54 18.049 151.368 17.9921 151.19 17.9859C150.555 17.9859 149.966 18.4649 149.423 19.4229C148.938 20.1913 148.657 21.0713 148.608 21.9789C148.594 22.0876 148.603 22.198 148.633 22.3033C148.664 22.4085 148.716 22.5064 148.786 22.5908C148.856 22.6752 148.942 22.7443 149.04 22.7939C149.138 22.8434 149.245 22.8724 149.354 22.8789C149.559 22.9009 149.661 23.0009 149.661 23.1789C149.648 23.3631 149.597 23.5427 149.511 23.7061C149.425 23.8696 149.306 24.0132 149.161 24.1279C148.89 24.4128 148.519 24.5801 148.126 24.5939C147.907 24.5924 147.691 24.5369 147.498 24.4322C147.305 24.3276 147.141 24.177 147.02 23.9939C146.71 23.5566 146.553 23.0293 146.574 22.4939C146.607 21.1392 147.114 19.839 148.006 18.8189C148.327 18.3207 148.757 17.9019 149.264 17.5941C149.77 17.2863 150.34 17.0975 150.93 17.0419C151.245 17.0321 151.557 17.1006 151.838 17.2413C152.12 17.382 152.362 17.5904 152.543 17.8479C152.972 18.5065 153.18 19.285 153.135 20.0699C153.083 22.0983 152.565 24.0875 151.621 25.8839C150.711 27.8077 149.424 29.5293 147.836 30.9469C146.696 32.1019 145.176 32.8052 143.558 32.9269C143.055 32.9314 142.558 32.8141 142.11 32.585C141.662 32.3558 141.276 32.0216 140.985 31.6109C140.276 30.6269 139.918 29.4328 139.97 28.2209C139.982 26.6902 140.282 25.1755 140.854 23.7559C141.412 22.3032 142.188 20.9437 143.154 19.7239C143.773 18.8548 144.539 18.1005 145.417 17.4949C146.182 17.1491 147.018 16.993 147.856 17.0399L147.851 17.2159Z" fill="#A67944"/>
</svg>
