<svg width="20" height="20" viewBox="0 0 20 20" fill="none" xmlns="http://www.w3.org/2000/svg">
<path d="M18.3812 5.7875C18.2816 5.41753 18.0866 5.0802 17.8157 4.80927C17.5448 4.53835 17.2075 4.34334 16.8375 4.24375C15.475 3.875 9.99998 3.875 9.99998 3.875C9.99998 3.875 4.52498 3.875 3.16248 4.24375C2.79251 4.34334 2.45518 4.53835 2.18425 4.80927C1.91333 5.0802 1.71832 5.41753 1.61873 5.7875C1.36432 7.17704 1.24087 8.58739 1.24998 10C1.24087 11.4126 1.36432 12.823 1.61873 14.2125C1.71832 14.5825 1.91333 14.9198 2.18425 15.1907C2.45518 15.4617 2.79251 15.6567 3.16248 15.7563C4.52498 16.125 9.99998 16.125 9.99998 16.125C9.99998 16.125 15.475 16.125 16.8375 15.7563C17.2075 15.6567 17.5448 15.4617 17.8157 15.1907C18.0866 14.9198 18.2816 14.5825 18.3812 14.2125C18.6356 12.823 18.7591 11.4126 18.75 10C18.7591 8.58739 18.6356 7.17704 18.3812 5.7875ZM8.24998 12.625V7.375L12.7937 10L8.24998 12.625Z" fill="#BCA283"/>
</svg>
