<svg width="20" height="20" viewBox="0 0 20 20" fill="none" xmlns="http://www.w3.org/2000/svg">
<path d="M10 1.25C7.97141 1.26382 6.01064 1.98207 4.45313 3.2819C2.89562 4.58172 1.83815 6.38235 1.46162 8.37574C1.08509 10.3691 1.4129 12.4314 2.38897 14.2098C3.36504 15.9882 4.92871 17.3722 6.8125 18.125C6.68589 17.2965 6.68589 16.4535 6.8125 15.625L7.84375 11.25C7.68055 10.8538 7.59974 10.4285 7.60625 10C7.60625 8.7875 8.3125 7.875 9.1875 7.875C9.34601 7.87262 9.50317 7.90452 9.6482 7.96853C9.79323 8.03255 9.92272 8.12715 10.0278 8.24587C10.1328 8.36458 10.211 8.50461 10.2569 8.65634C10.3028 8.80808 10.3154 8.96795 10.2937 9.125C10.2937 9.875 9.81875 11 9.56875 12.0375C9.51494 12.231 9.50854 12.4346 9.5501 12.6311C9.59165 12.8275 9.67993 13.0111 9.80747 13.1663C9.93501 13.3214 10.098 13.4435 10.2828 13.5223C10.4675 13.601 10.6685 13.6341 10.8687 13.6188C12.4187 13.6188 13.6187 11.975 13.6187 9.6125C13.6343 9.13243 13.5497 8.65438 13.3702 8.20885C13.1907 7.76331 12.9203 7.36009 12.5763 7.02488C12.2323 6.68968 11.8222 6.42987 11.3721 6.26201C10.9221 6.09416 10.442 6.02195 9.9625 6.05C9.45056 6.02801 8.93948 6.11013 8.4602 6.29139C7.98092 6.47264 7.5434 6.74927 7.17412 7.10452C6.80485 7.45977 6.5115 7.88626 6.31184 8.35817C6.11217 8.83008 6.01033 9.33759 6.0125 9.85C6.00555 10.5638 6.22429 11.2616 6.6375 11.8438C6.66754 11.8771 6.68895 11.9174 6.69984 11.961C6.71074 12.0046 6.71079 12.0501 6.7 12.0938C6.63125 12.3688 6.48125 12.9688 6.45625 13.0875C6.43125 13.2063 6.325 13.2812 6.1625 13.2062C5.06875 12.6937 4.3875 11.1 4.3875 9.8125C4.3875 7.05625 6.39375 4.51875 10.1687 4.51875C13.2 4.51875 15.5625 6.68125 15.5625 9.575C15.5625 12.5875 13.6875 15.0125 11.0187 15.0125C10.6275 15.0261 10.2391 14.9418 9.8887 14.7671C9.53834 14.5925 9.23715 14.3331 9.0125 14.0125L8.46875 16.0938C8.20809 16.9026 7.84247 17.6737 7.38125 18.3875C8.23111 18.6387 9.11386 18.7609 10 18.75C12.3206 18.75 14.5462 17.8281 16.1872 16.1872C17.8281 14.5462 18.75 12.3206 18.75 10C18.75 7.67936 17.8281 5.45376 16.1872 3.81282C14.5462 2.17187 12.3206 1.25 10 1.25Z" fill="#BCA283"/>
</svg>
